<?xml version="1.0" standalone="no"?>
<!DOCTYPE svg PUBLIC "-//W3C//DTD SVG 1.1//EN" "http://www.w3.org/Graphics/SVG/1.1/DTD/svg11.dtd" >
<svg xmlns="http://www.w3.org/2000/svg" xmlns:xlink="http://www.w3.org/1999/xlink" version="1.1">
<metadata>
Created by FontForge 20170731 at Tue Nov  9 01:19:01 2021
 By Aleksey,,,
Copyright (c) 2021 WISEFONT. All rights reserved. Font designed by WISEFONT.
</metadata>
<defs>
<font id="KOHINanumB" horiz-adv-x="920" >
  <font-face 
    font-family="KOHINanum Bold"
    font-weight="700"
    font-stretch="normal"
    units-per-em="1000"
    panose-1="0 0 8 0 0 0 0 0 0 0"
    ascent="800"
    descent="-200"
    x-height="511"
    cap-height="685"
    bbox="-44 -352 978 926"
    underline-thickness="50"
    underline-position="50"
    unicode-range="U+0001-FFE6"
  />
<missing-glyph 
d="M69 -100v800h782v-800h-782zM799 650h-678v-700h678v700z" />
    <glyph glyph-name=".notdef" 
d="M69 -100v800h782v-800h-782zM799 650h-678v-700h678v700z" />
    <glyph glyph-name="glyph1" horiz-adv-x="0" 
 />
    <glyph glyph-name="glyph2" horiz-adv-x="333" 
 />
    <glyph glyph-name="uni0001" horiz-adv-x="281" 
 />
    <glyph glyph-name="uni0001" unicode="&#xa0;" horiz-adv-x="281" 
 />
    <glyph glyph-name="uni0001" unicode=" " horiz-adv-x="281" 
 />
    <glyph glyph-name="uni0001" horiz-adv-x="281" 
 />
    <glyph glyph-name="uni0001" horiz-adv-x="281" 
 />
    <glyph glyph-name="uni0001" horiz-adv-x="281" 
 />
    <glyph glyph-name="uni0001" horiz-adv-x="281" 
 />
    <glyph glyph-name="uni0001" horiz-adv-x="281" 
 />
    <glyph glyph-name="uni0001" horiz-adv-x="281" 
 />
    <glyph glyph-name="uni0001" horiz-adv-x="281" 
 />
    <glyph glyph-name="uni0001" horiz-adv-x="281" 
 />
    <glyph glyph-name="uni0001" horiz-adv-x="281" 
 />
    <glyph glyph-name="uni0001" horiz-adv-x="281" 
 />
    <glyph glyph-name="uni0001" horiz-adv-x="281" 
 />
    <glyph glyph-name="uni0001" horiz-adv-x="281" 
 />
    <glyph glyph-name="uni0001" horiz-adv-x="281" 
 />
    <glyph glyph-name="uni0001" horiz-adv-x="281" 
 />
    <glyph glyph-name="uni0001" horiz-adv-x="281" 
 />
    <glyph glyph-name="uni0001" horiz-adv-x="281" 
 />
    <glyph glyph-name="uni0001" horiz-adv-x="281" 
 />
    <glyph glyph-name="uni0001" horiz-adv-x="281" 
 />
    <glyph glyph-name="uni0001" unicode="&#xd;" horiz-adv-x="281" 
 />
    <glyph glyph-name="uni0001" horiz-adv-x="281" 
 />
    <glyph glyph-name="uni0001" horiz-adv-x="281" 
 />
    <glyph glyph-name="uni0001" unicode="&#xa;" horiz-adv-x="281" 
 />
    <glyph glyph-name="uni0001" unicode="&#x9;" horiz-adv-x="281" 
 />
    <glyph glyph-name="uni0001" horiz-adv-x="281" 
 />
    <glyph glyph-name="uni0001" horiz-adv-x="281" 
 />
    <glyph glyph-name="uni0001" horiz-adv-x="281" 
 />
    <glyph glyph-name="uni0001" horiz-adv-x="281" 
 />
    <glyph glyph-name="uni0001" horiz-adv-x="281" 
 />
    <glyph glyph-name="uni0001" horiz-adv-x="281" 
 />
    <glyph glyph-name="uni0001" horiz-adv-x="281" 
 />
    <glyph glyph-name="uni0001" horiz-adv-x="281" 
 />
    <glyph glyph-name="exclam" unicode="!" horiz-adv-x="316" 
d="M113 123l-19 614h127l-19 -614h-89zM159 -108q-32 0 -54.5 22.5t-22.5 54.5q0 30 21.5 51.5t53.5 21.5q31 0 54.5 -21t23.5 -52q0 -15 -6 -29t-16.5 -24.5t-24.5 -17t-29 -6.5z" />
    <glyph glyph-name="quotedbl" unicode="&#x22;" horiz-adv-x="433" 
d="M97 542l-24 255h106l-23 -255h-59zM238 542l-24 255h103l-22 -255h-57z" />
    <glyph glyph-name="numbersign" unicode="#" horiz-adv-x="648" 
d="M342 -58l28 220h-129l-28 -220h-94l28 220h-74v74h84l23 191h-76v75h87l25 204h94l-26 -204h129l26 204h91l-25 -204h71v-75h-82l-23 -191h74v-74h-84l-27 -220h-92zM403 427h-129l-24 -191h129z" />
    <glyph glyph-name="dollar" unicode="$" horiz-adv-x="579" 
d="M254 -140v86q-46 2 -104 11.5t-108 25.5l24 88q48 -20 97 -27.5t91 -8.5v253q-3 0 -5 2q-44 18 -80 38.5t-61.5 46t-39.5 57t-14 69.5q0 45 16 79t43.5 58.5t64 39t76.5 19.5v84h77v-80q42 -2 84 -8.5t77 -17.5l-21 -88q-34 11 -69.5 17.5t-70.5 8.5v-241
q46 -18 83 -38.5t63 -46t39.5 -58t13.5 -75.5q0 -45 -16 -80t-43 -60t-63.5 -40.5t-76.5 -22.5v-91h-77zM331 42q43 11 67 36t24 66q0 36 -23.5 61.5t-67.5 48.5v-212zM254 608q-39 -8 -65.5 -31t-26.5 -65q0 -35 20.5 -59.5t71.5 -48.5v204z" />
    <glyph glyph-name="percent" unicode="%" horiz-adv-x="821" 
d="M121 -57l494 766h92l-495 -766h-91zM209 319q-72 0 -117 49.5t-45 146.5t45 146.5t117 49.5t117 -49.5t45 -146.5t-45 -146.5t-117 -49.5zM209 397q36 0 53 30.5t17 87.5t-17 87.5t-53 30.5t-53 -30.5t-17 -87.5t17 -87.5t53 -30.5zM612 -66q-72 0 -117 49.5t-45 146.5
t45 146.5t117 49.5t117 -49.5t45 -146.5t-45 -146.5t-117 -49.5zM612 12q36 0 53 30.5t17 87.5t-17 87.5t-53 30.5q-37 0 -53.5 -30.5t-16.5 -87.5t16.5 -87.5t53.5 -30.5z" />
    <glyph glyph-name="ampersand" unicode="&#x26;" horiz-adv-x="760" 
d="M422 546q0 43 -25.5 68t-68.5 25q-48 0 -74 -27.5t-26 -70.5q0 -36 19 -68.5t53 -64.5q54 22 86.5 54t35.5 84zM267 308q-58 -27 -86.5 -64t-28.5 -89q0 -30 10 -54.5t28.5 -42t43.5 -27t55 -9.5q52 0 89.5 24t61.5 64zM585 -55l-81 95q-42 -55 -95 -81.5t-125 -26.5
q-49 0 -92 13.5t-75.5 40t-51 65.5t-18.5 91q0 83 45 139.5t121 88.5q-42 42 -62.5 81.5t-20.5 88.5q0 46 16.5 79.5t44 55.5t63.5 33t74 11q39 0 74 -10t61 -30.5t41 -53t15 -77.5q0 -35 -12.5 -65t-34 -55t-51.5 -45.5t-64 -35.5l146 -160q3 8 6 15.5t2 5.5q14 30 32 68.5
t30 67.5h108q-10 -24 -24 -54t-29 -61t-31 -59.5t-29 -49.5l152 -175h-135z" />
    <glyph glyph-name="quotesingle" unicode="'" horiz-adv-x="253" 
d="M97 550l-24 245h106l-23 -245h-59z" />
    <glyph glyph-name="parenleft" unicode="(" horiz-adv-x="345" 
d="M238 -168q-88 106 -131 231.5t-43 255.5t43 255.5t131 231.5h76q-38 -53 -65 -112t-45 -121.5t-26.5 -127t-8.5 -126.5t8.5 -126t26.5 -126.5t45 -122t65 -112.5h-76z" />
    <glyph glyph-name="parenright" unicode=")" horiz-adv-x="341" 
d="M31 -168q37 53 64.5 112.5t45.5 122t26.5 126.5t8.5 126t-8.5 126.5t-26.5 127t-45.5 121.5t-64.5 112h76q88 -106 131 -231.5t43 -255.5t-43 -255.5t-131 -231.5h-76z" />
    <glyph glyph-name="asterisk" unicode="*" horiz-adv-x="473" 
d="M330 342l-94 113l-93 -113l-68 49l97 113l-129 46l27 74l123 -44v126h87v-126l123 44l27 -74l-129 -46l97 -113z" />
    <glyph glyph-name="plus" unicode="+" horiz-adv-x="689" 
d="M313 66v225h-214v88h214v223h99v-223h213v-88h-213v-225h-99z" />
    <glyph glyph-name="comma" unicode="," horiz-adv-x="284" 
d="M62 -192q13 4 25.5 12.5t22.5 20t16 24t6 25.5q0 16 -12.5 21t-22.5 7q-12 2 -24.5 18.5t-12.5 43.5q0 32 22 53t54 21q22 0 37.5 -9t25.5 -23.5t15 -33.5t5 -39q0 -30 -10 -57.5t-27 -51t-40 -42t-49 -29.5z" />
    <glyph glyph-name="hyphen" unicode="-" horiz-adv-x="609" 
d="M76 291v88h457v-88h-457z" />
    <glyph glyph-name="period" unicode="." horiz-adv-x="284" 
d="M142 -103q-32 0 -54 22.5t-22 54.5q0 30 21.5 51.5t52.5 21.5t54.5 -21t23.5 -52q0 -15 -6 -29t-16.5 -24.5t-24.5 -17t-29 -6.5z" />
    <glyph glyph-name="slash" unicode="/" horiz-adv-x="491" 
d="M20 -155l347 958h105l-347 -958h-105z" />
    <glyph glyph-name="zero" unicode="0" horiz-adv-x="628" 
d="M314 -69q-71 0 -123 27t-86 78t-51 123.5t-17 162.5t17 163.5t51.5 125t86.5 80t122 28.5q69 0 121 -28t86.5 -80t51.5 -125t17 -164t-17 -163.5t-51.5 -123t-86.5 -77.5t-121 -27zM314 24q44 0 75.5 21t52 59.5t30 93.5t9.5 124q0 68 -9.5 124.5t-30 97t-52 62.5
t-75.5 22q-45 0 -76.5 -22t-52 -62.5t-29.5 -97t-9 -124.5t9.5 -123t29.5 -94t51.5 -60t76.5 -21z" />
    <glyph glyph-name="one" unicode="1" horiz-adv-x="628" 
d="M308 -55v658l-157 -98l-45 79l191 123h120v-762h-109z" />
    <glyph glyph-name="two" unicode="2" horiz-adv-x="628" 
d="M78 -55v100q87 77 148.5 135t103.5 104q33 37 55.5 66.5t36 55.5t19 49t5.5 46q0 29 -11.5 52.5t-31.5 40t-46.5 25.5t-56.5 9q-44 0 -90 -17.5t-92 -49.5l-40 78q23 18 51 33t58 25.5t60.5 16t59.5 5.5q54 0 99.5 -14t78.5 -41t52 -67t19 -93q0 -34 -7 -65t-22 -62
t-39.5 -64t-60.5 -71q-39 -42 -92 -92t-124 -113h353v-92h-486z" />
    <glyph glyph-name="three" unicode="3" horiz-adv-x="628" 
d="M98 66q44 -20 93 -31t99 -11q36 0 67 8.5t53 25.5t34.5 43t12.5 61q0 38 -18.5 63.5t-49 41t-69 22t-78.5 6.5h-67v93h69q39 0 74.5 6t62 20.5t42 38t15.5 59.5q-1 59 -40.5 87.5t-104.5 28.5q-42 0 -87.5 -10t-90.5 -33l-32 88q51 23 109 34.5t112 11.5q49 0 93.5 -11.5
t78 -35t53 -60t19.5 -85.5q0 -134 -142 -176v-4q39 -7 69.5 -25t51 -42.5t31 -55t10.5 -63.5q0 -58 -21.5 -101t-58.5 -71.5t-87 -43t-106 -14.5q-60 0 -120 12.5t-108 35.5z" />
    <glyph glyph-name="four" unicode="4" horiz-adv-x="628" 
d="M398 -55v156h-369v98l341 508h138v-514h96v-92h-96v-156h-110zM398 584l-262 -391h262v391z" />
    <glyph glyph-name="five" unicode="5" horiz-adv-x="628" 
d="M94 57q38 -17 85.5 -25t94.5 -8q36 0 68 8.5t56 27.5t38.5 48.5t14.5 70.5q0 43 -18.5 72t-48.5 47t-67.5 25.5t-75.5 7.5q-35 0 -70 -4t-72 -10l16 391h406v-93h-306l-10 -197q30 3 51 3h32q55 0 104.5 -14.5t86.5 -44t59 -73.5t22 -103q0 -63 -22 -110.5t-59.5 -80
t-88.5 -48.5t-108 -16q-56 0 -111.5 8.5t-106.5 29.5z" />
    <glyph glyph-name="six" unicode="6" horiz-adv-x="628" 
d="M500 608q-26 9 -59.5 14.5t-66.5 5.5q-53 0 -91.5 -21t-64.5 -56.5t-40 -82t-19 -96.5h6q30 37 78.5 55t100.5 18q57 0 102 -19t75.5 -53t47 -79.5t16.5 -99.5q0 -57 -19.5 -105t-54 -83.5t-82.5 -55t-106 -19.5q-80 1 -133 32.5t-84 82.5t-43.5 114t-12.5 127
q0 92 19 171t58.5 137t99 91t140.5 33q44 0 85 -6.5t71 -18.5zM323 24q72 0 113.5 46.5t41.5 123.5q0 33 -9 62.5t-27.5 51.5t-46.5 35t-65 13q-38 0 -69 -13t-53 -34.5t-33.5 -49t-11.5 -56.5q0 -32 9 -64t28.5 -57.5t50 -41.5t72.5 -16z" />
    <glyph glyph-name="seven" unicode="7" horiz-adv-x="628" 
d="M197 -55q10 90 32 178t54 172.5t73 165t89 154.5h-376v93h490v-96q-54 -81 -97.5 -167.5t-75.5 -172.5t-52 -169.5t-26 -157.5h-111z" />
    <glyph glyph-name="eight" unicode="8" horiz-adv-x="628" 
d="M455 336q27 -10 53 -26.5t45.5 -40.5t31.5 -55t12 -70q0 -54 -22.5 -94t-61.5 -66t-90 -39.5t-108 -13.5t-108.5 13t-90.5 39.5t-62 66.5t-23 94q0 39 12 70t31.5 55t45.5 40.5t53 26.5v8q-23 10 -45 27t-38.5 39t-26.5 49.5t-10 58.5q0 50 21 88t57 63t83.5 37.5
t99.5 12.5t99.5 -12.5t83.5 -37.5t57.5 -63t21.5 -88q0 -31 -10 -58.5t-27 -49.5t-39 -39t-45 -27v-8zM487 156q0 36 -17 62t-42.5 42.5t-55.5 24.5t-57 8q-28 0 -58.5 -8t-56 -24.5t-42.5 -42.5t-17 -62q0 -33 13.5 -58t37 -42t55.5 -25.5t68 -8.5t67 8.5t54.5 25.5t37 42
t13.5 58zM469 510q0 28 -12 50.5t-33 38.5t-49.5 24t-60.5 8t-60 -8t-49 -24t-33 -38.5t-12 -50.5q0 -33 13.5 -57.5t35.5 -40t49.5 -23.5t55.5 -8t56 8t50 23.5t35.5 40t13.5 57.5z" />
    <glyph glyph-name="nine" unicode="9" horiz-adv-x="628" 
d="M462 277q-30 -37 -78.5 -55t-100.5 -18q-57 0 -102 19t-75.5 53t-47 79.5t-16.5 99.5q0 57 19.5 105t54 83.5t82.5 55t106 19.5q80 -1 133 -32.5t84 -82.5t43.5 -114t12.5 -127q0 -92 -19 -171t-58 -137t-98.5 -91t-140.5 -33q-45 0 -86 6.5t-71 18.5l24 86
q26 -9 59 -14.5t66 -5.5q54 0 92.5 21t64 56.5t40 82t19.5 96.5h-7zM465 446q0 32 -9.5 64t-29 57.5t-50 41.5t-72.5 16q-72 0 -113.5 -46.5t-41.5 -123.5q0 -33 9 -62.5t28 -51.5t46.5 -35t65.5 -13t69 13t52.5 34.5t33.5 49t12 56.5z" />
    <glyph glyph-name="colon" unicode=":" horiz-adv-x="325" 
d="M164 449q-32 0 -54 22.5t-22 54.5q0 30 21.5 51.5t52.5 21.5t54.5 -21t23.5 -52q0 -15 -6 -29t-16.5 -24.5t-24.5 -17t-29 -6.5zM164 42q-32 0 -54 22.5t-22 54.5q0 30 21.5 51.5t52.5 21.5t54.5 -21t23.5 -52q0 -15 -6 -29t-16.5 -24.5t-24.5 -17t-29 -6.5z" />
    <glyph glyph-name="semicolon" unicode=";" horiz-adv-x="332" 
d="M93 -36q26 8 48 30.5t22 48.5q0 16 -11 21.5t-22 9.5q-12 4 -25.5 18.5t-13.5 41.5q0 32 22 52.5t54 20.5q20 0 35.5 -8.5t26 -22.5t16 -32.5t5.5 -38.5q0 -29 -9.5 -57t-26.5 -52t-40 -42.5t-50 -28.5zM166 448q-32 0 -54 22.5t-22 54.5q0 30 21.5 51.5t52.5 21.5
t54.5 -21t23.5 -52q0 -15 -6 -29t-16.5 -24.5t-24.5 -17t-29 -6.5z" />
    <glyph glyph-name="less" unicode="&#x3c;" horiz-adv-x="474" 
d="M366 -168l-303 485l303 485l72 -32l-256 -453l256 -452z" />
    <glyph glyph-name="equal" unicode="=" horiz-adv-x="652" 
d="M93 399v88h465v-88h-465zM93 161v87h465v-87h-465z" />
    <glyph glyph-name="greater" unicode="&#x3e;" horiz-adv-x="474" 
d="M36 -135l255 452l-255 453l72 32l303 -485l-303 -485z" />
    <glyph glyph-name="question" unicode="?" horiz-adv-x="500" 
d="M173 112v68q0 30 6 56t20 51.5t37 51.5t58 55q32 27 53.5 62.5t21.5 77.5q0 31 -11 52.5t-29.5 35t-42.5 20t-51 6.5q-17 0 -38 -4t-44 -10.5t-46 -16.5t-44 -22l-38 83q21 12 48.5 23t57.5 19.5t60 13.5t56 5q45 0 86.5 -11t73.5 -35t51 -62t19 -92q0 -66 -30.5 -118
t-93.5 -103q-42 -35 -61.5 -68.5t-19.5 -78.5v-59h-99zM225 -108q-32 0 -54.5 22.5t-22.5 54.5q0 30 21.5 51.5t52.5 21.5q32 0 55.5 -21t23.5 -52q0 -15 -6 -29t-16.5 -24.5t-24.5 -17t-29 -6.5z" />
    <glyph glyph-name="at" unicode="@" horiz-adv-x="1001" 
d="M468 62q40 0 66 19.5t42.5 50.5t25 68.5t11.5 72.5q2 25 -1.5 49.5t-14.5 44t-30 32t-48 12.5q-35 0 -62 -21t-45 -53t-27.5 -71t-9.5 -76q0 -20 4 -42.5t14.5 -41.5t28.5 -31.5t46 -12.5zM815 -201q-68 -29 -141 -42.5t-149 -13.5q-116 0 -206.5 35.5t-153 99.5
t-95.5 152.5t-33 194.5q0 109 37.5 200.5t103.5 157t155.5 102t194.5 36.5q90 0 169.5 -25.5t139 -76.5t94 -128.5t34.5 -181.5q0 -79 -18 -141.5t-49.5 -105.5t-75.5 -66t-96 -23q-25 0 -45.5 7.5t-35.5 19.5t-24 27t-10 29l-5 -1q-9 -16 -25 -31t-36.5 -26t-45 -18
t-50.5 -7q-45 0 -78 18t-54.5 48t-31.5 70t-10 85q0 57 17 111.5t48.5 97t76.5 68.5t100 26q42 0 75 -19.5t50 -53.5h7l9 52h89l-50 -250q-6 -33 -9.5 -63.5t-0.5 -54t15 -37t37 -13.5q30 0 55 19.5t42.5 52.5t27.5 77t10 92q1 81 -24 143.5t-71 105.5t-110.5 65.5
t-141.5 22.5q-89 0 -161.5 -31.5t-123.5 -87t-79 -131t-28 -163.5q0 -92 27.5 -164.5t78.5 -123.5t125 -78t167 -27q70 0 137 13t124 36z" />
    <glyph glyph-name="A" unicode="A" horiz-adv-x="728" 
d="M607 -55l-77 211h-334l-77 -211h-116l293 762h137l291 -762h-117zM363 620l-134 -372h267z" />
    <glyph glyph-name="B" unicode="B" horiz-adv-x="671" 
d="M88 -55v762h282q49 0 90.5 -11t72 -34.5t48 -59.5t17.5 -86q0 -70 -35.5 -111.5t-94.5 -58.5v-8q31 -8 58.5 -23t48.5 -37t33.5 -52.5t12.5 -70.5q0 -42 -14 -80.5t-43.5 -67t-75 -45.5t-107.5 -17h-293zM332 382q79 1 116.5 28t39.5 88q-2 37 -12.5 59t-30 34
t-46.5 16.5t-61 6.5h-140v-232h134zM352 37q35 0 64.5 6t50.5 20.5t32.5 38.5t11.5 61t-14.5 61.5t-39 38.5t-57.5 20t-69 6h-133v-252h154z" />
    <glyph glyph-name="C" unicode="C" horiz-adv-x="644" 
d="M612 -38q-40 -19 -85.5 -25t-96.5 -6q-86 0 -155 29t-117 81t-74 124.5t-26 158.5t25 158.5t73.5 125t119 82t160.5 29.5q48 0 92 -6.5t79 -20.5l-28 -89q-29 12 -64.5 18.5t-71.5 6.5q-70 -2 -121.5 -25.5t-85.5 -63.5t-51 -95t-17 -121q-1 -60 16.5 -114t52 -95.5
t86 -65.5t119.5 -24q41 0 78.5 6t67.5 20z" />
    <glyph glyph-name="D" unicode="D" horiz-adv-x="754" 
d="M88 -55v762h232q90 0 160 -26.5t118 -75.5t73 -119t25 -158q0 -89 -25 -160t-73 -120.5t-118 -76t-160 -26.5h-232zM302 37q76 0 130 21t88 59t50 91.5t16 118.5t-16.5 118t-51 90.5t-88.5 58t-128 20.5h-104v-577h104z" />
    <glyph glyph-name="E" unicode="E" horiz-adv-x="574" 
d="M88 -55v762h435v-93h-325v-232h301v-93h-301v-252h335v-92h-445z" />
    <glyph glyph-name="F" unicode="F" horiz-adv-x="543" 
d="M88 -55v762h422v-93h-312v-232h290v-93h-290v-344h-110z" />
    <glyph glyph-name="G" unicode="G" horiz-adv-x="764" 
d="M566 278h-178v94h288v-392q-61 -30 -121.5 -39.5t-120.5 -9.5q-87 0 -157 29t-119 80.5t-75 124t-26 159.5q-1 86 25 159t76 125.5t123 81.5t167 29q54 0 107 -9.5t100 -28.5l-33 -91q-35 19 -81.5 28.5t-91.5 9.5q-68 0 -120 -22t-87.5 -62t-54.5 -96.5t-20 -125.5
q1 -62 19 -116.5t52.5 -95t85 -63.5t118.5 -23q35 0 65 4.5t59 17.5v232z" />
    <glyph glyph-name="H" unicode="H" horiz-adv-x="745" 
d="M547 -55v344h-349v-344h-110v762h110v-325h349v325h110v-762h-110z" />
    <glyph glyph-name="I" unicode="I" horiz-adv-x="285" 
d="M88 -55v762h110v-762h-110z" />
    <glyph glyph-name="J" unicode="J" horiz-adv-x="344" 
d="M0 28q15 -2 30.5 -3t27.5 -1q54 0 77 23.5t23 80.5v579h110v-585q2 -94 -43.5 -142.5t-147.5 -48.5q-16 0 -37 1.5t-40 4.5v91z" />
    <glyph glyph-name="K" unicode="K" horiz-adv-x="651" 
d="M500 -55l-223 367l-79 -93v-274h-110v762h110v-343l282 343h133l-266 -312l290 -450h-137z" />
    <glyph glyph-name="L" unicode="L" horiz-adv-x="544" 
d="M88 -55v762h110v-670h331v-92h-441z" />
    <glyph glyph-name="M" unicode="M" horiz-adv-x="931" 
d="M740 -55v656h-6l-208 -656h-130l-200 656h-4v-656h-104v762h176l197 -670l204 670h179v-762h-104z" />
    <glyph glyph-name="N" unicode="N" horiz-adv-x="757" 
d="M517 -55l-321 648h-3v-648h-105v762h157l315 -643h4v643h105v-762h-152z" />
    <glyph glyph-name="O" unicode="O" horiz-adv-x="806" 
d="M404 -69q-83 0 -147.5 29.5t-108.5 82t-66.5 124.5t-22.5 158q0 87 22.5 159t66.5 124.5t108.5 81.5t147.5 29t147.5 -29t108 -81t66 -124.5t22.5 -159.5q0 -86 -22.5 -158t-66.5 -124.5t-108 -82t-147 -29.5zM404 24q60 0 104 23.5t73.5 64.5t43.5 95.5t14 117.5
t-15 118t-44.5 96.5t-73.5 65t-102 23.5q-59 0 -103.5 -24t-73.5 -65.5t-43.5 -96.5t-14.5 -117q0 -63 14 -117.5t43 -95.5t73.5 -64.5t104.5 -23.5z" />
    <glyph glyph-name="P" unicode="P" horiz-adv-x="649" 
d="M88 -55v762h263q52 0 99.5 -11.5t82.5 -37.5t56 -69t21 -107q0 -65 -21 -110t-56.5 -72.5t-82.5 -40t-98 -12.5h-154v-302h-110zM339 341q32 0 61.5 6.5t51.5 22t35 42t13 66.5t-13 66.5t-35.5 42t-53.5 21.5t-67 6h-133v-273h141z" />
    <glyph glyph-name="Q" unicode="Q" horiz-adv-x="806" 
d="M617 -179q-30 0 -55 9.5t-45 25t-34 36.5t-21 44q-14 -2 -28.5 -3.5t-29.5 -1.5q-83 0 -147.5 29.5t-108.5 82t-66.5 124.5t-22.5 158q0 87 22.5 159t66.5 124.5t108.5 81.5t147.5 29t147.5 -29t108 -81t66 -124.5t22.5 -159.5q0 -125 -47 -219t-137 -139q10 -33 37 -47
t70 -14h49v-85h-103zM404 24q60 0 104 23.5t73.5 64.5t43.5 95.5t14 117.5t-15 118t-44.5 96.5t-73.5 65t-102 23.5q-59 0 -103.5 -24t-73.5 -65.5t-43.5 -96.5t-14.5 -117q0 -63 14 -117.5t43 -95.5t73.5 -64.5t104.5 -23.5z" />
    <glyph glyph-name="R" unicode="R" horiz-adv-x="669" 
d="M534 -55q-9 16 -15 36t-10 37l-32 138q-8 34 -19 57t-30 36t-48.5 18.5t-74.5 5.5h-107v-328h-110v762h275q49 0 94 -11t78.5 -35.5t53.5 -63t20 -93.5q0 -32 -10 -61t-28.5 -52.5t-44.5 -41t-57 -25.5v-6q20 -7 37.5 -16.5t31.5 -24.5t24.5 -38t17.5 -56l33 -153
q9 -45 34 -85h-113zM333 367q78 0 120.5 27.5t45.5 96.5q0 38 -14 62t-36.5 37.5t-51.5 18.5t-59 5h-140v-247h135z" />
    <glyph glyph-name="S" unicode="S" horiz-adv-x="580" 
d="M66 62q53 -23 105 -30.5t97 -7.5q73 0 115 29t42 85q0 52 -45 85t-129 67q-45 18 -81 40t-62 48.5t-40 59t-14 72.5q0 54 21.5 93.5t57 65t81 38t93.5 12.5q51 0 99 -6.5t90 -21.5l-21 -91q-39 13 -81.5 20.5t-82.5 7.5q-29 0 -55.5 -5.5t-47 -18.5t-33 -33t-12.5 -50
q0 -23 8.5 -41t27.5 -34.5t49 -32.5t73 -33q50 -19 89.5 -40.5t67.5 -48.5t42.5 -62t14.5 -81q0 -56 -22.5 -97t-59.5 -67.5t-84.5 -39.5t-98.5 -13q-24 0 -52.5 2.5t-58.5 7.5t-60 12.5t-57 16.5z" />
    <glyph glyph-name="T" unicode="T" horiz-adv-x="575" 
d="M240 -55v669h-231v93h556v-93h-215v-669h-110z" />
    <glyph glyph-name="U" unicode="U" horiz-adv-x="728" 
d="M542 707h110v-529q0 -55 -21 -100.5t-59 -78t-91 -50.5t-117 -18t-117 18t-91 50.5t-59 78t-21 100.5v529h109v-514q0 -42 13.5 -74t37 -53.5t56 -32t71.5 -9.5q42 0 75 12.5t56.5 34t35.5 52t12 66.5v518z" />
    <glyph glyph-name="V" unicode="V" horiz-adv-x="686" 
d="M280 -55l-277 762h120l219 -655l221 655h119l-278 -762h-124z" />
    <glyph glyph-name="W" unicode="W" horiz-adv-x="1010" 
d="M641 -55l-132 662h-4l-137 -662h-152l-178 762h120l136 -657h2l128 657h165l125 -657h4l138 657h116l-178 -762h-153z" />
    <glyph glyph-name="X" unicode="X" horiz-adv-x="657" 
d="M522 -55l-193 320l-196 -320h-129l253 396l-229 366h128l176 -293l180 293h122l-230 -366l249 -396h-131z" />
    <glyph glyph-name="Y" unicode="Y" horiz-adv-x="674" 
d="M282 -55v299l-279 463h131l205 -359l206 359h126l-279 -463v-299h-110z" />
    <glyph glyph-name="Z" unicode="Z" horiz-adv-x="621" 
d="M41 -55v95l402 574h-371v93h497v-96l-402 -574h412v-92h-538z" />
    <glyph glyph-name="bracketleft" unicode="[" horiz-adv-x="341" 
d="M109 -173v990h196v-78h-97v-835h97v-77h-196z" />
    <glyph glyph-name="backslash" unicode="\" horiz-adv-x="474" 
d="M348 -155l-327 958h105l327 -958h-105z" />
    <glyph glyph-name="bracketright" unicode="]" horiz-adv-x="341" 
d="M36 -173v77h97v835h-97v78h196v-990h-196z" />
    <glyph glyph-name="asciicircum" unicode="^" horiz-adv-x="580" 
d="M426 446l-141 258l-140 -258h-107l204 360h85l206 -360h-107z" />
    <glyph glyph-name="underscore" unicode="_" horiz-adv-x="478" 
d="M15 -193v82h447v-82h-447z" />
    <glyph glyph-name="grave" unicode="`" horiz-adv-x="270" 
d="M154 581l-129 202h120l93 -202h-84z" />
    <glyph glyph-name="a" unicode="a" horiz-adv-x="600" 
d="M434 -55q-5 10 -7.5 26.5t-3.5 32.5h-3q-15 -14 -35 -27t-43.5 -23.5t-50 -16.5t-53.5 -6q-35 0 -69.5 9.5t-62 30t-44.5 53t-17 79.5q0 51 20.5 87t57 60t88 36.5t113.5 15.5q25 1 49 2.5t39 5.5v10q0 62 -34.5 91t-106.5 29q-15 0 -35.5 -2t-42 -6t-43.5 -9.5
t-40 -12.5l-21 81q20 8 44.5 14t49.5 10.5t50 6.5t46 2q243 0 243 -209v-244q0 -29 1.5 -63t6.5 -63h-96zM412 236q-20 -4 -41 -5t-41 -2q-39 -2 -72 -9t-56.5 -21.5t-37 -36.5t-13.5 -53q0 -44 26 -69.5t77 -25.5q42 0 72 12t49 32t28 47.5t9 59.5v71z" />
    <glyph glyph-name="b" unicode="b" horiz-adv-x="664" 
d="M80 -55v784h110v-284h3q36 45 83 62t98 17q55 0 99.5 -23t75.5 -62.5t47.5 -93.5t16.5 -117q0 -62 -16.5 -116t-47.5 -94.5t-75.5 -63.5t-100.5 -23q-23 0 -47.5 3.5t-48 12.5t-44.5 24t-37 38h-6v-64h-110zM190 190q0 -36 11.5 -67.5t32.5 -55t50 -37t64 -13.5
q40 0 69 17t48 46t28.5 67t9.5 81q0 45 -9.5 83.5t-29 67t-48.5 45t-68 16.5q-35 0 -64 -13.5t-50 -36.5t-32.5 -52.5t-11.5 -60.5v-87z" />
    <glyph glyph-name="c" unicode="c" horiz-adv-x="508" 
d="M482 -51q-31 -11 -67 -14.5t-68 -3.5q-74 0 -128.5 23t-91.5 62.5t-55 93.5t-18 117q0 65 20 119.5t57.5 94t91.5 61.5t123 22q35 0 69.5 -4t60.5 -12l-22 -83q-23 8 -50 11.5t-51 3.5q-47 0 -82.5 -16.5t-59.5 -45.5t-36 -68t-12 -83t12.5 -82t36.5 -66.5t60 -45
t83 -16.5q27 0 55 3.5t52 11.5z" />
    <glyph glyph-name="d" unicode="d" horiz-adv-x="664" 
d="M475 -55v64h-6q-17 -23 -38 -38t-44.5 -24t-48 -12.5t-47.5 -3.5q-56 0 -100.5 23t-75.5 63.5t-47.5 94.5t-16.5 116q0 63 16.5 117t47.5 93.5t75 62.5t100 23q51 0 98 -17t84 -62h3v284h109v-784h-109zM475 277q0 31 -11.5 60.5t-32.5 52.5t-50.5 36.5t-64.5 13.5
q-39 0 -68 -16.5t-48 -45t-28.5 -67t-9.5 -83.5q0 -43 9 -81t28 -67t48 -46t69 -17q34 0 63.5 13.5t50.5 37t33 55t12 67.5v87z" />
    <glyph glyph-name="e" unicode="e" horiz-adv-x="613" 
d="M522 -44q-37 -14 -79 -19.5t-90 -5.5q-73 0 -129.5 22t-95 61.5t-58.5 94t-20 118.5q0 65 19 119.5t54.5 94t85 61.5t110.5 22q121 0 183 -71t62 -200v-47h-404q4 -42 20 -77t42.5 -59.5t62.5 -38.5t79 -14q36 0 73 4t70 14zM460 287q-2 73 -39 115.5t-102 42.5
q-67 0 -109.5 -43t-50.5 -115h301z" />
    <glyph glyph-name="f" unicode="f" horiz-adv-x="359" 
d="M112 -55v482h-105v84h105v47q0 40 9.5 73t31.5 57t59 37t91 13q24 0 46.5 -2.5t43.5 -7.5l-8 -82q-17 4 -36.5 5t-33.5 1q-52 0 -72.5 -23.5t-20.5 -82.5v-35h128v-84h-128v-482h-110z" />
    <glyph glyph-name="g" unicode="g" horiz-adv-x="662" 
d="M475 37h-6q-17 -23 -38 -38t-44.5 -24t-48 -12.5t-47.5 -3.5q-56 0 -100.5 21t-75.5 58.5t-47.5 89t-16.5 113.5q0 63 16.5 115t47.5 89.5t75 58t100 20.5q51 0 98 -17t84 -62h3v66h109l-1 -527q0 -66 -23.5 -113.5t-63 -78.5t-91 -46t-107.5 -15q-48 0 -97.5 6.5
t-87.5 18.5l24 83q35 -12 72 -17t79 -5q95 0 141 43.5t46 124.5v52zM475 287q0 31 -11.5 59t-32.5 49t-50.5 33t-64.5 12q-39 0 -68 -14.5t-48 -40.5t-28.5 -62.5t-9.5 -81.5q0 -43 9 -79t28 -62t48 -40.5t69 -14.5q34 0 63.5 13.5t50.5 37t33 55t12 67.5v69z" />
    <glyph glyph-name="h" unicode="h" horiz-adv-x="651" 
d="M466 -55v328q0 40 -6 71t-20.5 52.5t-39 32.5t-62.5 11q-27 0 -53.5 -10t-47.5 -31.5t-34 -56t-13 -82.5v-315h-110v784h110v-285h7q32 42 78 61t100 19q94 0 148 -55t54 -150v-374h-111z" />
    <glyph glyph-name="i" unicode="i" horiz-adv-x="271" 
d="M80 -55v566h110v-566h-110zM206 667q0 -29 -21 -49t-51 -20t-50.5 20t-20.5 49t20.5 49.5t50.5 20.5t51 -20.5t21 -49.5z" />
    <glyph glyph-name="j" unicode="j" horiz-adv-x="271" 
d="M-42 -181q11 -2 21 -2h21q45 0 62.5 22.5t17.5 76.5v595h110v-610q0 -82 -39.5 -125t-131.5 -45q-14 0 -29.5 1t-31.5 3v84zM208 667q0 -29 -21 -49t-51 -20t-50.5 20t-20.5 49t20.5 49.5t50.5 20.5t51 -20.5t21 -49.5z" />
    <glyph glyph-name="k" unicode="k" horiz-adv-x="574" 
d="M431 -55l-187 259l-54 -54v-205h-110v793h110v-461l224 234h136l-238 -238l251 -328h-132z" />
    <glyph glyph-name="l" unicode="l" horiz-adv-x="270" 
d="M80 -55v793h110v-793h-110z" />
    <glyph glyph-name="m" unicode="m" horiz-adv-x="994" 
d="M810 -55v328q0 34 -4.5 64.5t-17.5 53.5t-36 36t-62 13q-25 0 -49 -8.5t-43 -26.5t-30.5 -46t-11.5 -67v-347h-109v335q0 37 -5 67t-18 50.5t-36 31.5t-60 11q-26 0 -50.5 -9.5t-44 -30t-31.5 -53.5t-12 -81v-321h-110v566h106v-73h4q13 21 32.5 37.5t42.5 27t49 16
t52 5.5q61 0 103.5 -23.5t65.5 -75.5q30 50 80.5 75t103.5 24q51 0 89 -15t63 -42t37 -64.5t12 -83.5v-374h-110z" />
    <glyph glyph-name="n" unicode="n" horiz-adv-x="652" 
d="M466 -55v328q0 39 -6 70t-20.5 52.5t-39 33t-62.5 11.5q-27 0 -53.5 -10t-47.5 -31.5t-34 -55.5t-13 -83v-315h-110v566h106v-81h2q26 42 74.5 68t112.5 26q94 0 148 -55t54 -150v-374h-111z" />
    <glyph glyph-name="o" unicode="o" horiz-adv-x="652" 
d="M325 -69q-62 0 -112.5 20.5t-85.5 59.5t-54 94t-19 124t19 124t54 93t85.5 58t112.5 20q63 0 113.5 -20t86.5 -58t55 -92.5t19 -124.5q0 -69 -19 -124t-55 -94t-86.5 -59.5t-113.5 -20.5zM325 17q42 0 73 15.5t51.5 43t30.5 66.5t10 87q0 46 -10 84.5t-30 66.5t-51 44
t-74 16q-41 0 -71.5 -16t-50.5 -44t-30 -67t-10 -84q0 -96 40.5 -153.5t121.5 -58.5z" />
    <glyph glyph-name="p" unicode="p" horiz-adv-x="664" 
d="M80 -269v779h110v-65h3q36 45 83 62t98 17q55 0 99.5 -23t75.5 -62.5t47.5 -93.5t16.5 -117q0 -62 -16.5 -116t-47.5 -94.5t-75.5 -63.5t-100.5 -23q-23 0 -47.5 3.5t-48 12.5t-44.5 24t-37 38h-6v-278h-110zM190 190q0 -36 11.5 -67.5t32.5 -55t50 -37t64 -13.5
q40 0 69 17t48 46t28.5 67t9.5 81q0 45 -9.5 83.5t-29 67t-48.5 45t-68 16.5q-35 0 -64 -13.5t-50 -36.5t-32.5 -52.5t-11.5 -60.5v-87z" />
    <glyph glyph-name="q" unicode="q" horiz-adv-x="664" 
d="M475 -269v278h-6q-17 -23 -38 -38t-44.5 -24t-48 -12.5t-47.5 -3.5q-56 0 -100.5 23t-75.5 63.5t-47.5 94.5t-16.5 116q0 63 16.5 117t47.5 93.5t75 62.5t100 23q51 0 98 -17t84 -62h3v65h109v-779h-109zM475 277q0 31 -11.5 60.5t-32.5 52.5t-50.5 36.5t-64.5 13.5
q-39 0 -68 -16.5t-48 -45t-28.5 -67t-9.5 -83.5q0 -43 9 -81t28 -67t48 -46t69 -17q34 0 63.5 13.5t50.5 37t33 55t12 67.5v87z" />
    <glyph glyph-name="r" unicode="r" horiz-adv-x="389" 
d="M80 -55v566h106v-65h4q23 38 64 58t92 20h17t18 -1l-5 -86q-18 3 -40 3q-29 1 -55.5 -9.5t-47 -34t-32.5 -60.5t-11 -89v-302h-110z" />
    <glyph glyph-name="s" unicode="s" horiz-adv-x="505" 
d="M65 51q46 -18 94.5 -26t82.5 -8q51 0 81 15.5t31 57.5q0 33 -31.5 55.5t-103.5 45.5q-85 29 -124.5 69t-39.5 99q0 43 18.5 74t48 51.5t65.5 30t72 9.5q44 0 88.5 -7t80.5 -21l-26 -80q-41 14 -75 19t-70 5q-18 0 -35.5 -4t-32 -12t-23.5 -21.5t-9 -31.5q0 -16 6 -28.5
t20 -23.5t37 -21.5t57 -21.5q42 -16 76 -32.5t57 -37.5t35.5 -47.5t12.5 -62.5q0 -46 -19.5 -77.5t-50.5 -51t-70 -28t-78 -8.5q-47 0 -100 8.5t-100 25.5z" />
    <glyph glyph-name="t" unicode="t" horiz-adv-x="374" 
d="M344 -56q-18 -2 -41.5 -4t-46.5 -2q-47 0 -76 11t-45 31t-21.5 49.5t-5.5 67.5v330h-96v84h96v150h110v-150h127v-84h-127v-307q0 -32 2.5 -51t11 -29t23.5 -13.5t40 -3.5h26.5t22.5 2v-81z" />
    <glyph glyph-name="u" unicode="u" horiz-adv-x="651" 
d="M463 -55v65h-3q-25 -38 -75 -58.5t-107 -20.5q-48 0 -85.5 14.5t-63.5 41.5t-40 64.5t-14 84.5v375h109v-327q0 -39 6 -69.5t21 -52.5t40 -33.5t63 -11.5q27 0 53.5 10t47 31.5t33 56t12.5 83.5v313h111v-566h-108z" />
    <glyph glyph-name="v" unicode="v" horiz-adv-x="565" 
d="M229 -55l-225 566h120l159 -456l162 456h116l-225 -566h-107z" />
    <glyph glyph-name="w" unicode="w" horiz-adv-x="890" 
d="M572 -55l-129 481l-127 -481h-126l-166 566h114l114 -460h5l123 460h130l123 -460h5l114 460h112l-166 -566h-126z" />
    <glyph glyph-name="x" unicode="x" horiz-adv-x="555" 
d="M419 -55l-139 228l-145 -228h-124l196 293l-180 273h123l131 -211l132 211h118l-180 -272l194 -294h-126z" />
    <glyph glyph-name="y" unicode="y" horiz-adv-x="568" 
d="M137 -269l92 222l-226 558h121l162 -441l162 441h115l-310 -780h-116z" />
    <glyph glyph-name="z" unicode="z" horiz-adv-x="526" 
d="M41 -55v85l307 397h-283v84h411v-88l-305 -394h316v-84h-446z" />
    <glyph glyph-name="braceleft" unicode="{" horiz-adv-x="341" 
d="M233 -176q-52 0 -77 39t-25 99v199q0 56 -19 92t-63 38v67q44 2 63 37.5t19 92.5v193q0 60 25 98.5t77 38.5h72v-74h-43q-17 0 -28.5 -13.5t-11.5 -56.5v-203q0 -45 -19.5 -86t-62.5 -58v-6q43 -17 62.5 -58t19.5 -85v-209q0 -22 3 -35.5t8.5 -21.5t13 -11t15.5 -3h43
v-74h-72z" />
    <glyph glyph-name="bar" unicode="|" horiz-adv-x="417" 
d="M164 -151v947h90v-947h-90z" />
    <glyph glyph-name="braceright" unicode="}" horiz-adv-x="341" 
d="M49 -176v74h44q8 0 15 3t12.5 11t8.5 21.5t3 35.5v209q0 44 20 85t62 58v6q-42 17 -62 58t-20 86v203q0 43 -11.5 56.5t-27.5 13.5h-44v74h73q52 0 77 -38.5t25 -98.5v-193q0 -57 18.5 -92.5t62.5 -37.5v-67q-44 -2 -62.5 -38.5t-18.5 -91.5v-199q0 -60 -25 -99t-77 -39
h-73z" />
    <glyph glyph-name="asciitilde" unicode="~" horiz-adv-x="643" 
d="M585 373q-20 -68 -61 -102.5t-97 -34.5q-43 0 -74 19.5t-59 42.5q-21 17 -40.5 30.5t-41.5 13.5q-23 0 -48.5 -20t-39.5 -57l-67 30q6 27 21 52.5t36 46t46.5 32.5t52.5 12q42 0 75 -20t60 -42q21 -17 41 -30.5t43 -13.5q21 0 46.5 18.5t40.5 58.5z" />
    <glyph glyph-name="exclamdown" unicode="&#xa1;" horiz-adv-x="316" 
d="M96 -334l19 614h89l20 -614h-128zM235 434q0 -30 -21.5 -51.5t-52.5 -21.5q-32 0 -55.5 21t-23.5 52q0 15 6 29t16.5 24.5t24.5 17t30 6.5q32 0 54 -22.5t22 -54.5z" />
    <glyph glyph-name="cent" unicode="&#xa2;" horiz-adv-x="508" 
d="M126 -216l51 191q-62 38 -92.5 104t-30.5 148q0 62 18.5 115t53 92t85 62.5t114.5 26.5l52 190l84 -14l-48 -179q17 -2 33 -5t30 -7l-22 -83q-14 5 -30.5 8t-33.5 5l-110 -408q33 -13 75 -13q27 0 55 3.5t52 11.5l20 -83q-31 -11 -67 -14.5t-68 -3.5q-49 0 -91 11
l-46 -172zM301 434q-34 -9 -60 -28t-43 -46.5t-26 -61.5t-9 -71q0 -42 10.5 -78t32.5 -65z" />
    <glyph glyph-name="sterling" unicode="&#xa3;" horiz-adv-x="586" 
d="M565 -26q-26 -11 -45.5 -17.5t-34.5 -10.5t-27 -5.5t-23 -1.5q-37 0 -77.5 8.5t-86.5 25.5q-14 5 -30 7.5t-30 2.5q-35 0 -75 -11t-77 -34l-49 101q27 13 50 35t40 48.5t27 56t10 59.5q0 11 -1 22.5t-6 25.5h-102v96h74q-8 30 -15.5 60t-7.5 62q0 52 18.5 93.5t50.5 70.5
t74.5 44.5t91.5 15.5q91 0 152.5 -55t78.5 -158l-98 -16q-11 63 -47.5 97.5t-87.5 34.5q-24 0 -47 -8.5t-40.5 -23.5t-28 -35.5t-10.5 -44.5q0 -26 7 -60.5t18 -76.5h163v-96h-140q6 -33 6 -63q0 -34 -12 -68t-41 -75h23q31 0 66.5 -6t64.5 -14q23 -6 47.5 -9t42.5 -3
q17 0 41 6.5t58 22.5z" />
    <glyph glyph-name="currency" unicode="&#xa4;" horiz-adv-x="617" 
d="M502 53l-80 83q-26 -13 -54.5 -21t-61.5 -8q-64 0 -114 26l-77 -80l-73 70l73 75q-20 29 -31.5 63t-11.5 72q0 77 43 134l-73 76l72 70l79 -80q52 26 113 26q67 0 117 -28l80 82l72 -70l-74 -78q39 -56 39 -132t-39 -132q17 -20 37 -40.5t37 -37.5zM306 201q60 0 94.5 37
t34.5 95t-34.5 95.5t-94.5 37.5q-59 0 -94 -37.5t-35 -95.5t35 -95t94 -37z" />
    <glyph glyph-name="yen" unicode="&#xa5;" horiz-adv-x="674" 
d="M392 54v-109h-110v109h-188v101h188v76h-188v101h135l-226 375h131l205 -359l206 359h126l-226 -375h136v-101h-189v-76h189v-101h-189z" />
    <glyph glyph-name="brokenbar" unicode="&#xa6;" horiz-adv-x="365" 
d="M134 -270v416h97v-416h-97zM134 312v416h97v-416h-97z" />
    <glyph glyph-name="section" unicode="&#xa7;" horiz-adv-x="552" 
d="M163 -52q7 -36 18 -59t25.5 -36.5t33.5 -19t42 -5.5q51 0 78 23t27 55q0 13 -3.5 23t-13.5 22q-15 17 -61 51t-108 74q-33 17 -61.5 36t-44.5 33q-14 11 -26.5 27.5t-22 35.5t-15.5 39.5t-6 38.5q0 44 26.5 82t75.5 64q-32 38 -43 66.5t-11 58.5q0 39 15.5 69.5t42 52
t61.5 33t74 11.5q91 0 145 -50.5t71 -139.5l-105 -14q-11 64 -37.5 87.5t-68.5 23.5t-69 -20t-27 -47q0 -11 5 -23.5t16 -26.5q7 -8 21 -20t32 -25t39.5 -26.5t43.5 -25.5l88 -58l38 -25q36 -24 52.5 -61t16.5 -78q0 -47 -27.5 -82.5t-75.5 -62.5q68 -66 68 -141
q0 -36 -16.5 -67.5t-44.5 -55.5t-66.5 -37.5t-81.5 -11.5q-96 0 -155.5 50t-73.5 143zM372 98q27 20 41 40t14 37q0 13 -7 30.5t-19 30.5q-6 6 -19 17t-38 29t-63.5 44t-94.5 63q-37 -23 -50.5 -47t-13.5 -47q0 -30 20 -53q21 -22 47.5 -40.5t53.5 -35.5q28 -16 46.5 -27.5
t31 -19t19.5 -12.5t12 -9h20z" />
    <glyph glyph-name="dieresis" unicode="&#xa8;" horiz-adv-x="385" 
d="M174 664q0 -29 -21 -49.5t-52 -20.5q-29 0 -50 20.5t-21 49.5t21 50t50 21q31 0 52 -21t21 -50zM355 664q0 -29 -21.5 -49.5t-50.5 -20.5q-31 0 -51 20.5t-20 49.5t20 50t51 21q29 0 50.5 -21t21.5 -50z" />
    <glyph glyph-name="copyright" unicode="&#xa9;" horiz-adv-x="852" 
d="M615 245q0 -29 -16 -55t-41 -45.5t-55 -31t-60 -11.5q-112 0 -169.5 68t-57.5 188q0 58 14.5 105t43 80t71 50.5t97.5 17.5q33 0 64.5 -13.5t55.5 -35t39 -47.5t15 -51h-104q-2 23 -24 43t-58 20q-56 0 -84 -44.5t-28 -124.5q0 -78 28.5 -126t87.5 -48q30 0 52.5 16
t27.5 45h101zM819 351q0 -86 -31 -157t-84 -121.5t-124.5 -78t-153.5 -27.5t-153.5 27.5t-125 78t-84 121.5t-30.5 157q0 87 30.5 157.5t84 121t125 78t153.5 27.5t153.5 -27.5t124.5 -78t84 -121t31 -157.5zM426 52q65 0 119.5 23t93.5 63.5t61 95t22 117.5t-22 117.5
t-61 95t-93.5 64t-119.5 23.5t-119.5 -23.5t-93.5 -64t-60.5 -95t-21.5 -117.5t21.5 -117.5t60.5 -95t93.5 -63.5t119.5 -23z" />
    <glyph glyph-name="ordfeminine" unicode="&#xaa;" horiz-adv-x="375" 
d="M246 423q-6 11 -7 24q-17 -13 -40.5 -22.5t-50.5 -9.5q-18 0 -36.5 5t-33.5 16t-24 29t-9 44q0 54 41 79t108 27q12 1 21.5 1t17.5 2v2q0 56 -67 56q-17 0 -41.5 -5t-45.5 -13l-13 54q23 8 51.5 12.5t52.5 4.5q130 0 130 -112v-125q0 -14 1 -33t4 -36h-59zM233 571
q-5 -1 -13 -1t-13 -1q-3 0 -5.5 -0.5t-4.5 -0.5q-39 -2 -63 -15t-24 -42q0 -20 12 -32t36 -12q39 0 57 21.5t18 51.5v31z" />
    <glyph glyph-name="guillemotleft" unicode="&#xab;" horiz-adv-x="509" 
d="M405 -54l-168 274l168 273h87l-136 -273l136 -274h-87zM212 -54l-168 274l168 273h88l-137 -273l137 -274h-88z" />
    <glyph glyph-name="logicalnot" unicode="&#xac;" horiz-adv-x="573" 
d="M424 217v222h-398v100h511v-322h-113z" />
    <glyph glyph-name="uni00AD" unicode="&#xad;" horiz-adv-x="411" 
d="M11 190v101h390v-101h-390z" />
    <glyph glyph-name="registered" unicode="&#xae;" horiz-adv-x="852" 
d="M819 351q0 -86 -31 -157t-84 -121.5t-124.5 -78t-153.5 -27.5t-153.5 27.5t-125 78t-84 121.5t-30.5 157q0 87 30.5 157.5t84 121t125 78t153.5 27.5t153.5 -27.5t124.5 -78t84 -121t31 -157.5zM543 104q-14 23 -22.5 48t-16.5 48q-4 11 -9.5 28.5t-10.5 31.5
q-9 23 -26.5 37t-44.5 14h-69v-207h-87v497q-60 -40 -93 -105t-33 -145q0 -63 21.5 -117.5t60.5 -95t93.5 -63.5t119.5 -23q50 0 94 13.5t79 38.5h-56zM462 610q37 0 68 -11t53 -31.5t34 -48.5t12 -61q0 -51 -26.5 -82.5t-68.5 -48.5q19 -16 26 -32t12 -29q2 -7 5 -17t7 -27
q5 -20 14.5 -46.5t24.5 -52.5q47 41 73 99.5t26 128.5q0 63 -22 117.5t-61 95t-93.5 64t-119.5 23.5q-44 0 -83 -11t-72 -30h191zM457 386q39 0 63 18.5t24 53.5q0 34 -24 54.5t-63 20.5h-113v-147h113z" />
    <glyph glyph-name="macron" unicode="&#xaf;" horiz-adv-x="678" 
d="M-11 745v81h699v-81h-699z" />
    <glyph glyph-name="degree" unicode="&#xb0;" horiz-adv-x="392" 
d="M325 607q0 -25 -10 -47t-27 -38.5t-40.5 -26t-50.5 -9.5t-51 9.5t-41.5 26t-27.5 38.5t-10 47t10 47t27.5 38.5t41.5 26t51 9.5t50.5 -9.5t40.5 -26t27 -38.5t10 -47zM197 560q21 0 33.5 13.5t12.5 33.5t-12.5 33.5t-33.5 13.5q-22 0 -35 -13.5t-13 -33.5t13 -33.5
t35 -13.5z" />
    <glyph glyph-name="plusminus" unicode="&#xb1;" horiz-adv-x="678" 
d="M102 -49v91h473v-91h-473zM389 372v-193h-99v193h-208v91h208v186h99v-186h206v-91h-206z" />
    <glyph glyph-name="uni00B2" unicode="&#xb2;" horiz-adv-x="250" 
d="M31 435q0 29 13.5 56t28.5 44l68 75q8 8 12.5 16.5t4.5 16.5q0 30 -33 30q-17 0 -24 -14.5t-7 -31.5h-63q0 19 7 37.5t19.5 33t29.5 23t38 8.5q40 0 66.5 -23.5t26.5 -63.5q0 -15 -10.5 -35t-23.5 -34l-74 -83h108v-55h-187z" />
    <glyph glyph-name="uni00B3" unicode="&#xb3;" horiz-adv-x="250" 
d="M97 556v55h29q14 0 23.5 8t9.5 22q0 33 -31 33q-17 0 -24.5 -14t-8.5 -30h-63q0 19 7.5 37t20 31.5t30 21.5t37.5 8q39 0 65 -23.5t26 -61.5q0 -17 -4.5 -32.5t-18.5 -26.5q16 -13 22.5 -29.5t6.5 -36.5q0 -40 -27.5 -64t-69.5 -24q-44 0 -71 28t-27 72h61
q0 -16 8.5 -31.5t28.5 -15.5q37 0 37 37q0 15 -10.5 25.5t-27.5 10.5h-29z" />
    <glyph glyph-name="acute" unicode="&#xb4;" horiz-adv-x="264" 
d="M19 562l86 167h143l-138 -167h-91z" />
    <glyph glyph-name="mu" unicode="&#xb5;" horiz-adv-x="651" 
d="M461 -55v18q-56 -32 -133 -32q-57 0 -89.5 14t-53.5 41h-3v-255h-107v780h110v-313q0 -49 11.5 -83.5t31 -56t45 -31.5t52.5 -10q37 0 62.5 11t41.5 31.5t23.5 50t8.5 66.5v335h110v-566h-110z" />
    <glyph glyph-name="paragraph" unicode="&#xb6;" horiz-adv-x="597" 
d="M437 -271v900h-57v-900h-103v558h-57q-54 -1 -95.5 14.5t-69 43.5t-41.5 66.5t-14 85.5q0 46 14 85t41.5 67t69 43.5t95.5 14.5h378v-78h-58v-900h-103z" />
    <glyph glyph-name="periodcentered" unicode="&#xb7;" horiz-adv-x="320" 
d="M240 321q0 -33 -23 -55t-60 -22q-33 0 -55.5 22.5t-22.5 54.5q0 35 23 56.5t59 21.5q34 0 56.5 -22.5t22.5 -55.5z" />
    <glyph glyph-name="cedilla" unicode="&#xb8;" horiz-adv-x="463" 
d="M126 -198q13 -2 29 -4t26 -2q29 0 50.5 4.5t21.5 19.5q0 7 -17 12t-67 7l42 109l80 -9l-18 -60q39 -5 61 -20t22 -40q0 -23 -14.5 -40t-37 -27.5t-51 -15.5t-55.5 -5q-49 0 -86 13z" />
    <glyph glyph-name="uni00B9" unicode="&#xb9;" horiz-adv-x="193" 
d="M89 431v200h-60v52q18 0 30.5 1t15.5 3q9 5 15 16t6 26h55v-298h-62z" />
    <glyph glyph-name="ordmasculine" unicode="&#xba;" horiz-adv-x="296" 
d="M148 430q-66 0 -101.5 40.5t-35.5 109.5t35.5 109t101.5 40t101.5 -40t35.5 -109t-36.5 -109.5t-100.5 -40.5zM148 488q36 0 53.5 25t17.5 67q0 40 -17.5 65.5t-53.5 25.5q-35 0 -53.5 -26t-18.5 -65q0 -41 18 -66.5t54 -25.5z" />
    <glyph glyph-name="guillemotright" unicode="&#xbb;" horiz-adv-x="509" 
d="M209 -54l137 273l-137 274h88l168 -274l-168 -273h-88zM16 -54l136 273l-136 274h88l168 -274l-168 -273h-88z" />
    <glyph glyph-name="onequarter" unicode="&#xbc;" horiz-adv-x="903" 
d="M691 -55v59h-170v68l171 288h83l-177 -290h93v141h70v-141h55v-66h-55v-59h-70zM206 317v309q-20 -14 -45 -26t-45 -19v73q26 9 50 27.5t41 47.5h72v-412h-73zM124 -10l663 727l60 -44l-662 -727z" />
    <glyph glyph-name="onehalf" unicode="&#xbd;" horiz-adv-x="903" 
d="M547 -55q-1 18 4 36.5t13.5 35.5t19 33t21.5 29l102 111q25 28 25 57q0 23 -13.5 37.5t-41.5 14.5q-27 0 -41 -21.5t-14 -47.5h-75q0 25 9.5 49.5t26.5 43t41 30t53 11.5q57 0 94 -32t37 -87q0 -25 -14.5 -52.5t-32.5 -45.5l-98 -109q-6 -6 -12.5 -13t-9.5 -15h168v-65
h-262zM68 -9l662 726l62 -44l-662 -726zM206 317v309q-20 -14 -45 -26t-45 -19v73q25 9 49.5 27.5t41.5 47.5h72v-412h-73z" />
    <glyph glyph-name="threequarters" unicode="&#xbe;" horiz-adv-x="903" 
d="M187 488v66h33q26 0 42 14.5t16 39.5q0 27 -14.5 42t-39.5 15q-30 0 -42.5 -21t-13.5 -46h-76q0 27 10 50.5t27 41.5t40.5 28.5t51.5 10.5q58 0 94 -33.5t36 -84.5q0 -28 -8.5 -50t-31.5 -39q23 -17 35.5 -43.5t12.5 -53.5q0 -57 -37.5 -90.5t-97.5 -33.5
q-63 0 -99.5 37.5t-37.5 96.5h73q0 -12 3.5 -24t11 -22t20 -16.5t29.5 -6.5q28 0 44.5 16t16.5 45q0 26 -17.5 43.5t-47.5 17.5h-33zM124 -11l663 728l59 -44l-663 -728zM691 -54v59h-170v68l171 288h83l-177 -290h93v141h70v-141h55v-66h-55v-59h-70z" />
    <glyph glyph-name="questiondown" unicode="&#xbf;" horiz-adv-x="500" 
d="M477 -275q-21 -12 -49 -23t-58 -19.5t-60 -13.5t-56 -5q-44 0 -85.5 11t-73.5 35t-51 62t-19 92q0 66 30 118t93 103q42 35 62 68.5t20 78.5v59h99v-68q0 -30 -6 -56t-20 -51.5t-37.5 -51.5t-57.5 -55q-32 -27 -53.5 -62.5t-21.5 -77.5q0 -31 11 -52.5t29.5 -35t42.5 -20
t51 -6.5q33 0 81.5 14.5t90.5 38.5zM353 434q0 -30 -21.5 -51.5t-52.5 -21.5t-54.5 21t-23.5 52q0 15 6 29t16.5 24.5t24.5 17t29 6.5q32 0 54 -22.5t22 -54.5z" />
    <glyph glyph-name="Agrave" unicode="&#xc0;" horiz-adv-x="728" 
d="M607 -55l-77 211h-334l-77 -211h-116l293 762h137l291 -762h-117zM363 620l-134 -372h267zM310 762l-135 164h137l88 -164h-90z" />
    <glyph glyph-name="Aacute" unicode="&#xc1;" horiz-adv-x="728" 
d="M607 -55l-77 211h-334l-77 -211h-116l293 762h137l291 -762h-117zM363 620l-134 -372h267zM316 762l88 164h137l-135 -164h-90z" />
    <glyph glyph-name="Acircumflex" unicode="&#xc2;" horiz-adv-x="728" 
d="M607 -55l-77 211h-334l-77 -211h-116l293 762h137l291 -762h-117zM363 620l-134 -372h267zM426 763l-66 92l-65 -92h-103l118 162h101l118 -162h-103z" />
    <glyph glyph-name="Atilde" unicode="&#xc3;" horiz-adv-x="728" 
d="M607 -55l-77 211h-334l-77 -211h-116l293 762h137l291 -762h-117zM363 620l-134 -372h267zM517 879q0 -57 -28.5 -87.5t-73.5 -30.5q-34 0 -52 11t-29 23q-9 8 -16 14t-12 6q-11 0 -18.5 -14t-7.5 -38h-79q0 57 28.5 88t74.5 31q32 0 50 -10.5t29 -22.5q8 -7 16 -12.5
t14 -5.5q11 0 18 12t7 36h79z" />
    <glyph glyph-name="Adieresis" unicode="&#xc4;" horiz-adv-x="728" 
d="M607 -55l-77 211h-334l-77 -211h-116l293 762h137l291 -762h-117zM363 620l-134 -372h267zM339 830q0 -28 -21 -48t-50 -20t-49 20t-20 48t20 48.5t49 20.5t50 -20.5t21 -48.5zM520 830q0 -28 -20.5 -48t-49.5 -20t-49 20t-20 48t20 48.5t49 20.5t49.5 -20.5t20.5 -48.5z
" />
    <glyph glyph-name="Aring" unicode="&#xc5;" horiz-adv-x="728" 
d="M607 -55l-77 211h-334l-77 -211h-116l292 761q-24 15 -38.5 40t-14.5 54q0 24 9.5 44.5t26 35.5t38.5 24t47 9t47.5 -9t39 -24t26 -35.5t9.5 -44.5q0 -29 -14.5 -53.5t-37.5 -39.5l291 -762h-117zM363 620l-134 -372h267zM421 800q0 22 -16.5 37.5t-41.5 15.5
q-23 0 -40 -15.5t-17 -37.5t17 -37.5t40 -15.5q25 0 41.5 15.5t16.5 37.5z" />
    <glyph glyph-name="AE" unicode="&#xc6;" horiz-adv-x="882" 
d="M477 -55v211h-272l-86 -211h-116l321 762h507v-93h-244v-232h219v-93h-219v-252h253v-92h-363zM477 620h-86l-150 -372h236v372z" />
    <glyph glyph-name="Ccedilla" unicode="&#xc7;" horiz-adv-x="644" 
d="M612 -38q-40 -19 -85.5 -25t-96.5 -6l-20 -52q39 -5 61 -20t22 -40q0 -23 -14.5 -40t-37 -27.5t-51 -15.5t-55.5 -5q-49 0 -86 13l14 58q13 -2 29 -4t26 -2q29 0 50.5 4.5t21.5 19.5q0 7 -17 12t-67 7l39 100q-68 13 -121 47t-90 84t-56.5 114.5t-19.5 139.5
q0 86 25 158.5t73.5 125t119 82t160.5 29.5q48 0 92 -6.5t79 -20.5l-28 -89q-29 12 -64.5 18.5t-71.5 6.5q-70 -2 -121.5 -25.5t-85.5 -63.5t-51 -95t-17 -121q-1 -60 16.5 -114t52 -95.5t86 -65.5t119.5 -24q41 0 78.5 6t67.5 20z" />
    <glyph glyph-name="Egrave" unicode="&#xc8;" horiz-adv-x="574" 
d="M88 -55v762h435v-93h-325v-232h301v-93h-301v-252h335v-92h-445zM257 762l-134 164h137l87 -164h-90z" />
    <glyph glyph-name="Eacute" unicode="&#xc9;" horiz-adv-x="574" 
d="M88 -55v762h435v-93h-325v-232h301v-93h-301v-252h335v-92h-445zM264 762l87 164h137l-135 -164h-89z" />
    <glyph glyph-name="Ecircumflex" unicode="&#xca;" horiz-adv-x="574" 
d="M88 -55v762h435v-93h-325v-232h301v-93h-301v-252h335v-92h-445zM374 763l-66 92l-66 -92h-103l118 162h101l119 -162h-103z" />
    <glyph glyph-name="Edieresis" unicode="&#xcb;" horiz-adv-x="574" 
d="M88 -55v762h435v-93h-325v-232h301v-93h-301v-252h335v-92h-445zM286 830q0 -28 -21 -48t-50 -20t-49 20t-20 48t20 48.5t49 20.5t50 -20.5t21 -48.5zM468 830q0 -28 -20.5 -48t-49.5 -20q-30 0 -49.5 20t-19.5 48t19.5 48.5t49.5 20.5q29 0 49.5 -20.5t20.5 -48.5z" />
    <glyph glyph-name="Igrave" unicode="&#xcc;" horiz-adv-x="285" 
d="M88 -55v762h110v-762h-110zM109 763l-135 162h137l86 -162h-88z" />
    <glyph glyph-name="Iacute" unicode="&#xcd;" horiz-adv-x="285" 
d="M88 -55v762h110v-762h-110zM74 763l86 162h136l-134 -162h-88z" />
    <glyph glyph-name="Icircumflex" unicode="&#xce;" horiz-adv-x="285" 
d="M88 -55v762h110v-762h-110zM205 763l-67 92l-66 -92h-102l119 162h99l119 -162h-102z" />
    <glyph glyph-name="Idieresis" unicode="&#xcf;" horiz-adv-x="285" 
d="M88 -55v762h110v-762h-110zM117 830q0 -28 -20 -48t-50 -20q-29 0 -49.5 20t-20.5 48t20.5 48.5t49.5 20.5q30 0 50 -20.5t20 -48.5zM299 830q0 -28 -20.5 -48t-49.5 -20t-49 20t-20 48t20 48.5t49 20.5t49.5 -20.5t20.5 -48.5z" />
    <glyph glyph-name="Eth" unicode="&#xd0;" horiz-adv-x="754" 
d="M88 -55v346h-94v84h94v332h232q90 0 160 -26.5t118 -75.5t73 -119t25 -158q0 -89 -25 -160t-73 -120.5t-118 -76t-160 -26.5h-232zM302 37q76 0 130 21t88 59t50 91.5t16 118.5t-16.5 118t-51 90.5t-88.5 58t-128 20.5h-104v-239h217v-84h-217v-254h104z" />
    <glyph glyph-name="Ntilde" unicode="&#xd1;" horiz-adv-x="757" 
d="M517 -55l-321 648h-3v-648h-105v762h157l315 -643h4v643h105v-762h-152zM534 879q0 -57 -28.5 -87.5t-73.5 -30.5q-35 0 -52.5 11t-29.5 23q-8 8 -15.5 14t-13.5 6q-10 0 -17 -14t-7 -38h-80q0 57 28.5 88t73.5 31q34 0 51.5 -10.5t29.5 -22.5q8 -7 15.5 -12.5t14.5 -5.5
q11 0 17.5 12t6.5 36h80z" />
    <glyph glyph-name="Ograve" unicode="&#xd2;" horiz-adv-x="806" 
d="M404 -69q-83 0 -147.5 29.5t-108.5 82t-66.5 124.5t-22.5 158q0 87 22.5 159t66.5 124.5t108.5 81.5t147.5 29t147.5 -29t108 -81t66 -124.5t22.5 -159.5q0 -86 -22.5 -158t-66.5 -124.5t-108 -82t-147 -29.5zM404 24q60 0 104 23.5t73.5 64.5t43.5 95.5t14 117.5
t-15 118t-44.5 96.5t-73.5 65t-102 23.5q-59 0 -103.5 -24t-73.5 -65.5t-43.5 -96.5t-14.5 -117q0 -63 14 -117.5t43 -95.5t73.5 -64.5t104.5 -23.5zM382 763l-134 162h136l86 -162h-88z" />
    <glyph glyph-name="Oacute" unicode="&#xd3;" horiz-adv-x="806" 
d="M404 -69q-83 0 -147.5 29.5t-108.5 82t-66.5 124.5t-22.5 158q0 87 22.5 159t66.5 124.5t108.5 81.5t147.5 29t147.5 -29t108 -81t66 -124.5t22.5 -159.5q0 -86 -22.5 -158t-66.5 -124.5t-108 -82t-147 -29.5zM404 24q60 0 104 23.5t73.5 64.5t43.5 95.5t14 117.5
t-15 118t-44.5 96.5t-73.5 65t-102 23.5q-59 0 -103.5 -24t-73.5 -65.5t-43.5 -96.5t-14.5 -117q0 -63 14 -117.5t43 -95.5t73.5 -64.5t104.5 -23.5zM360 763l86 162h136l-134 -162h-88z" />
    <glyph glyph-name="Ocircumflex" unicode="&#xd4;" horiz-adv-x="806" 
d="M404 -69q-83 0 -147.5 29.5t-108.5 82t-66.5 124.5t-22.5 158q0 87 22.5 159t66.5 124.5t108.5 81.5t147.5 29t147.5 -29t108 -81t66 -124.5t22.5 -159.5q0 -86 -22.5 -158t-66.5 -124.5t-108 -82t-147 -29.5zM404 24q60 0 104 23.5t73.5 64.5t43.5 95.5t14 117.5
t-15 118t-44.5 96.5t-73.5 65t-102 23.5q-59 0 -103.5 -24t-73.5 -65.5t-43.5 -96.5t-14.5 -117q0 -63 14 -117.5t43 -95.5t73.5 -64.5t104.5 -23.5zM467 763l-66 92l-66 -92h-103l118 162h101l119 -162h-103z" />
    <glyph glyph-name="Otilde" unicode="&#xd5;" horiz-adv-x="806" 
d="M404 -69q-83 0 -147.5 29.5t-108.5 82t-66.5 124.5t-22.5 158q0 87 22.5 159t66.5 124.5t108.5 81.5t147.5 29t147.5 -29t108 -81t66 -124.5t22.5 -159.5q0 -86 -22.5 -158t-66.5 -124.5t-108 -82t-147 -29.5zM404 24q60 0 104 23.5t73.5 64.5t43.5 95.5t14 117.5
t-15 118t-44.5 96.5t-73.5 65t-102 23.5q-59 0 -103.5 -24t-73.5 -65.5t-43.5 -96.5t-14.5 -117q0 -63 14 -117.5t43 -95.5t73.5 -64.5t104.5 -23.5zM558 879q0 -57 -28.5 -87.5t-73.5 -30.5q-34 0 -52 11t-29 23q-8 8 -16 14t-13 6q-10 0 -17.5 -14t-7.5 -38h-79
q0 57 28.5 88t73.5 31q33 0 51 -10.5t29 -22.5q9 -7 16.5 -12.5t13.5 -5.5q25 0 25 48h79z" />
    <glyph glyph-name="Odieresis" unicode="&#xd6;" horiz-adv-x="806" 
d="M404 -69q-83 0 -147.5 29.5t-108.5 82t-66.5 124.5t-22.5 158q0 87 22.5 159t66.5 124.5t108.5 81.5t147.5 29t147.5 -29t108 -81t66 -124.5t22.5 -159.5q0 -86 -22.5 -158t-66.5 -124.5t-108 -82t-147 -29.5zM404 24q60 0 104 23.5t73.5 64.5t43.5 95.5t14 117.5
t-15 118t-44.5 96.5t-73.5 65t-102 23.5q-59 0 -103.5 -24t-73.5 -65.5t-43.5 -96.5t-14.5 -117q0 -63 14 -117.5t43 -95.5t73.5 -64.5t104.5 -23.5zM381 830q0 -28 -20.5 -48t-49.5 -20t-49 20t-20 48t20 48.5t49 20.5t49.5 -20.5t20.5 -48.5zM563 830q0 -28 -20.5 -48
t-49.5 -20t-49.5 20t-20.5 48t20.5 48.5t49.5 20.5t49.5 -20.5t20.5 -48.5z" />
    <glyph glyph-name="multiply" unicode="&#xd7;" horiz-adv-x="683" 
d="M485 118l-148 141l-155 -152l-72 71l155 151l-146 145l69 68l146 -146l156 151l70 -71l-153 -150l147 -141z" />
    <glyph glyph-name="Oslash" unicode="&#xd8;" horiz-adv-x="806" 
d="M51 -29l80 93q-36 51 -54 117t-18 144q0 87 22.5 159t66.5 124.5t108.5 81.5t147.5 29q69 0 124.5 -20t97.5 -56l80 93l71 -61l-90 -105q61 -101 61 -245q0 -86 -22.5 -158t-66.5 -124.5t-108 -82t-147 -29.5q-63 0 -115 17t-92 48l-74 -87zM558 564q-29 30 -67 47
t-87 17q-59 0 -103.5 -24t-73.5 -65.5t-43.5 -96.5t-14.5 -117q0 -50 8.5 -94t26.5 -82zM262 72q27 -23 62 -35.5t80 -12.5q60 0 104 23.5t73.5 64.5t43.5 95.5t14 117.5q0 43 -7 82t-21 74z" />
    <glyph glyph-name="Ugrave" unicode="&#xd9;" horiz-adv-x="728" 
d="M542 707h110v-529q0 -55 -21 -100.5t-59 -78t-91 -50.5t-117 -18t-117 18t-91 50.5t-59 78t-21 100.5v529h109v-514q0 -42 13.5 -74t37 -53.5t56 -32t71.5 -9.5q42 0 75 12.5t56.5 34t35.5 52t12 66.5v518zM341 763l-134 162h136l85 -162h-87z" />
    <glyph glyph-name="Uacute" unicode="&#xda;" horiz-adv-x="728" 
d="M542 707h110v-529q0 -55 -21 -100.5t-59 -78t-91 -50.5t-117 -18t-117 18t-91 50.5t-59 78t-21 100.5v529h109v-514q0 -42 13.5 -74t37 -53.5t56 -32t71.5 -9.5q42 0 75 12.5t56.5 34t35.5 52t12 66.5v518zM307 763l85 162h136l-134 -162h-87z" />
    <glyph glyph-name="Ucircumflex" unicode="&#xdb;" horiz-adv-x="728" 
d="M542 707h110v-529q0 -55 -21 -100.5t-59 -78t-91 -50.5t-117 -18t-117 18t-91 50.5t-59 78t-21 100.5v529h109v-514q0 -42 13.5 -74t37 -53.5t56 -32t71.5 -9.5q42 0 75 12.5t56.5 34t35.5 52t12 66.5v518zM427 763l-65 92l-67 -92h-102l118 162h100l118 -162h-102z" />
    <glyph glyph-name="Udieresis" unicode="&#xdc;" horiz-adv-x="728" 
d="M542 707h110v-529q0 -55 -21 -100.5t-59 -78t-91 -50.5t-117 -18t-117 18t-91 50.5t-59 78t-21 100.5v529h109v-514q0 -42 13.5 -74t37 -53.5t56 -32t71.5 -9.5q42 0 75 12.5t56.5 34t35.5 52t12 66.5v518zM340 830q0 -28 -20.5 -48t-49.5 -20t-49 20t-20 48t20 48.5
t49 20.5t49.5 -20.5t20.5 -48.5zM521 830q0 -28 -20.5 -48t-49.5 -20t-49 20t-20 48t20 48.5t49 20.5t49.5 -20.5t20.5 -48.5z" />
    <glyph glyph-name="Yacute" unicode="&#xdd;" horiz-adv-x="674" 
d="M282 -55v299l-279 463h131l205 -359l206 359h126l-279 -463v-299h-110zM275 763l85 162h136l-133 -162h-88z" />
    <glyph glyph-name="Thorn" unicode="&#xde;" horiz-adv-x="649" 
d="M198 97v-152h-110v763h110v-151h153q52 0 99.5 -11.5t82.5 -37.5t56 -69t21 -107q0 -65 -21 -110t-56.5 -72.5t-82.5 -40t-98 -12.5h-154zM339 191q32 0 61.5 6.5t51.5 22t35 42t13 66.5t-13 66.5t-35.5 42t-53.5 21.5t-67 6h-133v-273h141z" />
    <glyph glyph-name="germandbls" unicode="&#xdf;" horiz-adv-x="721" 
d="M95 -54v555q0 46 20 86t55 70t81.5 47.5t100.5 17.5h37q54 0 98 -16.5t74.5 -46t47 -69t16.5 -85.5q0 -48 -18 -91t-63 -71q62 -23 97.5 -71.5t35.5 -114.5q0 -52 -24 -93.5t-64.5 -70.5t-92.5 -44.5t-107 -15.5q-86 0 -176 25l37 87q66 -22 123 -22q37 0 72 8.5t62.5 26
t44.5 44t17 61.5q0 28 -14.5 50.5t-39.5 38.5t-58.5 25t-70.5 9h-116v92h107q64 0 102.5 33.5t38.5 87.5t-35.5 91t-106.5 37h-22q-32 0 -59.5 -9.5t-47.5 -26t-31 -39.5t-11 -49v-557h-110z" />
    <glyph glyph-name="agrave" unicode="&#xe0;" horiz-adv-x="600" 
d="M434 -55q-5 10 -7.5 26.5t-3.5 32.5h-3q-15 -14 -35 -27t-43.5 -23.5t-50 -16.5t-53.5 -6q-35 0 -69.5 9.5t-62 30t-44.5 53t-17 79.5q0 51 20.5 87t57 60t88 36.5t113.5 15.5q25 1 49 2.5t39 5.5v10q0 62 -34.5 91t-106.5 29q-15 0 -35.5 -2t-42 -6t-43.5 -9.5
t-40 -12.5l-21 81q20 8 44.5 14t49.5 10.5t50 6.5t46 2q243 0 243 -209v-244q0 -29 1.5 -63t6.5 -63h-96zM412 236q-20 -4 -41 -5t-41 -2q-39 -2 -72 -9t-56.5 -21.5t-37 -36.5t-13.5 -53q0 -44 26 -69.5t77 -25.5q42 0 72 12t49 32t28 47.5t9 59.5v71zM287 594l-134 163
h136l86 -163h-88z" />
    <glyph glyph-name="aacute" unicode="&#xe1;" horiz-adv-x="600" 
d="M434 -55q-5 10 -7.5 26.5t-3.5 32.5h-3q-15 -14 -35 -27t-43.5 -23.5t-50 -16.5t-53.5 -6q-35 0 -69.5 9.5t-62 30t-44.5 53t-17 79.5q0 51 20.5 87t57 60t88 36.5t113.5 15.5q25 1 49 2.5t39 5.5v10q0 62 -34.5 91t-106.5 29q-15 0 -35.5 -2t-42 -6t-43.5 -9.5
t-40 -12.5l-21 81q20 8 44.5 14t49.5 10.5t50 6.5t46 2q243 0 243 -209v-244q0 -29 1.5 -63t6.5 -63h-96zM412 236q-20 -4 -41 -5t-41 -2q-39 -2 -72 -9t-56.5 -21.5t-37 -36.5t-13.5 -53q0 -44 26 -69.5t77 -25.5q42 0 72 12t49 32t28 47.5t9 59.5v71zM228 594l85 163h136
l-134 -163h-87z" />
    <glyph glyph-name="acircumflex" unicode="&#xe2;" horiz-adv-x="600" 
d="M434 -55q-5 10 -7.5 26.5t-3.5 32.5h-3q-15 -14 -35 -27t-43.5 -23.5t-50 -16.5t-53.5 -6q-35 0 -69.5 9.5t-62 30t-44.5 53t-17 79.5q0 51 20.5 87t57 60t88 36.5t113.5 15.5q25 1 49 2.5t39 5.5v10q0 62 -34.5 91t-106.5 29q-15 0 -35.5 -2t-42 -6t-43.5 -9.5
t-40 -12.5l-21 81q20 8 44.5 14t49.5 10.5t50 6.5t46 2q243 0 243 -209v-244q0 -29 1.5 -63t6.5 -63h-96zM412 236q-20 -4 -41 -5t-41 -2q-39 -2 -72 -9t-56.5 -21.5t-37 -36.5t-13.5 -53q0 -44 26 -69.5t77 -25.5q42 0 72 12t49 32t28 47.5t9 59.5v71zM365 594l-66 93
l-66 -93h-103l118 163h101l119 -163h-103z" />
    <glyph glyph-name="atilde" unicode="&#xe3;" horiz-adv-x="600" 
d="M434 -55q-5 10 -7.5 26.5t-3.5 32.5h-3q-15 -14 -35 -27t-43.5 -23.5t-50 -16.5t-53.5 -6q-35 0 -69.5 9.5t-62 30t-44.5 53t-17 79.5q0 51 20.5 87t57 60t88 36.5t113.5 15.5q25 1 49 2.5t39 5.5v10q0 62 -34.5 91t-106.5 29q-15 0 -35.5 -2t-42 -6t-43.5 -9.5
t-40 -12.5l-21 81q20 8 44.5 14t49.5 10.5t50 6.5t46 2q243 0 243 -209v-244q0 -29 1.5 -63t6.5 -63h-96zM412 236q-20 -4 -41 -5t-41 -2q-39 -2 -72 -9t-56.5 -21.5t-37 -36.5t-13.5 -53q0 -44 26 -69.5t77 -25.5q42 0 72 12t49 32t28 47.5t9 59.5v71zM457 710
q0 -57 -28.5 -87.5t-73.5 -30.5q-34 0 -52 11.5t-29 22.5q-8 8 -16 14.5t-13 6.5q-10 0 -17.5 -14.5t-7.5 -38.5h-79q0 57 28.5 88t73.5 31q33 0 51 -10t29 -22q9 -8 16.5 -13.5t13.5 -5.5q25 0 25 48h79z" />
    <glyph glyph-name="adieresis" unicode="&#xe4;" horiz-adv-x="600" 
d="M434 -55q-5 10 -7.5 26.5t-3.5 32.5h-3q-15 -14 -35 -27t-43.5 -23.5t-50 -16.5t-53.5 -6q-35 0 -69.5 9.5t-62 30t-44.5 53t-17 79.5q0 51 20.5 87t57 60t88 36.5t113.5 15.5q25 1 49 2.5t39 5.5v10q0 62 -34.5 91t-106.5 29q-15 0 -35.5 -2t-42 -6t-43.5 -9.5
t-40 -12.5l-21 81q20 8 44.5 14t49.5 10.5t50 6.5t46 2q243 0 243 -209v-244q0 -29 1.5 -63t6.5 -63h-96zM412 236q-20 -4 -41 -5t-41 -2q-39 -2 -72 -9t-56.5 -21.5t-37 -36.5t-13.5 -53q0 -44 26 -69.5t77 -25.5q42 0 72 12t49 32t28 47.5t9 59.5v71zM283 662
q0 -28 -20.5 -48t-49.5 -20t-49 20t-20 48t20 49t49 21t49.5 -21t20.5 -49zM466 662q0 -28 -20.5 -48t-49.5 -20q-30 0 -50.5 20t-20.5 48t20.5 49t50.5 21q29 0 49.5 -21t20.5 -49z" />
    <glyph glyph-name="aring" unicode="&#xe5;" horiz-adv-x="600" 
d="M434 -55q-5 10 -7.5 26.5t-3.5 32.5h-3q-15 -14 -35 -27t-43.5 -23.5t-50 -16.5t-53.5 -6q-35 0 -69.5 9.5t-62 30t-44.5 53t-17 79.5q0 51 20.5 87t57 60t88 36.5t113.5 15.5q25 1 49 2.5t39 5.5v10q0 62 -34.5 91t-106.5 29q-15 0 -35.5 -2t-42 -6t-43.5 -9.5
t-40 -12.5l-21 81q20 8 44.5 14t49.5 10.5t50 6.5t46 2q243 0 243 -209v-244q0 -29 1.5 -63t6.5 -63h-96zM412 236q-20 -4 -41 -5t-41 -2q-39 -2 -72 -9t-56.5 -21.5t-37 -36.5t-13.5 -53q0 -44 26 -69.5t77 -25.5q42 0 72 12t49 32t28 47.5t9 59.5v71zM412 664
q0 -21 -9 -40t-24 -33t-35 -22t-43 -8t-42.5 8t-34.5 22t-23.5 33t-8.5 40t8.5 40t23.5 33t34.5 22t42.5 8t43 -8t35 -22t24 -33t9 -40zM354 664q0 20 -15 34t-38 14q-21 0 -36.5 -14t-15.5 -34t15.5 -34t36.5 -14q23 0 38 14t15 34z" />
    <glyph glyph-name="ae" unicode="&#xe6;" horiz-adv-x="945" 
d="M854 -44q-38 -14 -74.5 -19.5t-84.5 -5.5q-81 0 -139.5 27t-95.5 75q-35 -57 -92 -79.5t-132 -22.5q-35 0 -69 9.5t-61 30t-44 53t-17 79.5q0 51 18.5 87t53.5 60t85 36.5t112 15.5q25 1 49 2.5t39 5.5v10q0 62 -34.5 91t-106.5 29q-32 0 -73 -8t-78 -22l-21 81
q41 16 89 24.5t91 8.5q148 0 206 -79q33 37 79.5 58t106.5 21q121 0 178 -71t57 -200v-47h-384q4 -42 18.5 -77t39 -59.5t59 -38.5t77.5 -14q36 0 68 4t64 14zM402 236q-20 -4 -41.5 -5t-41.5 -2q-78 -3 -123 -30.5t-45 -89.5q0 -44 21 -69.5t72 -25.5q42 0 71.5 12t49 32
t28.5 47.5t9 59.5v71zM792 287q-2 73 -34 115.5t-97 42.5q-66 0 -103 -41t-46 -110v-7h280z" />
    <glyph glyph-name="ccedilla" unicode="&#xe7;" horiz-adv-x="508" 
d="M482 -51q-31 -11 -67 -14.5t-68 -3.5l-18 -52q39 -5 61 -20t22 -40q0 -23 -14.5 -40t-37.5 -27.5t-51 -15.5t-56 -5q-26 0 -47 3.5t-38 9.5l13 58q14 -2 30 -4t26 -2q29 0 50.5 4.5t21.5 19.5q0 8 -17 12.5t-67 6.5l38 101q-52 12 -91 38.5t-65.5 64t-39.5 84.5t-13 100
q0 65 20 119.5t57.5 94t91.5 61.5t123 22q35 0 69.5 -4t60.5 -12l-22 -83q-23 8 -50 11.5t-51 3.5q-47 0 -82.5 -16.5t-59.5 -45.5t-36 -68t-12 -83t12.5 -82t36.5 -66.5t60 -45t83 -16.5q27 0 55 3.5t52 11.5z" />
    <glyph glyph-name="egrave" unicode="&#xe8;" horiz-adv-x="613" 
d="M522 -44q-37 -14 -79 -19.5t-90 -5.5q-73 0 -129.5 22t-95 61.5t-58.5 94t-20 118.5q0 65 19 119.5t54.5 94t85 61.5t110.5 22q121 0 183 -71t62 -200v-47h-404q4 -42 20 -77t42.5 -59.5t62.5 -38.5t79 -14q36 0 73 4t70 14zM460 287q-2 73 -39 115.5t-102 42.5
q-67 0 -109.5 -43t-50.5 -115h301zM318 594l-134 163h136l86 -163h-88z" />
    <glyph glyph-name="eacute" unicode="&#xe9;" horiz-adv-x="613" 
d="M522 -44q-37 -14 -79 -19.5t-90 -5.5q-73 0 -129.5 22t-95 61.5t-58.5 94t-20 118.5q0 65 19 119.5t54.5 94t85 61.5t110.5 22q121 0 183 -71t62 -200v-47h-404q4 -42 20 -77t42.5 -59.5t62.5 -38.5t79 -14q36 0 73 4t70 14zM460 287q-2 73 -39 115.5t-102 42.5
q-67 0 -109.5 -43t-50.5 -115h301zM260 594l85 163h136l-134 -163h-87z" />
    <glyph glyph-name="ecircumflex" unicode="&#xea;" horiz-adv-x="613" 
d="M522 -44q-37 -14 -79 -19.5t-90 -5.5q-73 0 -129.5 22t-95 61.5t-58.5 94t-20 118.5q0 65 19 119.5t54.5 94t85 61.5t110.5 22q121 0 183 -71t62 -200v-47h-404q4 -42 20 -77t42.5 -59.5t62.5 -38.5t79 -14q36 0 73 4t70 14zM460 287q-2 73 -39 115.5t-102 42.5
q-67 0 -109.5 -43t-50.5 -115h301zM383 594l-67 93l-66 -93h-102l119 163h100l118 -163h-102z" />
    <glyph glyph-name="edieresis" unicode="&#xeb;" horiz-adv-x="613" 
d="M522 -44q-37 -14 -79 -19.5t-90 -5.5q-73 0 -129.5 22t-95 61.5t-58.5 94t-20 118.5q0 65 19 119.5t54.5 94t85 61.5t110.5 22q121 0 183 -71t62 -200v-47h-404q4 -42 20 -77t42.5 -59.5t62.5 -38.5t79 -14q36 0 73 4t70 14zM460 287q-2 73 -39 115.5t-102 42.5
q-67 0 -109.5 -43t-50.5 -115h301zM296 662q0 -28 -20.5 -48t-49.5 -20t-49.5 20t-20.5 48t20.5 49t49.5 21t49.5 -21t20.5 -49zM477 662q0 -28 -20.5 -48t-49.5 -20t-49 20t-20 48t20 49t49 21t49.5 -21t20.5 -49z" />
    <glyph glyph-name="igrave" unicode="&#xec;" horiz-adv-x="271" 
d="M80 -55v566h110v-566h-110zM145 594l-134 163h124l84 -163h-74z" />
    <glyph glyph-name="iacute" unicode="&#xed;" horiz-adv-x="271" 
d="M80 -55v566h110v-566h-110zM35 594l86 163h135l-133 -163h-88z" />
    <glyph glyph-name="icircumflex" unicode="&#xee;" horiz-adv-x="271" 
d="M80 -55v566h110v-566h-110zM202 594l-66 93l-67 -93h-102l118 163h100l119 -163h-102z" />
    <glyph glyph-name="idieresis" unicode="&#xef;" horiz-adv-x="271" 
d="M80 -55v566h110v-566h-110zM114 663q0 -28 -20.5 -48t-49.5 -20t-49 20t-20 48t20 49t49 21t49.5 -21t20.5 -49zM296 663q0 -28 -20.5 -48t-49.5 -20q-30 0 -49.5 20t-19.5 48t19.5 49t49.5 21q29 0 49.5 -21t20.5 -49z" />
    <glyph glyph-name="eth" unicode="&#xf0;" horiz-adv-x="593" 
d="M403 586q41 -48 67.5 -98.5t41.5 -101.5t21 -101t6 -98q0 -59 -16.5 -106t-47.5 -80t-76 -50.5t-103 -17.5t-103 18t-76 51t-47 80t-16 105q0 55 17 101t48.5 79t76.5 51t100 17q25 0 51.5 -5t48.5 -13q-15 29 -34 55.5t-40 53.5l-37 -23l-73 -48l-63 69l103 67
q-23 18 -50 34.5t-53 32.5l52 78q38 -20 72 -40.5t64 -43.5l81 58l59 -69zM296 24q67 0 100.5 45t33.5 118q0 72 -34.5 115t-99.5 43t-99 -43t-34 -115t33 -117.5t100 -45.5z" />
    <glyph glyph-name="ntilde" unicode="&#xf1;" horiz-adv-x="652" 
d="M466 -55v328q0 39 -6 70t-20.5 52.5t-39 33t-62.5 11.5q-27 0 -53.5 -10t-47.5 -31.5t-34 -55.5t-13 -83v-315h-110v566h106v-81h2q26 42 74.5 68t112.5 26q94 0 148 -55t54 -150v-374h-111zM472 710q0 -57 -28.5 -87.5t-73.5 -30.5q-35 0 -52.5 11.5t-29.5 22.5
q-8 8 -15.5 14.5t-12.5 6.5q-11 0 -18 -14.5t-7 -38.5h-79q0 57 28 88t73 31q34 0 51.5 -10t29.5 -22q8 -8 15.5 -13.5t14.5 -5.5q11 0 17.5 12t6.5 36h80z" />
    <glyph glyph-name="ograve" unicode="&#xf2;" horiz-adv-x="652" 
d="M325 -69q-62 0 -112.5 20.5t-85.5 59.5t-54 94t-19 124t19 124t54 93t85.5 58t112.5 20q63 0 113.5 -20t86.5 -58t55 -92.5t19 -124.5q0 -69 -19 -124t-55 -94t-86.5 -59.5t-113.5 -20.5zM325 17q42 0 73 15.5t51.5 43t30.5 66.5t10 87q0 46 -10 84.5t-30 66.5t-51 44
t-74 16q-41 0 -71.5 -16t-50.5 -44t-30 -67t-10 -84q0 -96 40.5 -153.5t121.5 -58.5zM306 594l-135 163h137l85 -163h-87z" />
    <glyph glyph-name="oacute" unicode="&#xf3;" horiz-adv-x="652" 
d="M325 -69q-62 0 -112.5 20.5t-85.5 59.5t-54 94t-19 124t19 124t54 93t85.5 58t112.5 20q63 0 113.5 -20t86.5 -58t55 -92.5t19 -124.5q0 -69 -19 -124t-55 -94t-86.5 -59.5t-113.5 -20.5zM325 17q42 0 73 15.5t51.5 43t30.5 66.5t10 87q0 46 -10 84.5t-30 66.5t-51 44
t-74 16q-41 0 -71.5 -16t-50.5 -44t-30 -67t-10 -84q0 -96 40.5 -153.5t121.5 -58.5zM255 594l86 163h136l-134 -163h-88z" />
    <glyph glyph-name="ocircumflex" unicode="&#xf4;" horiz-adv-x="652" 
d="M325 -69q-62 0 -112.5 20.5t-85.5 59.5t-54 94t-19 124t19 124t54 93t85.5 58t112.5 20q63 0 113.5 -20t86.5 -58t55 -92.5t19 -124.5q0 -69 -19 -124t-55 -94t-86.5 -59.5t-113.5 -20.5zM325 17q42 0 73 15.5t51.5 43t30.5 66.5t10 87q0 46 -10 84.5t-30 66.5t-51 44
t-74 16q-41 0 -71.5 -16t-50.5 -44t-30 -67t-10 -84q0 -96 40.5 -153.5t121.5 -58.5zM389 594l-67 93l-66 -93h-102l119 163h100l118 -163h-102z" />
    <glyph glyph-name="otilde" unicode="&#xf5;" horiz-adv-x="652" 
d="M325 -69q-62 0 -112.5 20.5t-85.5 59.5t-54 94t-19 124t19 124t54 93t85.5 58t112.5 20q63 0 113.5 -20t86.5 -58t55 -92.5t19 -124.5q0 -69 -19 -124t-55 -94t-86.5 -59.5t-113.5 -20.5zM325 17q42 0 73 15.5t51.5 43t30.5 66.5t10 87q0 46 -10 84.5t-30 66.5t-51 44
t-74 16q-41 0 -71.5 -16t-50.5 -44t-30 -67t-10 -84q0 -96 40.5 -153.5t121.5 -58.5zM481 710q0 -57 -28.5 -87.5t-73.5 -30.5q-34 0 -51.5 11.5t-29.5 22.5q-9 8 -16 14.5t-12 6.5q-11 0 -18.5 -14.5t-7.5 -38.5h-78q0 57 28 88t74 31q33 0 50.5 -10t29.5 -22
q8 -8 15.5 -13.5t13.5 -5.5q25 0 25 48h79z" />
    <glyph glyph-name="odieresis" unicode="&#xf6;" horiz-adv-x="652" 
d="M325 -69q-62 0 -112.5 20.5t-85.5 59.5t-54 94t-19 124t19 124t54 93t85.5 58t112.5 20q63 0 113.5 -20t86.5 -58t55 -92.5t19 -124.5q0 -69 -19 -124t-55 -94t-86.5 -59.5t-113.5 -20.5zM325 17q42 0 73 15.5t51.5 43t30.5 66.5t10 87q0 46 -10 84.5t-30 66.5t-51 44
t-74 16q-41 0 -71.5 -16t-50.5 -44t-30 -67t-10 -84q0 -96 40.5 -153.5t121.5 -58.5zM314 662q0 -28 -21 -48t-50 -20t-49 20t-20 48t20 48.5t49 20.5t50 -20.5t21 -48.5zM495 662q0 -28 -20.5 -48t-49.5 -20t-49 20t-20 48t20 48.5t49 20.5t49.5 -20.5t20.5 -48.5z" />
    <glyph glyph-name="divide" unicode="&#xf7;" horiz-adv-x="684" 
d="M79 284v91h520v-91h-520zM412 520q0 -29 -21.5 -49t-50.5 -20t-49.5 20t-20.5 49q0 28 20.5 48.5t49.5 20.5t50.5 -20.5t21.5 -48.5zM412 134q0 -28 -21.5 -48.5t-50.5 -20.5t-49.5 20.5t-20.5 48.5q0 29 20.5 49t49.5 20t50.5 -20t21.5 -49z" />
    <glyph glyph-name="oslash" unicode="&#xf8;" horiz-adv-x="652" 
d="M60 -74l63 90q-69 78 -69 213q0 69 19 124t54 93t85.5 58t112.5 20q75 0 133 -29l53 76l77 -58l-54 -77q65 -77 65 -207q0 -69 -19 -124t-55 -94t-86.5 -59.5t-113.5 -20.5q-70 0 -128 28l-67 -95zM406 420q-35 20 -81 20q-41 0 -71.5 -16t-50.5 -44t-30 -67t-10 -84
q0 -73 22 -123zM250 35q31 -18 75 -18q42 0 73 15.5t51.5 43t30.5 66.5t10 87q0 65 -20 116z" />
    <glyph glyph-name="ugrave" unicode="&#xf9;" horiz-adv-x="651" 
d="M463 -55v65h-3q-25 -38 -75 -58.5t-107 -20.5q-48 0 -85.5 14.5t-63.5 41.5t-40 64.5t-14 84.5v375h109v-327q0 -39 6 -69.5t21 -52.5t40 -33.5t63 -11.5q27 0 53.5 10t47 31.5t33 56t12.5 83.5v313h111v-566h-108zM302 594l-135 163h136l85 -163h-86z" />
    <glyph glyph-name="uacute" unicode="&#xfa;" horiz-adv-x="651" 
d="M463 -55v65h-3q-25 -38 -75 -58.5t-107 -20.5q-48 0 -85.5 14.5t-63.5 41.5t-40 64.5t-14 84.5v375h109v-327q0 -39 6 -69.5t21 -52.5t40 -33.5t63 -11.5q27 0 53.5 10t47 31.5t33 56t12.5 83.5v313h111v-566h-108zM259 594l84 163h137l-135 -163h-86z" />
    <glyph glyph-name="ucircumflex" unicode="&#xfb;" horiz-adv-x="651" 
d="M463 -55v65h-3q-25 -38 -75 -58.5t-107 -20.5q-48 0 -85.5 14.5t-63.5 41.5t-40 64.5t-14 84.5v375h109v-327q0 -39 6 -69.5t21 -52.5t40 -33.5t63 -11.5q27 0 53.5 10t47 31.5t33 56t12.5 83.5v313h111v-566h-108zM385 594l-66 93l-66 -93h-103l119 163h101l118 -163
h-103z" />
    <glyph glyph-name="udieresis" unicode="&#xfc;" horiz-adv-x="651" 
d="M463 -55v65h-3q-25 -38 -75 -58.5t-107 -20.5q-48 0 -85.5 14.5t-63.5 41.5t-40 64.5t-14 84.5v375h109v-327q0 -39 6 -69.5t21 -52.5t40 -33.5t63 -11.5q27 0 53.5 10t47 31.5t33 56t12.5 83.5v313h111v-566h-108zM298 662q0 -28 -21 -48t-50 -20t-49 20t-20 48t20 48.5
t49 20.5t50 -20.5t21 -48.5zM479 662q0 -28 -20.5 -48t-49.5 -20t-49 20t-20 48t20 48.5t49 20.5t49.5 -20.5t20.5 -48.5z" />
    <glyph glyph-name="yacute" unicode="&#xfd;" horiz-adv-x="568" 
d="M137 -269l92 222l-226 558h121l162 -441l162 441h115l-310 -780h-116zM227 594l84 163h137l-135 -163h-86z" />
    <glyph glyph-name="thorn" unicode="&#xfe;" horiz-adv-x="664" 
d="M80 -269v976h110v-262h3q36 45 83 62t98 17q55 0 99.5 -23t75.5 -62.5t47.5 -93.5t16.5 -117q0 -62 -16.5 -116t-47.5 -94.5t-75.5 -63.5t-100.5 -23q-23 0 -47.5 3.5t-48 12.5t-44.5 24t-37 38h-6v-278h-110zM190 190q0 -36 11.5 -67.5t32.5 -55t50 -37t64 -13.5
q40 0 69 17t48 46t28.5 67t9.5 81q0 45 -9.5 83.5t-29 67t-48.5 45t-68 16.5q-35 0 -64 -13.5t-50 -36.5t-32.5 -52.5t-11.5 -60.5v-87z" />
    <glyph glyph-name="ydieresis" unicode="&#xff;" horiz-adv-x="568" 
d="M137 -269l92 222l-226 558h121l162 -441l162 441h115l-310 -780h-116zM259 662q0 -28 -20.5 -48t-50.5 -20q-29 0 -49.5 20t-20.5 48t20.5 48.5t49.5 20.5q30 0 50.5 -20.5t20.5 -48.5zM440 662q0 -28 -20.5 -48t-49.5 -20t-49 20t-20 48t20 48.5t49 20.5t49.5 -20.5
t20.5 -48.5z" />
    <glyph glyph-name="Amacron" unicode="&#x100;" horiz-adv-x="728" 
d="M607 -55l-77 211h-334l-77 -211h-116l293 762h137l291 -762h-117zM363 620l-134 -372h267zM190 770v83h328v-83h-328z" />
    <glyph glyph-name="amacron" unicode="&#x101;" horiz-adv-x="600" 
d="M434 -55q-5 10 -7.5 26.5t-3.5 32.5h-3q-15 -14 -35 -27t-43.5 -23.5t-50 -16.5t-53.5 -6q-35 0 -69.5 9.5t-62 30t-44.5 53t-17 79.5q0 51 20.5 87t57 60t88 36.5t113.5 15.5q25 1 49 2.5t39 5.5v10q0 62 -34.5 91t-106.5 29q-15 0 -35.5 -2t-42 -6t-43.5 -9.5
t-40 -12.5l-21 81q20 8 44.5 14t49.5 10.5t50 6.5t46 2q243 0 243 -209v-244q0 -29 1.5 -63t6.5 -63h-96zM412 236q-20 -4 -41 -5t-41 -2q-39 -2 -72 -9t-56.5 -21.5t-37 -36.5t-13.5 -53q0 -44 26 -69.5t77 -25.5q42 0 72 12t49 32t28 47.5t9 59.5v71zM129 609v70h332v-70
h-332z" />
    <glyph glyph-name="Abreve" unicode="&#x102;" horiz-adv-x="728" 
d="M607 -55l-77 211h-334l-77 -211h-116l293 762h137l291 -762h-117zM363 620l-134 -372h267zM521 883q-5 -29 -20 -51.5t-37.5 -38t-50.5 -23.5t-59 -8q-30 0 -58 8t-50.5 23.5t-37.5 38t-20 51.5h84q5 -26 28.5 -41t53.5 -15t54 15t29 41h84z" />
    <glyph glyph-name="abreve" unicode="&#x103;" horiz-adv-x="600" 
d="M434 -55q-5 10 -7.5 26.5t-3.5 32.5h-3q-15 -14 -35 -27t-43.5 -23.5t-50 -16.5t-53.5 -6q-35 0 -69.5 9.5t-62 30t-44.5 53t-17 79.5q0 51 20.5 87t57 60t88 36.5t113.5 15.5q25 1 49 2.5t39 5.5v10q0 62 -34.5 91t-106.5 29q-15 0 -35.5 -2t-42 -6t-43.5 -9.5
t-40 -12.5l-21 81q20 8 44.5 14t49.5 10.5t50 6.5t46 2q243 0 243 -209v-244q0 -29 1.5 -63t6.5 -63h-96zM412 236q-20 -4 -41 -5t-41 -2q-39 -2 -72 -9t-56.5 -21.5t-37 -36.5t-13.5 -53q0 -44 26 -69.5t77 -25.5q42 0 72 12t49 32t28 47.5t9 59.5v71zM458 714
q-5 -29 -20 -51.5t-37.5 -38t-50.5 -23.5t-59 -8q-30 0 -58 8t-50.5 23.5t-37.5 38t-19 51.5h83q5 -26 28.5 -40.5t53.5 -14.5q31 0 54.5 14.5t28.5 40.5h84z" />
    <glyph glyph-name="Aogonek" unicode="&#x104;" horiz-adv-x="729" 
d="M780 -235q-22 -17 -50 -25.5t-49 -8.5q-64 0 -94 31.5t-27 80.5q2 23 15.5 52.5t31.5 49.5l-77 211h-334l-77 -211h-116l293 762h137l291 -762h-40q-23 -9 -37 -34.5t-14 -51.5q0 -23 14 -36.5t37 -15.5q14 -2 33 5t36 20zM363 620l-134 -372h267z" />
    <glyph glyph-name="aogonek" unicode="&#x105;" horiz-adv-x="600" 
d="M607 -235q-22 -17 -50 -25.5t-49 -8.5q-64 0 -94 31.5t-27 80.5q2 23 15.5 52.5t31.5 49.5q-5 10 -7.5 26.5t-3.5 32.5h-3q-15 -14 -35 -27t-43.5 -23.5t-50 -16.5t-53.5 -6q-35 0 -69.5 9.5t-62 30t-44.5 53t-17 79.5q0 51 20.5 87t57 60t88 36.5t113.5 15.5
q25 1 49 2.5t39 5.5v10q0 62 -34.5 91t-106.5 29q-15 0 -35.5 -2t-42 -6t-43.5 -9.5t-40 -12.5l-21 81q20 8 44.5 14t49.5 10.5t50 6.5t46 2q243 0 243 -209v-244q0 -29 1.5 -63t6.5 -63h-19q-23 -9 -37 -34.5t-14 -51.5q0 -23 14 -36.5t37 -15.5q14 -2 33 5t36 20zM412 236
q-20 -4 -41 -5t-41 -2q-39 -2 -72 -9t-56.5 -21.5t-37 -36.5t-13.5 -53q0 -44 26 -69.5t77 -25.5q42 0 72 12t49 32t28 47.5t9 59.5v71z" />
    <glyph glyph-name="Cacute" unicode="&#x106;" horiz-adv-x="644" 
d="M612 -38q-40 -19 -85.5 -25t-96.5 -6q-86 0 -155 29t-117 81t-74 124.5t-26 158.5t25 158.5t73.5 125t119 82t160.5 29.5q48 0 92 -6.5t79 -20.5l-28 -89q-29 12 -64.5 18.5t-71.5 6.5q-70 -2 -121.5 -25.5t-85.5 -63.5t-51 -95t-17 -121q-1 -60 16.5 -114t52 -95.5
t86 -65.5t119.5 -24q41 0 78.5 6t67.5 20zM309 763l85 162h137l-134 -162h-88z" />
    <glyph glyph-name="cacute" unicode="&#x107;" horiz-adv-x="508" 
d="M482 -51q-31 -11 -67 -14.5t-68 -3.5q-74 0 -128.5 23t-91.5 62.5t-55 93.5t-18 117q0 65 20 119.5t57.5 94t91.5 61.5t123 22q35 0 69.5 -4t60.5 -12l-22 -83q-23 8 -50 11.5t-51 3.5q-47 0 -82.5 -16.5t-59.5 -45.5t-36 -68t-12 -83t12.5 -82t36.5 -66.5t60 -45
t83 -16.5q27 0 55 3.5t52 11.5zM233 594l85 163h136l-134 -163h-87z" />
    <glyph glyph-name="Ccircumflex" unicode="&#x108;" horiz-adv-x="644" 
d="M612 -38q-40 -19 -85.5 -25t-96.5 -6q-86 0 -155 29t-117 81t-74 124.5t-26 158.5t25 158.5t73.5 125t119 82t160.5 29.5q48 0 92 -6.5t79 -20.5l-28 -89q-29 12 -64.5 18.5t-71.5 6.5q-70 -2 -121.5 -25.5t-85.5 -63.5t-51 -95t-17 -121q-1 -60 16.5 -114t52 -95.5
t86 -65.5t119.5 -24q41 0 78.5 6t67.5 20zM435 763l-66 92l-66 -92h-103l118 162h101l118 -162h-102z" />
    <glyph glyph-name="ccircumflex" unicode="&#x109;" horiz-adv-x="508" 
d="M482 -51q-31 -11 -67 -14.5t-68 -3.5q-74 0 -128.5 23t-91.5 62.5t-55 93.5t-18 117q0 65 20 119.5t57.5 94t91.5 61.5t123 22q35 0 69.5 -4t60.5 -12l-22 -83q-23 8 -50 11.5t-51 3.5q-47 0 -82.5 -16.5t-59.5 -45.5t-36 -68t-12 -83t12.5 -82t36.5 -66.5t60 -45
t83 -16.5q27 0 55 3.5t52 11.5zM356 594l-66 93l-66 -93h-102l118 163h100l118 -163h-102z" />
    <glyph glyph-name="Cdotaccent" unicode="&#x10a;" horiz-adv-x="644" 
d="M612 -38q-40 -19 -85.5 -25t-96.5 -6q-86 0 -155 29t-117 81t-74 124.5t-26 158.5t25 158.5t73.5 125t119 82t160.5 29.5q48 0 92 -6.5t79 -20.5l-28 -89q-29 12 -64.5 18.5t-71.5 6.5q-70 -2 -121.5 -25.5t-85.5 -63.5t-51 -95t-17 -121q-1 -60 16.5 -114t52 -95.5
t86 -65.5t119.5 -24q41 0 78.5 6t67.5 20zM453 833q0 -30 -22 -50.5t-52 -20.5q-31 0 -52.5 20.5t-21.5 50.5q0 29 21.5 50.5t52.5 21.5q30 0 52 -21.5t22 -50.5z" />
    <glyph glyph-name="cdotaccent" unicode="&#x10b;" horiz-adv-x="508" 
d="M482 -51q-31 -11 -67 -14.5t-68 -3.5q-74 0 -128.5 23t-91.5 62.5t-55 93.5t-18 117q0 65 20 119.5t57.5 94t91.5 61.5t123 22q35 0 69.5 -4t60.5 -12l-22 -83q-23 8 -50 11.5t-51 3.5q-47 0 -82.5 -16.5t-59.5 -45.5t-36 -68t-12 -83t12.5 -82t36.5 -66.5t60 -45
t83 -16.5q27 0 55 3.5t52 11.5zM352 671q0 -30 -22 -50.5t-52 -20.5q-31 0 -52 20.5t-21 50.5q0 29 21 50.5t52 21.5q30 0 52 -21.5t22 -50.5z" />
    <glyph glyph-name="Ccaron" unicode="&#x10c;" horiz-adv-x="644" 
d="M612 -38q-40 -19 -85.5 -25t-96.5 -6q-86 0 -155 29t-117 81t-74 124.5t-26 158.5t25 158.5t73.5 125t119 82t160.5 29.5q48 0 92 -6.5t79 -20.5l-28 -89q-29 12 -64.5 18.5t-71.5 6.5q-70 -2 -121.5 -25.5t-85.5 -63.5t-51 -95t-17 -121q-1 -60 16.5 -114t52 -95.5
t86 -65.5t119.5 -24q41 0 78.5 6t67.5 20zM317 763l-118 162h103l66 -92l66 92h102l-118 -162h-101z" />
    <glyph glyph-name="ccaron" unicode="&#x10d;" horiz-adv-x="508" 
d="M482 -51q-31 -11 -67 -14.5t-68 -3.5q-74 0 -128.5 23t-91.5 62.5t-55 93.5t-18 117q0 65 20 119.5t57.5 94t91.5 61.5t123 22q35 0 69.5 -4t60.5 -12l-22 -83q-23 8 -50 11.5t-51 3.5q-47 0 -82.5 -16.5t-59.5 -45.5t-36 -68t-12 -83t12.5 -82t36.5 -66.5t60 -45
t83 -16.5q27 0 55 3.5t52 11.5zM240 594l-118 163h102l66 -93l66 93h102l-118 -163h-100z" />
    <glyph glyph-name="Dcaron" unicode="&#x10e;" horiz-adv-x="754" 
d="M88 -55v762h232q90 0 160 -26.5t118 -75.5t73 -119t25 -158q0 -89 -25 -160t-73 -120.5t-118 -76t-160 -26.5h-232zM302 37q76 0 130 21t88 59t50 91.5t16 118.5t-16.5 118t-51 90.5t-88.5 58t-128 20.5h-104v-577h104zM313 763l-118 162h103l66 -91l66 91h103l-119 -162
h-101z" />
    <glyph glyph-name="dcaron" unicode="&#x10f;" horiz-adv-x="973" 
d="M475 -55v64h-6q-17 -23 -38 -38t-44.5 -24t-48 -12.5t-47.5 -3.5q-56 0 -100.5 23t-75.5 63.5t-47.5 94.5t-16.5 116q0 63 16.5 117t47.5 93.5t75 62.5t100 23q51 0 98 -17t84 -62h3v284h109v-784h-109zM475 277q0 31 -11.5 60.5t-32.5 52.5t-50.5 36.5t-64.5 13.5
q-39 0 -68 -16.5t-48 -45t-28.5 -67t-9.5 -83.5q0 -43 9 -81t28 -67t48 -46t69 -17q34 0 63.5 13.5t50.5 37t33 55t12 67.5v87zM719 541q22 11 41 29t26 30q7 14 7 26q0 4 -5 9.5t-17 7.5q-29 4 -44.5 23t-15.5 47q0 27 22 47.5t50 20.5q20 0 36 -8.5t26.5 -22.5t16 -31.5
t5.5 -35.5q0 -25 -9 -52t-26 -49t-41.5 -41t-44.5 -27z" />
    <glyph glyph-name="Dcroat" unicode="&#x110;" horiz-adv-x="754" 
d="M88 -55v346h-88v84h88v332h232q90 0 160 -26.5t118 -75.5t73 -119t25 -158q0 -89 -25 -160t-73 -120.5t-118 -76t-160 -26.5h-232zM302 37q76 0 130 21t88 59t50 91.5t16 118.5t-16.5 118t-51 90.5t-88.5 58t-128 20.5h-104v-239h223v-84h-223v-254h104z" />
    <glyph glyph-name="dcroat" unicode="&#x111;" horiz-adv-x="664" 
d="M475 -55v64h-6q-17 -23 -38 -38t-44.5 -24t-48 -12.5t-47.5 -3.5q-56 0 -100.5 23t-75.5 63.5t-47.5 94.5t-16.5 116q0 63 16.5 117t47.5 93.5t75 62.5t100 23q51 0 98 -17t84 -62h3v112h-192v79h192v93h109v-93h76v-79h-76v-612h-109zM475 277q0 31 -11.5 60.5
t-32.5 52.5t-50.5 36.5t-64.5 13.5q-39 0 -68 -16.5t-48 -45t-28.5 -67t-9.5 -83.5q0 -43 9 -81t28 -67t48 -46t69 -17q34 0 63.5 13.5t50.5 37t33 55t12 67.5v87z" />
    <glyph glyph-name="Emacron" unicode="&#x112;" horiz-adv-x="574" 
d="M88 -55v762h435v-93h-325v-232h301v-93h-301v-252h335v-92h-445zM136 770v83h329v-83h-329z" />
    <glyph glyph-name="emacron" unicode="&#x113;" horiz-adv-x="613" 
d="M522 -44q-37 -14 -79 -19.5t-90 -5.5q-73 0 -129.5 22t-95 61.5t-58.5 94t-20 118.5q0 65 19 119.5t54.5 94t85 61.5t110.5 22q121 0 183 -71t62 -200v-47h-404q4 -42 20 -77t42.5 -59.5t62.5 -38.5t79 -14q36 0 73 4t70 14zM460 287q-2 73 -39 115.5t-102 42.5
q-67 0 -109.5 -43t-50.5 -115h301zM152 602v84h328v-84h-328z" />
    <glyph glyph-name="Ebreve" unicode="&#x114;" horiz-adv-x="574" 
d="M88 -55v762h435v-93h-325v-232h301v-93h-301v-252h335v-92h-445zM468 883q-5 -29 -20.5 -51.5t-38 -38t-50.5 -23.5t-58 -8q-31 0 -59 8t-50.5 23.5t-37.5 38t-19 51.5h83q5 -26 29 -41t54 -15t53.5 15t28.5 41h85z" />
    <glyph glyph-name="ebreve" unicode="&#x115;" horiz-adv-x="613" 
d="M522 -44q-37 -14 -79 -19.5t-90 -5.5q-73 0 -129.5 22t-95 61.5t-58.5 94t-20 118.5q0 65 19 119.5t54.5 94t85 61.5t110.5 22q121 0 183 -71t62 -200v-47h-404q4 -42 20 -77t42.5 -59.5t62.5 -38.5t79 -14q36 0 73 4t70 14zM460 287q-2 73 -39 115.5t-102 42.5
q-67 0 -109.5 -43t-50.5 -115h301zM483 714q-5 -29 -20 -51.5t-37.5 -38t-50.5 -23.5t-59 -8q-30 0 -58 8t-50.5 23.5t-37.5 38t-20 51.5h84q5 -26 28.5 -40.5t53.5 -14.5t54 14.5t29 40.5h84z" />
    <glyph glyph-name="Edotaccent" unicode="&#x116;" horiz-adv-x="574" 
d="M88 -55v762h435v-93h-325v-232h301v-93h-301v-252h335v-92h-445zM380 833q0 -30 -22 -50.5t-52 -20.5q-31 0 -52.5 20.5t-21.5 50.5q0 29 21.5 50.5t52.5 21.5q30 0 52 -21.5t22 -50.5z" />
    <glyph glyph-name="edotaccent" unicode="&#x117;" horiz-adv-x="613" 
d="M522 -44q-37 -14 -79 -19.5t-90 -5.5q-73 0 -129.5 22t-95 61.5t-58.5 94t-20 118.5q0 65 19 119.5t54.5 94t85 61.5t110.5 22q121 0 183 -71t62 -200v-47h-404q4 -42 20 -77t42.5 -59.5t62.5 -38.5t79 -14q36 0 73 4t70 14zM460 287q-2 73 -39 115.5t-102 42.5
q-67 0 -109.5 -43t-50.5 -115h301zM390 671q0 -30 -22 -50.5t-52 -20.5q-31 0 -52 20.5t-21 50.5q0 29 21 50.5t52 21.5q30 0 52 -21.5t22 -50.5z" />
    <glyph glyph-name="Eogonek" unicode="&#x118;" horiz-adv-x="574" 
d="M628 -235q-22 -17 -50 -25.5t-49 -8.5q-63 0 -93 31.5t-27 80.5q2 23 15.5 52.5t30.5 49.5h-367v762h435v-93h-325v-232h301v-93h-301v-252h335v-92q-23 -9 -37 -34.5t-14 -51.5q0 -23 14 -36.5t37 -15.5q14 -2 33 5t36 20z" />
    <glyph glyph-name="eogonek" unicode="&#x119;" horiz-adv-x="613" 
d="M474 -235q-22 -17 -50 -25.5t-49 -8.5q-64 0 -94 31.5t-27 80.5q2 21 12.5 47t26.5 46q-59 9 -104.5 34t-76 63t-46.5 87.5t-16 106.5q0 65 19 119.5t54.5 94t85 61.5t110.5 22q121 0 183 -71t62 -200v-47h-404q4 -42 20 -77t42.5 -59.5t62.5 -38.5t79 -14q36 0 73 4
t70 14l15 -79q-33 -12 -69 -17.5t-78 -7.5h-19q-13 -14 -20.5 -33t-7.5 -39q0 -23 13.5 -36.5t36.5 -15.5q15 -2 33.5 5t35.5 20zM460 287q-2 73 -39 115.5t-102 42.5q-67 0 -109.5 -43t-50.5 -115h301z" />
    <glyph glyph-name="Ecaron" unicode="&#x11a;" horiz-adv-x="574" 
d="M88 -55v762h435v-93h-325v-232h301v-93h-301v-252h335v-92h-445zM255 763l-118 162h103l66 -92l66 92h102l-118 -162h-101z" />
    <glyph glyph-name="ecaron" unicode="&#x11b;" horiz-adv-x="613" 
d="M522 -44q-37 -14 -79 -19.5t-90 -5.5q-73 0 -129.5 22t-95 61.5t-58.5 94t-20 118.5q0 65 19 119.5t54.5 94t85 61.5t110.5 22q121 0 183 -71t62 -200v-47h-404q4 -42 20 -77t42.5 -59.5t62.5 -38.5t79 -14q36 0 73 4t70 14zM460 287q-2 73 -39 115.5t-102 42.5
q-67 0 -109.5 -43t-50.5 -115h301zM267 594l-119 163h102l66 -93l67 93h102l-118 -163h-100z" />
    <glyph glyph-name="Gcircumflex" unicode="&#x11c;" horiz-adv-x="764" 
d="M566 278h-178v94h288v-392q-61 -30 -121.5 -39.5t-120.5 -9.5q-87 0 -157 29t-119 80.5t-75 124t-26 159.5q-1 86 25 159t76 125.5t123 81.5t167 29q54 0 107 -9.5t100 -28.5l-33 -91q-35 19 -81.5 28.5t-91.5 9.5q-68 0 -120 -22t-87.5 -62t-54.5 -96.5t-20 -125.5
q1 -62 19 -116.5t52.5 -95t85 -63.5t118.5 -23q35 0 65 4.5t59 17.5v232zM456 763l-66 92l-66 -92h-103l119 162h101l117 -162h-102z" />
    <glyph glyph-name="gcircumflex" unicode="&#x11d;" horiz-adv-x="662" 
d="M475 37h-6q-17 -23 -38 -38t-44.5 -24t-48 -12.5t-47.5 -3.5q-56 0 -100.5 21t-75.5 58.5t-47.5 89t-16.5 113.5q0 63 16.5 115t47.5 89.5t75 58t100 20.5q51 0 98 -17t84 -62h3v66h109l-1 -527q0 -66 -23.5 -113.5t-63 -78.5t-91 -46t-107.5 -15q-48 0 -97.5 6.5
t-87.5 18.5l24 83q35 -12 72 -17t79 -5q95 0 141 43.5t46 124.5v52zM475 287q0 31 -11.5 59t-32.5 49t-50.5 33t-64.5 12q-39 0 -68 -14.5t-48 -40.5t-28.5 -62.5t-9.5 -81.5q0 -43 9 -79t28 -62t48 -40.5t69 -14.5q34 0 63.5 13.5t50.5 37t33 55t12 67.5v69zM397 594
l-67 93l-66 -93h-102l118 163h100l119 -163h-102z" />
    <glyph glyph-name="Gbreve" unicode="&#x11e;" horiz-adv-x="764" 
d="M566 278h-178v94h288v-392q-61 -30 -121.5 -39.5t-120.5 -9.5q-87 0 -157 29t-119 80.5t-75 124t-26 159.5q-1 86 25 159t76 125.5t123 81.5t167 29q54 0 107 -9.5t100 -28.5l-33 -91q-35 19 -81.5 28.5t-91.5 9.5q-68 0 -120 -22t-87.5 -62t-54.5 -96.5t-20 -125.5
q1 -62 19 -116.5t52.5 -95t85 -63.5t118.5 -23q35 0 65 4.5t59 17.5v232zM553 883q-5 -29 -20 -51.5t-37.5 -38t-50.5 -23.5t-59 -8q-30 0 -58 8t-50.5 23.5t-38 38t-20.5 51.5h85q5 -26 28.5 -41t53.5 -15t54 15t29 41h84z" />
    <glyph glyph-name="gbreve" unicode="&#x11f;" horiz-adv-x="662" 
d="M475 37h-6q-17 -23 -38 -38t-44.5 -24t-48 -12.5t-47.5 -3.5q-56 0 -100.5 21t-75.5 58.5t-47.5 89t-16.5 113.5q0 63 16.5 115t47.5 89.5t75 58t100 20.5q51 0 98 -17t84 -62h3v66h109l-1 -527q0 -66 -23.5 -113.5t-63 -78.5t-91 -46t-107.5 -15q-48 0 -97.5 6.5
t-87.5 18.5l24 83q35 -12 72 -17t79 -5q95 0 141 43.5t46 124.5v52zM475 287q0 31 -11.5 59t-32.5 49t-50.5 33t-64.5 12q-39 0 -68 -14.5t-48 -40.5t-28.5 -62.5t-9.5 -81.5q0 -43 9 -79t28 -62t48 -40.5t69 -14.5q34 0 63.5 13.5t50.5 37t33 55t12 67.5v69zM491 714
q-5 -29 -20 -51.5t-37.5 -38t-50.5 -23.5t-59 -8q-30 0 -58 8t-50 23.5t-37.5 38t-19.5 51.5h84q4 -26 27.5 -40.5t53.5 -14.5q31 0 54.5 14.5t28.5 40.5h84z" />
    <glyph glyph-name="Gdotaccent" unicode="&#x120;" horiz-adv-x="764" 
d="M566 278h-178v94h288v-392q-61 -30 -121.5 -39.5t-120.5 -9.5q-87 0 -157 29t-119 80.5t-75 124t-26 159.5q-1 86 25 159t76 125.5t123 81.5t167 29q54 0 107 -9.5t100 -28.5l-33 -91q-35 19 -81.5 28.5t-91.5 9.5q-68 0 -120 -22t-87.5 -62t-54.5 -96.5t-20 -125.5
q1 -62 19 -116.5t52.5 -95t85 -63.5t118.5 -23q35 0 65 4.5t59 17.5v232zM460 833q0 -30 -22 -50.5t-52 -20.5q-31 0 -52 20.5t-21 50.5q0 29 21 50.5t52 21.5q30 0 52 -21.5t22 -50.5z" />
    <glyph glyph-name="gdotaccent" unicode="&#x121;" horiz-adv-x="662" 
d="M475 37h-6q-17 -23 -38 -38t-44.5 -24t-48 -12.5t-47.5 -3.5q-56 0 -100.5 21t-75.5 58.5t-47.5 89t-16.5 113.5q0 63 16.5 115t47.5 89.5t75 58t100 20.5q51 0 98 -17t84 -62h3v66h109l-1 -527q0 -66 -23.5 -113.5t-63 -78.5t-91 -46t-107.5 -15q-48 0 -97.5 6.5
t-87.5 18.5l24 83q35 -12 72 -17t79 -5q95 0 141 43.5t46 124.5v52zM475 287q0 31 -11.5 59t-32.5 49t-50.5 33t-64.5 12q-39 0 -68 -14.5t-48 -40.5t-28.5 -62.5t-9.5 -81.5q0 -43 9 -79t28 -62t48 -40.5t69 -14.5q34 0 63.5 13.5t50.5 37t33 55t12 67.5v69zM404 671
q0 -30 -22 -50.5t-52 -20.5q-32 0 -53 20.5t-21 50.5q0 29 21 50.5t53 21.5q30 0 52 -21.5t22 -50.5z" />
    <glyph glyph-name="uni0122" unicode="&#x122;" horiz-adv-x="764" 
d="M566 278h-178v94h288v-392q-61 -30 -121.5 -39.5t-120.5 -9.5q-87 0 -157 29t-119 80.5t-75 124t-26 159.5q-1 86 25 159t76 125.5t123 81.5t167 29q54 0 107 -9.5t100 -28.5l-33 -91q-35 19 -81.5 28.5t-91.5 9.5q-68 0 -120 -22t-87.5 -62t-54.5 -96.5t-20 -125.5
q1 -62 19 -116.5t52.5 -95t85 -63.5t118.5 -23q35 0 65 4.5t59 17.5v232zM370 -325q22 11 40.5 29t26.5 30q7 14 7 26q0 4 -5 9.5t-17 7.5q-29 4 -44.5 23t-15.5 47q0 27 22 47.5t50 20.5q20 0 36 -8.5t26.5 -22.5t16 -31.5t5.5 -35.5q0 -25 -9 -52t-26 -49t-41.5 -41
t-44.5 -27z" />
    <glyph glyph-name="uni0123" unicode="&#x123;" horiz-adv-x="662" 
d="M475 37h-6q-17 -23 -38 -38t-44.5 -24t-48 -12.5t-47.5 -3.5q-56 0 -100.5 21t-75.5 58.5t-47.5 89t-16.5 113.5q0 63 16.5 115t47.5 89.5t75 58t100 20.5q51 0 98 -17t84 -62h3v66h109l-1 -527q0 -66 -23.5 -113.5t-63 -78.5t-91 -46t-107.5 -15q-48 0 -97.5 6.5
t-87.5 18.5l24 83q35 -12 72 -17t79 -5q95 0 141 43.5t46 124.5v52zM475 287q0 31 -11.5 59t-32.5 49t-50.5 33t-64.5 12q-39 0 -68 -14.5t-48 -40.5t-28.5 -62.5t-9.5 -81.5q0 -43 9 -79t28 -62t48 -40.5t69 -14.5q34 0 63.5 13.5t50.5 37t33 55t12 67.5v69zM383 806
q-22 -11 -41 -29t-26 -30q-7 -14 -7 -26q0 -4 5 -9.5t17 -7.5q29 -4 44.5 -23t15.5 -47q0 -27 -22 -47.5t-50 -20.5q-20 0 -36 8.5t-26.5 22.5t-16 31.5t-5.5 35.5q0 25 9 52t26 49t41.5 41t44.5 27z" />
    <glyph glyph-name="Hcircumflex" unicode="&#x124;" horiz-adv-x="745" 
d="M547 -55v344h-349v-344h-110v762h110v-325h349v325h110v-762h-110zM441 763l-67 92l-66 -92h-102l118 162h100l119 -162h-102z" />
    <glyph glyph-name="hcircumflex" unicode="&#x125;" horiz-adv-x="651" 
d="M466 -55v328q0 40 -6 71t-20.5 52.5t-39 32.5t-62.5 11q-27 0 -53.5 -10t-47.5 -31.5t-34 -56t-13 -82.5v-315h-110v784h110v-285h7q32 42 78 61t100 19q94 0 148 -55t54 -150v-374h-111zM417 763l-66 92l-67 -92h-102l119 162h100l118 -162h-102z" />
    <glyph glyph-name="Hbar" unicode="&#x126;" horiz-adv-x="745" 
d="M547 -55v344h-349v-344h-110v571h-82v87h82v104h110v-104h349v104h110v-104h87v-87h-87v-571h-110zM547 516h-349v-134h349v134z" />
    <glyph glyph-name="hbar" unicode="&#x127;" horiz-adv-x="651" 
d="M466 -55v328q0 40 -6 71t-20.5 52.5t-39 32.5t-62.5 11q-27 0 -53.5 -10t-47.5 -31.5t-34 -56t-13 -82.5v-315h-110v603h-74v84h74v97h110v-97h209v-84h-209v-104h7q32 42 78 61t100 19q94 0 148 -55t54 -150v-374h-111z" />
    <glyph glyph-name="Itilde" unicode="&#x128;" horiz-adv-x="285" 
d="M88 -55v762h110v-762h-110zM291 879q0 -57 -28 -87.5t-73 -30.5q-35 0 -52 11t-30 23q-8 8 -15 14t-13 6q-11 0 -18 -14t-7 -38h-80q0 57 29 88t74 31q34 0 51 -10.5t30 -22.5q8 -7 15 -12.5t13 -5.5q25 0 25 48h79z" />
    <glyph glyph-name="itilde" unicode="&#x129;" horiz-adv-x="271" 
d="M80 -55v566h110v-566h-110zM294 710q0 -57 -29 -87.5t-74 -30.5q-35 0 -52 11.5t-30 22.5q-8 8 -15 14.5t-13 6.5q-11 0 -17.5 -14.5t-6.5 -38.5h-80q0 57 28.5 88t73.5 31q34 0 51 -10t30 -22q8 -8 15 -13.5t13 -5.5q26 0 26 48h80z" />
    <glyph glyph-name="Imacron" unicode="&#x12a;" horiz-adv-x="285" 
d="M88 -55v762h110v-762h-110zM-26 770v83h328v-83h-328z" />
    <glyph glyph-name="imacron" unicode="&#x12b;" horiz-adv-x="271" 
d="M80 -55v566h110v-566h-110zM-28 602v84h327v-84h-327z" />
    <glyph glyph-name="Ibreve" unicode="&#x12c;" horiz-adv-x="285" 
d="M88 -55v762h110v-762h-110zM305 883q-5 -29 -20.5 -51.5t-38 -38t-50.5 -23.5t-58 -8t-58 8t-50.5 23.5t-37.5 38t-20 51.5h84q5 -26 28.5 -41t53.5 -15t53.5 15t28.5 41h85z" />
    <glyph glyph-name="ibreve" unicode="&#x12d;" horiz-adv-x="271" 
d="M80 -55v566h110v-566h-110zM302 714q-5 -29 -20 -51.5t-37.5 -38t-50.5 -23.5t-58 -8t-58.5 8t-51 23.5t-37.5 38t-20 51.5h85q5 -26 28.5 -40.5t53.5 -14.5t53.5 14.5t27.5 40.5h85z" />
    <glyph glyph-name="Iogonek" unicode="&#x12e;" horiz-adv-x="285" 
d="M276 -235q-22 -17 -50 -25.5t-49 -8.5q-63 0 -93 31.5t-27 80.5q2 23 15 52.5t31 49.5h-15v762h110v-762h-18q-23 -9 -36.5 -34.5t-13.5 -51.5q0 -23 13.5 -36.5t36.5 -15.5q15 -2 33.5 5t35.5 20z" />
    <glyph glyph-name="iogonek" unicode="&#x12f;" horiz-adv-x="271" 
d="M269 -235q-22 -17 -50 -25.5t-49 -8.5q-64 0 -94 31.5t-27 80.5q2 23 15.5 52.5t31.5 49.5h-16v566h110v-566h-17q-23 -9 -36.5 -34.5t-13.5 -51.5q0 -23 13.5 -36.5t36.5 -15.5q15 -2 33.5 5t35.5 20zM206 667q0 -29 -21 -49t-51 -20t-50.5 20t-20.5 49t20.5 49.5
t50.5 20.5t51 -20.5t21 -49.5z" />
    <glyph glyph-name="Idotaccent" unicode="&#x130;" horiz-adv-x="285" 
d="M88 -55v762h110v-762h-110zM216 833q0 -30 -22 -50.5t-52 -20.5q-31 0 -52 20.5t-21 50.5q0 29 21 50.5t52 21.5q30 0 52 -21.5t22 -50.5z" />
    <glyph glyph-name="dotlessi" unicode="&#x131;" horiz-adv-x="271" 
d="M80 -55v566h110v-566h-110z" />
    <glyph glyph-name="IJ" unicode="&#x132;" horiz-adv-x="629" 
d="M88 -55v762h110v-762h-110zM285 28q15 -2 31 -3t27 -1q54 0 77 23.5t23 80.5v579h110v-585q2 -94 -43.5 -142.5t-146.5 -48.5q-17 0 -38 1.5t-40 4.5v91z" />
    <glyph glyph-name="ij" unicode="&#x133;" horiz-adv-x="542" 
d="M80 -55v566h110v-566h-110zM206 667q0 -29 -21 -49t-51 -20t-50.5 20t-20.5 49t20.5 49.5t50.5 20.5t51 -20.5t21 -49.5zM229 -181q11 -2 21 -2h21q45 0 62.5 22.5t17.5 76.5v595h109v-610q0 -82 -39 -125t-132 -45q-13 0 -28.5 1t-31.5 3v84zM479 667q0 -29 -21 -49
t-51 -20t-50.5 20t-20.5 49t20.5 49.5t50.5 20.5t51 -20.5t21 -49.5z" />
    <glyph glyph-name="Jcircumflex" unicode="&#x134;" horiz-adv-x="344" 
d="M0 28q15 -2 30.5 -3t27.5 -1q54 0 77 23.5t23 80.5v579h110v-585q2 -94 -43.5 -142.5t-147.5 -48.5q-16 0 -37 1.5t-40 4.5v91zM280 763l-67 92l-66 -92h-102l119 162h100l118 -162h-102z" />
    <glyph glyph-name="jcircumflex" unicode="&#x135;" horiz-adv-x="271" 
d="M-42 -181q11 -2 21 -2h21q45 0 62.5 22.5t17.5 76.5v595h110v-610q0 -82 -39.5 -125t-131.5 -45q-14 0 -29.5 1t-31.5 3v84zM198 594l-66 93l-67 -93h-102l118 163h100l119 -163h-102z" />
    <glyph glyph-name="uni0136" unicode="&#x136;" horiz-adv-x="651" 
d="M500 -55l-223 367l-79 -93v-274h-110v762h110v-343l282 343h133l-266 -312l290 -450h-137zM260 -325q21 11 40 29t27 30q7 14 7 26q0 4 -5 9.5t-17 7.5q-29 4 -45 23t-16 47q0 27 22 47.5t50 20.5q21 0 36.5 -8.5t26.5 -22.5t16.5 -31.5t5.5 -35.5q0 -25 -9 -52t-26 -49
t-42 -41t-45 -27z" />
    <glyph glyph-name="uni0137" unicode="&#x137;" horiz-adv-x="574" 
d="M431 -55l-187 259l-54 -54v-205h-110v793h110v-461l224 234h136l-238 -238l251 -328h-132zM219 -325q22 11 41 29t26 30q8 16 8 26q0 4 -5.5 9.5t-16.5 7.5q-29 4 -45 23t-16 47q0 27 22 47.5t50 20.5q21 0 36.5 -8.5t26.5 -22.5t16.5 -31.5t5.5 -35.5q0 -25 -9 -52
t-26 -49t-42 -41t-45 -27z" />
    <glyph glyph-name="kgreenlandic" unicode="&#x138;" horiz-adv-x="574" 
d="M431 -55l-187 259l-54 -54v-205h-110v566h110v-234l224 234h136l-238 -238l251 -328h-132z" />
    <glyph glyph-name="Lacute" unicode="&#x139;" horiz-adv-x="544" 
d="M88 -55v762h110v-670h331v-92h-441zM142 763l86 162h136l-134 -162h-88z" />
    <glyph glyph-name="lacute" unicode="&#x13a;" horiz-adv-x="270" 
d="M80 -55v793h110v-793h-110zM55 763l84 162h137l-135 -162h-86z" />
    <glyph glyph-name="uni013B" unicode="&#x13b;" horiz-adv-x="544" 
d="M88 -55v762h110v-670h331v-92h-441zM276 -325q22 11 41 29t26 30q7 14 7 26q0 4 -5 9.5t-16 7.5q-29 4 -45 23t-16 47q0 27 22 47.5t50 20.5q20 0 36 -8.5t26.5 -22.5t16 -31.5t5.5 -35.5q0 -25 -9 -52t-26 -49t-41.5 -41t-44.5 -27z" />
    <glyph glyph-name="uni013C" unicode="&#x13c;" horiz-adv-x="270" 
d="M80 -55v793h110v-793h-110zM71 -325q22 11 41 29t26 30q7 14 7 26q0 4 -5 9.5t-16 7.5q-29 4 -45 23t-16 47q0 27 22 47.5t50 20.5q21 0 36.5 -8.5t26 -22.5t16 -31.5t5.5 -35.5q0 -25 -9 -52t-26 -49t-41.5 -41t-44.5 -27z" />
    <glyph glyph-name="Lcaron" unicode="&#x13d;" horiz-adv-x="544" 
d="M88 -55v762h110v-670h331v-92h-441zM396 489q21 11 40 29t26 30q8 13 8 26q0 4 -5.5 9.5t-16.5 7.5q-29 4 -45 23t-16 47q0 27 22 47.5t50 20.5q21 0 36.5 -8.5t26.5 -22.5t16.5 -31.5t5.5 -35.5q0 -25 -9 -52t-26 -49t-42 -41t-45 -27z" />
    <glyph glyph-name="lcaron" unicode="&#x13e;" horiz-adv-x="579" 
d="M80 -55v793h110v-793h-110zM324 489q22 11 41 29t26 30q8 13 8 26q0 4 -5.5 9.5t-16.5 7.5q-29 4 -45 23t-16 47q0 27 22 47.5t50 20.5q21 0 36.5 -8.5t26.5 -22.5t16.5 -31.5t5.5 -35.5q0 -25 -9 -52t-26 -49t-42 -41t-45 -27z" />
    <glyph glyph-name="Ldot" unicode="&#x13f;" horiz-adv-x="544" 
d="M88 -55v762h110v-670h331v-92h-441zM441 321q0 -33 -23 -55t-60 -22q-33 0 -55.5 22.5t-22.5 54.5q0 35 23 56.5t60 21.5q33 0 55.5 -22.5t22.5 -55.5z" />
    <glyph glyph-name="ldot" unicode="&#x140;" horiz-adv-x="534" 
d="M80 -55v793h110v-793h-110zM482 321q0 -33 -23 -55t-59 -22q-34 0 -56.5 22.5t-22.5 54.5q0 35 23 56.5t60 21.5q33 0 55.5 -22.5t22.5 -55.5z" />
    <glyph glyph-name="Lslash" unicode="&#x141;" horiz-adv-x="544" 
d="M88 -55v309l-94 -84v113l94 84v340h110v-242l135 121v-112l-135 -121v-316h331v-92h-441z" />
    <glyph glyph-name="lslash" unicode="&#x142;" horiz-adv-x="270" 
d="M80 -55v305l-71 -62v106l71 62v382h110v-286l72 63v-106l-72 -63v-401h-110z" />
    <glyph glyph-name="Nacute" unicode="&#x143;" horiz-adv-x="757" 
d="M517 -55l-321 648h-3v-648h-105v762h157l315 -643h4v643h105v-762h-152zM301 763l85 162h136l-134 -162h-87z" />
    <glyph glyph-name="nacute" unicode="&#x144;" horiz-adv-x="652" 
d="M466 -55v328q0 39 -6 70t-20.5 52.5t-39 33t-62.5 11.5q-27 0 -53.5 -10t-47.5 -31.5t-34 -55.5t-13 -83v-315h-110v566h106v-81h2q26 42 74.5 68t112.5 26q94 0 148 -55t54 -150v-374h-111zM240 594l85 163h136l-133 -163h-88z" />
    <glyph glyph-name="uni0145" unicode="&#x145;" horiz-adv-x="757" 
d="M517 -55l-321 648h-3v-648h-105v762h157l315 -643h4v643h105v-762h-152zM341 -325q22 11 41 29t26 30q7 14 7 26q0 4 -5 9.5t-17 7.5q-29 4 -44.5 23t-15.5 47q0 27 22 47.5t50 20.5q20 0 36 -8.5t26.5 -22.5t16 -31.5t5.5 -35.5q0 -25 -9 -52t-26 -49t-41.5 -41
t-44.5 -27z" />
    <glyph glyph-name="uni0146" unicode="&#x146;" horiz-adv-x="652" 
d="M466 -55v328q0 39 -6 70t-20.5 52.5t-39 33t-62.5 11.5q-27 0 -53.5 -10t-47.5 -31.5t-34 -55.5t-13 -83v-315h-110v566h106v-81h2q26 42 74.5 68t112.5 26q94 0 148 -55t54 -150v-374h-111zM264 -325q22 11 40.5 29t26.5 30q7 14 7 26q0 4 -5 9.5t-17 7.5q-29 4 -45 23
t-16 47q0 13 6 25.5t16 22t23.5 15t27.5 5.5q20 0 36 -8.5t26.5 -22.5t16 -31.5t5.5 -35.5q0 -25 -9 -52t-26 -49t-42 -41t-45 -27z" />
    <glyph glyph-name="Ncaron" unicode="&#x147;" horiz-adv-x="757" 
d="M517 -55l-321 648h-3v-648h-105v762h157l315 -643h4v643h105v-762h-152zM323 763l-118 162h103l66 -92l66 92h103l-119 -162h-101z" />
    <glyph glyph-name="ncaron" unicode="&#x148;" horiz-adv-x="652" 
d="M466 -55v328q0 39 -6 70t-20.5 52.5t-39 33t-62.5 11.5q-27 0 -53.5 -10t-47.5 -31.5t-34 -55.5t-13 -83v-315h-110v566h106v-81h2q26 42 74.5 68t112.5 26q94 0 148 -55t54 -150v-374h-111zM283 594l-118 163h102l66 -93l67 93h102l-119 -163h-100z" />
    <glyph glyph-name="napostrophe" unicode="&#x149;" horiz-adv-x="775" 
d="M588 -55v328q0 39 -6 70t-20.5 52.5t-39 33t-62.5 11.5q-27 0 -53.5 -10t-47.5 -31.5t-34 -55.5t-13 -83v-315h-109v566h106v-81h2q26 42 74.5 68t111.5 26q94 0 148 -55t54 -150v-374h-111zM55 541q21 11 40 29t27 30q7 14 7 26q0 4 -5 9.5t-17 7.5q-29 4 -45 23t-16 47
q0 27 22 47.5t50 20.5q21 0 36.5 -8.5t26.5 -22.5t16.5 -31.5t5.5 -35.5q0 -25 -9 -52t-26 -49t-42 -41t-45 -27z" />
    <glyph glyph-name="Eng" unicode="&#x14a;" horiz-adv-x="777" 
d="M563 173q8 33 11.5 70t3.5 73q0 45 -5.5 90t-16.5 86q-16 69 -63.5 103t-111.5 34q-36 0 -69.5 -12.5t-59 -33t-41 -45.5t-15.5 -49l1 -543h-109v762h108v-47q37 30 83.5 45.5t106.5 15.5q39 0 82 -13t82.5 -40t72 -68.5t49.5 -99.5q8 -36 12.5 -84t4.5 -97
q0 -45 -3.5 -87.5t-10.5 -76.5q-14 -59 -40.5 -101.5t-62 -69.5t-79 -39.5t-89.5 -12.5q-45 0 -89 11t-86 37l55 90q26 -22 52.5 -34t59.5 -12q66 0 108.5 40t58.5 109v-1z" />
    <glyph glyph-name="eng" unicode="&#x14b;" horiz-adv-x="652" 
d="M345 -152q11 -2 21 -2h21q45 0 62 22.5t17 76.5v328q0 39 -6 70t-20.5 52.5t-39 33t-62.5 11.5q-27 0 -53.5 -10t-47.5 -31.5t-34 -55.5t-13 -83v-315h-110v566h106v-81h2q26 42 74.5 68t112.5 26q94 0 148 -55t54 -150v-389q0 -82 -39.5 -125t-131.5 -45q-14 0 -29 1
t-32 3v84z" />
    <glyph glyph-name="Omacron" unicode="&#x14c;" horiz-adv-x="806" 
d="M404 -69q-83 0 -147.5 29.5t-108.5 82t-66.5 124.5t-22.5 158q0 87 22.5 159t66.5 124.5t108.5 81.5t147.5 29t147.5 -29t108 -81t66 -124.5t22.5 -159.5q0 -86 -22.5 -158t-66.5 -124.5t-108 -82t-147 -29.5zM404 24q60 0 104 23.5t73.5 64.5t43.5 95.5t14 117.5
t-15 118t-44.5 96.5t-73.5 65t-102 23.5q-59 0 -103.5 -24t-73.5 -65.5t-43.5 -96.5t-14.5 -117q0 -63 14 -117.5t43 -95.5t73.5 -64.5t104.5 -23.5zM237 770v83h328v-83h-328z" />
    <glyph glyph-name="omacron" unicode="&#x14d;" horiz-adv-x="652" 
d="M325 -69q-62 0 -112.5 20.5t-85.5 59.5t-54 94t-19 124t19 124t54 93t85.5 58t112.5 20q63 0 113.5 -20t86.5 -58t55 -92.5t19 -124.5q0 -69 -19 -124t-55 -94t-86.5 -59.5t-113.5 -20.5zM325 17q42 0 73 15.5t51.5 43t30.5 66.5t10 87q0 46 -10 84.5t-30 66.5t-51 44
t-74 16q-41 0 -71.5 -16t-50.5 -44t-30 -67t-10 -84q0 -96 40.5 -153.5t121.5 -58.5zM162 602v84h327v-84h-327z" />
    <glyph glyph-name="Obreve" unicode="&#x14e;" horiz-adv-x="806" 
d="M404 -69q-83 0 -147.5 29.5t-108.5 82t-66.5 124.5t-22.5 158q0 87 22.5 159t66.5 124.5t108.5 81.5t147.5 29t147.5 -29t108 -81t66 -124.5t22.5 -159.5q0 -86 -22.5 -158t-66.5 -124.5t-108 -82t-147 -29.5zM404 24q60 0 104 23.5t73.5 64.5t43.5 95.5t14 117.5
t-15 118t-44.5 96.5t-73.5 65t-102 23.5q-59 0 -103.5 -24t-73.5 -65.5t-43.5 -96.5t-14.5 -117q0 -63 14 -117.5t43 -95.5t73.5 -64.5t104.5 -23.5zM569 883q-5 -29 -20.5 -51.5t-38 -38t-50.5 -23.5t-58 -8q-31 0 -59 8t-50.5 23.5t-37.5 38t-20 51.5h84q5 -26 29 -41
t54 -15t53.5 15t28.5 41h85z" />
    <glyph glyph-name="obreve" unicode="&#x14f;" horiz-adv-x="652" 
d="M325 -69q-62 0 -112.5 20.5t-85.5 59.5t-54 94t-19 124t19 124t54 93t85.5 58t112.5 20q63 0 113.5 -20t86.5 -58t55 -92.5t19 -124.5q0 -69 -19 -124t-55 -94t-86.5 -59.5t-113.5 -20.5zM325 17q42 0 73 15.5t51.5 43t30.5 66.5t10 87q0 46 -10 84.5t-30 66.5t-51 44
t-74 16q-41 0 -71.5 -16t-50.5 -44t-30 -67t-10 -84q0 -96 40.5 -153.5t121.5 -58.5zM489 714q-5 -29 -20 -51.5t-37.5 -38t-50.5 -23.5t-59 -8q-30 0 -58 8t-50 23.5t-37.5 38t-19.5 51.5h84q4 -26 27.5 -40.5t53.5 -14.5q31 0 54.5 14.5t28.5 40.5h84z" />
    <glyph glyph-name="Ohungarumlaut" unicode="&#x150;" horiz-adv-x="806" 
d="M404 -69q-83 0 -147.5 29.5t-108.5 82t-66.5 124.5t-22.5 158q0 87 22.5 159t66.5 124.5t108.5 81.5t147.5 29t147.5 -29t108 -81t66 -124.5t22.5 -159.5q0 -86 -22.5 -158t-66.5 -124.5t-108 -82t-147 -29.5zM404 24q60 0 104 23.5t73.5 64.5t43.5 95.5t14 117.5
t-15 118t-44.5 96.5t-73.5 65t-102 23.5q-59 0 -103.5 -24t-73.5 -65.5t-43.5 -96.5t-14.5 -117q0 -63 14 -117.5t43 -95.5t73.5 -64.5t104.5 -23.5zM249 763l86 162h136l-134 -162h-88zM430 763l85 162h137l-135 -162h-87z" />
    <glyph glyph-name="ohungarumlaut" unicode="&#x151;" horiz-adv-x="652" 
d="M325 -69q-62 0 -112.5 20.5t-85.5 59.5t-54 94t-19 124t19 124t54 93t85.5 58t112.5 20q63 0 113.5 -20t86.5 -58t55 -92.5t19 -124.5q0 -69 -19 -124t-55 -94t-86.5 -59.5t-113.5 -20.5zM325 17q42 0 73 15.5t51.5 43t30.5 66.5t10 87q0 46 -10 84.5t-30 66.5t-51 44
t-74 16q-41 0 -71.5 -16t-50.5 -44t-30 -67t-10 -84q0 -96 40.5 -153.5t121.5 -58.5zM164 594l84 163h137l-135 -163h-86zM344 594l86 163h135l-133 -163h-88z" />
    <glyph glyph-name="OE" unicode="&#x152;" horiz-adv-x="901" 
d="M474 -55v63q-27 -37 -66.5 -57t-92.5 -20q-64 0 -112 29.5t-80 82t-48 124.5t-16 158q0 87 16 159t48 124.5t80 81.5t112 29q54 0 93 -20t66 -56v64h375v-93h-265v-232h240v-93h-240v-252h274v-92h-384zM321 24q38 0 64.5 23.5t42.5 64.5t23 95.5t7 117.5t-7.5 118
t-24 96.5t-42.5 65t-63 23.5t-65.5 -24t-47.5 -65.5t-29 -96.5t-10 -117q0 -63 9.5 -117.5t28.5 -95.5t47.5 -64.5t66.5 -23.5z" />
    <glyph glyph-name="oe" unicode="&#x153;" horiz-adv-x="1027" 
d="M936 -44q-37 -14 -73.5 -19.5t-84.5 -5.5q-85 0 -144 28.5t-95 78.5q-35 -51 -90 -79t-129 -28q-63 0 -112 20.5t-83.5 59.5t-52.5 94t-18 124t18 124t52.5 93t83.5 58t112 20q73 0 128 -26.5t90 -77.5q33 49 85 76.5t121 27.5q120 0 177 -71.5t57 -199.5v-47h-384
q4 -42 19 -77t39.5 -59.5t58.5 -38.5t77 -14q36 0 68.5 4t64.5 14zM320 17q42 0 72 15.5t49.5 43t29 66.5t9.5 87q0 46 -9 84.5t-28.5 66.5t-49.5 44t-73 16q-41 0 -71 -16t-49 -44t-28 -67t-9 -84q0 -96 38 -153.5t119 -58.5zM874 287q-2 73 -34 115.5t-96 42.5
q-68 0 -105 -43t-46 -115h281z" />
    <glyph glyph-name="Racute" unicode="&#x154;" horiz-adv-x="669" 
d="M534 -55q-9 16 -15 36t-10 37l-32 138q-8 34 -19 57t-30 36t-48.5 18.5t-74.5 5.5h-107v-328h-110v762h275q49 0 94 -11t78.5 -35.5t53.5 -63t20 -93.5q0 -32 -10 -61t-28.5 -52.5t-44.5 -41t-57 -25.5v-6q20 -7 37.5 -16.5t31.5 -24.5t24.5 -38t17.5 -56l33 -153
q9 -45 34 -85h-113zM333 367q78 0 120.5 27.5t45.5 96.5q0 38 -14 62t-36.5 37.5t-51.5 18.5t-59 5h-140v-247h135zM256 763l86 162h137l-135 -162h-88z" />
    <glyph glyph-name="racute" unicode="&#x155;" horiz-adv-x="389" 
d="M80 -55v566h106v-65h4q23 38 64 58t92 20h17t18 -1l-5 -86q-18 3 -40 3q-29 1 -55.5 -9.5t-47 -34t-32.5 -60.5t-11 -89v-302h-110zM135 594l84 163h137l-135 -163h-86z" />
    <glyph glyph-name="uni0156" unicode="&#x156;" horiz-adv-x="669" 
d="M534 -55q-9 16 -15 36t-10 37l-32 138q-8 34 -19 57t-30 36t-48.5 18.5t-74.5 5.5h-107v-328h-110v762h275q49 0 94 -11t78.5 -35.5t53.5 -63t20 -93.5q0 -32 -10 -61t-28.5 -52.5t-44.5 -41t-57 -25.5v-6q20 -7 37.5 -16.5t31.5 -24.5t24.5 -38t17.5 -56l33 -153
q9 -45 34 -85h-113zM333 367q78 0 120.5 27.5t45.5 96.5q0 38 -14 62t-36.5 37.5t-51.5 18.5t-59 5h-140v-247h135zM257 -325q22 11 41 29t26 30q8 13 8 26q0 4 -5.5 9.5t-16.5 7.5q-29 4 -45 23t-16 47q0 27 22 47.5t50 20.5q21 0 36.5 -8.5t26.5 -22.5t16.5 -31.5
t5.5 -35.5q0 -25 -9 -52t-26 -49t-42 -41t-45 -27z" />
    <glyph glyph-name="uni0157" unicode="&#x157;" horiz-adv-x="389" 
d="M80 -55v566h106v-65h4q23 38 64 58t92 20h17t18 -1l-5 -86q-18 3 -40 3q-29 1 -55.5 -9.5t-47 -34t-32.5 -60.5t-11 -89v-302h-110zM71 -325q22 11 41 29t26 30q7 14 7 26q0 4 -5 9.5t-16 7.5q-29 4 -45 23t-16 47q0 27 22 47.5t50 20.5q21 0 36.5 -8.5t26 -22.5
t16 -31.5t5.5 -35.5q0 -25 -9 -52t-26 -49t-41.5 -41t-44.5 -27z" />
    <glyph glyph-name="Rcaron" unicode="&#x158;" horiz-adv-x="669" 
d="M534 -55q-9 16 -15 36t-10 37l-32 138q-8 34 -19 57t-30 36t-48.5 18.5t-74.5 5.5h-107v-328h-110v762h275q49 0 94 -11t78.5 -35.5t53.5 -63t20 -93.5q0 -32 -10 -61t-28.5 -52.5t-44.5 -41t-57 -25.5v-6q20 -7 37.5 -16.5t31.5 -24.5t24.5 -38t17.5 -56l33 -153
q9 -45 34 -85h-113zM333 367q78 0 120.5 27.5t45.5 96.5q0 38 -14 62t-36.5 37.5t-51.5 18.5t-59 5h-140v-247h135zM275 763l-118 162h102l65 -92l67 92h102l-118 -162h-100z" />
    <glyph glyph-name="rcaron" unicode="&#x159;" horiz-adv-x="389" 
d="M80 -55v566h106v-65h4q23 38 64 58t92 20h17t18 -1l-5 -86q-18 3 -40 3q-29 1 -55.5 -9.5t-47 -34t-32.5 -60.5t-11 -89v-302h-110zM177 594l-118 163h102l66 -93l67 93h102l-119 -163h-100z" />
    <glyph glyph-name="Sacute" unicode="&#x15a;" horiz-adv-x="580" 
d="M66 62q53 -23 105 -30.5t97 -7.5q73 0 115 29t42 85q0 52 -45 85t-129 67q-45 18 -81 40t-62 48.5t-40 59t-14 72.5q0 54 21.5 93.5t57 65t81 38t93.5 12.5q51 0 99 -6.5t90 -21.5l-21 -91q-39 13 -81.5 20.5t-82.5 7.5q-29 0 -55.5 -5.5t-47 -18.5t-33 -33t-12.5 -50
q0 -23 8.5 -41t27.5 -34.5t49 -32.5t73 -33q50 -19 89.5 -40.5t67.5 -48.5t42.5 -62t14.5 -81q0 -56 -22.5 -97t-59.5 -67.5t-84.5 -39.5t-98.5 -13q-24 0 -52.5 2.5t-58.5 7.5t-60 12.5t-57 16.5zM237 763l85 162h137l-135 -162h-87z" />
    <glyph glyph-name="sacute" unicode="&#x15b;" horiz-adv-x="505" 
d="M65 51q46 -18 94.5 -26t82.5 -8q51 0 81 15.5t31 57.5q0 33 -31.5 55.5t-103.5 45.5q-85 29 -124.5 69t-39.5 99q0 43 18.5 74t48 51.5t65.5 30t72 9.5q44 0 88.5 -7t80.5 -21l-26 -80q-41 14 -75 19t-70 5q-18 0 -35.5 -4t-32 -12t-23.5 -21.5t-9 -31.5q0 -16 6 -28.5
t20 -23.5t37 -21.5t57 -21.5q42 -16 76 -32.5t57 -37.5t35.5 -47.5t12.5 -62.5q0 -46 -19.5 -77.5t-50.5 -51t-70 -28t-78 -8.5q-47 0 -100 8.5t-100 25.5zM192 594l85 163h136l-134 -163h-87z" />
    <glyph glyph-name="Scircumflex" unicode="&#x15c;" horiz-adv-x="580" 
d="M66 62q53 -23 105 -30.5t97 -7.5q73 0 115 29t42 85q0 52 -45 85t-129 67q-45 18 -81 40t-62 48.5t-40 59t-14 72.5q0 54 21.5 93.5t57 65t81 38t93.5 12.5q51 0 99 -6.5t90 -21.5l-21 -91q-39 13 -81.5 20.5t-82.5 7.5q-29 0 -55.5 -5.5t-47 -18.5t-33 -33t-12.5 -50
q0 -23 8.5 -41t27.5 -34.5t49 -32.5t73 -33q50 -19 89.5 -40.5t67.5 -48.5t42.5 -62t14.5 -81q0 -56 -22.5 -97t-59.5 -67.5t-84.5 -39.5t-98.5 -13q-24 0 -52.5 2.5t-58.5 7.5t-60 12.5t-57 16.5zM369 763l-66 92l-66 -92h-103l118 162h101l118 -162h-102z" />
    <glyph glyph-name="scircumflex" unicode="&#x15d;" horiz-adv-x="505" 
d="M65 51q46 -18 94.5 -26t82.5 -8q51 0 81 15.5t31 57.5q0 33 -31.5 55.5t-103.5 45.5q-85 29 -124.5 69t-39.5 99q0 43 18.5 74t48 51.5t65.5 30t72 9.5q44 0 88.5 -7t80.5 -21l-26 -80q-41 14 -75 19t-70 5q-18 0 -35.5 -4t-32 -12t-23.5 -21.5t-9 -31.5q0 -16 6 -28.5
t20 -23.5t37 -21.5t57 -21.5q42 -16 76 -32.5t57 -37.5t35.5 -47.5t12.5 -62.5q0 -46 -19.5 -77.5t-50.5 -51t-70 -28t-78 -8.5q-47 0 -100 8.5t-100 25.5zM321 594l-66 93l-65 -93h-103l118 163h101l118 -163h-103z" />
    <glyph glyph-name="Scedilla" unicode="&#x15e;" horiz-adv-x="580" 
d="M191 -198q13 -2 29 -4t26 -2q29 0 50.5 4.5t21.5 19.5q0 7 -17 12t-67 7l35 92q-24 0 -52 2.5t-58 7.5t-60 12.5t-57 16.5l24 92q53 -23 105 -30.5t97 -7.5q73 0 115 29t42 85q0 52 -45 85t-129 67q-45 18 -81 40t-62 48.5t-40 59t-14 72.5q0 54 21.5 93.5t57 65t81 38
t93.5 12.5q51 0 99 -6.5t90 -21.5l-21 -91q-39 13 -81.5 20.5t-82.5 7.5q-29 0 -55.5 -5.5t-47 -18.5t-33 -33t-12.5 -50q0 -23 8.5 -41t27.5 -34.5t49 -32.5t73 -33q50 -19 89.5 -40.5t67.5 -48.5t42.5 -62t14.5 -81q0 -44 -14 -78.5t-38.5 -60t-57 -42.5t-69.5 -26
l-18 -62q39 -5 61 -20t22 -40q0 -23 -14.5 -40t-37 -27.5t-51 -15.5t-55.5 -5q-49 0 -86 13z" />
    <glyph glyph-name="scedilla" unicode="&#x15f;" horiz-adv-x="505" 
d="M162 -198q13 -2 29 -4t26 -2q29 0 50.5 4.5t21.5 19.5q0 7 -17 12t-67 7l35 92q-47 0 -100 8.5t-100 25.5l25 86q46 -18 94.5 -26t82.5 -8q51 0 81 15.5t31 57.5q0 33 -31.5 55.5t-103.5 45.5q-85 29 -124.5 69t-39.5 99q0 43 18.5 74t48 51.5t65.5 30t72 9.5
q44 0 88.5 -7t80.5 -21l-26 -80q-41 14 -75 19t-70 5q-18 0 -35.5 -4t-32 -12t-23.5 -21.5t-9 -31.5q0 -16 6 -28.5t20 -23.5t37 -21.5t57 -21.5q42 -16 76 -32.5t57 -37.5t35.5 -47.5t12.5 -62.5q0 -33 -10 -59t-28 -44.5t-41.5 -31t-50.5 -19.5l-19 -63q40 -5 61.5 -20
t21.5 -40q0 -23 -14.5 -40t-37 -27.5t-51 -15.5t-55.5 -5q-49 0 -86 13z" />
    <glyph glyph-name="Scaron" unicode="&#x160;" horiz-adv-x="580" 
d="M66 62q53 -23 105 -30.5t97 -7.5q73 0 115 29t42 85q0 52 -45 85t-129 67q-45 18 -81 40t-62 48.5t-40 59t-14 72.5q0 54 21.5 93.5t57 65t81 38t93.5 12.5q51 0 99 -6.5t90 -21.5l-21 -91q-39 13 -81.5 20.5t-82.5 7.5q-29 0 -55.5 -5.5t-47 -18.5t-33 -33t-12.5 -50
q0 -23 8.5 -41t27.5 -34.5t49 -32.5t73 -33q50 -19 89.5 -40.5t67.5 -48.5t42.5 -62t14.5 -81q0 -56 -22.5 -97t-59.5 -67.5t-84.5 -39.5t-98.5 -13q-24 0 -52.5 2.5t-58.5 7.5t-60 12.5t-57 16.5zM242 763l-118 162h103l66 -91l65 91h103l-118 -162h-101z" />
    <glyph glyph-name="scaron" unicode="&#x161;" horiz-adv-x="505" 
d="M65 51q46 -18 94.5 -26t82.5 -8q51 0 81 15.5t31 57.5q0 33 -31.5 55.5t-103.5 45.5q-85 29 -124.5 69t-39.5 99q0 43 18.5 74t48 51.5t65.5 30t72 9.5q44 0 88.5 -7t80.5 -21l-26 -80q-41 14 -75 19t-70 5q-18 0 -35.5 -4t-32 -12t-23.5 -21.5t-9 -31.5q0 -16 6 -28.5
t20 -23.5t37 -21.5t57 -21.5q42 -16 76 -32.5t57 -37.5t35.5 -47.5t12.5 -62.5q0 -46 -19.5 -77.5t-50.5 -51t-70 -28t-78 -8.5q-47 0 -100 8.5t-100 25.5zM205 594l-118 163h103l65 -92l66 92h103l-118 -163h-101z" />
    <glyph glyph-name="uni0162" unicode="&#x162;" horiz-adv-x="575" 
d="M165 -198q13 -2 29 -4t26 -2q30 0 51.5 4.5t21.5 19.5q0 7 -17.5 12t-67.5 7l40 106h-8v669h-231v93h556v-93h-215v-669h-15l-23 -66q40 -5 62 -20t22 -40q0 -23 -14.5 -40t-37.5 -27.5t-51.5 -15.5t-55.5 -5q-49 0 -86 13z" />
    <glyph glyph-name="uni0163" unicode="&#x163;" horiz-adv-x="374" 
d="M89 -198q13 -2 29 -4t26 -2q29 0 50.5 4.5t21.5 19.5q0 7 -17 12t-67 7l42 112q-41 17 -53.5 54t-12.5 92v330h-96v84h96v150h110v-150h127v-84h-127v-307q0 -32 2.5 -51t11 -29t23.5 -13.5t40 -3.5h26.5t22.5 2v-81q-18 -2 -41.5 -4t-46.5 -2l-20 -59q39 -5 61 -20
t22 -40q0 -23 -14.5 -40t-37 -27.5t-51 -15.5t-55.5 -5q-49 0 -86 13z" />
    <glyph glyph-name="Tcaron" unicode="&#x164;" horiz-adv-x="575" 
d="M240 -55v669h-231v93h556v-93h-215v-669h-110zM243 763l-118 162h103l66 -91l65 91h103l-118 -162h-101z" />
    <glyph glyph-name="tcaron" unicode="&#x165;" horiz-adv-x="683" 
d="M344 -56q-18 -2 -41.5 -4t-46.5 -2q-47 0 -76 11t-45 31t-21.5 49.5t-5.5 67.5v330h-96v84h96v150h110v-150h127v-84h-127v-307q0 -32 2.5 -51t11 -29t23.5 -13.5t40 -3.5h26.5t22.5 2v-81zM428 541q22 11 41 29t26 30q8 13 8 26q0 4 -5.5 9.5t-16.5 7.5q-29 4 -45 23
t-16 47q0 27 22 47.5t50 20.5q21 0 36.5 -8.5t26.5 -22.5t16.5 -31.5t5.5 -35.5q0 -25 -9 -52t-26 -49t-42 -41t-45 -27z" />
    <glyph glyph-name="Tbar" unicode="&#x166;" horiz-adv-x="575" 
d="M240 -55v336h-163v88h163v245h-231v93h556v-93h-215v-245h159v-88h-159v-336h-110z" />
    <glyph glyph-name="tbar" unicode="&#x167;" horiz-adv-x="374" 
d="M344 -56q-18 -2 -41.5 -4t-46.5 -2q-47 0 -76 11t-45 31t-21.5 49.5t-5.5 67.5v113h-85v86h85v131h-96v84h96v150h110v-150h127v-84h-127v-131h133v-86h-133v-90q0 -32 2.5 -51t11 -29t23.5 -13.5t40 -3.5h26.5t22.5 2v-81z" />
    <glyph glyph-name="Utilde" unicode="&#x168;" horiz-adv-x="728" 
d="M542 707h110v-529q0 -55 -21 -100.5t-59 -78t-91 -50.5t-117 -18t-117 18t-91 50.5t-59 78t-21 100.5v529h109v-514q0 -42 13.5 -74t37 -53.5t56 -32t71.5 -9.5q42 0 75 12.5t56.5 34t35.5 52t12 66.5v518zM518 879q0 -57 -28.5 -87.5t-74.5 -30.5q-34 0 -51.5 11
t-29.5 23q-8 8 -15.5 14t-12.5 6q-11 0 -18 -14t-7 -38h-79q0 57 28.5 88t73.5 31q33 0 50.5 -10.5t29.5 -22.5q9 -7 16 -12.5t13 -5.5q11 0 18.5 12t7.5 36h79z" />
    <glyph glyph-name="utilde" unicode="&#x169;" horiz-adv-x="651" 
d="M463 -55v65h-3q-25 -38 -75 -58.5t-107 -20.5q-48 0 -85.5 14.5t-63.5 41.5t-40 64.5t-14 84.5v375h109v-327q0 -39 6 -69.5t21 -52.5t40 -33.5t63 -11.5q27 0 53.5 10t47 31.5t33 56t12.5 83.5v313h111v-566h-108zM481 710q0 -57 -28.5 -87.5t-73.5 -30.5
q-34 0 -52 11.5t-29 22.5q-9 8 -16.5 14.5t-12.5 6.5q-11 0 -18 -14.5t-7 -38.5h-79q0 57 28.5 88t73.5 31q33 0 51 -10t29 -22q8 -8 16 -13.5t14 -5.5q11 0 18 12t7 36h79z" />
    <glyph glyph-name="Umacron" unicode="&#x16a;" horiz-adv-x="728" 
d="M542 707h110v-529q0 -55 -21 -100.5t-59 -78t-91 -50.5t-117 -18t-117 18t-91 50.5t-59 78t-21 100.5v529h109v-514q0 -42 13.5 -74t37 -53.5t56 -32t71.5 -9.5q42 0 75 12.5t56.5 34t35.5 52t12 66.5v518zM196 770v83h327v-83h-327z" />
    <glyph glyph-name="umacron" unicode="&#x16b;" horiz-adv-x="651" 
d="M463 -55v65h-3q-25 -38 -75 -58.5t-107 -20.5q-48 0 -85.5 14.5t-63.5 41.5t-40 64.5t-14 84.5v375h109v-327q0 -39 6 -69.5t21 -52.5t40 -33.5t63 -11.5q27 0 53.5 10t47 31.5t33 56t12.5 83.5v313h111v-566h-108zM159 602v84h328v-84h-328z" />
    <glyph glyph-name="Ubreve" unicode="&#x16c;" horiz-adv-x="728" 
d="M542 707h110v-529q0 -55 -21 -100.5t-59 -78t-91 -50.5t-117 -18t-117 18t-91 50.5t-59 78t-21 100.5v529h109v-514q0 -42 13.5 -74t37 -53.5t56 -32t71.5 -9.5q42 0 75 12.5t56.5 34t35.5 52t12 66.5v518zM526 883q-5 -29 -19.5 -51.5t-37 -38t-50.5 -23.5t-59 -8
q-30 0 -58 8t-50.5 23.5t-37.5 38t-20 51.5h84q5 -26 28.5 -41t53.5 -15q31 0 54.5 15t28.5 41h83z" />
    <glyph glyph-name="ubreve" unicode="&#x16d;" horiz-adv-x="651" 
d="M463 -55v65h-3q-25 -38 -75 -58.5t-107 -20.5q-48 0 -85.5 14.5t-63.5 41.5t-40 64.5t-14 84.5v375h109v-327q0 -39 6 -69.5t21 -52.5t40 -33.5t63 -11.5q27 0 53.5 10t47 31.5t33 56t12.5 83.5v313h111v-566h-108zM489 721q-5 -32 -20.5 -57.5t-37.5 -42.5t-50 -26
t-58 -9t-57.5 9t-49.5 26t-37.5 42.5t-20.5 57.5h83q5 -25 28.5 -40t53.5 -15q31 0 54.5 15t28.5 40h83z" />
    <glyph glyph-name="Uring" unicode="&#x16e;" horiz-adv-x="728" 
d="M542 707h110v-529q0 -55 -21 -100.5t-59 -78t-91 -50.5t-117 -18t-117 18t-91 50.5t-59 78t-21 100.5v529h109v-514q0 -42 13.5 -74t37 -53.5t56 -32t71.5 -9.5q42 0 75 12.5t56.5 34t35.5 52t12 66.5v518zM468 806q0 -20 -8 -38t-22 -31.5t-33.5 -21.5t-42.5 -8
q-48 0 -78 29t-30 70q0 42 30 71t78 29q23 0 42.5 -8t33.5 -21.5t22 -31.5t8 -39zM362 762q19 0 30.5 13.5t11.5 30.5q0 18 -11.5 31.5t-30.5 13.5q-20 0 -31.5 -13.5t-11.5 -31.5q0 -17 11.5 -30.5t31.5 -13.5z" />
    <glyph glyph-name="uring" unicode="&#x16f;" horiz-adv-x="651" 
d="M463 -55v65h-3q-25 -38 -75 -58.5t-107 -20.5q-48 0 -85.5 14.5t-63.5 41.5t-40 64.5t-14 84.5v375h109v-327q0 -39 6 -69.5t21 -52.5t40 -33.5t63 -11.5q27 0 53.5 10t47 31.5t33 56t12.5 83.5v313h111v-566h-108zM430 665q0 -20 -8 -38t-22.5 -31.5t-34 -21.5t-42.5 -8
t-42.5 8t-33.5 21.5t-22 31.5t-8 38q0 21 8 39.5t22 32t33.5 21.5t42.5 8t42.5 -8t34 -21.5t22.5 -32t8 -39.5zM323 622q20 0 31.5 13t11.5 30q0 19 -11.5 32t-31.5 13q-19 0 -30.5 -13t-11.5 -32q0 -17 11.5 -30t30.5 -13z" />
    <glyph glyph-name="Uhungarumlaut" unicode="&#x170;" horiz-adv-x="728" 
d="M542 707h110v-529q0 -55 -21 -100.5t-59 -78t-91 -50.5t-117 -18t-117 18t-91 50.5t-59 78t-21 100.5v529h109v-514q0 -42 13.5 -74t37 -53.5t56 -32t71.5 -9.5q42 0 75 12.5t56.5 34t35.5 52t12 66.5v518zM214 763l86 162h137l-135 -162h-88zM396 763l85 162h136
l-135 -162h-86z" />
    <glyph glyph-name="uhungarumlaut" unicode="&#x171;" horiz-adv-x="651" 
d="M463 -55v65h-3q-25 -38 -75 -58.5t-107 -20.5q-48 0 -85.5 14.5t-63.5 41.5t-40 64.5t-14 84.5v375h109v-327q0 -39 6 -69.5t21 -52.5t40 -33.5t63 -11.5q27 0 53.5 10t47 31.5t33 56t12.5 83.5v313h111v-566h-108zM184 594l85 163h137l-135 -163h-87zM365 594l85 163
h136l-134 -163h-87z" />
    <glyph glyph-name="Uogonek" unicode="&#x172;" horiz-adv-x="728" 
d="M502 -235q-22 -17 -50 -25.5t-49 -8.5q-64 0 -94 31.5t-27 80.5q1 20 12 45.5t25 45.5l-16 2q-51 8 -93 28.5t-72 52t-46 72.5t-16 89v529h109v-514q0 -42 13.5 -74t37 -53.5t56 -32t71.5 -9.5q42 0 75 12.5t56.5 34t35.5 52t12 66.5v518h110v-529q0 -53 -19.5 -97
t-54.5 -76t-84 -51t-109 -22q-14 -14 -22 -33.5t-8 -39.5q0 -23 14 -36.5t37 -15.5q14 -2 33 5t36 20z" />
    <glyph glyph-name="uogonek" unicode="&#x173;" horiz-adv-x="651" 
d="M639 -235q-22 -17 -50 -25.5t-49 -8.5q-64 0 -94 31.5t-27 80.5q2 23 15.5 52.5t31.5 49.5h-3v65h-3q-25 -38 -75 -58.5t-107 -20.5q-48 0 -85.5 14.5t-63.5 41.5t-40 64.5t-14 84.5v375h109v-327q0 -39 6 -69.5t21 -52.5t40 -33.5t63 -11.5q27 0 53.5 10t47 31.5t33 56
t12.5 83.5v313h111v-566h-28q-23 -9 -37 -34.5t-14 -51.5q0 -23 14 -36.5t37 -15.5q14 -2 33 5t36 20z" />
    <glyph glyph-name="Wcircumflex" unicode="&#x174;" horiz-adv-x="1010" 
d="M641 -55l-132 662h-4l-137 -662h-152l-178 762h120l136 -657h2l128 657h165l125 -657h4l138 657h116l-178 -762h-153zM569 763l-66 92l-67 -92h-102l118 162h100l119 -162h-102z" />
    <glyph glyph-name="wcircumflex" unicode="&#x175;" horiz-adv-x="890" 
d="M572 -55l-129 481l-127 -481h-126l-166 566h114l114 -460h5l123 460h130l123 -460h5l114 460h112l-166 -566h-126zM509 594l-66 93l-67 -93h-102l118 163h100l119 -163h-102z" />
    <glyph glyph-name="Ycircumflex" unicode="&#x176;" horiz-adv-x="674" 
d="M282 -55v299l-279 463h131l205 -359l206 359h126l-279 -463v-299h-110zM403 763l-67 92l-66 -92h-102l118 162h100l119 -162h-102z" />
    <glyph glyph-name="ycircumflex" unicode="&#x177;" horiz-adv-x="568" 
d="M137 -269l92 222l-226 558h121l162 -441l162 441h115l-310 -780h-116zM342 594l-67 93l-66 -93h-102l119 163h99l119 -163h-102z" />
    <glyph glyph-name="Ydieresis" unicode="&#x178;" horiz-adv-x="674" 
d="M282 -55v299l-279 463h131l205 -359l206 359h126l-279 -463v-299h-110zM311 830q0 -28 -20.5 -48t-49.5 -20t-49 20t-20 48t20 48.5t49 20.5t49.5 -20.5t20.5 -48.5zM492 830q0 -28 -20.5 -48t-49.5 -20t-49 20t-20 48t20 48.5t49 20.5t49.5 -20.5t20.5 -48.5z" />
    <glyph glyph-name="Zacute" unicode="&#x179;" horiz-adv-x="621" 
d="M41 -55v95l402 574h-371v93h497v-96l-402 -574h412v-92h-538zM232 763l85 162h137l-135 -162h-87z" />
    <glyph glyph-name="zacute" unicode="&#x17a;" horiz-adv-x="526" 
d="M41 -55v85l307 397h-283v84h411v-88l-305 -394h316v-84h-446zM194 594l85 163h137l-135 -163h-87z" />
    <glyph glyph-name="Zdotaccent" unicode="&#x17b;" horiz-adv-x="621" 
d="M41 -55v95l402 574h-371v93h497v-96l-402 -574h412v-92h-538zM386 833q0 -30 -22 -50.5t-52 -20.5q-31 0 -52 20.5t-21 50.5q0 29 21 50.5t52 21.5q30 0 52 -21.5t22 -50.5z" />
    <glyph glyph-name="zdotaccent" unicode="&#x17c;" horiz-adv-x="526" 
d="M41 -55v85l307 397h-283v84h411v-88l-305 -394h316v-84h-446zM340 671q0 -30 -22 -50.5t-52 -20.5q-31 0 -52 20.5t-21 50.5q0 29 21 50.5t52 21.5q30 0 52 -21.5t22 -50.5z" />
    <glyph glyph-name="Zcaron" unicode="&#x17d;" horiz-adv-x="621" 
d="M41 -55v95l402 574h-371v93h497v-96l-402 -574h412v-92h-538zM264 763l-119 162h102l66 -92l67 92h102l-118 -162h-100z" />
    <glyph glyph-name="zcaron" unicode="&#x17e;" horiz-adv-x="526" 
d="M41 -55v85l307 397h-283v84h411v-88l-305 -394h316v-84h-446zM216 594l-118 163h102l66 -93l67 93h102l-119 -163h-100z" />
    <glyph glyph-name="longs" unicode="&#x17f;" horiz-adv-x="359" 
d="M112 -55v613q0 40 9.5 73t31.5 57t59 37t91 13q24 0 46.5 -2.5t43.5 -7.5l-8 -82q-17 4 -36.5 5t-33.5 1q-52 0 -72.5 -23.5t-20.5 -82.5v-601h-110z" />
    <glyph glyph-name="caron" unicode="&#x2c7;" 
d="M476 599q-15 -12 -32 0l-199 152q-14 10 -16.5 20t3 16t17 6.5t26.5 -6.5l185 -89l186 90q15 7 27 6.5t17.5 -6.5t3 -16t-15.5 -20z" />
    <glyph glyph-name="uni02D0" unicode="&#x2d0;" horiz-adv-x="463" 
d="M113 589h231l-112 -195zM113 107l119 195l112 -195h-231z" />
    <glyph glyph-name="breve" unicode="&#x2d8;" 
d="M690 775q-23 -35 -47.5 -60t-51.5 -41t-57 -24.5t-66 -9.5q-78 -4 -136.5 26.5t-108.5 102.5l56 32q40 -55 82.5 -77t99.5 -20q27 1 49 6t42 16t38 28t37 42z" />
    <glyph glyph-name="dotaccent" unicode="&#x2d9;" 
d="M539 725q0 -30 -24 -51.5t-54 -21.5q-16 0 -30 6.5t-24 17t-16 24t-6 27.5q0 15 6.5 27.5t17.5 22.5t24.5 15.5t28.5 5.5t29 -6t24.5 -16t17 -23t6.5 -28z" />
    <glyph glyph-name="ring" unicode="&#x2da;" 
d="M577 701q0 -22 -9 -41t-24.5 -33t-36.5 -22t-45 -8q-23 0 -43.5 8t-36 22t-24.5 33t-9 41t9 41t24.5 33t36 22t43.5 8q24 0 45 -8t36.5 -22t24.5 -33t9 -41zM519 701q0 20 -16.5 35.5t-40.5 15.5q-23 0 -39 -15.5t-16 -35.5t16 -35.5t39 -15.5q24 0 40.5 15.5t16.5 35.5z
" />
    <glyph glyph-name="ogonek" unicode="&#x2db;" horiz-adv-x="463" 
d="M366 -235q-22 -17 -50 -25.5t-49 -8.5q-64 0 -94 31.5t-27 80.5q2 23 15.5 52.5t31.5 49.5q8 8 17.5 17t21.5 14q9 4 21 3.5t18 -6.5t8 -15.5t-9 -12.5q-23 -9 -37 -34.5t-14 -51.5q0 -23 14 -36.5t37 -15.5q14 -2 33 5t36 20z" />
    <glyph glyph-name="hungarumlaut" unicode="&#x2dd;" 
d="M505 731q-18 -15 -50 -32.5t-64 -32.5t-59 -25t-34 -11q-12 -2 -14.5 5.5t5.5 15.5q16 15 35 33.5t38.5 37t38.5 36t35 30.5q6 4 15.5 8t19.5 4.5t19.5 -2t15.5 -10.5q11 -16 10.5 -32t-11.5 -25zM682 731q-18 -15 -50 -32.5t-64 -32.5t-59 -25t-34 -11q-12 -2 -14 5.5
t6 15.5q16 15 34.5 33.5t38 37t38.5 36t35 30.5q6 4 15.5 8t19.5 4.5t19.5 -2t15.5 -10.5q11 -16 10.5 -32t-11.5 -25z" />
    <glyph glyph-name="Alpha" unicode="&#x391;" 
d="M600 572l-226 -366l263 -1zM665 -75l-18 179h-341l-119 -179h-129l511 758h134l86 -758h-124z" />
    <glyph glyph-name="Beta" unicode="&#x392;" 
d="M87 -76l232 761l232 -1q57 -1 96 -14t68 -46q26 -26 37 -55.5t11 -65.5q0 -68 -36 -111t-107 -74q56 -23 86 -69t30 -112q0 -48 -18 -89.5t-53 -69.5q-61 -54 -175 -54h-403zM495 372q34 0 63.5 10t51.5 26.5t34.5 39t12.5 46.5q0 44 -31.5 72t-82.5 28h-146l-67 -222
h165zM304 280l-80 -265h266q68 0 107.5 33t39.5 90q0 30 -11.5 56t-31 45t-45 30t-54.5 11h-191z" />
    <glyph glyph-name="Gamma" unicode="&#x393;" 
d="M113 -75l230 759h418l64 -162l-102 -34l-45 97h-246l-200 -660h-119z" />
    <glyph glyph-name="uni0394" unicode="&#x394;" 
d="M29 -75l627 758h118l-1 -758h-744zM678 558l-450 -535h448z" />
    <glyph glyph-name="Epsilon" unicode="&#x395;" 
d="M98 -75l261 758h449l-29 -93h-336l-79 -227h326l-33 -93h-326l-83 -254h361l-24 -91h-487z" />
    <glyph glyph-name="Zeta" unicode="&#x396;" 
d="M109 -74l23 114l524 541h-377l18 103h505l-24 -121l-521 -535h409l-19 -102h-538z" />
    <glyph glyph-name="Eta" unicode="&#x397;" 
d="M533 -75l104 348h-367l-103 -348h-120l231 758h117l-91 -309h363l93 309h114l-225 -758h-116z" />
    <glyph glyph-name="Theta" unicode="&#x398;" 
d="M228 -33q-60 32 -91 89t-31 134q0 50 11 105t30 108t45 100.5t56 82.5q42 47 114.5 75.5t160.5 28.5q67 0 121 -18.5t92 -52.5t58.5 -82.5t20.5 -108.5q0 -47 -9.5 -99.5t-25.5 -103t-37.5 -96t-45.5 -76.5q-21 -30 -52.5 -54.5t-69.5 -42t-81 -27.5t-86 -10
q-49 0 -95 12.5t-85 35.5zM665 207q23 66 36 131t13 113q0 77 -50 114.5t-146 37.5q-49 0 -87.5 -10.5t-70 -32.5t-57 -56.5t-47.5 -83.5q-22 -56 -34.5 -116t-12.5 -112q0 -85 52 -134.5t143 -49.5q54 0 93.5 10t69.5 33t53.5 61.5t44.5 94.5zM532 213l15 54h-195l-14 -54
h-54l43 179h53l-14 -55h196l13 55h53l-42 -179h-54z" />
    <glyph glyph-name="Iota" unicode="&#x399;" 
d="M289 -74l214 758h121l-218 -758h-117z" />
    <glyph glyph-name="Kappa" unicode="&#x39a;" 
d="M580 -73l-257 338l-76 -338h-103l159 755h111l-70 -311l330 311h137l-399 -373l301 -382h-133z" />
    <glyph glyph-name="Lambda" unicode="&#x39b;" 
d="M563 -73l1 639l-350 -639h-118l417 756h167v-756h-117z" />
    <glyph glyph-name="Mu" unicode="&#x39c;" 
d="M609 -73l111 597l-307 -597h-62l-87 637l-110 -637h-104l138 755h143l83 -566l287 566h152l-136 -755h-108z" />
    <glyph glyph-name="Nu" unicode="&#x39d;" 
d="M538 -74l-205 630l-117 -630h-115l155 757h140l194 -603l115 603h112l-154 -757h-125z" />
    <glyph glyph-name="Xi" unicode="&#x39e;" 
d="M675 535l9 55h-289l-17 -55h-80l37 147h454l-39 -147h-75zM256 264l26 93h402l-23 -93h-405zM142 -73l39 147h81l-14 -55h347l17 55h81l-41 -147h-510z" />
    <glyph glyph-name="Omicron" unicode="&#x39f;" 
d="M672 38q-48 -57 -111 -88t-142 -31q-140 0 -217 78.5t-77 223.5q0 103 33.5 198t95.5 164q47 53 108 81t136 28q68 0 122 -20t91.5 -57.5t57 -92t19.5 -123.5q0 -108 -28.5 -199t-87.5 -162zM631 179q44 113 44 211q0 103 -45.5 162.5t-130.5 59.5q-54 0 -102 -26.5
t-83 -77.5q-18 -27 -32.5 -63.5t-25.5 -77.5t-17 -83.5t-6 -81.5q0 -88 48 -140.5t133 -52.5q76 0 127.5 41.5t89.5 128.5z" />
    <glyph glyph-name="Pi" unicode="&#x3a0;" 
d="M517 -73l120 662h-295l-128 -662h-105l124 662h-51l21 93h612l-22 -93h-51l-116 -662h-109z" />
    <glyph glyph-name="Rho" unicode="&#x3a1;" 
d="M137 -72l157 754h242q109 0 167 -49.5t58 -140.5q0 -121 -65 -185.5t-187 -64.5h-198l-68 -314h-106zM508 334q72 0 110 40t38 114q0 52 -30.5 75.5t-92.5 23.5h-160l-42 -253h177z" />
    <glyph glyph-name="Sigma" unicode="&#x3a3;" 
d="M123 -72l25 103l286 298l-174 252l22 101h497l-19 -94h-372l179 -264l-286 -304h394l-20 -92h-532z" />
    <glyph glyph-name="Tau" unicode="&#x3a4;" 
d="M291 -75l125 662h-226l23 97h545l-25 -97h-207l-126 -662h-109z" />
    <glyph glyph-name="Upsilon" unicode="&#x3a5;" 
d="M275 -76l67 386q3 26 5 49t2 40q0 38 -7.5 68t-24.5 54.5t-44.5 44t-67.5 36.5l34 90q35 -11 60.5 -22.5t44 -24.5t33 -29t26.5 -36q11 -17 16.5 -30t10.5 -33q23 46 51.5 74t73.5 51q21 12 40 19.5t41 12.5t50 7.5t68 4.5l-26 -105q-78 -7 -128.5 -33.5t-87.5 -77.5
q-24 -30 -44 -83.5t-31 -112.5l-60 -350h-102z" />
    <glyph glyph-name="Phi" unicode="&#x3a6;" 
d="M329 -75l18 79q-55 8 -85.5 16.5t-52.5 20.5q-57 31 -87.5 88t-30.5 135q0 97 42 176.5t117 129.5q24 13 47 23.5t49.5 17t57.5 10.5t70 6l10 57h106l-14 -64q68 -11 116 -33t78.5 -55t44.5 -78.5t14 -103.5q0 -50 -12 -97.5t-33.5 -88.5t-52.5 -73.5t-68 -53.5
q-21 -11 -42 -18.5t-46.5 -12.5t-56.5 -7t-72 -2l-16 -72h-101zM465 95q45 -2 74.5 3.5t52.5 18.5q66 35 98 96t32 146q0 48 -23 89.5t-61 63.5q-7 3 -13 5.5t-15 4.5t-21 4t-31 4zM459 540q-33 -3 -56 -6t-40 -7.5t-30.5 -11.5t-28.5 -18q-56 -38 -83.5 -93.5t-27.5 -124.5
q0 -73 41 -116.5t129 -57.5z" />
    <glyph glyph-name="Chi" unicode="&#x3a7;" 
d="M586 -72l-129 313l-242 -313h-131l316 408l-144 346h121l110 -261l206 261h123l-277 -360l169 -394h-122z" />
    <glyph glyph-name="Psi" unicode="&#x3a8;" 
d="M309 -72l46 223q-69 3 -116.5 15t-77.5 33t-43 52.5t-13 74.5q0 24 8 69t22 111q6 29 10.5 55t4.5 43q0 25 -5 44t-14 34h122q5 -11 6.5 -21t1.5 -26q0 -18 -7.5 -60t-19.5 -89q-8 -28 -13.5 -49.5t-8.5 -39t-4.5 -32t-1.5 -27.5t3 -22.5t14 -25.5q7 -12 17.5 -19.5
t27 -13t40.5 -8t59 -3.5l78 436h110l-81 -440q44 1 75.5 4.5t53.5 13.5t36.5 28.5t25 50.5t18.5 78t18 112q6 37 11 62.5t9.5 42.5t9 28.5t9.5 19.5h126q-8 -8 -14 -17t-11 -22q-5 -10 -10 -27.5t-10 -39.5t-10 -46.5t-9 -48.5q-8 -47 -15 -82t-14.5 -62t-16 -47.5
t-18.5 -37.5q-29 -53 -85.5 -79.5t-145.5 -26.5h-51l-41 -218h-106z" />
    <glyph glyph-name="uni03A9" unicode="&#x3a9;" 
d="M433 -73l30 137q60 36 103 73t70.5 77t40.5 84t13 95q0 44 -14 80.5t-39 63t-60 41.5t-77 15q-53 0 -95.5 -21t-72.5 -58.5t-46 -91t-16 -117.5q0 -39 6.5 -71.5t20 -61.5t35.5 -56t53 -55l-36 -134h-267l25 95h190q-28 27 -46 47.5t-30 39t-20 38t-16 44.5
q-12 30 -17.5 62t-5.5 67q0 80 25.5 147.5t70 116.5t106 76.5t133.5 27.5q67 0 123 -20t95.5 -56.5t61.5 -88t22 -113.5q0 -73 -21 -139.5t-60 -115.5q-9 -12 -21.5 -24.5t-30.5 -28t-43.5 -35t-61.5 -45.5h167l-19 -95h-276z" />
    <glyph glyph-name="alpha" unicode="&#x3b1;" horiz-adv-x="669" 
d="M475 -72q-25 0 -42.5 3t-30 10.5t-23 20t-21.5 32.5q-24 -20 -44 -33.5t-39 -21t-38.5 -10.5t-41.5 -3q-39 0 -71.5 14t-56 39.5t-36.5 61.5t-13 80q0 62 21.5 128t60.5 121q39 57 94.5 87.5t115.5 30.5q68 0 104.5 -33.5t36.5 -93.5q0 -20 -4 -58.5t-15 -108.5l2 -1
q27 43 45.5 75.5t31.5 62.5t22.5 61.5t19.5 72.5l94 -33q-18 -55 -36.5 -99t-41.5 -84.5t-53.5 -82t-73.5 -92.5q11 -30 29 -42t47 -14zM355 278v14t1 8v26q0 31 -15.5 50t-43.5 19q-32 0 -62 -24.5t-53.5 -63t-38 -85.5t-14.5 -91q0 -50 24.5 -82.5t67.5 -32.5q22 0 43 7.5
t38 20.5q2 2 5.5 5t7.5 8q11 9 15.5 15t9.5 11q0 14 0.5 24.5t1.5 23t2.5 29.5t4.5 44z" />
    <glyph glyph-name="beta" unicode="&#x3b2;" horiz-adv-x="669" 
d="M37 -174l131 602q23 127 85.5 191t156.5 64q77 0 122 -41.5t45 -110.5q0 -63 -35 -107.5t-116 -72.5q71 -32 100.5 -79t29.5 -119q0 -51 -16 -93t-45 -72t-69.5 -46.5t-89.5 -16.5q-22 0 -45.5 5t-45 16t-39.5 28.5t-30 41.5l-40 -190h-99zM290 295l14 89h37
q27 0 50 10.5t40.5 28.5t27 42t9.5 51q0 35 -17 56t-50 21q-48 0 -79 -40t-46 -109l-69 -326q-1 -8 4 -25.5t11 -26.5q14 -25 42 -39t60 -14q58 0 90 40t32 105q0 31 -9.5 56.5t-27 44t-41.5 28.5t-53 9z" />
    <glyph glyph-name="gamma" unicode="&#x3b3;" horiz-adv-x="669" 
d="M183 -80l34 224q4 25 7 51t3 43q0 63 -27 99t-79 36q-6 0 -17.5 -3t-26.5 -10l-6 100q26 10 43 13t34 3q54 0 98.5 -36t59.5 -110q19 38 39.5 64t44 42t51 23t61.5 7q24 0 47 -4.5t60 -14.5l-34 -100q-14 8 -32 12t-27 4q-41 0 -71.5 -14t-56.5 -46q-17 -22 -29.5 -59.5
t-20.5 -85.5l-36 -238h-119z" />
    <glyph glyph-name="delta" unicode="&#x3b4;" horiz-adv-x="669" 
d="M586 567q-50 10 -74.5 14.5t-39.5 6.5q-18 3 -37 4.5t-33 1.5q-15 0 -24.5 -4t-11 -13t6 -23.5t26.5 -35.5q32 -36 59.5 -70.5t48 -69t32 -70.5t11.5 -74q0 -57 -19 -113t-54.5 -100.5t-85.5 -72t-112 -27.5q-48 0 -87.5 13.5t-66.5 41.5t-40 72t-10 104q3 59 24.5 113
t57.5 94.5t84 62t105 14.5q-25 21 -46 43.5t-36 44.5t-22.5 42t-5.5 37q5 40 43 63t123 23q46 0 91 -5.5t109 -18.5zM279 13q30 0 59.5 16t53.5 44t38.5 66t14.5 82q0 66 -24.5 102.5t-79.5 36.5q-27 0 -54 -17t-48.5 -46t-36 -68.5t-16.5 -85.5q-2 -37 6 -62t21.5 -40
t31 -21.5t34.5 -6.5z" />
    <glyph glyph-name="epsilon" unicode="&#x3b5;" horiz-adv-x="669" 
d="M481 -44q-20 -8 -39 -14t-39.5 -10t-44 -6t-52.5 -2q-112 0 -164.5 41t-52.5 116q0 58 29.5 96t101.5 62q-31 29 -41.5 50.5t-10.5 48.5q0 33 16 60.5t45.5 48t70 31.5t88.5 11q30 0 54.5 -1.5t48.5 -6.5t49.5 -13.5t57.5 -22.5l-12 -39l-17 -50q-31 13 -55.5 21
t-46 12.5t-41 6t-40.5 1.5q-48 0 -77 -17.5t-29 -48.5q0 -23 22 -36.5t60 -13.5h133q-3 -11 -6 -23.5t-5 -23.5l-11 -45h-106q-77 0 -120.5 -25t-43.5 -71q0 -38 30.5 -57t87.5 -19q24 0 43.5 1.5t39 6.5t41 14t50.5 23l7 -5q-4 -13 -6.5 -25.5t-4.5 -24.5z" />
    <glyph glyph-name="zeta" unicode="&#x3b6;" horiz-adv-x="669" 
d="M271 -117q21 -6 34.5 -8.5t30.5 -2.5q31 0 52.5 9.5t20.5 34.5q-2 24 -21 35t-51 18l-97 18q-3 1 -6 1l-1 1q-1 0 -3 1q-68 14 -98 44.5t-30 79.5q0 26 12.5 56.5t44.5 80.5q9 15 26.5 40.5t39 55t46 61t47 59.5t42 50.5t32.5 34.5h-231l22 91h275q4 5 6 6.5t4 5.5
q16 19 24 24t11 5t7 -1t6 -2l17 -15l46 -40q6 -5 7 -7q2 -1 3 -3t3 -4q0 -2 1 -4q2 -4 2 -5q0 -4 -6.5 -11.5t-17.5 -9.5q-12 -2 -19 -4.5t-15 -10.5q-21 -19 -36.5 -33t-28.5 -27.5t-26.5 -28.5t-30.5 -36q-20 -23 -42.5 -54t-45 -62.5t-42.5 -60t-33 -47.5
q-21 -35 -31.5 -56.5t-10.5 -38.5q0 -25 23.5 -36t71.5 -16q39 -6 67.5 -12t48.5 -13t34 -15.5t25 -20.5q33 -32 33 -85q0 -72 -40.5 -109t-112.5 -37q-18 0 -44.5 2t-56.5 8z" />
    <glyph glyph-name="eta" unicode="&#x3b7;" horiz-adv-x="669" 
d="M392 -153l66 369q12 60 12 86q0 44 -22.5 69.5t-64.5 25.5q-25 0 -47.5 -10.5t-40.5 -28.5t-30.5 -42t-16.5 -51l-49 -273h-119l86 483h112l-9 -65q23 23 41.5 38t36 23.5t34.5 12t37 3.5q78 0 124 -45t46 -123q0 -45 -11 -103l-68 -369h-117z" />
    <glyph glyph-name="theta" unicode="&#x3b8;" horiz-adv-x="669" 
d="M500 64q-42 -73 -95 -107.5t-122 -34.5q-91 0 -143 61.5t-52 175.5q0 53 7.5 108.5t21.5 108.5t33.5 100.5t43.5 85.5q77 124 216 124q84 0 134 -60.5t50 -168.5q0 -51 -7 -105t-19 -105.5t-29.5 -98.5t-38.5 -84zM484 357q1 33 2.5 58.5t1.5 36.5q0 70 -21 109.5
t-69 39.5q-30 0 -53.5 -14t-43.5 -43.5t-37.5 -76t-34.5 -110.5h255zM203 272q-5 -39 -7.5 -66.5t-2.5 -48.5q0 -66 23 -106.5t71 -40.5q53 0 91.5 47t66.5 136q2 7 3.5 13.5t3.5 15t4 20.5t6 30h-259z" />
    <glyph glyph-name="iota" unicode="&#x3b9;" horiz-adv-x="433" 
d="M328 -59q-39 -10 -65.5 -14t-56.5 -4q-26 0 -43.5 3.5t-27.5 11.5t-14 21t-4 33q0 17 2.5 33t4.5 33l76 418h116l-71 -373q-2 -12 -2.5 -20.5t-0.5 -16.5q0 -17 12 -28.5t28 -11.5q4 0 7 1l8 1q21 5 30.5 6t16.5 3l5 3z" />
    <glyph glyph-name="kappa" unicode="&#x3ba;" horiz-adv-x="669" 
d="M375 -76l-160 228l-45 -228h-113l114 553h110l-41 -214l244 214h155l-334 -274l200 -279h-130z" />
    <glyph glyph-name="lambda" unicode="&#x3bb;" horiz-adv-x="669" 
d="M558 -77q-22 26 -36.5 44.5t-25.5 36t-19.5 36t-18.5 44.5q-8 23 -15.5 47.5t-15.5 55t-17.5 69t-21.5 89.5q-12 -8 -19.5 -14t-12.5 -11.5t-9.5 -11.5t-9.5 -15q-6 -11 -11 -21t-12 -25t-17 -38t-26 -58q-21 -49 -41 -84t-42.5 -61t-50 -46t-64.5 -39l-65 95
q30 10 54.5 26.5t47 43t44.5 64.5t47 90q22 48 38.5 80t30.5 55.5t28.5 41.5t32.5 36l4 4q-14 33 -26.5 55t-28 37.5t-35 25.5t-45.5 19l50 94q34 -12 60.5 -26t48 -32.5t38 -42t31.5 -53.5q16 -34 36.5 -94.5t44.5 -145.5q6 -23 10 -39t7.5 -28t6.5 -21l6 -18
q11 -35 22.5 -61t24.5 -48t29.5 -40.5t37.5 -37.5z" />
    <glyph glyph-name="uni03BC" unicode="&#x3bc;" horiz-adv-x="669" 
d="M587 -63q-39 0 -62 1.5t-37 7.5t-22 16.5t-16 28.5q-17 -21 -31.5 -34t-29 -20.5t-30 -10t-35.5 -2.5q-19 0 -34 4t-28.5 13.5t-26.5 27t-27 44.5l-32 -164h-116l123 626h116l-48 -278q-4 -20 -6 -40t-2 -37q0 -47 20.5 -77t57.5 -30q26 0 51.5 19t42.5 48
q7 14 14.5 41.5t14.5 65.5l50 288h114l-65 -361q-4 -17 -5 -28.5t-1 -20.5q0 -17 13 -24t33 -7h22z" />
    <glyph glyph-name="nu" unicode="&#x3bd;" horiz-adv-x="669" 
d="M632 377q-26 -1 -43.5 -8t-31.5 -24q-11 -12 -19 -25t-15 -31t-14.5 -42.5t-17.5 -58.5q-4 -13 -9 -29.5l-10 -33t-9.5 -31t-7.5 -23.5q-27 -79 -63.5 -114t-78.5 -35q-63 0 -97.5 47.5t-40.5 151.5q-2 45 -4 76t-3 42q-2 37 -6 64t-12.5 43.5t-21.5 24.5t-33 8
q-5 0 -8.5 -0.5t-8 -2t-11.5 -3.5t-20 -5l-35 82q29 17 50 21.5t46 4.5q56 0 88.5 -20.5t52.5 -65.5q7 -15 11 -27.5t6.5 -30.5t4 -45t3.5 -71q1 -18 2 -36.5t2 -36t2.5 -31.5t2.5 -22q2 -32 9 -45.5t21 -15.5t24 12.5t21 47.5q17 54 33.5 108.5t30.5 108.5q14 50 31.5 82.5
t43.5 52t62 27.5t86 8h15z" />
    <glyph glyph-name="xi" unicode="&#x3be;" horiz-adv-x="669" 
d="M244 -121q17 -2 29 -2.5t21 -0.5q31 0 53.5 6t22.5 28q0 19 -17 29t-71 16q-25 3 -45 7.5t-34 8.5q-52 14 -80.5 48t-28.5 81q0 25 7 51t20.5 49.5t33 43t44.5 33.5q7 4 14 7.5t16.5 7.5t23.5 8.5t35 12.5q-54 27 -72 52t-18 51q0 13 5 27.5t18 29.5t35 31.5t56 34.5h-92
l24 85l231 1q29 1 43 9q20 8 29.5 9.5t15.5 1.5t13 -7t16 -33q10 -26 10 -37q0 -12 -5.5 -17t-30.5 -5h-28q-8 0 -21.5 -2t-33.5 -4q-28 -8 -48.5 -14.5t-37 -14t-29 -15.5t-23.5 -18q-18 -17 -28 -28.5t-10 -28.5t11.5 -30t32 -22t47.5 -13.5t58 -4.5h37l-20 -93
q-50 0 -81 -2t-58 -9q-29 -6 -53 -19t-41 -31t-26.5 -39.5t-9.5 -43.5q0 -17 5 -28.5t17 -19t31.5 -13t47.5 -9.5q27 -3 45 -6.5t31 -7.5t22.5 -8.5t18.5 -9.5q22 -15 36 -41.5t14 -59.5q0 -42 -21 -73.5t-57 -45.5q-17 -7 -38.5 -9.5t-54.5 -2.5q-17 0 -31 0.5t-37 2.5z
" />
    <glyph glyph-name="omicron" unicode="&#x3bf;" horiz-adv-x="669" 
d="M183 416q33 40 79.5 58.5t107.5 18.5q48 0 87.5 -16t68 -45.5t44 -71t15.5 -92.5q0 -65 -19.5 -131t-52.5 -115q-35 -51 -84 -75.5t-116 -24.5q-52 0 -93.5 16.5t-70.5 47t-44.5 74.5t-15.5 100q0 69 24.5 137t69.5 119zM440 129q13 36 21.5 78.5t8.5 79.5q0 50 -29 80.5
t-79 30.5q-66 0 -105 -68q-24 -42 -38.5 -94t-14.5 -101q0 -57 28.5 -89.5t83.5 -32.5q43 0 72.5 28t51.5 88z" />
    <glyph glyph-name="pi" unicode="&#x3c0;" horiz-adv-x="669" 
d="M481 -80q-28 28 -47 57t-27.5 68.5t-5.5 93t18 131.5l25 132h-193q-12 -114 -25.5 -192.5t-28.5 -132.5t-31.5 -89t-35.5 -62l-100 43q20 26 31.5 48t20.5 51q7 24 14 50.5t14.5 63.5t16 88.5t17.5 126.5q-23 -2 -41.5 -4.5t-35.5 -8.5l10 97q19 8 35 10.5t48 2.5h467
l-18 -92h-53l-27 -135q-13 -58 -16.5 -102.5t2.5 -78.5t21.5 -59.5t41.5 -44.5z" />
    <glyph glyph-name="rho" unicode="&#x3c1;" horiz-adv-x="669" 
d="M33 -139l107 395q16 58 38 102.5t53 75.5t73.5 47t100.5 16q100 0 153.5 -58t53.5 -161q0 -57 -19.5 -115.5t-54.5 -105.5t-84 -76.5t-107 -29.5q-22 0 -44 2t-42.5 9.5t-39 21.5t-34.5 38l-45 -161h-109zM343 51q33 0 61.5 16.5t49.5 44.5t33 66t12 81q0 60 -26.5 98
t-73.5 38q-33 0 -61.5 -18.5t-50 -49.5t-33.5 -71.5t-12 -83.5q0 -55 26.5 -88t74.5 -33z" />
    <glyph glyph-name="sigma" unicode="&#x3c3;" horiz-adv-x="669" 
d="M562 484q-14 -5 -32.5 -11.5t-36.5 -14t-34.5 -14.5t-27.5 -12q62 -29 92.5 -72t30.5 -109q0 -48 -12.5 -98.5t-35.5 -93.5q-75 -136 -227 -136q-103 0 -161.5 61t-58.5 168q0 95 52.5 174.5t149.5 137.5q34 21 67.5 37.5t68 30t70.5 24.5t74 21zM404 103q8 16 15 34
t12.5 37t8.5 36.5t3 32.5q0 56 -29.5 91t-80.5 35q-34 0 -63.5 -19t-51 -50.5t-33.5 -72.5t-12 -86q0 -57 28 -90.5t78 -33.5q83 0 125 86z" />
    <glyph glyph-name="tau" unicode="&#x3c4;" horiz-adv-x="669" 
d="M423 -70q-41 -5 -70 -7t-54 -2q-45 0 -70.5 19.5t-19.5 53.5l5 42l58 337q-19 2 -28.5 2.5t-14.5 0.5q-28 0 -62.5 -6t-65.5 -15l11 103q19 5 34.5 8.5t30.5 5.5t31.5 3t37.5 1q18 0 44 -1.5t51 -4.5l27 -2q30 -4 45 -5.5t24 -1.5q8 -1 13 -1h13q29 0 54 4t66 13
l-20 -107q-29 -5 -48.5 -7.5t-43.5 -2.5q-12 0 -34 2t-54 4l-50 -304q-2 -15 -0.5 -24.5t11 -14t29 -5t52.5 3.5l21 2z" />
    <glyph glyph-name="upsilon" unicode="&#x3c5;" horiz-adv-x="669" 
d="M529 147q-17 -65 -36.5 -107.5t-49 -68t-72.5 -36t-106 -10.5q-95 0 -138 33t-43 96q0 17 3.5 33.5t8.5 33.5l5 21q5 20 11.5 43.5t14.5 49.5q6 22 12.5 44t11.5 40.5t8 33.5t3 24q0 14 -10.5 25t-44.5 25l85 53q34 -12 56.5 -37.5t20.5 -48.5v-6q-1 -11 -2.5 -23
t-3.5 -23q-6 -27 -15 -57.5t-18 -61.5q-14 -46 -25 -87.5t-11 -67.5t25 -37t68 -11q35 0 58 10.5t37 31.5q9 13 19 38.5t19.5 56.5t19 65.5t17.5 66t13.5 57.5t7.5 41q-1 29 -46 59l84 52q32 -15 51 -39t19 -55q0 -13 -3.5 -34t-9.5 -47t-13 -55l-14 -58z" />
    <glyph glyph-name="phi" unicode="&#x3c6;" horiz-adv-x="669" 
d="M159 -135l42 131q-95 15 -140 64.5t-45 139.5q0 58 19.5 107t55.5 86.5t87.5 63.5t116.5 38l6 -89q-49 -15 -83 -34.5t-55 -45t-30.5 -56t-9.5 -67.5q0 -29 4 -49.5t15.5 -34.5t32.5 -23t54 -14l70 218q14 42 31 78t39 61.5t50.5 40t66.5 14.5q77 0 119 -54t42 -146
q0 -89 -34.5 -151t-91.5 -102q-40 -27 -97 -35t-122 -13l-37 -128h-106zM329 82q102 7 153 58.5t61 158.5q2 44 -11.5 71.5t-42.5 27.5q-26 0 -48.5 -25.5t-33.5 -58.5z" />
    <glyph glyph-name="chi" unicode="&#x3c7;" horiz-adv-x="669" 
d="M507 -77q-29 0 -49 3t-34.5 11.5t-25 21.5t-19.5 33l-55 123l-145 -192l-133 1l237 291l-62 138q-8 17 -24.5 26.5t-37.5 9.5h-25l-15 88h103q39 0 61 -14t37 -49l45 -99l124 162h129l-210 -263l72 -168q11 -27 28 -35.5t50 -8.5h18l-16 -78z" />
    <glyph glyph-name="psi" unicode="&#x3c8;" horiz-adv-x="669" 
d="M206 -150l19 84q-63 4 -106 16.5t-69.5 33t-38 49.5t-11.5 67q0 32 5 73t13.5 82.5t20 79.5t24.5 65q14 29 27 45t37 32l84 -51q-14 -13 -23 -24.5t-16.5 -24.5t-13.5 -29t-12 -37q-5 -18 -13 -53.5t-16 -85.5q-3 -13 -5 -24.5t-2 -21.5q0 -51 33 -72.5t105 -25.5
l101 522h100l-100 -529q38 1 63.5 3t43.5 7.5t31 14.5t25 24q26 29 38 92t12 153q0 44 -8 70.5t-31 52.5l101 40q14 -17 23.5 -34t15.5 -38t8.5 -47t2.5 -59q0 -66 -9 -126.5t-24 -102.5q-14 -39 -38 -67t-62 -45.5t-91.5 -25t-125.5 -7.5l-13 -76h-105z" />
    <glyph glyph-name="omega" unicode="&#x3c9;" horiz-adv-x="669" 
d="M290 293h111l-23 -138q-2 -14 -3.5 -24t-1.5 -14q0 -37 16 -64.5t45 -27.5q25 0 44 17.5t32.5 47t20.5 68.5t7 82q0 70 -17 103.5t-63 45.5l23 94q21 -6 35.5 -10.5t26 -9.5t20 -11t17.5 -13q33 -32 51 -78t18 -108q0 -35 -6 -72.5t-16.5 -72.5t-25 -65.5t-31.5 -52.5
q-23 -32 -57 -49.5t-70 -17.5q-44 0 -76 23.5t-60 88.5q-17 -33 -32.5 -54.5t-31.5 -34t-34 -17t-40 -4.5q-69 0 -111.5 56t-42.5 157q0 46 9.5 89.5t26.5 82t40.5 70t52.5 52.5q37 27 69.5 38.5t74.5 14.5l-4 -96q-34 -8 -54.5 -19.5t-38.5 -36.5q-16 -18 -28 -41.5
t-20.5 -50t-13 -54t-4.5 -53.5q0 -48 12.5 -76t44.5 -28q17 0 31 9t24.5 25t18 36.5t11.5 44.5z" />
    <glyph glyph-name="uni0401" unicode="&#x401;" 
d="M643 667q0 -27 -20 -45.5t-49 -18.5q-27 0 -46.5 18.5t-19.5 45.5q0 29 19.5 47.5t47.5 18.5t48 -18.5t20 -47.5zM413 667q0 -28 -19.5 -46t-47.5 -18q-29 0 -48 18.5t-19 45.5q0 29 19.5 47.5t47.5 18.5t47.5 -18.5t19.5 -47.5zM197 -77v645h540v-97h-436v-162h366v-98
h-366v-191h436v-97h-540z" />
    <glyph glyph-name="uni0410" unicode="&#x410;" 
d="M677 -74l-75 215h-286l-79 -215h-121l285 758h114l284 -758h-122zM459 575l-117 -346h231z" />
    <glyph glyph-name="uni0411" unicode="&#x411;" 
d="M218 -75v761h443l67 -105l-84 -58l-39 70h-279v-216h174q110 0 165 -50q38 -26 57 -73.5t19 -111.5q0 -52 -15 -94.5t-44 -65.5q-26 -28 -70.5 -42t-98.5 -15h-295zM469 19q89 0 126 29.5t37 98.5t-39.5 102t-127.5 33h-139v-263h143z" />
    <glyph glyph-name="uni0412" unicode="&#x412;" 
d="M186 -75v761l289 1q67 0 113.5 -14.5t75.5 -41t42 -62.5t13 -79q0 -51 -20.5 -89t-65.5 -69q24 -11 43 -21.5t31 -22.5q26 -23 39.5 -62.5t13.5 -84.5q0 -64 -26 -113t-73 -74q-26 -15 -60.5 -22t-76.5 -7h-338zM506 372q51 0 80 30t29 83q0 51 -31 79.5t-88 28.5h-206
v-221h216zM511 23q35 0 58.5 7t43.5 21q43 34 43 95q0 63 -39 96t-112 33h-215v-252h221z" />
    <glyph glyph-name="uni0413" unicode="&#x413;" 
d="M233 -79v680h-35v86h486l45 -69l30 -46l-89 -59l-52 86h-271v-678h-114z" />
    <glyph glyph-name="uni0414" unicode="&#x414;" 
d="M708 -163l-78 88h-352q-20 -29 -49.5 -51.5t-60.5 -36.5q-10 18 -33 42t-44 43q3 1 15 7t28 16t33.5 24t31.5 33q10 15 16 38.5t9.5 51t4.5 56t1 53.5v384h-52v101h573v-101h-51v-566l95 -108zM585 585h-241v-401q0 -43 -3 -89l-11 -69h255v559z" />
    <glyph glyph-name="uni0415" unicode="&#x415;" 
d="M189 -75v762h540v-95h-435v-221h367v-96h-367v-254h435v-96h-540z" />
    <glyph glyph-name="uni0416" unicode="&#x416;" 
d="M720 -76q-11 24 -16 56.5t-7 86.5q-1 15 -2.5 26.5t-3.5 17.5q-5 45 -11.5 76t-17.5 49.5t-28 26.5t-42 8h-79v-346h-103v346h-78q-31 0 -49 -9.5t-31 -32.5q-11 -19 -16 -58.5t-7 -84.5q0 -35 -1.5 -58.5t-3.5 -41t-6 -32t-10 -29.5h-128q13 14 21 27.5t13.5 32.5t8 46
t4.5 68q2 63 8.5 103.5t23.5 71.5q10 22 28.5 36.5t59.5 28.5q-14 16 -23 30.5t-15 30t-9.5 33.5t-6.5 42q-3 29 -7.5 49t-13 32t-21.5 17.5t-33 6.5q-8 1 -11.5 1h-11.5v103q29 0 51 -2t39.5 -6.5t31 -12t25.5 -19.5q42 -35 53 -129q5 -30 7.5 -51.5t4.5 -29.5
q13 -60 63 -68q3 0 16.5 -1t23.5 -1v320h103v-320h33q38 2 56 25.5t23 80.5q0 2 1 10.5t2 9.5l5 53q0 2 0.5 4t1.5 10q17 68 63.5 97t137.5 30v-104h-5q-2 0 -4.5 0.5t-3.5 0.5q-27 -1 -45 -6.5t-29 -18.5t-17 -35t-10 -55q-3 -41 -12.5 -71t-30.5 -56q20 -8 33.5 -14
t23.5 -12.5t16.5 -13t11.5 -14.5q17 -23 25 -68.5t9 -120.5q2 -36 4.5 -61t7.5 -43.5t12.5 -33.5t19.5 -33z" />
    <glyph glyph-name="uni0417" unicode="&#x417;" 
d="M391 274v102h93q108 0 108 99q0 115 -148 115q-56 0 -101 -18.5t-69 -51.5q-13 -17 -19.5 -36.5t-9.5 -44.5h-90v175l56 -38q24 30 49.5 51t55 34.5t65.5 19.5t81 6q119 0 183.5 -53t64.5 -150q0 -54 -20 -91.5t-64 -63.5q56 -26 82.5 -69t26.5 -108q0 -111 -69.5 -170
t-200.5 -59q-75 0 -130.5 21.5t-92.5 63.5q-16 17 -27.5 35t-19.5 39.5t-13 48t-7 61.5h116q5 -40 13 -65.5t22 -45.5q19 -29 54.5 -41t87.5 -12q73 0 113 32t40 92t-34 91t-100 31h-96z" />
    <glyph glyph-name="uni0418" unicode="&#x418;" 
d="M629 -74v571h-3l-322 -571h-127v759h114v-562h3l322 562h127v-759h-114z" />
    <glyph glyph-name="uni0419" unicode="&#x419;" 
d="M627 726q-6 -35 -16.5 -60t-27.5 -43q-42 -50 -127 -50q-49 0 -84.5 20t-55.5 57q-8 16 -14 33t-11 43h96q8 -35 23 -51.5t48 -16.5t49.5 17t24.5 51h95zM628 -75v477l-2 1l-333 -478h-117v646h112v-481l3 -1l335 482h117v-646h-115z" />
    <glyph glyph-name="uni041A" unicode="&#x41a;" 
d="M655 -68l-157 274q-14 25 -29.5 48.5t-17.5 27.5q-10 -7 -25.5 -10t-31 -4t-28.5 -0.5t-17 0.5l-32 1v-337h-112v749h112v-313h77q36 0 59 14.5t37 43.5q5 11 10 31.5t13 50.5q12 44 21 66.5t23 36.5q1 3 8 10q18 26 45 38.5t74 16.5q2 0 11 0.5t19.5 1l21 1t15.5 0.5
v-101h-19q-29 0 -48 -4.5t-32 -17t-22 -34.5t-16 -57q-7 -30 -13 -49.5t-13 -34t-17 -25.5t-25 -23l233 -401h-124z" />
    <glyph glyph-name="uni041B" unicode="&#x41b;" 
d="M591 -74v658h-245q0 -9 -0.5 -36t-0.5 -55.5v-51.5v-24q0 -12 -1 -23.5t-1 -28.5q-2 -78 -10 -142t-21 -111q-10 -39 -22.5 -69t-30 -53.5t-41 -42.5t-56.5 -36l-55 90q24 13 42 26t30 31q12 19 20.5 51t12.5 58q10 49 15 121.5t5 157.5v138h-59l-1 101h593v-101h-58
v-658h-116z" />
    <glyph glyph-name="uni041C" unicode="&#x41c;" 
d="M754 -72l-70 521h-10l-159 -521h-104l-151 523h-12l-70 -523h-104l97 753h117l168 -566h9l175 566h117l102 -753h-105z" />
    <glyph glyph-name="uni041D" unicode="&#x41d;" 
d="M641 -75v350h-361v-350h-112v760h112v-310h361v310h112v-760h-112z" />
    <glyph glyph-name="uni041E" unicode="&#x41e;" 
d="M468 -76q-69 0 -125.5 27.5t-97 77t-62.5 119.5t-22 155q0 88 20.5 159t59.5 121t94.5 76.5t124.5 26.5q132 0 216 -98q87 -99 87 -280q0 -88 -21 -159t-59.5 -121t-93 -77t-121.5 -27zM465 29q45 0 80.5 19.5t60 55.5t38 86.5t13.5 113.5q0 65 -13 117.5t-38 89t-61 56
t-82 19.5q-92 0 -143.5 -73t-51.5 -200q0 -66 13.5 -118.5t39 -89.5t62 -56.5t82.5 -19.5z" />
    <glyph glyph-name="uni041F" unicode="&#x41f;" 
d="M594 -76v660h-272v-660h-114v660h-72v101h641v-101h-67v-660h-116z" />
    <glyph glyph-name="uni0420" unicode="&#x420;" 
d="M205 -74v760h303q53 0 93.5 -8.5t70.5 -28.5q45 -26 70 -74.5t25 -110.5q0 -60 -24 -107.5t-67 -73.5q-61 -40 -168 -40l-191 -1v-316h-112zM499 345q75 0 115.5 31.5t40.5 90.5q0 57 -39.5 86.5t-115.5 29.5h-183v-238h182z" />
    <glyph glyph-name="uni0421" unicode="&#x421;" 
d="M753 196q-4 -67 -25.5 -115t-50.5 -78q-38 -37 -90 -58t-117 -21q-75 0 -135.5 26.5t-103 75.5t-65.5 119t-23 156q0 202 116 305q41 38 93.5 59t114.5 21q71 0 131.5 -27.5t99.5 -75.5q23 -27 37 -67.5t19 -88.5l-107 1q-2 28 -11.5 51.5t-20.5 40.5q-21 34 -58.5 51
t-84.5 17q-103 0 -161 -74t-58 -206q0 -62 14 -114t40 -89q28 -38 71 -59.5t94 -21.5q38 0 71.5 12.5t55.5 38.5q20 24 32.5 54t15.5 67h106z" />
    <glyph glyph-name="uni0422" unicode="&#x422;" 
d="M406 -76v661h-239v101h583v-101h-233v-661h-111z" />
    <glyph glyph-name="uni0423" unicode="&#x423;" 
d="M245 37q29 -8 45.5 -11t30.5 -3q13 0 22.5 2.5t17 9.5t14 19t14.5 31l28 73l-262 528h113l204 -405l165 405h114l-267 -646q-17 -38 -30 -61t-30 -38q-31 -30 -89 -30q-23 0 -41.5 3t-48.5 11v112z" />
    <glyph glyph-name="uni0424" unicode="&#x424;" 
d="M406 -75v80q-71 6 -120.5 23.5t-84.5 49.5q-51 36 -78 94.5t-27 131.5q0 72 31 136t84 101q17 16 35.5 27t42 19t52 13.5t65.5 8.5v76h107v-76q69 -7 117.5 -24.5t83.5 -49.5q51 -35 77.5 -93t26.5 -132q0 -75 -29.5 -138.5t-82.5 -100.5q-17 -16 -36 -27.5t-42 -19.5
t-51 -12.5t-64 -6.5v-80h-107zM513 103q21 3 37.5 6.5t30 8t25 10.5t24.5 13q77 63 77 172q0 100 -68 159q-26 15 -53 24t-73 15v-408zM406 510q-48 -5 -80 -18t-61 -34q-29 -29 -44 -66.5t-15 -85.5q0 -50 16 -87.5t46 -66.5q29 -19 60 -31t78 -18v407z" />
    <glyph glyph-name="uni0425" unicode="&#x425;" 
d="M648 -72l-189 291l-204 -291h-132l272 379l-253 377h133l185 -277l181 277h129l-245 -371l260 -385h-137z" />
    <glyph glyph-name="uni0426" unicode="&#x426;" 
d="M693 -164l-75 89h-469v100h56v660h115v-660h260v660h115v-677l88 -106z" />
    <glyph glyph-name="uni0427" unicode="&#x427;" 
d="M599 -75v281q-44 -31 -84.5 -44.5t-95.5 -13.5q-63 0 -110 18.5t-75 52.5q-23 28 -33.5 65.5t-10.5 94.5v307h114v-293q0 -64 27 -100q18 -20 46 -31t64 -11q73 0 115.5 32t42.5 88v315h114v-761h-114z" />
    <glyph glyph-name="uni0428" unicode="&#x428;" 
d="M88 -74v103h53v654h119v-654h143v654h120v-654h137v654h119v-654h51v-103h-742z" />
    <glyph glyph-name="uni0429" unicode="&#x429;" 
d="M748 -159l-53 87h-608v99h43v654h115v-654h158v654h115v-654h154v654h109v-683l60 -105z" />
    <glyph glyph-name="uni042A" unicode="&#x42a;" 
d="M247 -76v656h-144v108h255v-291h176q123 0 189 -61.5t66 -175.5q0 -115 -62 -175.5t-177 -60.5h-303zM548 21q61 0 94 35t33 100q0 67 -35.5 106t-99.5 39h-182v-280h190z" />
    <glyph glyph-name="uni042B" unicode="&#x42b;" 
d="M672 -77v765h113v-765h-113zM144 -77v765h112v-291h115q112 0 172 -64t60 -185q0 -52 -16.5 -93.5t-47.5 -71t-75 -45t-99 -15.5h-221zM354 20q71 0 104.5 34.5t33.5 103.5q0 66 -35.5 103t-98.5 37h-102v-278h98z" />
    <glyph glyph-name="uni042C" unicode="&#x42c;" 
d="M207 -77v765h111v-291h172q128 0 193 -61t65 -180q0 -66 -24 -117.5t-67 -77.5q-26 -20 -66 -29t-94 -9h-290zM484 20q47 0 69.5 6t39.5 20q42 36 42 113q0 42 -14.5 73.5t-40.5 49.5q-18 10 -40 14t-61 4h-161v-280h166z" />
    <glyph glyph-name="uni042D" unicode="&#x42d;" 
d="M310 339q45 33 71 45t46 12q16 0 39.5 -8t44.5 -22q43 -28 65 -28q26 0 72 35q-21 212 -193 212q-82 0 -129 -47q-17 -17 -32.5 -50t-21.5 -75h-107q8 60 29 109.5t51 80.5q39 40 93 62t122 22q106 0 177 -57q54 -40 84 -104q20 -43 29.5 -97t9.5 -115
q0 -104 -23.5 -180.5t-71.5 -124.5q-39 -41 -94.5 -62.5t-124.5 -21.5q-87 0 -149 33.5t-97 96.5q-15 28 -24.5 56.5t-17.5 70.5h110q5 -30 10.5 -46t12.5 -30q22 -37 62.5 -58.5t92.5 -21.5q64 0 109 27.5t69 80.5q10 27 16.5 58t10.5 78q-32 -17 -51.5 -25.5t-33.5 -8.5
q-20 0 -44.5 12t-48.5 26q-14 8 -26.5 13t-21.5 5q-14 0 -31.5 -9t-44.5 -31z" />
    <glyph glyph-name="uni042E" unicode="&#x42e;" 
d="M86 -64v741h112v-295h91q4 28 8 49t9 38.5t11.5 33t15.5 32.5q42 71 105.5 111.5t138.5 40.5q63 0 115.5 -27.5t89.5 -77t57.5 -120t20.5 -155.5q0 -100 -26 -179t-74 -127q-35 -36 -80 -56t-98 -20q-42 0 -81 13.5t-73 39t-62 62.5t-47 84q-14 33 -22 68.5t-12 91.5h-87
v-348h-112zM712 121q17 35 26.5 83.5t9.5 102.5q0 65 -12 117.5t-35 89t-56 56t-75 19.5q-37 0 -68.5 -21t-54 -58.5t-35.5 -89t-13 -112.5q0 -63 12.5 -115.5t36 -90t56 -58t71.5 -20.5q45 0 79.5 25t57.5 72z" />
    <glyph glyph-name="uni042F" unicode="&#x42f;" 
d="M605 -75v333h-184q-30 0 -51 -6.5t-34.5 -21.5t-20 -40t-9.5 -63q-3 -44 -6 -72.5t-7.5 -49.5t-11 -38.5t-15.5 -41.5h-120q12 24 20 45t13.5 45t8.5 53.5t5 70.5q2 36 6.5 61.5t14 43.5t25 31t39.5 24q-104 56 -104 179q0 48 15 86t42 65t65.5 41.5t86.5 14.5h333v-760
h-111zM605 588h-202q-58 0 -89.5 -28t-31.5 -79q0 -56 33 -89.5t89 -33.5h201v230z" />
    <glyph glyph-name="uni0430" unicode="&#x430;" 
d="M584 -59q-6 10 -10 24.5t-4 15.5q0 2 -1 4l-2 4q-37 -32 -77 -46.5t-91 -14.5q-86 0 -136 43.5t-50 118.5q0 96 80 136q13 6 28 11.5t34 10t43.5 8.5t56.5 8q29 3 46 7t31 9q33 13 33 42q0 28 -26.5 43.5t-73.5 15.5q-54 0 -78.5 -18t-29.5 -60h-118q3 46 17 77.5
t43 54.5q27 23 69 34.5t96 11.5q217 0 217 -157v-274q0 -19 1 -33.5t4 -26.5t7.5 -23.5t11.5 -24.5zM567 203q-3 0 -11 -5t-14 -7q-16 -8 -33.5 -12t-49.5 -7q-27 -3 -43.5 -5.5t-27 -5t-17.5 -5.5t-15 -7q-15 -9 -23 -22t-8 -33q0 -33 24 -50.5t66 -17.5q32 0 61.5 7.5
t50.5 19.5q18 14 26 30t10 46z" />
    <glyph glyph-name="uni0431" unicode="&#x431;" 
d="M678 564q-35 -16 -53 -21t-36 -5q-14 0 -27.5 1.5t-29.5 7.5q-18 8 -29 13t-18.5 8t-13.5 4.5t-13 1.5q-43 0 -69 -47.5t-38 -148.5q28 27 54.5 39t66.5 12q46 0 83.5 -18t64 -50.5t41 -78.5t14.5 -101q0 -57 -15.5 -104.5t-43 -81t-67 -52t-87.5 -18.5q-53 0 -96 23.5
t-71 69.5q-29 45 -44.5 109.5t-15.5 145.5q0 95 16.5 172.5t50.5 133.5q30 54 66.5 78t85.5 24q11 0 18.5 -0.5t15.5 -2.5t17.5 -6.5t25.5 -12.5q14 -7 31.5 -11.5t25.5 -4.5q18 0 38.5 5t51.5 19v-103zM468 329q-24 1 -45.5 -10.5t-37 -32.5t-25 -50.5t-9.5 -63.5
q0 -33 8.5 -60t23.5 -47t34.5 -31t42.5 -11t43 11t34.5 31.5t23 48.5t8.5 61q0 68 -28 110t-73 44z" />
    <glyph glyph-name="uni0432" unicode="&#x432;" 
d="M235 -75v558h294q93 0 136 -46q38 -36 38 -95q0 -38 -17 -68t-54 -50q48 -21 69.5 -54t21.5 -79q0 -84 -61 -127q-27 -19 -62 -29t-82 -10h-283zM489 259q45 0 72 18.5t27 49.5q0 63 -112 63h-129v-131h142zM347 166v-147h147q22 0 39 3.5t29 8.5q39 14 39 59
q0 36 -29 56q-13 8 -31.5 14t-40.5 6h-153z" />
    <glyph glyph-name="uni0433" unicode="&#x433;" 
d="M256 -75v560h387l70 -124l-89 -58l-44 74h-212v-452h-112z" />
    <glyph glyph-name="uni0434" unicode="&#x434;" 
d="M651 -163l-64 90h-275q-14 -18 -27 -31.5t-27.5 -24.5t-32 -19.5t-39.5 -17.5l-59 90q27 12 48 26.5t41 34.5q20 18 31 45t16 67q2 11 3 27.5t3 47.5q3 48 3 102v109h-43v99h475v-99h-40v-378l68 -109zM564 383h-191v-109q0 -28 -2 -66t-5 -76q0 -11 -0.5 -19t-1.5 -14
q-1 -8 -1.5 -14t-0.5 -8q-1 -6 -1.5 -11t-0.5 -7q-2 -5 -2.5 -9.5t-1.5 -15.5l-4 -4l6 -2h206v355z" />
    <glyph glyph-name="uni0435" unicode="&#x435;" 
d="M323 168q2 -27 7 -45.5t16 -35.5q34 -56 118 -56q53 0 80.5 19.5t37.5 67.5h117q-11 -49 -28.5 -83.5t-45.5 -58.5q-60 -51 -162 -51q-59 0 -106 19.5t-80 55.5t-50.5 87t-17.5 114t18 115.5t51 90t78.5 58.5t100.5 21q66 0 119 -30t85 -82q17 -31 27.5 -70.5t11.5 -91.5
v-44h-377zM584 271q-15 109 -123 109q-57 0 -89.5 -28t-42.5 -80z" />
    <glyph glyph-name="uni0436" unicode="&#x436;" 
d="M639 -68q-8 20 -14 38.5t-6 38.5t1 42.5t1 42.5q0 49 -31 60q-7 6 -15.5 8t-17.5 3q-8 2 -18 3t-24 3v-239h-109v239q-56 -5 -82.5 -25t-26.5 -76q0 -20 1 -38t1 -36q0 -21 -2.5 -34t-13.5 -30h-130q9 11 17.5 24.5t11.5 25.5q5 15 5.5 31.5t1.5 32.5q0 31 3 56.5
t13 46.5t29.5 38t52.5 32q-30 17 -40 38t-12 41q-3 13 -5 25.5t-7.5 22t-15 16.5t-25.5 10q-6 2 -13 2v111q15 -2 32.5 -4t35 -6.5t32.5 -11.5t25 -17q11 -11 17 -26t9.5 -31t5.5 -32.5t5 -31.5q1 -8 3.5 -16.5t7.5 -14.5q10 -14 28.5 -15.5t35.5 -1.5v211h109v-213
q25 4 39.5 9t20.5 16q9 9 12 24q2 8 3 16t3 19q5 33 11.5 55t19.5 36t34 21.5t55 11.5q8 2 17.5 2t20.5 2v-113q-17 -2 -28 -5.5t-17.5 -10t-11 -17.5t-7.5 -29q-1 -10 -2.5 -16.5t-2.5 -10.5q-2 -5 -2.5 -10.5t-2.5 -10.5q-5 -11 -11.5 -20t-22.5 -25q30 -11 48 -26.5
t28.5 -35.5t14 -44t3.5 -51q0 -21 0.5 -36.5t3 -29.5t7 -29t12.5 -35h-121z" />
    <glyph glyph-name="uni0437" unicode="&#x437;" 
d="M413 161l-9 80l33 19h45q42 0 65.5 16.5t23.5 45.5q0 33 -28.5 51.5t-80.5 18.5q-91 0 -135 -53q-8 -8 -13.5 -18.5t-9.5 -27.5h-94v127l60 -24q35 50 81.5 72.5t113.5 22.5q53 0 95.5 -11.5t72 -33t45.5 -52t16 -67.5q0 -36 -16 -62.5t-55 -50.5q48 -27 67 -54.5
t19 -69.5q0 -81 -62.5 -126t-171.5 -45q-74 0 -134 27t-94 75q-14 18 -22.5 39.5t-17.5 62.5h122q14 -43 39 -65q20 -20 47.5 -28.5t63.5 -8.5q54 0 82 18t28 54q0 32 -26 50t-69 18h-81z" />
    <glyph glyph-name="uni0438" unicode="&#x438;" 
d="M594 -74v361l-254 -361h-115v557h107v-378l259 378h112v-557h-109z" />
    <glyph glyph-name="uni0439" unicode="&#x439;" 
d="M633 661q-11 -85 -53 -124.5t-117 -39.5q-48 0 -84.5 17.5t-58.5 55.5q-11 19 -17 40.5t-10 50.5h100q5 -37 21.5 -52.5t49.5 -15.5q34 0 50.5 15.5t21.5 52.5h97zM591 -75v363l-254 -363h-115v558h108v-379l259 379h111v-558h-109z" />
    <glyph glyph-name="uni043A" unicode="&#x43a;" 
d="M599 -75l-110 197q-11 20 -22.5 27.5t-28.5 7.5h-74v-232h-109v557h109v-214h69q17 0 29.5 3.5t21.5 12t16 23.5t13 38q10 33 19.5 55.5t20.5 37t25 23t34 13.5q19 5 44 7.5t47 4.5v-115q-3 0 -10 -0.5t-14.5 -1t-14 -1.5t-8.5 -1q-17 -3 -27.5 -15.5t-19.5 -45.5
q-5 -20 -9.5 -33.5t-10 -23.5t-13.5 -18t-20 -17l166 -289h-123z" />
    <glyph glyph-name="uni043B" unicode="&#x43b;" 
d="M561 -74v457h-185q0 -50 -0.5 -80.5t-1 -50.5t-2.5 -36t-5 -37q-6 -51 -16.5 -90t-28 -69.5t-43 -55.5t-61.5 -48l-53 99q18 11 28.5 20.5t19.5 20.5q23 30 35 83t15 116q0 4 0.5 17.5t1.5 30t1.5 32.5t0.5 24q0 4 -1.5 10t-0.5 14h-57v103h517v-103h-55v-457h-109z" />
    <glyph glyph-name="uni043C" unicode="&#x43c;" 
d="M666 -75l-26 358l-127 -358h-99l-145 379l-20 -379h-107l29 560h127l162 -415l156 415h116l43 -560h-109z" />
    <glyph glyph-name="uni043D" unicode="&#x43d;" 
d="M586 -77v241h-256v-241h-114v562h114v-209h256v209h114v-562h-114z" />
    <glyph glyph-name="uni043E" unicode="&#x43e;" 
d="M465 -75q-54 0 -100.5 22t-81 60t-54.5 89.5t-20 110.5q0 66 26 126t72 99q29 23 72 38t85 15q57 0 104.5 -20.5t81.5 -57t53 -88t19 -112.5q0 -60 -19.5 -111.5t-54 -89.5t-81.5 -59.5t-102 -21.5zM464 31q66 0 105 48.5t39 128.5q0 79 -39 125.5t-105 46.5
q-64 0 -102.5 -46t-38.5 -124q0 -40 10 -73t29 -56.5t44.5 -36.5t57.5 -13z" />
    <glyph glyph-name="uni043F" unicode="&#x43f;" 
d="M558 -75v454h-197v-454h-109v454h-49v104h511v-104h-48v-454h-108z" />
    <glyph glyph-name="uni0440" unicode="&#x440;" 
d="M222 -195v680h111v-65q31 35 69 51.5t80 16.5q46 0 85.5 -18t65.5 -51q32 -32 48 -85.5t16 -119.5q0 -57 -10.5 -101t-34.5 -77q-31 -45 -75.5 -69.5t-98.5 -24.5q-42 0 -76 14.5t-69 48.5v-200h-111zM459 47q56 0 90 45t34 121q0 80 -33 126.5t-91 46.5
q-56 0 -89.5 -47.5t-33.5 -125.5q0 -81 31.5 -123.5t91.5 -42.5z" />
    <glyph glyph-name="uni0441" unicode="&#x441;" 
d="M702 129q-8 -53 -28 -90.5t-52 -63.5q-59 -53 -155 -53q-58 0 -106 20.5t-82.5 57.5t-53.5 88.5t-19 113.5q0 63 20 115t55.5 90t85 59t108.5 21q49 0 89.5 -13.5t69.5 -38.5t46 -60.5t19 -78.5h-108q-8 38 -38 58.5t-79 20.5q-70 0 -110.5 -46t-40.5 -127
q0 -78 39.5 -124t105.5 -46q98 0 121 97h113z" />
    <glyph glyph-name="uni0442" unicode="&#x442;" 
d="M403 -79v454h-184v112h485v-112h-185v-454h-116z" />
    <glyph glyph-name="uni0443" unicode="&#x443;" 
d="M247 -57q39 -9 69 -9q21 0 33 7.5t20 30.5q0 1 4 11t9 21t9.5 21.5t6.5 13.5l-206 435h127l142 -297l124 297h123l-233 -541q-16 -37 -30 -60.5t-29.5 -37t-35.5 -18.5t-48 -5q-18 0 -37 3.5t-48 8.5v119z" />
    <glyph glyph-name="uni0444" unicode="&#x444;" 
d="M404 -156v121q-49 -40 -113 -40q-46 0 -85 21t-67.5 58.5t-44.5 88.5t-16 111q0 61 16 112t45.5 87.5t70 57t89.5 20.5q32 0 56 -8.5t50 -28.5v117h106v-122q29 25 54 34.5t57 9.5q47 0 86.5 -21t68.5 -58t45 -88.5t16 -111.5q0 -71 -19.5 -126.5t-57.5 -91.5
q-27 -29 -61.5 -45t-76.5 -16q-32 0 -60 10.5t-55 33.5v-125h-104zM511 75q31 -55 95 -55q60 0 93.5 48.5t33.5 132.5q0 100 -45 151q-36 34 -80 34q-32 0 -54.5 -10.5t-42.5 -36.5v-264zM404 341q-27 25 -50 35t-49 10q-58 0 -89.5 -48.5t-31.5 -133.5t31 -133.5t88 -48.5
q30 0 52.5 11t48.5 39v269z" />
    <glyph glyph-name="uni0445" unicode="&#x445;" 
d="M590 -78l-131 191l-134 -191h-138l208 290l-196 274h141l122 -173l118 173h135l-188 -274l204 -290h-141z" />
    <glyph glyph-name="uni0446" unicode="&#x446;" 
d="M646 -172l-57 95h-385v110h47v454h109v-454h201v454h111v-483l68 -116z" />
    <glyph glyph-name="uni0447" unicode="&#x447;" 
d="M552 -78v194q-30 -20 -64.5 -29.5t-84.5 -9.5q-97 0 -147 51t-50 147v211h116v-183q0 -63 23 -89t79 -26q31 0 58 8t44 22q15 10 20.5 27t5.5 43v198h116v-564h-116z" />
    <glyph glyph-name="uni0448" unicode="&#x448;" 
d="M141 -75v105h44v445h110v-445h108v445h112v-445h108v445h111v-445h40v-105h-633z" />
    <glyph glyph-name="uni0449" unicode="&#x449;" 
d="M701 -169l-55 92h-504v107h51v444h108v-444h106v444h108v-444h109v444h108v-486l62 -106z" />
    <glyph glyph-name="uni044A" unicode="&#x44a;" 
d="M286 -76v455h-119v105h230v-185h146q43 0 78 -13.5t60 -38t38.5 -59t13.5 -77.5q0 -42 -14 -76t-38.5 -59t-59 -38.5t-75.5 -13.5h-260zM533 29q42 0 66.5 21t24.5 58q0 40 -24.5 63t-67.5 23h-135v-165h136z" />
    <glyph glyph-name="uni044B" unicode="&#x44b;" 
d="M633 -77v562h108v-562h-108zM173 -77v562h110v-183h116q40 0 73.5 -13.5t57.5 -38t37 -58.5t13 -75q0 -43 -13.5 -79t-37.5 -61.5t-57.5 -39.5t-73.5 -14h-225zM379 30q42 0 65 23t23 61q0 39 -23.5 61t-68.5 22h-92v-167h96z" />
    <glyph glyph-name="uni044C" unicode="&#x44c;" 
d="M255 -81v570h109v-188h165q42 0 76 -13.5t58.5 -38.5t37.5 -59.5t13 -77.5t-13.5 -78.5t-38.5 -61t-59 -39.5t-76 -14h-272zM507 23q47 0 72 23.5t25 61.5q0 89 -102 89h-138v-174h143z" />
    <glyph glyph-name="uni044D" unicode="&#x44d;" 
d="M341 236q31 23 50.5 33t38.5 10q28 0 70 -17q20 -10 31.5 -13.5t21.5 -3.5q21 0 47 17q-7 62 -43 96.5t-94 34.5q-85 0 -119 -82h-109q13 48 32.5 79.5t52.5 55.5q58 45 137 45q58 0 104.5 -19.5t78.5 -56t49 -89.5t17 -119q0 -137 -63.5 -212.5t-182.5 -75.5
q-108 0 -173 74q-15 17 -27 42t-25 67h107q20 -45 46.5 -63.5t70.5 -18.5q68 0 100.5 33.5t36.5 105.5q-18 -9 -29.5 -12t-22.5 -3q-8 0 -21.5 3.5t-30.5 13.5l-6 2q-6 4 -12 6q-9 4 -19.5 7t-18.5 3q-12 1 -24.5 -6.5t-35.5 -27.5z" />
    <glyph glyph-name="uni044E" unicode="&#x44e;" 
d="M151 -79v555h106v-213h100q6 35 14.5 58.5t22.5 46.5q33 60 83.5 91.5t113.5 31.5q52 0 95.5 -22t75 -61t49.5 -92.5t18 -116.5q0 -64 -17.5 -117.5t-49 -92.5t-75 -60.5t-95.5 -21.5q-63 0 -113.5 31t-82.5 89q-31 53 -41 133h-98v-239h-106zM592 12q28 0 52.5 14
t41.5 39.5t27 59.5t10 75t-9.5 75t-27 58.5t-41.5 38t-53 13.5t-53 -13.5t-41.5 -38t-27.5 -58.5t-10 -75q0 -42 9.5 -76.5t27 -59t42 -38.5t53.5 -14z" />
    <glyph glyph-name="uni044F" unicode="&#x44f;" 
d="M573 -80v229l-169 -2q-37 -3 -48 -34l-4 -10t-3.5 -12.5t-3 -20t-2.5 -32.5q0 -5 -0.5 -8.5t-0.5 -5.5q0 -15 -1.5 -27.5t-3.5 -24.5t-5.5 -24t-9.5 -27h-129q6 12 10 21.5t6.5 19.5t4.5 21.5t4 27.5q5 20 7.5 38.5t3.5 36.5q1 20 3 32t4 20.5t5.5 14t8.5 13.5
q8 12 18.5 20.5t30.5 17.5q-43 19 -62 48t-19 73q0 37 12.5 67t35.5 51.5t55 33t71 11.5h290v-568h-109zM573 384h-153q-41 0 -63 -17t-22 -49t23.5 -48.5t66.5 -16.5h148v131z" />
    <glyph glyph-name="uni0451" unicode="&#x451;" 
d="M608 589q0 -29 -18.5 -47.5t-47.5 -18.5q-27 0 -46 18.5t-19 47.5t19 47t47 18q29 0 47 -18t18 -47zM361 523q-29 0 -48 18.5t-19 46.5q0 29 19 47t48 18q27 0 45.5 -18t18.5 -47t-18.5 -47t-45.5 -18zM326 168q3 -50 23 -80q17 -29 47 -43t72 -14q53 0 80 19.5t38 66.5
h116q-11 -49 -28.5 -82.5t-45.5 -58.5q-62 -51 -161 -51q-59 0 -106 19.5t-80 55t-51 86.5t-18 114q0 64 18 116.5t51 90t78.5 58t101.5 20.5q66 0 119 -30t84 -81q18 -31 28 -70.5t11 -91.5v-44h-377zM587 271q-15 108 -123 108q-112 0 -132 -108h255z" />
    <glyph glyph-name="uni2015" unicode="&#x2015;" 
d="M-14 286v53h950v-53h-950z" />
    <glyph glyph-name="quoteleft" unicode="&#x2018;" horiz-adv-x="309" 
d="M254 773q-21 -11 -40 -29t-27 -30q-7 -14 -7 -26q0 -4 5 -9.5t17 -7.5q29 -4 45 -23t16 -47q0 -27 -22 -47.5t-50 -20.5q-21 0 -36.5 8.5t-26.5 22.5t-16.5 31.5t-5.5 35.5q0 25 9 52t26 49t42 41t45 27z" />
    <glyph glyph-name="quoteright" unicode="&#x2019;" horiz-adv-x="309" 
d="M55 541q21 11 40 29t27 30q7 14 7 26q0 4 -5 9.5t-17 7.5q-29 4 -45 23t-16 47q0 27 22 47.5t50 20.5q21 0 36.5 -8.5t26.5 -22.5t16.5 -31.5t5.5 -35.5q0 -25 -9 -52t-26 -49t-42 -41t-45 -27z" />
    <glyph glyph-name="quotedblleft" unicode="&#x201c;" horiz-adv-x="463" 
d="M414 770q-22 -11 -41 -29t-26 -30q-7 -14 -7 -26q0 -4 5 -9.5t17 -7.5q29 -4 44.5 -23t15.5 -47q0 -27 -22 -47.5t-50 -20.5q-20 0 -36 8.5t-26.5 22.5t-16 31.5t-5.5 35.5q0 25 9 52t26 49t41.5 41t44.5 27zM239 770q-22 -11 -41 -29t-26 -30q-7 -14 -7 -26q0 -4 5 -9.5
t16 -7.5q29 -4 45 -23t16 -47q0 -27 -22 -47.5t-50 -20.5q-20 0 -36 8.5t-26.5 22.5t-16 31.5t-5.5 35.5q0 25 9 52t26 49t41.5 41t44.5 27z" />
    <glyph glyph-name="quotedblright" unicode="&#x201d;" horiz-adv-x="463" 
d="M49 531q22 11 41 29t26 30q8 13 8 26q0 4 -5.5 9.5t-16.5 7.5q-29 4 -45 23t-16 47q0 27 22 47.5t50 20.5q21 0 36.5 -8.5t26.5 -22.5t16.5 -31.5t5.5 -35.5q0 -25 -9 -52t-26 -49t-42 -41t-45 -27zM225 531q21 11 40 29t26 30q8 13 8 26q0 4 -5 9.5t-17 7.5
q-29 4 -45 23t-16 47q0 27 22 47.5t50 20.5q21 0 36.5 -8.5t26.5 -22.5t16.5 -31.5t5.5 -35.5q0 -25 -9 -52t-26 -49t-42 -41t-45 -27z" />
    <glyph glyph-name="dagger" unicode="&#x2020;" 
d="M415 -136v548h-221v86h221v235h93v-235h218v-86h-218v-548h-93z" />
    <glyph glyph-name="daggerdbl" unicode="&#x2021;" 
d="M415 -133v498h-203v86h203v73h-222v86h222v126h93v-126h224v-86h-224v-73h205v-86h-205v-498h-93z" />
    <glyph glyph-name="twodotenleader" unicode="&#x2025;" 
d="M770 324q0 -33 -23 -54t-60 -21q-32 0 -54.5 21.5t-22.5 53.5q0 34 23 54.5t60 20.5q32 0 54.5 -21.5t22.5 -53.5zM310 324q0 -33 -23 -54t-59 -21q-32 0 -54 21.5t-22 53.5q0 34 22.5 54.5t58.5 20.5q32 0 54.5 -21.5t22.5 -53.5z" />
    <glyph glyph-name="ellipsis" unicode="&#x2026;" 
d="M833 329q0 -29 -18.5 -46.5t-50.5 -17.5q-29 0 -47.5 18t-18.5 46q0 29 19 46.5t52 17.5q29 0 46.5 -18t17.5 -46zM528 329q0 -29 -19 -46.5t-51 -17.5q-29 0 -47.5 18t-18.5 46q0 29 19 46.5t51 17.5q29 0 47.5 -18t18.5 -46zM223 329q0 -29 -19.5 -46.5t-51.5 -17.5
q-28 0 -47 18t-19 46q0 29 19.5 46.5t50.5 17.5q29 0 48 -18t19 -46z" />
    <glyph glyph-name="perthousand" unicode="&#x2030;" 
d="M888 21q-22 -30 -51 -52.5t-60.5 -33.5t-62.5 -9t-56 19q-26 17 -37.5 44t-11 58.5t12.5 65t35 63.5q22 30 51 52t60 33t61.5 10t56.5 -18q25 -17 37 -44.5t11.5 -59t-12.5 -65t-34 -63.5zM85 338q-26 17 -37.5 44t-11 58.5t12 65t33.5 63.5t51 52t60.5 33.5t62 10
t55.5 -18.5q26 -17 37.5 -44.5t11 -59t-12.5 -65t-34 -63.5q-21 -30 -50 -52t-60 -33t-62 -9.5t-56 18.5zM-16 -79l589 754h92l-590 -754h-91zM553 22q-22 -30 -51 -52.5t-60 -33.5t-62 -9.5t-56 18.5q-26 17 -37.5 44t-10.5 59t13 65.5t34 63.5q21 30 50 52t60 33t61.5 9.5
t56.5 -18.5q25 -17 37 -44.5t11.5 -59t-12.5 -64.5t-34 -63zM841 194q-16 11 -49.5 -3t-68.5 -60q-35 -47 -36.5 -83t15.5 -47q7 -5 20 -4.5t29 8t34 22.5t36 39q34 46 36 81.5t-16 46.5zM247 460q33 46 35 81.5t-15 46.5q-15 10 -49 -3.5t-69 -60.5t-36.5 -81.5t15.5 -47.5
q15 -12 49 2t70 63zM487 67q34 46 35.5 81.5t-15.5 47.5q-15 10 -49 -3.5t-69 -60.5q-17 -23 -25.5 -44.5t-10.5 -38.5t2.5 -29.5t12.5 -17.5q16 -11 49.5 3t69.5 62z" />
    <glyph glyph-name="minute" unicode="&#x2032;" horiz-adv-x="463" 
d="M211 738q4 9 11 16t15.5 11t18 4t18.5 -5q26 -15 21.5 -39t-21.5 -50q-20 -29 -42.5 -55t-43.5 -54q-6 -8 -14 -9.5t-14.5 2t-9.5 11t1 17.5z" />
    <glyph glyph-name="second" unicode="&#x2033;" horiz-adv-x="463" 
d="M255 540q-6 -9 -14 -10.5t-15 2t-10 11t0 16.5l70 167q9 20 30.5 28.5t38.5 -2.5q20 -11 23.5 -33.5t-10.5 -38.5zM118 559q-6 -9 -14 -10.5t-15 2t-10 11t0 16.5l69 167q4 10 12.5 17.5t18.5 11.5t20 3.5t19 -6.5q20 -11 22.5 -33t-12.5 -39z" />
    <glyph glyph-name="uni203B" unicode="&#x203b;" 
d="M856 320q0 -30 -22 -50.5t-54 -20.5q-31 0 -53 20.5t-22 49.5t21.5 50.5t53.5 21.5t54 -20.5t22 -50.5zM214 320q0 -30 -21.5 -50.5t-53.5 -20.5t-53.5 20.5t-21.5 49.5t21.5 50.5t53.5 21.5q31 0 53 -20.5t22 -50.5zM535 625q0 -31 -21.5 -51.5t-53.5 -20.5t-54 20.5
t-22 51.5q0 29 21.5 50t54.5 21q31 0 53 -21t22 -50zM535 16q0 -31 -21.5 -51t-53.5 -20t-54 20t-22 50q0 29 21.5 50t54.5 21q31 0 53 -20t22 -50zM791 -48l-331 313l-331 -313l-57 54l329 314l-329 314l57 54l331 -313l331 313l57 -54l-330 -314l330 -314z" />
    <glyph glyph-name="uni2074" unicode="&#x2074;" horiz-adv-x="463" 
d="M160 500v51h-134v45l137 185h43v-188h44v-42h-44v-51h-46zM160 707l-85 -114h85v114z" />
    <glyph glyph-name="uni207F" unicode="&#x207f;" horiz-adv-x="463" 
d="M199 489v161q0 16 -1.5 30t-7 24t-16.5 15.5t-30 5.5q-11 0 -24.5 -6.5t-24.5 -17t-18.5 -25t-7.5 -30.5v-157h-46v270h44v-28q17 17 40 27t49 10q22 0 39 -9.5t27.5 -24t16 -31.5t5.5 -32v-182h-45z" />
    <glyph glyph-name="uni2081" unicode="&#x2081;" horiz-adv-x="463" 
d="M117 -90v209h-60v34q16 0 29.5 3t22.5 10q5 5 10 13t5 22h38v-291h-45z" />
    <glyph glyph-name="uni2082" unicode="&#x2082;" horiz-adv-x="463" 
d="M21 -86q0 35 16 64t61 57l46 30q35 21 35 50q0 21 -12 33t-36 12q-31 0 -42 -16t-11 -40h-48q0 18 6 35.5t19 31.5t31.5 22.5t44.5 8.5q50 0 74.5 -26.5t24.5 -60.5q0 -18 -6 -31t-15 -23.5t-19.5 -17.5l-19.5 -13q-11 -7 -24 -15t-26 -17t-23.5 -19t-16.5 -22h152v-43
h-211z" />
    <glyph glyph-name="uni2083" unicode="&#x2083;" horiz-adv-x="463" 
d="M104 85q10 0 23 -0.5t22 3.5q29 12 29 38q0 14 -12 24t-37 10q-29 0 -40.5 -14.5t-9.5 -33.5h-49q-1 22 7 39t22 28.5t32.5 17t38.5 5.5q19 0 37 -5.5t31.5 -15.5t21.5 -24t8 -31q0 -22 -10 -37t-20 -23q17 -10 28 -26.5t11 -40.5q0 -38 -29 -65t-77 -27q-47 0 -78.5 27
t-29.5 71h50q-1 -21 12.5 -38t45.5 -17q26 0 40 15.5t14 35.5q0 15 -10 24.5t-25 14.5q-11 3 -23 2.5t-23 -0.5v43z" />
    <glyph glyph-name="uni2084" unicode="&#x2084;" horiz-adv-x="463" 
d="M160 -80v51h-134v45l137 185h43v-188h44v-42h-44v-51h-46zM160 127l-85 -114h85v114z" />
    <glyph glyph-name="Euro" unicode="&#x20ac;" 
d="M751 -48q-41 -29 -96 -45t-116 -16q-73 0 -135 25t-109 74q-26 27 -46 60.5t-33 75.5h-116v83h98q-3 31 -3 64q0 18 1 35t3 34h-85l7 83h95q14 44 33.5 80t45.5 65q48 53 111 80.5t137 27.5q60 0 110 -14.5t81 -39.5l-52 -70q-29 19 -62 28.5t-76 9.5q-51 0 -92 -18
t-70 -56q-29 -37 -44 -93h227v-83h-241q-1 -13 -1.5 -27t-0.5 -29q0 -41 3 -77h208v-83h-189q12 -42 37 -73q56 -77 171 -77q46 0 81 11t65 32z" />
    <glyph glyph-name="uni2103" unicode="&#x2103;" 
d="M844 126q-9 -36 -30 -79t-57 -79.5t-87 -61t-119 -24.5q-72 0 -130 27t-98.5 76t-62.5 117.5t-22 150.5q0 81 22 149t62.5 116.5t98.5 76t130 27.5q68 0 119.5 -24.5t88 -60.5t57.5 -76.5t28 -73.5h-102q-7 24 -21.5 50t-37.5 47.5t-56 35.5t-76 14q-48 0 -87 -20.5
t-66.5 -57.5t-42.5 -88.5t-15 -114.5t15 -115.5t42.5 -89.5t66.5 -57.5t87 -20.5q42 0 75 14.5t56.5 37t38.5 50t22 54.5h101zM283 615q0 -25 -10.5 -47.5t-28.5 -39t-41.5 -26.5t-50.5 -10t-50.5 10t-41 26.5t-28 39t-10.5 47.5t10.5 47.5t28 39t41 26.5t50.5 10t50.5 -10
t41.5 -26.5t28.5 -39t10.5 -47.5zM213 615q0 26 -17 41.5t-44 15.5q-26 0 -43 -15.5t-17 -41.5t17 -41.5t43 -15.5q27 0 44 15.5t17 41.5z" />
    <glyph glyph-name="uni2109" unicode="&#x2109;" 
d="M438 213v-296h-100v685h471v-92h-371v-204h325v-93h-325zM282 615q0 -24 -9.5 -45t-26.5 -37t-39.5 -25t-47.5 -9t-47.5 9t-39 25t-26 37t-9.5 45t9.5 45t26 37t39 25t47.5 9t47.5 -9t39.5 -25t26.5 -37t9.5 -45zM217 615q0 23 -16.5 39t-41.5 16q-24 0 -41 -16t-17 -39
t17 -39t41 -16q25 0 41.5 16t16.5 39z" />
    <glyph glyph-name="uni2113" unicode="&#x2113;" 
d="M656 1q-26 -51 -53.5 -75.5t-65.5 -35.5q-36 -11 -79 8.5t-77 67.5q-17 -10 -46.5 -18t-56.5 -10l-31 84q17 2 44.5 6t47.5 13q-31 68 -40 146.5t-6 163.5q2 75 17 139t40 112t58 76.5t71 30.5q41 2 70 -25.5t45 -77t19.5 -118t-6.5 -147.5q-9 -65 -24 -118t-34.5 -94
t-41.5 -71.5t-43 -50.5q15 -25 33.5 -30t34.5 3q15 7 29 25t28 50zM417 83q38 41 66.5 110t36.5 156q4 46 5.5 94t-2.5 88t-15 65t-31 24q-19 -1 -35.5 -26t-29.5 -64t-21 -86.5t-9 -93.5q-1 -38 1.5 -78t7 -77t11.5 -66.5t15 -45.5z" />
    <glyph glyph-name="uni2116" unicode="&#x2116;" 
d="M870 -65q-23 0 -40.5 17t-17.5 41q0 23 17.5 41.5t40.5 18.5q24 0 41 -18.5t17 -41.5q0 -24 -17 -41t-41 -17zM649 -48q-44 0 -79 19t-59 51.5t-37 76t-13 92.5t13 92.5t37 76.5t59 52t79 19t79 -19t59 -52t36.5 -76.5t12.5 -92.5t-12.5 -92.5t-36.5 -76t-59 -51.5
t-79 -19zM331 -39l-231 537v-537h-81v689h100l231 -536v536h81v-689h-100zM649 30q26 0 46 12t34 34t21 51t7 64q0 34 -7 63.5t-21 51.5t-34 34.5t-46 12.5t-46 -12.5t-33.5 -34.5t-20.5 -51.5t-7 -63.5t7 -63.5t20.5 -51t33.5 -34t46 -12.5z" />
    <glyph glyph-name="uni2121" unicode="&#x2121;" 
d="M794 -55v648h84v-648h-84zM419 132q1 -29 12 -53.5t28 -42t38 -27.5t43 -10q47 0 71.5 19.5t32.5 45.5h87q-9 -24 -23.5 -47.5t-37 -42.5t-55 -30.5t-75.5 -11.5q-45 0 -82.5 17.5t-64.5 48.5t-42 71.5t-15 87.5q0 46 14.5 87.5t41 72t64 48.5t83.5 18q42 0 79.5 -15.5
t66 -46.5t44.5 -78.5t14 -110.5h-324zM198 -56v575l-41 1h-145v72h456v-72h-185v-576h-85zM657 198q-4 50 -35.5 84.5t-82.5 34.5q-47 0 -79 -32t-38 -87h235z" />
    <glyph glyph-name="trademark" unicode="&#x2122;" 
d="M748 278v270l-1 1l-101 -271h-47l-104 264l-1 -1v-263h-57v364h82l103 -264l97 264h88v-364h-59zM211 278v315h-129v49h318v-49h-127v-315h-62z" />
    <glyph glyph-name="Omega" unicode="&#x2126;" 
d="M510 -75q-17 0 -23 9.5t-6 26.5v120q0 23 5 35t26 19q29 9 54 28.5t44 49t29.5 68t10.5 86.5q0 55 -14 98.5t-40 74.5t-62.5 47.5t-81.5 16.5q-44 0 -80 -17.5t-62 -49t-40.5 -75.5t-14.5 -98q0 -88 33 -144.5t111 -88.5q23 -10 25.5 -25t2.5 -26v-119q0 -14 -6.5 -25
t-23.5 -11h-183v79h131v54q-39 14 -72 40.5t-57.5 65t-38.5 88.5t-14 110q0 68 21.5 128t60 104.5t91.5 70.5t116 26t116 -24.5t91.5 -68t59.5 -103t21 -129.5q0 -57 -14.5 -107t-39.5 -89t-57 -67t-68 -42v-57h139v-79h-190z" />
    <glyph glyph-name="uni212B" unicode="&#x212b;" 
d="M578 665q0 -24 -9.5 -44.5t-26 -36.5t-39 -25t-47.5 -9t-47.5 9t-39.5 25t-27 36.5t-10 44.5t10 45t27 36.5t39.5 25t47.5 9.5t47.5 -9.5t39 -25t26 -36.5t9.5 -45zM665 -102l-62 146h-300l-61 -146h-104l260 625h113l259 -625h-105zM513 665q0 24 -16.5 39.5t-40.5 15.5
q-25 0 -41.5 -15.5t-16.5 -39.5q0 -23 16.5 -39t41.5 -16q24 0 40.5 16t16.5 39zM455 413l-118 -287h233z" />
    <glyph glyph-name="onethird" unicode="&#x2153;" 
d="M201 329v287h-99v62q48 0 82 19q11 8 20.5 22.5t9.5 31.5h68v-422h-81zM659 88q20 0 38.5 1.5t31.5 7.5q34 16 40 54q1 21 -17.5 39.5t-56.5 18.5q-41 0 -58.5 -20.5t-16.5 -47.5l-78 -1q-2 29 9.5 53t32.5 41t49.5 26.5t61.5 9.5t61.5 -9.5t48.5 -25.5t31.5 -37.5
t11.5 -45.5q0 -20 -6 -35.5t-14.5 -27t-19 -20t-19.5 -12.5q30 -12 52.5 -38.5t22.5 -60.5q0 -28 -12.5 -52t-35 -42t-53.5 -28t-67 -10t-67 10.5t-54 29t-35.5 44.5t-10.5 57h80q-2 -32 21 -53.5t65 -21.5q40 0 62 19t23 48q2 21 -13.5 37.5t-41.5 23.5q-16 4 -33 4h-33v64
zM47 -103l707 816l64 -42l-706 -818z" />
    <glyph glyph-name="twothirds" unicode="&#x2154;" 
d="M38 327q0 22 4.5 45.5t16.5 46.5t32 44.5t52 41.5l81 50q22 14 39 32t18 46q1 29 -18 49t-56 20q-42 0 -62 -24.5t-18 -57.5h-81q0 26 10 52t30.5 46.5t50.5 33t70 12.5q38 0 66.5 -11t48 -29t29.5 -41.5t10 -49.5q0 -25 -8 -44.5t-21 -34.5t-28.5 -26.5t-30.5 -21.5
q-2 -2 -15.5 -10.5t-30 -19.5t-31 -20.5t-18.5 -12.5q-17 -12 -29 -26.5t-16 -28.5h228v-61h-323zM61 -103l708 816l62 -42l-706 -818zM646 85q20 0 38 2t32 8q35 15 38 54q2 20 -16 39t-56 19q-42 0 -59 -21t-15 -48h-80q-2 29 10 53t33 41t50 26.5t62 9.5t61 -9.5
t48.5 -25.5t31.5 -37.5t11 -45.5q0 -20 -6 -35.5t-15 -27t-19.5 -20t-19.5 -12.5q32 -12 53 -38.5t21 -60.5q0 -28 -12.5 -52t-34.5 -42t-52 -28t-66 -10t-67 10.5t-54 29t-36 44.5t-12 57h81q-3 -32 20.5 -53.5t66.5 -21.5q38 0 60.5 19t25.5 48q1 21 -15.5 37.5
t-40.5 22.5q-15 5 -33 5h-34v63z" />
    <glyph glyph-name="oneeighth" unicode="&#x215b;" 
d="M198 329v286h-99v62q23 0 44 4.5t37 14.5q12 8 21.5 22.5t9.5 31.5h68v-421h-81zM69 -103l708 816l63 -42l-706 -818zM792 59q35 -17 55.5 -44.5t20.5 -62.5q0 -27 -14 -51t-38 -41.5t-57 -27.5t-70 -10t-69 10t-56 27.5t-37.5 41.5t-13.5 51q0 35 20.5 62.5t55.5 43.5
q-28 16 -44 40t-16 52q0 25 12.5 47t34 37.5t51 24.5t62.5 9q34 0 63.5 -9t51.5 -24.5t34.5 -37.5t12.5 -47q0 -28 -15.5 -52t-43.5 -39zM770 147q0 24 -20.5 41t-60.5 17q-39 0 -58.5 -17t-19.5 -41t19.5 -41t58.5 -17q40 0 60.5 17t20.5 41zM784 -46q0 30 -24 50t-71 20
q-45 0 -69 -20t-24 -50q0 -29 24 -49t69 -20q47 0 71 20t24 49z" />
    <glyph glyph-name="threeeighths" unicode="&#x215c;" 
d="M185 580q20 0 37.5 2t31.5 7q16 8 26 21t12 33q2 21 -16 40t-56 19q-40 0 -57.5 -21t-15.5 -48h-80q-1 29 10.5 53t32.5 41t49 26t61 9q34 0 61.5 -9.5t47.5 -25.5t31 -37.5t11 -45.5q0 -39 -19 -62.5t-39 -31.5q32 -13 53 -39.5t21 -60.5q0 -28 -12.5 -52t-34 -41.5
t-52 -27.5t-66.5 -10t-67 10t-53.5 28.5t-35 44.5t-11.5 57h80q-2 -32 20.5 -53.5t64.5 -21.5q39 0 61.5 19t23.5 48q2 22 -13.5 38.5t-40.5 22.5q-16 4 -33 4h-33v64zM69 -103l708 816l63 -42l-706 -818zM792 59q35 -17 55.5 -44.5t20.5 -62.5q0 -27 -14 -51t-38 -41.5
t-57 -27.5t-70 -10t-69 10t-56 27.5t-37.5 41.5t-13.5 51q0 35 20.5 62.5t55.5 43.5q-28 16 -44 40t-16 52q0 25 12.5 47t34 37.5t51 24.5t62.5 9q34 0 63.5 -9t51.5 -24.5t34.5 -37.5t12.5 -47q0 -28 -15.5 -52t-43.5 -39zM770 147q0 24 -20.5 41t-60.5 17q-39 0 -58.5 -17
t-19.5 -41t19.5 -41t58.5 -17q40 0 60.5 17t20.5 41zM784 -46q0 30 -24 50t-71 20q-45 0 -69 -20t-24 -50q0 -29 24 -49t69 -20q47 0 71 20t24 49z" />
    <glyph glyph-name="fiveeighths" unicode="&#x215d;" 
d="M157 691l-17 -91q23 11 54.5 15.5t59.5 -1.5q19 -4 39.5 -13.5t37.5 -26t28 -40.5t11 -57q0 -35 -14.5 -63t-38 -47t-52.5 -29t-58 -10q-37 0 -66.5 11.5t-50.5 29.5t-33.5 41t-14.5 46l80 -2q4 -26 26 -44t58 -18q35 0 58 22.5t26 59.5q3 38 -21 62t-60 24
q-49 0 -72 -29h-85l39 225h260v-65h-194zM69 -103l708 816l63 -42l-706 -818zM792 59q35 -17 55.5 -44.5t20.5 -62.5q0 -27 -14 -51t-38 -41.5t-57 -27.5t-70 -10t-69 10t-56 27.5t-37.5 41.5t-13.5 51q0 35 20.5 62.5t55.5 43.5q-28 16 -44 40t-16 52q0 25 12.5 47t34 37.5
t51 24.5t62.5 9q34 0 63.5 -9t51.5 -24.5t34.5 -37.5t12.5 -47q0 -28 -15.5 -52t-43.5 -39zM770 147q0 24 -20.5 41t-60.5 17q-39 0 -58.5 -17t-19.5 -41t19.5 -41t58.5 -17q40 0 60.5 17t20.5 41zM784 -46q0 30 -24 50t-71 20q-45 0 -69 -20t-24 -50q0 -29 24 -49t69 -20
q47 0 71 20t24 49z" />
    <glyph glyph-name="seveneighths" unicode="&#x215e;" 
d="M152 327q2 30 15.5 80t45.5 110q14 27 30.5 51t31.5 44.5t28 35.5t20 23h-244v69h321v-67q-16 -16 -46 -51.5t-56 -90.5q-31 -56 -46 -112.5t-15 -91.5h-85zM792 59q35 -17 55.5 -44.5t20.5 -62.5q0 -27 -14 -51t-38 -41.5t-57 -27.5t-70 -10t-69 10t-56 27.5t-37.5 41.5
t-13.5 51q0 35 20.5 62.5t55.5 43.5q-28 16 -44 40t-16 52q0 25 12.5 47t34 37.5t51 24.5t62.5 9q34 0 63.5 -9t51.5 -24.5t34.5 -37.5t12.5 -47q0 -28 -15.5 -52t-43.5 -39zM47 -103l707 816l64 -42l-706 -818zM770 147q0 24 -20.5 41t-60.5 17q-39 0 -58.5 -17t-19.5 -41
t19.5 -41t58.5 -17q40 0 60.5 17t20.5 41zM784 -46q0 30 -24 50t-71 20q-45 0 -69 -20t-24 -50q0 -29 24 -49t69 -20q47 0 71 20t24 49z" />
    <glyph glyph-name="uni2160" unicode="&#x2160;" 
d="M408 -63v746h105v-746h-105z" />
    <glyph glyph-name="uni2161" unicode="&#x2161;" 
d="M581 -62v746h103v-746h-103zM236 -62v746h104v-746h-104z" />
    <glyph glyph-name="uni2162" unicode="&#x2162;" 
d="M622 -62v746h103v-746h-103zM408 -62v746h104v-746h-104zM194 -62v746h104v-746h-104z" />
    <glyph glyph-name="uni2163" unicode="&#x2163;" 
d="M473 -62l-210 746h117l162 -608l157 608h118l-209 -746h-135zM127 -62v746h104v-746h-104z" />
    <glyph glyph-name="uni2164" unicode="&#x2164;" 
d="M401 -62l-271 746h119l220 -628l220 628h120l-272 -746h-136z" />
    <glyph glyph-name="uni2165" unicode="&#x2165;" 
d="M689 -62v746h104v-746h-104zM312 -62l-207 746h118l157 -608l157 608h118l-209 -746h-134z" />
    <glyph glyph-name="uni2166" unicode="&#x2166;" 
d="M740 -62v746h96v-746h-96zM583 -62v746h95v-746h-95zM236 -62l-180 746h119l129 -610l129 610h118l-181 -746h-134z" />
    <glyph glyph-name="uni2167" unicode="&#x2167;" 
d="M801 -62v745h88v-745h-88zM656 -62v745h87v-745h-87zM510 -62v745h86v-745h-86zM186 -62l-153 745h102l117 -616l117 616h103l-153 -745h-133z" />
    <glyph glyph-name="uni2168" unicode="&#x2168;" 
d="M710 -66l-168 279l-167 -279h-122l228 381l-224 371h122q5 -9 18.5 -31t30.5 -51t35 -61t33.5 -61t25.5 -51.5t10 -31.5l172 287h119l-221 -371l229 -381h-121zM109 -66v752h103v-752h-103z" />
    <glyph glyph-name="uni2169" unicode="&#x2169;" 
d="M665 -66l-198 302l-195 -302h-116l254 391l-235 361h115l177 -273l178 273h115l-241 -370q4 0 21.5 -23.5t43 -60t55 -81t57.5 -87t50.5 -78t33.5 -52.5h-115z" />
    <glyph glyph-name="uni2170" unicode="&#x2170;" 
d="M408 580v107h105v-107h-105zM408 -59v537h105v-537h-105z" />
    <glyph glyph-name="uni2171" unicode="&#x2171;" 
d="M565 577v107h103v-107h-103zM254 577v107h103v-107h-103zM565 -62v537h103v-537h-103zM254 -62v537h103v-537h-103z" />
    <glyph glyph-name="uni2172" unicode="&#x2172;" 
d="M624 577v107h101v-107h-101zM410 577v107h103v-107h-103zM196 577v107h103v-107h-103zM624 -62v537h101v-537h-101zM410 -62v537h103v-537h-103zM196 -62v537h103v-537h-103z" />
    <glyph glyph-name="uni2173" unicode="&#x2173;" 
d="M150 581v107h103v-107h-103zM496 -51l-202 529h128l148 -414l148 414h128l-203 -529h-147zM150 -58v536h103v-536h-103z" />
    <glyph glyph-name="uni2174" unicode="&#x2174;" 
d="M396 -69l-195 559h112l145 -444l152 444h113l-200 -559h-127z" />
    <glyph glyph-name="uni2175" unicode="&#x2175;" 
d="M698 579v107h103v-107h-103zM312 -53l-197 529h122l143 -414l143 414h123l-195 -529h-139zM698 -60v536h103v-536h-103z" />
    <glyph glyph-name="uni2176" unicode="&#x2176;" 
d="M750 578v107h92v-107h-92zM592 578v107h94v-107h-94zM234 -54l-180 530h119l131 -414l130 414h119l-180 -530h-139zM750 -61v537h92v-537h-92zM592 -61v537h94v-537h-94z" />
    <glyph glyph-name="uni2177" unicode="&#x2177;" 
d="M803 579v107h88v-107h-88zM658 579v107h87v-107h-87zM512 579v107h87v-107h-87zM170 -53l-165 530h118l120 -426l118 426h119l-167 -530h-143zM803 -60v537h88v-537h-88zM658 -60v537h87v-537h-87zM512 -60v537h87v-537h-87z" />
    <glyph glyph-name="uni2178" unicode="&#x2178;" 
d="M687 -62l-125 177l-126 -177h-138l197 275l-187 261h136l118 -165l118 165h137l-189 -261l199 -275h-140zM159 578v107h105v-107h-105zM159 -61v536h105v-536h-105z" />
    <glyph glyph-name="uni2179" unicode="&#x2179;" 
d="M599 -64l-134 191l-133 -191h-125l193 284l-184 270h129l120 -176l123 176h127l-184 -270l193 -284h-125z" />
    <glyph glyph-name="arrowleft" unicode="&#x2190;" 
d="M253 271l45 -105l-298 134l298 134l-45 -105h655v-58h-655z" />
    <glyph glyph-name="arrowup" unicode="&#x2191;" 
d="M429 -147v638l-100 -42l131 321l131 -321l-99 43v-639h-63z" />
    <glyph glyph-name="arrowright" unicode="&#x2192;" 
d="M583 176l46 95h-623v58h622l-45 95l333 -124z" />
    <glyph glyph-name="arrowdown" unicode="&#x2193;" 
d="M329 151l100 -43v639h63v-639l99 43l-131 -321z" />
    <glyph glyph-name="arrowboth" unicode="&#x2194;" 
d="M620 166l41 106h-401l41 -106l-311 134l311 134l-41 -106h401l-41 106l310 -134z" />
    <glyph glyph-name="arrowupdn" unicode="&#x2195;" 
d="M313 95l117 -41v492l-117 -41l147 271l147 -272l-116 41v-490l116 41l-147 -272z" />
    <glyph glyph-name="uni2196" unicode="&#x2196;" 
d="M854 -112l-636 622l-34 -88l-154 306l325 -144l-95 -33l636 -623z" />
    <glyph glyph-name="uni2197" unicode="&#x2197;" 
d="M715 512l-636 -624l-42 40l637 623l-96 33l325 144l-153 -306z" />
    <glyph glyph-name="uni2198" unicode="&#x2198;" 
d="M578 26l96 33l-637 623l42 40l636 -622l35 88l153 -306z" />
    <glyph glyph-name="uni2199" unicode="&#x2199;" 
d="M30 -118l154 306l34 -90l636 624l42 -40l-636 -623l95 -33z" />
    <glyph glyph-name="arrowdblright" unicode="&#x21d2;" 
d="M630 21l-52 46l115 106h-660v66h730l66 60l-66 60h-730v66h660l-115 106l52 46l296 -278z" />
    <glyph glyph-name="arrowdblboth" unicode="&#x21d4;" 
d="M627 21l-50 46l114 106h-462l114 -106l-51 -46l-297 278l297 278l51 -46l-114 -106h462l-114 106l50 46l298 -278zM761 359h-603l-65 -60l65 -60h603l66 60z" />
    <glyph glyph-name="universal" unicode="&#x2200;" 
d="M398 -75l-282 758h109l68 -183h334l69 182h111l-283 -757h-126zM592 403h-264l133 -355z" />
    <glyph glyph-name="partialdiff" unicode="&#x2202;" horiz-adv-x="463" 
d="M99 588q12 26 23.5 43.5t23.5 29.5q29 28 63 43t69 15q39 0 71 -15.5t55.5 -43t36.5 -66.5t13 -86q0 -38 -8.5 -87.5t-23.5 -102t-35 -103.5t-42 -91q-32 -57 -76 -88t-92 -31q-40 0 -76 17t-58 45q-14 18 -21.5 42.5t-7.5 56.5q0 58 17.5 109t46.5 89t68 60.5t81 22.5
q35 1 62.5 -15t53.5 -53q6 29 10.5 49.5t6.5 36t3 28t1 26.5q0 47 -22 77.5t-61 30.5q-53 0 -91 -85zM150 312q-24 -31 -35 -63t-11 -71q0 -37 19 -60.5t51 -23.5q48 0 79 58q17 29 27 60.5t10 58.5q0 36 -18 63t-47 27q-20 0 -39 -13t-36 -36z" />
    <glyph glyph-name="existential" unicode="&#x2203;" 
d="M228 -74v97h398v222h-381v97h381v241h-410v99h515v-756h-503z" />
    <glyph glyph-name="gradient" unicode="&#x2207;" 
d="M-9 675h937l-468 -766zM817 616h-715l358 -585z" />
    <glyph glyph-name="element" unicode="&#x2208;" 
d="M392 10q-77 0 -138.5 22t-104 61t-65.5 92t-23 115q0 61 23 114t65.5 92t104 61.5t138.5 22.5h445v-70h-457q-61 0 -105 -19t-73.5 -46.5t-44.5 -59.5t-17 -59h696v-72h-696q2 -27 17 -59t44.5 -60t73.5 -46.5t105 -18.5h457v-70h-445z" />
    <glyph glyph-name="suchthat" unicode="&#x220b;" 
d="M82 10v70h457q61 0 105.5 18.5t73.5 46.5t44 60t17 59h-696v72h696q-2 27 -17 59t-44 59.5t-73.5 46.5t-105.5 19h-457v70h446q77 0 138 -22.5t104 -61.5t65.5 -92t22.5 -114q0 -62 -22.5 -115t-65.5 -92t-104 -61t-138 -22h-446z" />
    <glyph glyph-name="product" unicode="&#x220f;" 
d="M563 -49v600h-203v-600h-99v600h-151v101h706v-101h-153v-600h-100z" />
    <glyph glyph-name="summation" unicode="&#x2211;" 
d="M123 -13l20 84l311 294l-189 244l26 84h509l-15 -97h-401l190 -242l-298 -271h436l-26 -96h-563z" />
    <glyph glyph-name="radical" unicode="&#x221a;" 
d="M105 299l-55 -57l-27 43l129 129l133 -321l226 688h364v-57h-317l-283 -838z" />
    <glyph glyph-name="proportional" unicode="&#x221d;" 
d="M857 140q-22 -13 -40 -22t-34.5 -14.5t-33.5 -8t-36 -2.5q-42 0 -75 11.5t-58.5 29t-43.5 37.5t-29 37q-12 -17 -30 -37t-43 -37t-57.5 -29t-72.5 -12q-47 0 -87.5 16t-71 44t-48 66t-17.5 81t17.5 81t48 66t71 44t87.5 16q40 0 72.5 -12t57.5 -29.5t43 -38t30 -36.5
q12 16 30 36.5t43.5 38t58.5 29.5t74 12q37 0 69.5 -10.5t72.5 -37.5l-47 -66q-29 20 -49 26t-46 6q-39 0 -67.5 -15.5t-47.5 -36.5t-29.5 -42t-14.5 -31q4 -11 14.5 -31.5t29.5 -41.5t47.5 -36.5t67.5 -15.5q25 0 45.5 6.5t48.5 24.5zM461 300q-5 11 -16.5 32t-31 41.5
t-46.5 36t-63 15.5q-29 0 -53.5 -9.5t-43.5 -26.5t-29.5 -40t-10.5 -49t10.5 -49t29.5 -40t43.5 -26.5t53.5 -9.5q36 0 63 15.5t46.5 36t31 41.5t16.5 32z" />
    <glyph glyph-name="infinity" unicode="&#x221e;" 
d="M460 229q-9 -14 -25 -33t-39 -36t-54 -29t-70 -12q-41 0 -77 14t-63 39t-43 57.5t-16 70.5q0 37 16 70t43 58t63 39t77 14q39 0 70 -12t54 -29t39 -36t25 -33q9 14 25 33t39 36t54 29t69 12q41 0 77.5 -14t63.5 -39t43 -58t16 -70q0 -38 -16 -70.5t-43 -57.5t-63.5 -39
t-77.5 -14q-38 0 -68.5 12t-53.5 29t-39.5 36t-25.5 33zM411 300q-4 9 -14.5 27.5t-27.5 37t-41 33t-56 14.5q-25 0 -47.5 -9t-39 -24t-26 -35.5t-9.5 -43.5t9.5 -43.5t26 -35.5t39 -24t47.5 -9q32 0 56 14.5t41 33t27.5 37t14.5 27.5zM509 300q4 -9 14 -27.5t27 -37t41 -33
t56 -14.5q25 0 48 9t39.5 24t26.5 35.5t10 43.5t-10 43.5t-26.5 35.5t-39.5 24t-48 9q-32 0 -56 -14.5t-41 -33t-27 -37t-14 -27.5z" />
    <glyph glyph-name="angle" unicode="&#x2220;" 
d="M109 -38q-26 0 -36 16.5t5 36.5l17 17l644 616l61 -55l-583 -555h638v-76h-746z" />
    <glyph glyph-name="uni2225" unicode="&#x2225;" 
d="M534 -192v980h69v-980h-69zM317 -192v980h67v-980h-67z" />
    <glyph glyph-name="logicaland" unicode="&#x2227;" 
d="M760 -65l-300 584l-301 -584l-78 40l337 652q4 8 16 20t26 12q16 0 26 -11t16 -21l336 -652z" />
    <glyph glyph-name="logicalor" unicode="&#x2228;" 
d="M81 627l78 40l301 -584l300 584l78 -40l-336 -652q-6 -10 -16 -21.5t-26 -11.5q-14 0 -26 12.5t-16 20.5z" />
    <glyph glyph-name="intersection" unicode="&#x2229;" 
d="M686 -70v446q0 60 -21 102.5t-53.5 69.5t-71.5 40t-75 13h-10q-36 0 -75 -12.5t-71.5 -40t-53.5 -70t-21 -102.5v-446h-92v435q0 75 24.5 135t67.5 102t101 65t125 23t125 -23t101 -65t67.5 -102t24.5 -135v-435h-92z" />
    <glyph glyph-name="union" unicode="&#x222a;" 
d="M671 670h91v-435q0 -75 -24.5 -135t-67 -102t-100.5 -65t-125 -23t-125 23t-100.5 65t-67 102t-24.5 135v435h90v-446q0 -60 21 -102.5t53.5 -70t71.5 -40t75 -12.5h12q35 0 74 12.5t71.5 40t53.5 70t21 102.5v446z" />
    <glyph glyph-name="integral" unicode="&#x222b;" 
d="M437 212q0 8 -0.5 13t-1 9t-1 8.5t-1.5 12.5q0 5 -0.5 10.5t-0.5 12.5q-9 93 -9 169q0 74 12.5 131t35.5 88t57 47.5t73 16.5q49 0 78 -19t29 -49q0 -24 -16.5 -40t-42.5 -16q-25 0 -39 13.5t-14 37.5v20q0 19 -16 19q-17 0 -28 -10.5t-22 -33.5q-14 -26 -19.5 -52.5
t-5.5 -64.5q0 -21 2.5 -61.5t5.5 -81.5q2 -47 4 -85t2 -76q0 -59 -6 -108t-17 -79q-11 -32 -30 -57.5t-45 -43.5t-57.5 -27.5t-65.5 -9.5q-43 0 -68 19.5t-25 51.5q0 21 16 35.5t42 14.5q23 0 39 -15.5t18 -42.5q1 -13 4 -17.5t14 -4.5q20 0 38.5 16t33 42t23 60t8.5 69
q0 8 -1.5 22t-1.5 22z" />
    <glyph glyph-name="uni222C" unicode="&#x222c;" 
d="M549 282l-4 110l-2 109q-1 46 13 87.5t38 73t55.5 50t65.5 18.5q29 0 49 -17t20 -41q0 -20 -14.5 -33t-37.5 -13q-40 0 -56 38q-8 22 -13 22q-2 0 -6 -5.5t-10 -13.5q-7 -14 -10.5 -22t-5 -12.5l-2.5 -7.5t-2 -7l-3 -13q-4 -15 -6 -32t-2 -31l4 -186q1 -35 1.5 -54.5
t0.5 -29v-13v-4.5q0 -17 1 -25t-1 -11q-1 -138 -48 -221q-10 -20 -25.5 -37t-34.5 -29.5t-39 -19.5t-39 -7q-29 0 -47.5 15t-18.5 38q0 18 13 30.5t33 12.5q16 0 27 -7.5t17 -25.5q4 -11 8.5 -16t7.5 -5q21 1 35 34q11 24 18 50.5t13 58.5q2 11 3.5 21.5t3.5 26.5l1.5 22.5
t0.5 11.5zM396 233q0 -149 -48 -234q-11 -20 -27.5 -36.5t-36 -29.5t-40.5 -20t-40 -7q-26 0 -43.5 15t-17.5 37q0 18 14 32t32 14q34 0 44 -36q3 -11 8 -16.5t10 -5.5q8 0 17 10.5t16 23.5q9 21 16.5 47.5t12.5 55.5t7.5 58.5t2.5 57.5l-3 164l-0.5 9.5t-0.5 23t-0.5 27.5
t-0.5 23q-2 37 -1 64.5t5 49.5t11 39.5t16 34.5q23 44 62 70t77 26q27 0 46 -17t19 -41q0 -20 -13.5 -33t-36.5 -13q-17 0 -32 10.5t-22 27.5q-3 11 -7 16.5t-5 5.5q-2 0 -12 -16t-18 -34q-8 -20 -13 -45t-5 -48l3 -92q2 -54 2.5 -88.5t1 -55t0.5 -30.5v-13.5v-4.5v-3v-23z
" />
    <glyph glyph-name="uni222E" unicode="&#x222e;" 
d="M401 -1q5 17 9.5 38.5t6.5 42.5q0 17 3 71q-56 16 -86.5 51t-30.5 89q0 57 34 93t99 54q5 44 10.5 73t13.5 54q23 71 65.5 110t101.5 39q37 0 58.5 -17t21.5 -49q0 -24 -14 -37t-38 -13q-26 0 -36 10.5t-12 22.5q-2 6 -3 12.5t-3 12.5t-5.5 9.5t-9.5 2.5
q-10 -1 -16.5 -7.5t-16.5 -23.5q-7 -15 -12 -27t-8.5 -25.5t-6 -30t-5.5 -38.5q-2 -10 -3 -28t-6 -53q117 -35 117 -143q0 -58 -35.5 -96t-101.5 -50q-5 -61 -12 -96.5t-18 -62.5q-43 -103 -158 -103q-43 0 -67.5 16t-24.5 48q0 23 15 38t39 15t39.5 -11.5t18.5 -32.5
q3 -14 5 -23t12 -9q14 0 32.5 19.5t27.5 54.5zM495 184q94 28 94 110q0 34 -16.5 56.5t-62.5 46.5q-3 -16 -3 -25.5t-1 -15.5l-6 -83q-3 -31 -4 -45t-1 -21v-23zM422 193q1 34 1.5 60t2 49.5t3 46t4.5 50.5q-88 -36 -88 -107q0 -35 19 -58t58 -41z" />
    <glyph glyph-name="therefore" unicode="&#x2234;" 
d="M542 522q0 -33 -23 -54.5t-55 -21.5q-35 0 -57.5 21.5t-22.5 54.5q0 32 22.5 54t57.5 22q32 0 55 -22t23 -54zM822 84q0 -33 -22.5 -54.5t-55.5 -21.5q-34 0 -56.5 21.5t-22.5 54.5q0 32 22.5 54t56.5 22q33 0 55.5 -22t22.5 -54zM255 84q0 -33 -23.5 -54.5t-54.5 -21.5
q-34 0 -57 21.5t-23 54.5q0 32 23 54t57 22q15 0 29.5 -6t25 -16t17 -24t6.5 -30z" />
    <glyph glyph-name="uni2235" unicode="&#x2235;" 
d="M535 85q0 -32 -22.5 -54t-56.5 -22q-32 0 -55 22t-23 54q0 33 23 54.5t55 21.5q34 0 56.5 -21.5t22.5 -54.5zM255 523q0 -32 -23 -54t-57 -22q-32 0 -55 22t-23 54q0 33 23 54.5t55 21.5q34 0 57 -21.5t23 -54.5zM822 523q0 -32 -22.5 -54t-57.5 -22q-31 0 -54 22t-23 54
q0 33 23 54.5t54 21.5q35 0 57.5 -21.5t22.5 -54.5z" />
    <glyph glyph-name="similar" unicode="&#x223c;" 
d="M406 283q-43 23 -89 18t-86 -31q-9 -6 -19.5 -14t-21.5 -14.5t-23 -11t-25 -2.5q-22 3 -23.5 18.5t9.5 32.5q8 13 28.5 35t50 43.5t66 36.5t76.5 14q50 -2 84.5 -17t60.5 -29q22 -11 43.5 -22t44.5 -13q53 -3 93 13t57 33q14 17 31.5 22t28.5 0q9 -4 13 -16.5t-11 -38.5
q-6 -12 -25.5 -32.5t-47.5 -40.5t-63.5 -34t-74.5 -13q-48 2 -82 15t-59 27z" />
    <glyph glyph-name="uni223D" unicode="&#x223d;" 
d="M568 218q3 -2 13.5 -8t25.5 -12.5t33 -11.5t37 -5q25 0 47 9t38.5 23.5t26 33t9.5 38.5q0 57 -33 94.5t-93 39.5q-35 1 -61 -11t-47 -32t-37.5 -46.5t-30.5 -53.5q-9 -18 -27.5 -48.5t-49 -60t-74 -49.5t-101.5 -17q-39 2 -77 16.5t-68 40.5t-48 64t-16 88q1 36 16 70.5
t42.5 61.5t66.5 43.5t87 16.5q30 0 54 -5.5t42.5 -13t31 -16t19.5 -13.5l-42 -67q-1 1 -11 6.5t-25 12t-34 11.5t-38 5q-40 0 -67.5 -17.5t-41.5 -43.5t-14 -57t14 -58t42 -46t72 -21q38 -2 67.5 16t53 46t42 59.5t34.5 57.5q19 30 41 56.5t49.5 46t62 30t77.5 9.5
q39 -1 77 -14.5t68 -40t47.5 -65t16.5 -89.5q-1 -39 -16.5 -74t-43 -61t-66.5 -41.5t-87 -15.5q-30 0 -54 5.5t-42 13t-30.5 15.5t-19.5 13z" />
    <glyph glyph-name="uni2252" unicode="&#x2252;" 
d="M96 344v77h729v-77h-729zM96 179v77h729v-77h-729zM354 559q0 -32 -23 -55t-58 -23t-58 23t-23 55q0 33 23 55.5t58 22.5t58 -22.5t23 -55.5zM729 42q0 -32 -23.5 -55t-58.5 -23q-33 0 -56.5 23t-23.5 55t23.5 55t56.5 23q35 0 58.5 -23t23.5 -55z" />
    <glyph glyph-name="notequal" unicode="&#x2260;" 
d="M393 165l-161 -195l-67 51l118 144h-186v77h249l119 145h-368v77h432l139 171l67 -51l-98 -120h183v-77h-247l-117 -145h364v-77h-427z" />
    <glyph glyph-name="equivalence" unicode="&#x2261;" 
d="M95 432v70h731v-70h-731zM94 265v70h732v-70h-732zM94 98v70h732v-70h-732z" />
    <glyph glyph-name="lessequal" unicode="&#x2264;" 
d="M155 413q-4 2 -13 8t-9 10q0 5 8.5 10.5t13.5 7.5l540 267l45 -83l-391 -201l406 -206l-47 -82zM130 -12v92h650v-92h-650z" />
    <glyph glyph-name="greaterequal" unicode="&#x2265;" 
d="M199 144l-47 82l409 206l-391 201l44 83l539 -267q6 -2 15 -7.5t9 -10.5q0 -4 -9.5 -10t-14.5 -8zM129 -12v92h650v-92h-650z" />
    <glyph glyph-name="uni226A" unicode="&#x226a;" 
d="M848 -85q-78 52 -146 98t-132.5 88.5t-127.5 84t-130 84.5q-7 5 -14 12t-7 18t10 20t19 14l529 351l46 -60l-495 -325l498 -328zM595 -85q-78 52 -146.5 98t-133 88.5t-127 84t-129.5 84.5q-8 5 -14.5 12t-6.5 18t10 20t18 14l530 351l47 -60l-495 -325l498 -328z" />
    <glyph glyph-name="uni226B" unicode="&#x226b;" 
d="M322 -85l-51 57l499 328l-496 325l47 60l529 -351q8 -5 18.5 -14t10.5 -20q0 -9 -5 -15t-9 -9t-7.5 -5.5t-7.5 -4.5zM68 -85l-50 57l497 328l-494 325l46 60l530 -351q8 -5 19 -14t11 -20q0 -9 -5.5 -15t-10.5 -9q-2 -3 -6 -5.5t-8 -4.5z" />
    <glyph glyph-name="propersubset" unicode="&#x2282;" 
d="M398 0v-1q-82 0 -147 23t-110 63.5t-69 95.5t-24 119q0 63 24 118t68.5 95.5t108 64t142.5 23.5h459v-86h-470q-63 0 -108 -20t-74 -51t-42.5 -68t-13.5 -71v-10q0 -34 13.5 -71t42 -67.5t74 -50.5t108.5 -20h470v-86h-452z" />
    <glyph glyph-name="propersuperset" unicode="&#x2283;" 
d="M69 -1v86h471q63 0 108 20t74 51t42.5 68t13.5 71v10q0 34 -13.5 70.5t-42.5 67.5t-74 51t-108 20h-471v87h460q79 0 142 -23.5t107.5 -64t68.5 -95.5t24 -118q0 -64 -24 -118.5t-68.5 -95t-107.5 -63.5t-142 -23z" />
    <glyph glyph-name="reflexsubset" unicode="&#x2286;" 
d="M398 119v-1q-89 0 -155 20.5t-109.5 55.5t-64.5 83t-21 102q0 55 21 102.5t64 83t107.5 56t150.5 20.5h459v-87h-471q-65 0 -110.5 -15.5t-74 -40t-41 -56t-12.5 -63.5q0 -33 12.5 -64t41 -55.5t74 -39.5t110.5 -15h471v-86h-452zM48 -41v88h823v-88h-823z" />
    <glyph glyph-name="reflexsuperset" unicode="&#x2287;" 
d="M69 118v86h473q65 0 110 15t73.5 40t41 56t12.5 64q0 32 -12.5 63t-41 56t-73.5 40t-110 15h-473v88h460q86 0 150 -20.5t107 -56t64 -83t21 -102.5q0 -54 -21 -101.5t-63.5 -83t-106.5 -55.5t-151 -20zM48 -41v88h823v-88h-823z" />
    <glyph glyph-name="uni2299" unicode="&#x2299;" 
d="M905 299q0 -90 -33.5 -167t-93 -133.5t-140 -88.5t-174.5 -32q-96 0 -178 32.5t-142.5 89t-95 133.5t-34.5 166q0 88 34.5 164.5t95.5 133t143.5 88.5t177.5 32q93 0 173.5 -32t140 -88.5t93 -133t33.5 -164.5zM840 296q0 76 -30 143.5t-82.5 117t-122.5 78.5t-150 29
q-77 0 -145 -29t-119 -79.5t-80.5 -117.5t-29.5 -142t30 -141.5t81.5 -115.5t121 -77.5t148.5 -28.5q78 0 147 28.5t120.5 77.5t81 115.5t29.5 141.5zM676 300q0 -44 -16.5 -80.5t-45 -63t-68 -41.5t-85.5 -15t-85 15t-67.5 41t-45 62.5t-16.5 80.5q0 43 16 79.5t44.5 62.5
t68 40.5t85.5 14.5q47 0 86.5 -14.5t68 -40.5t44.5 -62t16 -79z" />
    <glyph glyph-name="perpendicular" unicode="&#x22a5;" 
d="M94 -25v67h322v566h89v-566h322v-67h-733z" />
    <glyph glyph-name="uni2312" unicode="&#x2312;" 
d="M756 551q-10 43 -38 77.5t-68.5 59t-91 37.5t-105.5 13q-56 0 -106.5 -13t-90.5 -37t-68 -59t-38 -78h-79q12 54 46 99.5t84.5 78t115 50.5t136.5 18t136 -18t115 -50.5t85 -78t46 -99.5h-79z" />
    <glyph glyph-name="uni2460" unicode="&#x2460;" 
d="M427 40v379h-85v57q21 3 37.5 8t29.5 14.5t22.5 24.5t16.5 39h63v-522h-84zM851 300q0 81 -30.5 152t-83.5 124t-124.5 83.5t-152.5 30.5t-152 -30.5t-124.5 -83.5t-84 -124t-30.5 -152t30.5 -152t84 -124t124.5 -83.5t152 -30.5t152.5 30.5t124.5 83.5t83.5 124
t30.5 152zM910 300q0 -92 -35.5 -173t-97 -141.5t-143 -95.5t-174.5 -35t-174.5 35t-143 95.5t-97 141.5t-35.5 173t35.5 173t97 141.5t143 95.5t174.5 35t174.5 -35t143 -95.5t97 -141.5t35.5 -173z" />
    <glyph glyph-name="uni2461" unicode="&#x2461;" 
d="M298 40q2 30 9 55.5t20 50t34 49.5t51 54q27 27 50.5 45t40.5 35.5t27 37.5t10 52q0 45 -21.5 67t-46.5 22q-28 0 -44 -15.5t-24 -36t-10.5 -41.5t-2.5 -33h-82q2 34 10 68.5t26 62t48.5 45t77.5 17.5q28 0 54.5 -9t47.5 -27.5t33.5 -47.5t12.5 -69q0 -29 -6.5 -52
t-19.5 -44t-34 -41t-49 -43q-33 -27 -52.5 -47t-30.5 -35.5t-17 -28t-10 -25.5h219v-66h-321zM851 300q0 81 -30.5 152t-83.5 124t-124.5 83.5t-152.5 30.5t-152 -30.5t-124.5 -83.5t-84 -124t-30.5 -152t30.5 -152t84 -124t124.5 -83.5t152 -30.5t152.5 30.5t124.5 83.5
t83.5 124t30.5 152zM910 300q0 -92 -35.5 -173t-97 -141.5t-143 -95.5t-174.5 -35t-174.5 35t-143 95.5t-97 141.5t-35.5 173t35.5 173t97 141.5t143 95.5t174.5 35t174.5 -35t143 -95.5t97 -141.5t35.5 -173z" />
    <glyph glyph-name="uni2462" unicode="&#x2462;" 
d="M427 287v58q22 0 41 3t33 12t21.5 25t7.5 42q0 35 -18.5 58t-47.5 23q-19 0 -32 -8.5t-21 -22t-12 -30.5t-6 -34h-80q3 42 15.5 73t32.5 50.5t46.5 29t57.5 9.5t57.5 -9t46 -26.5t30.5 -43t11 -58.5q0 -32 -8 -53t-19.5 -34t-23 -20t-17.5 -10q9 -3 22.5 -10t26.5 -20.5
t22 -36t9 -58.5q0 -37 -11.5 -68.5t-33 -54t-51.5 -35t-67 -12.5q-41 0 -70.5 14.5t-49 39t-29.5 57.5t-12 70h80q1 -17 3.5 -36.5t10.5 -37t24 -29t44 -11.5q32 0 57.5 25t25.5 75q0 41 -20 67.5t-66 26.5h-30zM851 300q0 81 -30.5 152t-83.5 124t-124.5 83.5t-152.5 30.5
t-152 -30.5t-124.5 -83.5t-84 -124t-30.5 -152t30.5 -152t84 -124t124.5 -83.5t152 -30.5t152.5 30.5t124.5 83.5t83.5 124t30.5 152zM910 300q0 -92 -35.5 -173t-97 -141.5t-143 -95.5t-174.5 -35t-174.5 35t-143 95.5t-97 141.5t-35.5 173t35.5 173t97 141.5t143 95.5
t174.5 35t174.5 -35t143 -95.5t97 -141.5t35.5 -173z" />
    <glyph glyph-name="uni2463" unicode="&#x2463;" 
d="M469 48v121h-194v67q50 84 99 167t98 167h76v-334h54v-67h-54v-121h-79zM470 443q-31 -52 -62 -103.5t-63 -103.5h125v207zM851 300q0 81 -30.5 152t-83.5 124t-124.5 83.5t-152.5 30.5t-152 -30.5t-124.5 -83.5t-84 -124t-30.5 -152t30.5 -152t84 -124t124.5 -83.5
t152 -30.5t152.5 30.5t124.5 83.5t83.5 124t30.5 152zM910 300q0 -92 -35.5 -173t-97 -141.5t-143 -95.5t-174.5 -35t-174.5 35t-143 95.5t-97 141.5t-35.5 173t35.5 173t97 141.5t143 95.5t174.5 35t174.5 -35t143 -95.5t97 -141.5t35.5 -173z" />
    <glyph glyph-name="uni2464" unicode="&#x2464;" 
d="M316 279l39 283h241v-67h-170l-18 -142q6 6 23.5 18.5t52.5 12.5q31 0 56.5 -12.5t43.5 -35.5t28 -54.5t10 -70.5t-11.5 -73t-33 -59t-52.5 -39t-70 -14q-44 0 -72.5 16t-46.5 39.5t-26 50t-10 48.5h80q2 -12 6 -27t12.5 -28.5t22 -22.5t34.5 -9q22 0 38 10.5t26.5 28
t15.5 39t5 43.5q0 14 -3.5 33t-12.5 36t-23.5 29t-36.5 12q-11 0 -31.5 -10t-33.5 -35h-83zM851 300q0 81 -30.5 152t-83.5 124t-124.5 83.5t-152.5 30.5t-152 -30.5t-124.5 -83.5t-84 -124t-30.5 -152t30.5 -152t84 -124t124.5 -83.5t152 -30.5t152.5 30.5t124.5 83.5
t83.5 124t30.5 152zM910 300q0 -92 -35.5 -173t-97 -141.5t-143 -95.5t-174.5 -35t-174.5 35t-143 95.5t-97 141.5t-35.5 173t35.5 173t97 141.5t143 95.5t174.5 35t174.5 -35t143 -95.5t97 -141.5t35.5 -173z" />
    <glyph glyph-name="uni2465" unicode="&#x2465;" 
d="M533 439q-5 33 -20.5 51t-41.5 18q-32 0 -50 -21.5t-27.5 -51.5t-12 -62t-3.5 -53q4 8 11 19t19 20.5t29 16.5t42 7q21 0 45.5 -8t46.5 -27.5t36.5 -52.5t14.5 -82q0 -42 -12 -76.5t-32.5 -59t-49 -38t-61.5 -13.5q-53 0 -86 28.5t-51.5 69.5t-25 87t-6.5 82q0 54 10 108
t33 94q27 46 63.5 63t67.5 17q33 0 58 -12.5t42.5 -32t28 -44t13.5 -47.5h-81zM462 93q34 0 55.5 30t21.5 86q0 19 -3.5 38.5t-12.5 35.5t-23.5 26.5t-35.5 10.5q-32 0 -55 -29.5t-23 -79.5q0 -14 3 -34t11.5 -38.5t23 -32t38.5 -13.5zM851 300q0 81 -30.5 152t-83.5 124
t-124.5 83.5t-152.5 30.5t-152 -30.5t-124.5 -83.5t-84 -124t-30.5 -152t30.5 -152t84 -124t124.5 -83.5t152 -30.5t152.5 30.5t124.5 83.5t83.5 124t30.5 152zM910 300q0 -92 -35.5 -173t-97 -141.5t-143 -95.5t-174.5 -35t-174.5 35t-143 95.5t-97 141.5t-35.5 173
t35.5 173t97 141.5t143 95.5t174.5 35t174.5 -35t143 -95.5t97 -141.5t35.5 -173z" />
    <glyph glyph-name="uni2466" unicode="&#x2466;" 
d="M375 23q6 99 45 216.5t120 236.5h-230v67h314v-67q-42 -57 -71.5 -112.5t-49.5 -111.5t-31 -113t-15 -116h-82zM851 300q0 81 -30.5 152t-83.5 124t-124.5 83.5t-152.5 30.5t-152 -30.5t-124.5 -83.5t-84 -124t-30.5 -152t30.5 -152t84 -124t124.5 -83.5t152 -30.5
t152.5 30.5t124.5 83.5t83.5 124t30.5 152zM910 300q0 -92 -35.5 -173t-97 -141.5t-143 -95.5t-174.5 -35t-174.5 35t-143 95.5t-97 141.5t-35.5 173t35.5 173t97 141.5t143 95.5t174.5 35t174.5 -35t143 -95.5t97 -141.5t35.5 -173z" />
    <glyph glyph-name="uni2467" unicode="&#x2467;" 
d="M539 320q9 -5 23.5 -13.5t27.5 -24t22.5 -39t9.5 -58.5q0 -34 -10.5 -63t-31 -50.5t-51 -33.5t-69.5 -12t-69.5 12t-50.5 33.5t-30.5 50.5t-10.5 63q0 30 8 52.5t20.5 38.5t27 26.5t27.5 17.5q-20 10 -33.5 24t-21 30t-10.5 32t-3 29q0 29 9.5 54.5t28 45t46 30.5
t62.5 11t62 -11t46 -30t28.5 -45t9.5 -55q0 -13 -3 -29t-10.5 -31.5t-20.5 -30t-33 -24.5zM460 343q22 0 35.5 9.5t20 23t8.5 27.5t2 22q-1 35 -16 59.5t-50 24.5q-20 0 -33 -8.5t-20 -21t-9.5 -27t-2.5 -26.5q0 -34 15.5 -58.5t49.5 -24.5zM460 93q24 0 39.5 9.5t24.5 24
t12.5 31.5t3.5 32q0 18 -4.5 36t-14 32.5t-25 23t-36.5 8.5q-20 0 -35 -8.5t-25 -22.5t-15 -32t-5 -37q0 -15 3.5 -32.5t12.5 -31.5t24.5 -23.5t39.5 -9.5zM851 300q0 81 -30.5 152t-83.5 124t-124.5 83.5t-152.5 30.5t-152 -30.5t-124.5 -83.5t-84 -124t-30.5 -152
t30.5 -152t84 -124t124.5 -83.5t152 -30.5t152.5 30.5t124.5 83.5t83.5 124t30.5 152zM910 300q0 -92 -35.5 -173t-97 -141.5t-143 -95.5t-174.5 -35t-174.5 35t-143 95.5t-97 141.5t-35.5 173t35.5 173t97 141.5t143 95.5t174.5 35t174.5 -35t143 -95.5t97 -141.5
t35.5 -173z" />
    <glyph glyph-name="uni2468" unicode="&#x2468;" 
d="M387 163q10 -69 62 -69q31 0 49 21t27.5 50.5t12 61.5t4.5 54q-4 -7 -11 -18t-19 -21t-29 -17t-42 -7q-21 0 -46 8t-46.5 27.5t-36 52.5t-14.5 82q0 42 11.5 76.5t32 59t49 38t62.5 13.5q35 0 61 -13t45 -34.5t31 -49.5t19 -57.5t10 -58.5t3 -53q0 -55 -10.5 -110
t-33.5 -93q-13 -23 -29.5 -38.5t-34 -24.5t-34.5 -13t-31 -4q-33 0 -58.5 12.5t-43.5 32.5t-28.5 44t-13.5 48h82zM454 281q35 0 57 31t22 78q0 14 -3 34t-11.5 39t-23 32t-38.5 13q-33 0 -55 -30t-22 -85q0 -47 19 -79.5t55 -32.5zM851 300q0 81 -30.5 152t-83.5 124
t-124.5 83.5t-152.5 30.5t-152 -30.5t-124.5 -83.5t-84 -124t-30.5 -152t30.5 -152t84 -124t124.5 -83.5t152 -30.5t152.5 30.5t124.5 83.5t83.5 124t30.5 152zM910 300q0 -92 -35.5 -173t-97 -141.5t-143 -95.5t-174.5 -35t-174.5 35t-143 95.5t-97 141.5t-35.5 173
t35.5 173t97 141.5t143 95.5t174.5 35t174.5 -35t143 -95.5t97 -141.5t35.5 -173z" />
    <glyph glyph-name="uni2469" unicode="&#x2469;" 
d="M602 37q-50 0 -80 26t-46.5 65.5t-22 85.5t-5.5 87t5.5 87.5t22 85.5t46.5 65t80 26q49 0 80 -26t47.5 -65.5t22.5 -86t6 -86.5q0 -41 -6 -87.5t-22.5 -85.5t-47.5 -65t-80 -26zM602 101q25 0 40.5 19.5t24 49t11 64.5t2.5 67q0 31 -2.5 66.5t-11 64.5t-24 48.5
t-40.5 19.5t-40.5 -18.5t-23.5 -47.5t-11 -64.5t-3 -68.5q0 -20 1 -54t8.5 -66.5t23.5 -56t45 -23.5zM254 50v365h-83v54q17 2 32.5 6t28.5 13t23.5 24t16.5 39h63v-501h-81zM851 300q0 81 -30.5 152t-83.5 124t-124.5 83.5t-152.5 30.5t-152 -30.5t-124.5 -83.5t-84 -124
t-30.5 -152t30.5 -152t84 -124t124.5 -83.5t152 -30.5t152.5 30.5t124.5 83.5t83.5 124t30.5 152zM910 300q0 -92 -35.5 -173t-97 -141.5t-143 -95.5t-174.5 -35t-174.5 35t-143 95.5t-97 141.5t-35.5 173t35.5 173t97 141.5t143 95.5t174.5 35t174.5 -35t143 -95.5
t97 -141.5t35.5 -173z" />
    <glyph glyph-name="uni246A" unicode="&#x246a;" 
d="M255 50v365h-82v54q41 5 64 21t37 61h63v-501h-82zM604 50v365h-84v54q42 5 65.5 21t36.5 61h63v-501h-81zM851 300q0 81 -30.5 152t-83.5 124t-124.5 83.5t-152.5 30.5t-152 -30.5t-124.5 -83.5t-84 -124t-30.5 -152t30.5 -152t84 -124t124.5 -83.5t152 -30.5
t152.5 30.5t124.5 83.5t83.5 124t30.5 152zM910 300q0 -92 -35.5 -173t-97 -141.5t-143 -95.5t-174.5 -35t-174.5 35t-143 95.5t-97 141.5t-35.5 173t35.5 173t97 141.5t143 95.5t174.5 35t174.5 -35t143 -95.5t97 -141.5t35.5 -173z" />
    <glyph glyph-name="uni246B" unicode="&#x246b;" 
d="M244 50v365h-83v54q41 5 64.5 21t37.5 61h62v-501h-81zM436 50q3 29 9.5 53.5t19 48t32 47.5t48.5 53q27 25 49.5 42.5t39 34.5t25.5 36.5t9 49.5q0 42 -20.5 63.5t-43.5 21.5q-27 0 -43 -15t-24 -35.5t-10 -40.5l-3 -30h-76q1 32 8.5 65t25 60t47 44t74.5 17
q28 0 53.5 -9t45 -27t31.5 -46t12 -66q0 -28 -6 -50t-19 -42.5t-32.5 -39.5t-46.5 -41q-32 -26 -51 -44.5t-30 -33.5t-16.5 -27t-10.5 -24h212v-65h-309zM851 300q0 81 -30.5 152t-83.5 124t-124.5 83.5t-152.5 30.5t-152 -30.5t-124.5 -83.5t-84 -124t-30.5 -152t30.5 -152
t84 -124t124.5 -83.5t152 -30.5t152.5 30.5t124.5 83.5t83.5 124t30.5 152zM910 300q0 -92 -35.5 -173t-97 -141.5t-143 -95.5t-174.5 -35t-174.5 35t-143 95.5t-97 141.5t-35.5 173t35.5 173t97 141.5t143 95.5t174.5 35t174.5 -35t143 -95.5t97 -141.5t35.5 -173z" />
    <glyph glyph-name="uni246C" unicode="&#x246c;" 
d="M244 50v365h-83v54q41 5 64.5 21t37.5 61h62v-501h-81zM562 288v55q20 0 38 3t31.5 12t21.5 24.5t8 41.5q0 16 -2 29.5t-9 24t-19.5 16.5t-33.5 6q-19 0 -31.5 -8.5t-20.5 -21.5t-12 -29.5t-5 -32.5h-76q5 81 45 119t102 38q60 0 99.5 -35t39.5 -98q0 -31 -7.5 -50.5
t-18 -32t-22 -19t-19.5 -10.5q9 -3 22 -9t25 -19.5t21 -35.5t9 -57t-11 -64.5t-31 -51.5t-49 -34t-66 -12q-40 0 -68.5 14t-47 37.5t-27.5 55t-11 66.5h76q1 -18 3.5 -37t10 -35t23 -26.5t42.5 -10.5q13 0 27 4.5t26 15.5t19.5 29.5t7.5 46.5q0 40 -19 65.5t-63 25.5h-28z
M851 300q0 81 -30.5 152t-83.5 124t-124.5 83.5t-152.5 30.5t-152 -30.5t-124.5 -83.5t-84 -124t-30.5 -152t30.5 -152t84 -124t124.5 -83.5t152 -30.5t152.5 30.5t124.5 83.5t83.5 124t30.5 152zM910 300q0 -92 -35.5 -173t-97 -141.5t-143 -95.5t-174.5 -35t-174.5 35
t-143 95.5t-97 141.5t-35.5 173t35.5 173t97 141.5t143 95.5t174.5 35t174.5 -35t143 -95.5t97 -141.5t35.5 -173z" />
    <glyph glyph-name="uni246D" unicode="&#x246d;" 
d="M622 50v115h-186v66q46 80 93.5 159.5t95.5 160.5h73v-320h52v-66h-52v-115h-76zM622 428q-30 -49 -59.5 -98t-60.5 -99h120v197zM244 50v365h-83v54q41 5 64.5 21t37.5 61h62v-501h-81zM851 300q0 81 -30.5 152t-83.5 124t-124.5 83.5t-152.5 30.5t-152 -30.5
t-124.5 -83.5t-84 -124t-30.5 -152t30.5 -152t84 -124t124.5 -83.5t152 -30.5t152.5 30.5t124.5 83.5t83.5 124t30.5 152zM910 300q0 -92 -35.5 -173t-97 -141.5t-143 -95.5t-174.5 -35t-174.5 35t-143 95.5t-97 141.5t-35.5 173t35.5 173t97 141.5t143 95.5t174.5 35
t174.5 -35t143 -95.5t97 -141.5t35.5 -173z" />
    <glyph glyph-name="uni246E" unicode="&#x246e;" 
d="M244 50v365h-83v54q41 5 64.5 21t37.5 61h62v-501h-81zM455 279q8 69 17 136.5t18 135.5h234v-64h-165q-4 -35 -8.5 -69t-8.5 -68q5 7 22 19t51 12q30 0 55 -12.5t42 -34.5t26.5 -52.5t9.5 -66.5q0 -38 -10.5 -70.5t-31.5 -56.5t-51 -37.5t-69 -13.5q-50 0 -79 19t-44 44
t-20 49t-5 35h76q3 -15 7 -29.5t12.5 -26.5t21 -19.5t32.5 -7.5q22 0 38 10.5t26 27t14.5 37t4.5 41.5q0 14 -5 32.5t-15 35t-23.5 27.5t-29.5 11q-11 0 -31 -9.5t-33 -34.5h-78zM851 300q0 81 -30.5 152t-83.5 124t-124.5 83.5t-152.5 30.5t-152 -30.5t-124.5 -83.5
t-84 -124t-30.5 -152t30.5 -152t84 -124t124.5 -83.5t152 -30.5t152.5 30.5t124.5 83.5t83.5 124t30.5 152zM910 300q0 -92 -35.5 -173t-97 -141.5t-143 -95.5t-174.5 -35t-174.5 35t-143 95.5t-97 141.5t-35.5 173t35.5 173t97 141.5t143 95.5t174.5 35t174.5 -35
t143 -95.5t97 -141.5t35.5 -173z" />
    <glyph glyph-name="uni2474" unicode="&#x2474;" 
d="M425 12v420h-94v63q22 3 39.5 8t32 15.5t25.5 27.5t20 43h68v-577h-91zM718 -105q67 95 93 197t26 208q0 104 -25.5 207.5t-93.5 197.5h47q22 -28 47 -66.5t46 -89t35 -112.5t14 -137t-14 -138t-35 -113.5t-46 -88.5t-47 -65h-47zM155 -105q-22 27 -46.5 65t-45.5 88.5
t-35 113.5t-14 138t13.5 137t34.5 112.5t46 89t47 66.5h48q-68 -94 -94 -197.5t-26 -207.5q0 -106 26.5 -208t93.5 -197h-48z" />
    <glyph glyph-name="uni2475" unicode="&#x2475;" 
d="M283 12q3 34 11 62t22.5 55t37 55t54.5 60q28 28 53 48.5t44.5 41t31 43.5t11.5 55q0 39 -20 69t-55 30q-30 0 -47.5 -17t-26 -40t-11 -46.5t-3.5 -36.5h-88q2 34 10 71.5t27 69t52 52.5t86 21q31 0 60.5 -10t51.5 -31t35.5 -53t13.5 -76q0 -32 -7 -58t-21.5 -49
t-36.5 -45.5t-53 -47.5q-36 -30 -57 -52t-33 -38.5t-18 -30.5t-11 -28h237v-74h-350zM718 -105q67 95 93 197t26 208q0 104 -25.5 207.5t-93.5 197.5h47q22 -28 47 -66.5t46 -89t35 -112.5t14 -137t-14 -138t-35 -113.5t-46 -88.5t-47 -65h-47zM155 -105q-22 27 -46.5 65
t-45.5 88.5t-35 113.5t-14 138t13.5 137t34.5 112.5t46 89t47 66.5h48q-68 -94 -94 -197.5t-26 -207.5q0 -106 26.5 -208t93.5 -197h-48z" />
    <glyph glyph-name="uni2476" unicode="&#x2476;" 
d="M425 286v63h25q44 0 65.5 28t21.5 66q0 14 -4.5 29.5t-13.5 28.5t-22.5 21.5t-31.5 8.5q-25 0 -48.5 -24.5t-29.5 -82.5h-85q2 48 15.5 82.5t35.5 56t51.5 32t62.5 10.5t61.5 -10.5t49.5 -30t33 -48t12 -64.5q0 -29 -7 -50.5t-17.5 -37t-23.5 -25t-26 -15.5
q9 -5 24 -12.5t29.5 -22.5t24.5 -40t10 -65q0 -41 -12.5 -75.5t-35.5 -59.5t-56 -39t-73 -14q-60 0 -95 23.5t-52.5 55.5t-22.5 66.5t-6 55.5h86q2 -19 5 -41t12 -41t26 -31.5t48 -12.5q16 0 32 6t29 19.5t20.5 34t7.5 50.5q0 44 -21.5 74.5t-70.5 30.5h-33zM718 -105
q67 95 93 197t26 208q0 104 -25.5 207.5t-93.5 197.5h47q22 -28 47 -66.5t46 -89t35 -112.5t14 -137t-14 -138t-35 -113.5t-46 -88.5t-47 -65h-47zM155 -105q-22 27 -46.5 65t-45.5 88.5t-35 113.5t-14 138t13.5 137t34.5 112.5t46 89t47 66.5h48q-68 -94 -94 -197.5
t-26 -207.5q0 -106 26.5 -208t93.5 -197h-48z" />
    <glyph glyph-name="uni2477" unicode="&#x2477;" 
d="M472 12v133h-211v75l108 184t108 185h82v-369h57v-75h-57v-133h-87zM472 449q-32 -58 -66 -114.5t-67 -114.5h133v229zM718 -105q67 95 93 197t26 208q0 104 -25.5 207.5t-93.5 197.5h47q22 -28 47 -66.5t46 -89t35 -112.5t14 -137t-14 -138t-35 -113.5t-46 -88.5
t-47 -65h-47zM155 -105q-22 27 -46.5 65t-45.5 88.5t-35 113.5t-14 138t13.5 137t34.5 112.5t46 89t47 66.5h48q-68 -94 -94 -197.5t-26 -207.5q0 -106 26.5 -208t93.5 -197h-48z" />
    <glyph glyph-name="uni2478" unicode="&#x2478;" 
d="M373 166q2 -12 6 -28.5t13 -31.5t24 -25t39 -10t41.5 12t29 31t17 42.5t5.5 47.5q0 16 -4.5 37t-14 40t-25.5 32t-39 13q-21 0 -41 -14t-31 -36h-88q10 78 19.5 156.5t20.5 156.5h264v-73h-185q-6 -40 -11 -79.5t-10 -78.5q8 9 26.5 22t54.5 13q35 0 63 -14.5t48 -40
t31 -60.5t11 -76q0 -44 -12.5 -81.5t-36 -65.5t-57.5 -43.5t-76 -15.5q-32 0 -56 8t-41.5 20t-29 26.5t-18.5 27.5q-14 25 -18 47t-6 41h87zM718 -105q67 95 93 197t26 208q0 104 -25.5 207.5t-93.5 197.5h47q22 -28 47 -66.5t46 -89t35 -112.5t14 -137t-14 -138t-35 -113.5
t-46 -88.5t-47 -65h-47zM155 -105q-22 27 -46.5 65t-45.5 88.5t-35 113.5t-14 138t13.5 137t34.5 112.5t46 89t47 66.5h48q-68 -94 -94 -197.5t-26 -207.5q0 -106 26.5 -208t93.5 -197h-48z" />
    <glyph glyph-name="uni2479" unicode="&#x2479;" 
d="M540 453q-11 77 -68 77q-35 0 -54.5 -23.5t-29.5 -56.5t-13 -68.5t-4 -58.5q4 7 12 19t21 23.5t31.5 19.5t45.5 8q22 0 49 -9t51 -30.5t40 -58.5t16 -92q0 -47 -13 -85t-36 -65t-53.5 -42t-66.5 -15q-58 0 -94 31.5t-56 77t-27 96.5t-7 91q0 60 11.5 120.5t35.5 104.5
q15 26 33 43t36.5 27t37 14t34.5 4q36 0 64 -14t47 -36.5t30.5 -49.5t14.5 -52h-88zM463 71q36 0 60 33t24 94q0 18 -3.5 40t-12.5 40.5t-25 31.5t-41 13q-35 0 -60 -32.5t-25 -88.5q0 -16 3.5 -38.5t12.5 -43t25 -35t42 -14.5zM718 -105q67 95 93 197t26 208
q0 104 -25.5 207.5t-93.5 197.5h47q22 -28 47 -66.5t46 -89t35 -112.5t14 -137t-14 -138t-35 -113.5t-46 -88.5t-47 -65h-47zM155 -105q-22 27 -46.5 65t-45.5 88.5t-35 113.5t-14 138t13.5 137t34.5 112.5t46 89t47 66.5h48q-68 -94 -94 -197.5t-26 -207.5
q0 -106 26.5 -208t93.5 -197h-48z" />
    <glyph glyph-name="uni247A" unicode="&#x247a;" 
d="M367 3q8 118 52.5 247.5t130.5 256.5h-251v73h340v-73q-30 -43 -59.5 -93.5t-55.5 -111.5q-16 -38 -27.5 -74t-19.5 -72t-12.5 -73.5t-6.5 -79.5h-91zM718 -105q67 95 93 197t26 208q0 104 -25.5 207.5t-93.5 197.5h47q22 -28 47 -66.5t46 -89t35 -112.5t14 -137
t-14 -138t-35 -113.5t-46 -88.5t-47 -65h-47zM155 -105q-22 27 -46.5 65t-45.5 88.5t-35 113.5t-14 138t13.5 137t34.5 112.5t46 89t47 66.5h48q-68 -94 -94 -197.5t-26 -207.5q0 -106 26.5 -208t93.5 -197h-48z" />
    <glyph glyph-name="uni247B" unicode="&#x247b;" 
d="M546 321q8 -4 23.5 -12t30.5 -24.5t26 -43.5t11 -70q0 -38 -12 -70t-34.5 -55.5t-55 -36.5t-74.5 -13q-43 0 -76 13.5t-55.5 36.5t-34 55t-11.5 70q0 29 8 56.5t25 49.5q16 20 31 29t27 15q-27 16 -50 48.5t-23 80.5q0 31 10.5 59t30.5 49.5t49.5 34t68.5 12.5
q38 0 67.5 -12.5t49.5 -33.5t30.5 -49t10.5 -60q0 -38 -16.5 -74t-56.5 -55zM461 347q24 0 38 11t21 26t9 30.5t2 24.5q0 18 -4 34.5t-12 29t-21.5 20.5t-32.5 8q-24 0 -38.5 -10.5t-22 -25.5t-9.5 -30.5t-2 -25.5q0 -37 18 -64.5t54 -27.5zM461 71q26 0 43 10.5t27 26
t14 34t4 35.5q0 20 -5.5 40.5t-16 36.5t-27.5 26t-39 10t-38.5 -9.5t-27.5 -25.5t-16.5 -36t-5.5 -42q0 -17 4 -36t14 -34.5t27 -25.5t43 -10zM718 -105q67 95 93 197t26 208q0 104 -25.5 207.5t-93.5 197.5h47q22 -28 47 -66.5t46 -89t35 -112.5t14 -137t-14 -138
t-35 -113.5t-46 -88.5t-47 -65h-47zM155 -105q-22 27 -46.5 65t-45.5 88.5t-35 113.5t-14 138t13.5 137t34.5 112.5t46 89t47 66.5h48q-68 -94 -94 -197.5t-26 -207.5q0 -106 26.5 -208t93.5 -197h-48z" />
    <glyph glyph-name="uni247C" unicode="&#x247c;" 
d="M380 148q6 -37 23.5 -57t45.5 -20q34 0 53.5 24t30 57t13.5 68.5t4 58.5l-12.5 -20t-20.5 -23t-31.5 -19t-45.5 -8q-23 0 -50 9t-50.5 30.5t-39.5 58t-16 91.5q0 47 13 85.5t36 65.5t53.5 41.5t66.5 14.5q58 0 94 -31.5t56 -77t27 -97t7 -90.5q0 -60 -11.5 -121
t-36.5 -104q-15 -26 -32.5 -42.5t-36 -27t-37 -14.5t-34.5 -4q-35 0 -62.5 13.5t-47 35t-31.5 49t-16 54.5h88zM454 278q39 0 62.5 34t23.5 88q0 16 -3.5 38.5t-12.5 43t-25 35t-42 14.5q-35 0 -59.5 -33.5t-24.5 -95.5q0 -24 5 -46.5t15 -40t25.5 -27.5t35.5 -10zM718 -105
q67 95 93 197t26 208q0 104 -25.5 207.5t-93.5 197.5h47q22 -28 47 -66.5t46 -89t35 -112.5t14 -137t-14 -138t-35 -113.5t-46 -88.5t-47 -65h-47zM155 -105q-22 27 -46.5 65t-45.5 88.5t-35 113.5t-14 138t13.5 137t34.5 112.5t46 89t47 66.5h48q-68 -94 -94 -197.5
t-26 -207.5q0 -106 26.5 -208t93.5 -197h-48z" />
    </font>
</defs>
</svg>
