<?xml version="1.0" standalone="no"?>
<!DOCTYPE svg PUBLIC "-//W3C//DTD SVG 1.1//EN" "http://www.w3.org/Graphics/SVG/1.1/DTD/svg11.dtd" >
<svg xmlns="http://www.w3.org/2000/svg" xmlns:xlink="http://www.w3.org/1999/xlink" version="1.1">
<metadata>
Created by FontForge 20170731 at Tue Nov  9 01:19:35 2021
 By Aleksey,,,
Copyright (c) 2021 WISEFONT. All rights reserved. Font designed by WISEFONT.
</metadata>
<defs>
<font id="KOHINanumL" horiz-adv-x="920" >
  <font-face 
    font-family="KOHINanum Light"
    font-weight="300"
    font-stretch="normal"
    units-per-em="1000"
    panose-1="0 0 3 0 0 0 0 0 0 0"
    ascent="800"
    descent="-200"
    x-height="504"
    cap-height="675"
    bbox="-41 -334 970 925"
    underline-thickness="50"
    underline-position="-150"
    unicode-range="U+0001-FFE6"
  />
<missing-glyph 
d="M69 -100v800h782v-800h-782zM799 650h-678v-700h678v700z" />
    <glyph glyph-name=".notdef" 
d="M69 -100v800h782v-800h-782zM799 650h-678v-700h678v700z" />
    <glyph glyph-name="glyph1" horiz-adv-x="0" 
 />
    <glyph glyph-name="glyph2" horiz-adv-x="333" 
 />
    <glyph glyph-name="uni0001" horiz-adv-x="281" 
 />
    <glyph glyph-name="uni0001" unicode="&#xa0;" horiz-adv-x="281" 
 />
    <glyph glyph-name="uni0001" unicode=" " horiz-adv-x="281" 
 />
    <glyph glyph-name="uni0001" horiz-adv-x="281" 
 />
    <glyph glyph-name="uni0001" horiz-adv-x="281" 
 />
    <glyph glyph-name="uni0001" horiz-adv-x="281" 
 />
    <glyph glyph-name="uni0001" horiz-adv-x="281" 
 />
    <glyph glyph-name="uni0001" horiz-adv-x="281" 
 />
    <glyph glyph-name="uni0001" horiz-adv-x="281" 
 />
    <glyph glyph-name="uni0001" horiz-adv-x="281" 
 />
    <glyph glyph-name="uni0001" horiz-adv-x="281" 
 />
    <glyph glyph-name="uni0001" horiz-adv-x="281" 
 />
    <glyph glyph-name="uni0001" horiz-adv-x="281" 
 />
    <glyph glyph-name="uni0001" horiz-adv-x="281" 
 />
    <glyph glyph-name="uni0001" horiz-adv-x="281" 
 />
    <glyph glyph-name="uni0001" horiz-adv-x="281" 
 />
    <glyph glyph-name="uni0001" horiz-adv-x="281" 
 />
    <glyph glyph-name="uni0001" horiz-adv-x="281" 
 />
    <glyph glyph-name="uni0001" horiz-adv-x="281" 
 />
    <glyph glyph-name="uni0001" horiz-adv-x="281" 
 />
    <glyph glyph-name="uni0001" horiz-adv-x="281" 
 />
    <glyph glyph-name="uni0001" unicode="&#xd;" horiz-adv-x="281" 
 />
    <glyph glyph-name="uni0001" horiz-adv-x="281" 
 />
    <glyph glyph-name="uni0001" horiz-adv-x="281" 
 />
    <glyph glyph-name="uni0001" unicode="&#xa;" horiz-adv-x="281" 
 />
    <glyph glyph-name="uni0001" unicode="&#x9;" horiz-adv-x="281" 
 />
    <glyph glyph-name="uni0001" horiz-adv-x="281" 
 />
    <glyph glyph-name="uni0001" horiz-adv-x="281" 
 />
    <glyph glyph-name="uni0001" horiz-adv-x="281" 
 />
    <glyph glyph-name="uni0001" horiz-adv-x="281" 
 />
    <glyph glyph-name="uni0001" horiz-adv-x="281" 
 />
    <glyph glyph-name="uni0001" horiz-adv-x="281" 
 />
    <glyph glyph-name="uni0001" horiz-adv-x="281" 
 />
    <glyph glyph-name="uni0001" horiz-adv-x="281" 
 />
    <glyph glyph-name="exclam" unicode="!" horiz-adv-x="322" 
d="M136 124l-13 609h76l-13 -609h-50zM218 -42q0 -23 -16 -39t-40 -16q-26 0 -42 16t-16 39q0 22 16 38.5t42 16.5q24 0 40 -16.5t16 -38.5z" />
    <glyph glyph-name="quotedbl" unicode="&#x22;" horiz-adv-x="386" 
d="M233 551l-13 238h69l-13 -238h-43zM102 551l-12 238h68l-13 -238h-43z" />
    <glyph glyph-name="numbersign" unicode="#" horiz-adv-x="627" 
d="M343 -48l28 225h-151l-27 -225h-60l28 225h-89v48h95l28 215h-92v48h98l27 210h59l-26 -210h150l27 210h57l-26 -210h86v-48h-93l-27 -215h89v-48h-96l-27 -225h-58zM405 440h-151l-27 -215h150z" />
    <glyph glyph-name="dollar" unicode="$" horiz-adv-x="570" 
d="M255 -137v88q-54 2 -109 11.5t-100 27.5l18 52q45 -19 94 -29.5t97 -12.5v313q-47 18 -83.5 37.5t-62 43.5t-38.5 54t-13 69q0 43 16.5 74.5t44 53.5t63 34.5t73.5 17.5v81h55v-78q46 -1 88.5 -7t87.5 -21l-17 -52q-42 15 -80.5 22.5t-78.5 8.5v-297q47 -18 85.5 -37
t65.5 -43t41.5 -55.5t14.5 -73.5q0 -46 -16.5 -80.5t-44.5 -57.5t-66 -36.5t-80 -17.5v-90h-55zM310 2q65 8 103.5 42t38.5 97q0 54 -38 88t-104 62v-289zM255 648q-27 -4 -51.5 -14t-42.5 -25.5t-28.5 -37.5t-10.5 -51q0 -51 33.5 -83.5t99.5 -61.5v273z" />
    <glyph glyph-name="percent" unicode="%" horiz-adv-x="824" 
d="M135 -52l487 755h62l-487 -755h-62zM608 -55q-68 0 -105.5 50t-37.5 135t37.5 135t105.5 50t106 -50t38 -135t-38 -135t-106 -50zM205 331q-69 0 -106.5 50t-37.5 135t37.5 135t106.5 50q68 0 105.5 -50t37.5 -135t-37.5 -135t-105.5 -50zM608 -8q22 0 38 10.5t26.5 29
t15 44t4.5 54.5q0 60 -19.5 98t-64.5 38q-22 0 -38 -10.5t-26 -28.5t-14.5 -43t-4.5 -54t4.5 -54.5t14.5 -44t26 -29t38 -10.5zM205 379q44 0 63.5 39t19.5 98q0 29 -4.5 54t-14.5 43.5t-26 29t-38 10.5q-23 0 -39 -10.5t-25.5 -29t-14 -43.5t-4.5 -54t4.5 -54t14 -43.5
t25.5 -29t39 -10.5z" />
    <glyph glyph-name="ampersand" unicode="&#x26;" horiz-adv-x="744" 
d="M624 -50l-104 111q-45 -60 -102 -92t-133 -32q-47 0 -88 13.5t-71.5 39t-48 63t-17.5 85.5q0 80 46.5 135.5t131.5 93.5q-41 44 -65.5 86.5t-24.5 91.5q0 40 14.5 71t39 52.5t57.5 32.5t71 11q40 0 73 -10.5t57 -30.5t37 -49.5t13 -67.5q0 -37 -15 -67.5t-40 -55.5
t-57.5 -45t-67.5 -36l182 -196q9 17 20.5 40t23.5 48t23 49.5t20 44.5h68q-11 -25 -25.5 -55t-29.5 -60.5t-30 -58.5t-27 -49l152 -163h-83zM293 389q29 12 57 27.5t50 35.5t35.5 45.5t13.5 56.5q0 52 -32.5 81.5t-86.5 29.5q-57 0 -89 -32t-32 -86q0 -44 23.5 -82t60.5 -76
zM275 328q-75 -34 -113.5 -79.5t-38.5 -108.5q0 -34 12.5 -62.5t34 -48.5t51.5 -31.5t66 -11.5q63 0 112 33t81 85z" />
    <glyph glyph-name="quotesingle" unicode="'" horiz-adv-x="253" 
d="M103 551l-13 238h69l-13 -238h-43z" />
    <glyph glyph-name="parenleft" unicode="(" horiz-adv-x="322" 
d="M241 -162q-75 110 -114 230t-39 252q0 131 39 248.5t114 227.5h45q-70 -121 -103 -237.5t-33 -238.5q0 -123 33 -242t103 -240h-45z" />
    <glyph glyph-name="parenright" unicode=")" horiz-adv-x="320" 
d="M36 -162q72 121 104 240t32 242q0 121 -32.5 238.5t-103.5 237.5h46q75 -110 114 -227.5t39 -248.5q0 -132 -39 -252t-114 -230h-46z" />
    <glyph glyph-name="asterisk" unicode="*" horiz-adv-x="452" 
d="M325 356l-97 124l-96 -124l-40 26l99 129l-140 50l17 43l136 -47v141h49v-141l137 47l17 -43l-140 -50l98 -126z" />
    <glyph glyph-name="plus" unicode="+" horiz-adv-x="668" 
d="M306 69v239h-231v49h231v238h57v-238h230v-49h-230v-239h-57z" />
    <glyph glyph-name="comma" unicode="," horiz-adv-x="274" 
d="M78 -201q26 17 46 45.5t24 57.5q1 7 -2 11q-3 8 -18 8q-21 0 -37.5 13.5t-16.5 39.5q0 24 17 38.5t41 14.5q28 0 45.5 -21.5t17.5 -52.5q0 -27 -7.5 -52t-21 -47.5t-32 -40t-40.5 -29.5z" />
    <glyph glyph-name="hyphen" unicode="-" horiz-adv-x="588" 
d="M71 307v49h446v-49h-446z" />
    <glyph glyph-name="period" unicode="." horiz-adv-x="274" 
d="M193 -33q0 -24 -16.5 -40t-40.5 -16q-26 0 -42.5 16t-16.5 40q0 23 16.5 39.5t42.5 16.5q24 0 40.5 -16.5t16.5 -39.5z" />
    <glyph glyph-name="slash" unicode="/" horiz-adv-x="471" 
d="M26 -147l354 939h59l-354 -939h-59z" />
    <glyph glyph-name="zero" unicode="0" horiz-adv-x="612" 
d="M306 -63q-71 0 -122.5 28t-84.5 79t-49 122t-16 157q0 87 16 158.5t49 122.5t84.5 79.5t122.5 28.5q70 0 121 -28.5t84.5 -79.5t50 -122.5t16.5 -158.5q0 -86 -16.5 -157t-50 -122t-84.5 -79t-121 -28zM306 -12q55 0 94 24t64.5 68t37.5 105.5t12 137.5q0 75 -12 137.5
t-37.5 107t-64.5 69t-94 24.5q-56 0 -95.5 -24.5t-64.5 -69t-36.5 -107t-11.5 -137.5t11.5 -137t36.5 -106t64.5 -68t95.5 -24z" />
    <glyph glyph-name="one" unicode="1" horiz-adv-x="612" 
d="M321 -50v692l-167 -107l-28 42l192 125h67v-752h-64z" />
    <glyph glyph-name="two" unicode="2" horiz-adv-x="612" 
d="M74 -50v55q72 65 128.5 117t99.5 96q54 54 88.5 95t54.5 74.5t27.5 63t7.5 59.5q0 36 -13.5 64t-37.5 47.5t-55.5 29.5t-67.5 10q-52 0 -104.5 -19.5t-92.5 -53.5l-29 43q45 42 105.5 61.5t121.5 19.5q51 0 94 -12.5t75 -37.5t50 -62.5t18 -87.5q0 -39 -8.5 -73.5
t-30 -70.5t-57 -77.5t-89.5 -94.5q-40 -41 -90.5 -88t-115.5 -107h402v-51h-481z" />
    <glyph glyph-name="three" unicode="3" horiz-adv-x="612" 
d="M82 34q46 -22 101 -34t114 -12q42 0 78 10t62.5 30.5t41 52t14.5 74.5q0 44 -20.5 75t-54 50t-77 27.5t-89.5 8.5h-76v52h76q46 0 86.5 9t69.5 27.5t46 47.5t17 69q0 70 -48 105t-125 35q-48 0 -97 -10.5t-96 -35.5l-21 49q50 25 106 36.5t111 11.5q50 0 93 -12.5
t74.5 -36t49 -58.5t17.5 -80q0 -69 -38.5 -113.5t-106.5 -64.5v-2q78 -17 122.5 -66.5t44.5 -123.5q0 -52 -19.5 -92.5t-54.5 -68.5t-82.5 -42.5t-104.5 -14.5q-63 0 -125.5 12t-106.5 36z" />
    <glyph glyph-name="four" unicode="4" horiz-adv-x="612" 
d="M410 -50v171h-383v55l367 525h81v-528h117v-52h-117v-171h-65zM410 628l-316 -455h316v455z" />
    <glyph glyph-name="five" unicode="5" horiz-adv-x="612" 
d="M79 25q45 -20 90 -28.5t94 -8.5q46 0 85 11t67.5 34.5t44.5 59t16 84.5t-19 83t-50 55.5t-71.5 31t-82.5 9.5q-39 0 -76.5 -4.5t-82.5 -13.5l15 362h387v-51h-324l-11 -251q30 5 57.5 7t45.5 2q56 0 106 -14t88 -42t60.5 -70.5t22.5 -100.5q0 -61 -21.5 -106.5t-58.5 -76
t-88 -45.5t-109 -15q-54 0 -104.5 8t-99.5 29z" />
    <glyph glyph-name="six" unicode="6" horiz-adv-x="612" 
d="M492 639q-32 11 -66.5 16.5t-69.5 5.5q-65 0 -108.5 -29t-71 -76t-41.5 -105.5t-18 -116.5l6 -1q31 45 83.5 73t118.5 28q57 0 102 -18.5t77 -51.5t49 -78t17 -97q0 -54 -18 -100t-50.5 -80t-79 -53t-103.5 -19q-75 0 -125.5 28t-81.5 73.5t-44 104.5t-13 122
q0 91 16 172t52 142t93 97t140 36q42 0 81 -6t71 -18zM317 -12q44 0 79 15t59.5 41.5t37.5 63.5t13 81q0 40 -12 75t-35.5 61t-58 41t-78.5 15t-80.5 -15t-63 -41t-41 -60t-14.5 -71q0 -34 10.5 -70.5t33.5 -66.5t60 -49.5t90 -19.5z" />
    <glyph glyph-name="seven" unicode="7" horiz-adv-x="612" 
d="M211 -50q9 77 31.5 166.5t57 182t79 182.5t96.5 167h-409v52h480v-51q-59 -83 -105.5 -175t-80.5 -183.5t-55 -178.5t-28 -162h-66z" />
    <glyph glyph-name="eight" unicode="8" horiz-adv-x="612" 
d="M416 340q32 -10 62 -26.5t53 -40.5t36.5 -55.5t13.5 -70.5q0 -53 -22.5 -92.5t-61 -65.5t-88 -38.5t-103.5 -12.5t-103.5 12.5t-88 38.5t-61 65.5t-22.5 92.5q0 39 13.5 70.5t36.5 55.5t53 40.5t62 26.5v4q-27 7 -52 22t-44.5 37t-31 51t-11.5 64q0 49 21.5 86t57 61
t80 36t90.5 12t90.5 -12t79.5 -36t57 -61t22 -86q0 -35 -11.5 -64t-31 -51t-44.5 -37t-52 -22v-4zM517 151q0 43 -20 73.5t-51 50.5t-68.5 29.5t-71.5 9.5q-35 0 -72 -9.5t-68 -29.5t-51 -50.5t-20 -73.5q0 -42 17.5 -72.5t47 -50.5t67.5 -29.5t80 -9.5q41 0 79 9.5t67 29.5
t46.5 50.5t17.5 72.5zM490 518q0 33 -14.5 60t-40 45.5t-59 28.5t-70.5 10q-38 0 -71.5 -10t-58.5 -28.5t-40 -45.5t-15 -60q0 -41 16.5 -70t43 -47.5t59.5 -27t67 -8.5q33 0 65.5 8.5t58.5 27t42.5 47.5t16.5 70z" />
    <glyph glyph-name="nine" unicode="9" horiz-adv-x="612" 
d="M490 316q-30 -44 -83 -72t-119 -28q-57 0 -102 18.5t-77 51.5t-49 77.5t-17 97.5q0 54 18 100t51 79.5t79.5 52.5t103.5 19q74 0 124.5 -27.5t81.5 -73.5t44.5 -105t13.5 -122q0 -91 -16.5 -172t-52.5 -142t-93.5 -97t-140.5 -36q-40 0 -80.5 6t-71.5 18l14 49
q34 -12 69 -17t69 -5q64 0 108 29t72 76t41.5 105.5t17.5 117.5h-5zM490 455q0 34 -10.5 70.5t-33.5 66.5t-59.5 49.5t-89.5 19.5q-44 0 -79 -15t-59.5 -41.5t-37.5 -63.5t-13 -80q0 -40 12 -75t35 -61.5t57.5 -41.5t78.5 -15t80.5 15.5t63 41t41 59.5t14.5 71z" />
    <glyph glyph-name="colon" unicode=":" horiz-adv-x="315" 
d="M211 529q0 -24 -16.5 -40t-40.5 -16t-40.5 16t-16.5 40q0 22 16.5 39t40.5 17t40.5 -17t16.5 -39zM211 112q0 -24 -16.5 -40t-40.5 -16t-40.5 16t-16.5 40q0 22 16.5 39t40.5 17t40.5 -17t16.5 -39z" />
    <glyph glyph-name="semicolon" unicode=";" horiz-adv-x="321" 
d="M213 529q0 -25 -17 -40.5t-40 -15.5q-25 0 -41 15.5t-16 40.5q0 22 16 38.5t41 16.5q23 0 40 -16.5t17 -38.5zM100 -52q26 17 46.5 46t24.5 57q0 7 -2 11q-5 9 -19 9q-20 0 -36.5 13t-16.5 39q0 24 16.5 38.5t39.5 14.5q29 0 46.5 -21t17.5 -52q0 -54 -28 -100t-74 -70z
" />
    <glyph glyph-name="less" unicode="&#x3c;" horiz-adv-x="444" 
d="M368 -149l-307 465l308 472l38 -21l-272 -451l272 -444z" />
    <glyph glyph-name="equal" unicode="=" horiz-adv-x="631" 
d="M92 410v49h446v-49h-446zM92 184v49h446v-49h-446z" />
    <glyph glyph-name="greater" unicode="&#x3e;" horiz-adv-x="444" 
d="M35 -128l272 444l-272 451l38 21l307 -472l-306 -465z" />
    <glyph glyph-name="question" unicode="?" horiz-adv-x="493" 
d="M194 120v43q0 34 5 62t17.5 53.5t34 50.5t54.5 52q43 35 69.5 78.5t26.5 86.5q0 35 -13.5 60.5t-36 42t-51.5 24t-60 7.5q-18 0 -40.5 -3.5t-46 -10.5t-46.5 -16t-42 -21l-24 45q20 12 45 22.5t52 18t54 12t53 4.5q42 0 82 -10.5t70.5 -32.5t49 -56.5t18.5 -83.5
q0 -55 -27.5 -102t-78.5 -90q-33 -28 -53.5 -50.5t-32.5 -44t-16.5 -46t-4.5 -56.5v-39h-58zM280 -42q0 -23 -16.5 -39t-39.5 -16q-26 0 -42 16t-16 39q0 22 16 38.5t42 16.5q23 0 39.5 -16.5t16.5 -38.5z" />
    <glyph glyph-name="at" unicode="@" horiz-adv-x="1003" 
d="M805 -190q-121 -53 -280 -53q-113 0 -202 35.5t-150.5 98.5t-94 151t-32.5 193q0 103 36.5 190.5t100 151.5t150 100t187.5 36q88 0 167 -24.5t138.5 -74.5t94.5 -126.5t35 -179.5q0 -74 -17.5 -133.5t-47.5 -101t-71 -64t-88 -22.5q-29 0 -48.5 8t-32.5 21t-20 29.5
t-10 32.5q-2 2 -2 3l-4 -2q-11 -17 -26 -33t-34.5 -28.5t-44.5 -20.5t-56 -8q-44 0 -76 16t-53 44.5t-31.5 67t-10.5 84.5q0 52 16 103.5t47 93t74.5 67t99.5 25.5q53 0 89.5 -26.5t50.5 -65.5h4l14 74h55l-49 -237q-5 -23 -11 -57t-3 -65.5t18.5 -53.5t53.5 -22
q34 0 63 20.5t49.5 56.5t32 84.5t11.5 104.5q0 89 -29 157t-80 113.5t-120.5 68.5t-148.5 23q-89 0 -164.5 -33.5t-130.5 -91.5t-86 -137t-31 -170q0 -97 29.5 -175.5t85 -134t134.5 -86t178 -30.5q72 0 135 13.5t122 38.5zM461 37q46 0 78 26t52 64t29 81t10 78
q0 29 -4.5 57t-17.5 49.5t-35 35t-56 13.5q-41 0 -73.5 -22.5t-55 -57.5t-34 -78t-11.5 -85q0 -26 5.5 -54.5t19 -52t36 -39t57.5 -15.5z" />
    <glyph glyph-name="A" unicode="A" horiz-adv-x="683" 
d="M606 -50l-94 244h-342l-94 -244h-69l299 750h75l295 -750h-70zM342 638l-151 -392h301z" />
    <glyph glyph-name="B" unicode="B" horiz-adv-x="656" 
d="M98 -50v750h247q52 0 95 -11t74 -34.5t48.5 -58.5t17.5 -83q0 -66 -34.5 -108.5t-92.5 -59.5v-5q31 -8 58.5 -23t48.5 -37.5t33.5 -53t12.5 -69.5q0 -45 -15.5 -82.5t-47 -65.5t-78 -43.5t-108.5 -15.5h-259zM324 365q91 0 141 35t50 110q0 40 -14.5 66.5t-39 42.5
t-58 22.5t-71.5 6.5h-169v-283h161zM347 1q92 0 143.5 38t51.5 119q0 43 -17 72.5t-46 48t-68 26.5t-82 8h-166v-312h184z" />
    <glyph glyph-name="C" unicode="C" horiz-adv-x="643" 
d="M609 -32q-45 -19 -91 -25t-100 -6q-87 0 -154 28.5t-112.5 80t-68.5 122.5t-23 155q0 83 23 154.5t68.5 123.5t113.5 81.5t157 29.5q48 0 92.5 -6.5t81.5 -22.5l-19 -49q-36 14 -73.5 20.5t-80.5 6.5q-78 0 -134 -26.5t-92.5 -72t-54 -107t-17.5 -133.5
q-1 -69 16.5 -129.5t54 -106t92.5 -72t133 -26.5q50 0 92 6.5t78 21.5z" />
    <glyph glyph-name="D" unicode="D" horiz-adv-x="739" 
d="M98 -50v750h197q90 0 162 -24.5t122 -72t76.5 -117.5t26.5 -161t-26.5 -161t-76.5 -117.5t-121.5 -72t-162.5 -24.5h-197zM285 1q165 0 249 83.5t84 240.5t-85 240t-248 83h-122v-647h122z" />
    <glyph glyph-name="E" unicode="E" horiz-adv-x="575" 
d="M98 -50v750h417v-52h-352v-286h327v-52h-327v-309h361v-51h-426z" />
    <glyph glyph-name="F" unicode="F" horiz-adv-x="537" 
d="M98 -50v750h402v-52h-337v-286h317v-52h-317v-360h-65z" />
    <glyph glyph-name="G" unicode="G" horiz-adv-x="753" 
d="M595 305h-197v52h261v-380q-60 -26 -115 -33t-108 -7q-90 0 -160 29t-118 81t-73 123t-25 155q0 83 24 154t71 122.5t116.5 81t160.5 29.5q57 0 106 -6.5t98 -24.5l-20 -51q-46 19 -91 25t-93 6q-78 0 -135.5 -27t-96 -73t-57.5 -107t-19 -129q0 -69 20 -130.5t60 -107
t99 -72.5t137 -27q45 0 83 4t72 17v296z" />
    <glyph glyph-name="H" unicode="H" horiz-adv-x="736" 
d="M575 -50v360h-412v-360h-65v750h65v-338h412v338h64v-750h-64z" />
    <glyph glyph-name="I" unicode="I" horiz-adv-x="261" 
d="M98 -50v750h65v-750h-65z" />
    <glyph glyph-name="J" unicode="J" horiz-adv-x="318" 
d="M168 700h64v-598q0 -34 -6.5 -63.5t-23 -51.5t-45.5 -35.5t-74 -14.5q-14 -1 -39 0t-42 3v51q19 -2 37 -2.5t29 -0.5q54 0 77 28.5t23 87.5v596z" />
    <glyph glyph-name="K" unicode="K" horiz-adv-x="614" 
d="M531 -50l-258 394l-111 -132v-262h-64v750h64l2 -400l329 400h80l-260 -309l297 -441h-79z" />
    <glyph glyph-name="L" unicode="L" horiz-adv-x="529" 
d="M98 -50v750h65v-699h355v-51h-420z" />
    <glyph glyph-name="M" unicode="M" horiz-adv-x="913" 
d="M751 -50v663h-5l-261 -663h-64l-253 663h-6v-663h-64v750h98l257 -674l264 674h98v-750h-64z" />
    <glyph glyph-name="N" unicode="N" horiz-adv-x="744" 
d="M556 -50l-391 673h-5v-673h-62v750h86l395 -673h4v673h63v-750h-90z" />
    <glyph glyph-name="O" unicode="O" horiz-adv-x="804" 
d="M403 -63q-81 0 -144 29t-106.5 80.5t-66.5 122.5t-23 155t23 155.5t67 123.5t107 81t143 28q81 0 144 -29t106.5 -80t66 -122.5t22.5 -156.5t-23 -156t-66.5 -122.5t-106.5 -80t-143 -28.5zM403 -12q69 0 120.5 26.5t85.5 72.5t51 107t17 130t-17.5 130.5t-52 107.5
t-85.5 72.5t-119 26.5t-119.5 -27t-86.5 -73t-52.5 -107.5t-17.5 -129.5q0 -66 16.5 -125.5t51.5 -105.5q33 -47 84.5 -76t123.5 -29z" />
    <glyph glyph-name="P" unicode="P" horiz-adv-x="637" 
d="M98 -50v750h235q51 0 97 -9.5t81.5 -33t56 -63t20.5 -99.5q0 -64 -21 -105.5t-56 -66t-81 -34t-95 -9.5h-172v-330h-65zM328 332q38 0 73.5 6t62.5 23.5t43.5 48.5t16.5 82q0 47 -16.5 77.5t-44.5 48t-65 24t-77 6.5h-158v-316h165z" />
    <glyph glyph-name="Q" unicode="Q" horiz-adv-x="804" 
d="M630 -174q-33 0 -59 9.5t-45 25.5t-31.5 37.5t-16.5 46.5q-18 -4 -36.5 -6t-38.5 -2q-81 0 -144 29t-106.5 80.5t-66.5 122.5t-23 155t23 155.5t67 123.5t107 81t143 28q81 0 144 -29t106.5 -80t66 -122.5t22.5 -156.5q0 -130 -52 -224.5t-148 -135.5q5 -48 34.5 -68
t79.5 -20h52v-50h-78zM195 93q33 -47 84.5 -76t123.5 -29q69 0 120.5 26.5t85.5 72.5t51 107t17 130t-17.5 130.5t-52 107.5t-85.5 72.5t-119 26.5t-119.5 -27t-86.5 -73t-52.5 -107.5t-17.5 -129.5q0 -66 16.5 -125.5t51.5 -105.5z" />
    <glyph glyph-name="R" unicode="R" horiz-adv-x="658" 
d="M565 -50q-9 13 -17.5 31.5t-13.5 41.5l-42 158q-9 35 -21 58t-32 37t-48.5 20t-70.5 6h-157v-352h-65v750h252q53 0 97 -11t75 -34.5t48 -60.5t17 -89q0 -72 -38.5 -116.5t-99.5 -59.5v-3q38 -13 64 -43.5t41 -91.5l40 -158q6 -22 16 -43t23 -40h-68zM336 353
q88 0 137 37t50 112q0 45 -14.5 73.5t-39.5 44.5t-58.5 22t-70.5 6h-177v-295h173z" />
    <glyph glyph-name="S" unicode="S" horiz-adv-x="572" 
d="M64 31q48 -21 102 -32t105 -11q40 0 73.5 9t58 27t38 45.5t13.5 64.5q0 33 -14 58.5t-40 46.5t-62.5 38.5t-80.5 34.5q-47 19 -84 39t-62.5 45t-39 55.5t-13.5 71.5q0 50 21.5 86t56 59t77.5 33.5t87 10.5q50 0 95 -6t93 -23l-17 -53q-45 17 -87.5 24t-84.5 7
q-34 0 -66 -7.5t-56.5 -24t-39.5 -42t-15 -61.5q0 -59 43.5 -96t128.5 -68q51 -19 93 -39.5t71 -46.5t45 -59.5t16 -78.5q0 -53 -20 -91t-54.5 -62.5t-79.5 -36t-95 -11.5q-57 0 -116.5 10t-107.5 31z" />
    <glyph glyph-name="T" unicode="T" horiz-adv-x="568" 
d="M255 -50v698h-245v52h548v-52h-239v-698h-64z" />
    <glyph glyph-name="U" unicode="U" horiz-adv-x="730" 
d="M581 700h65v-511q0 -53 -17 -99t-52 -80t-88 -53.5t-125 -19.5t-125 20t-87.5 54t-51 80t-16.5 98v511h64v-506q0 -94 53 -150t163 -56q57 0 98 16t67.5 43.5t39 65t12.5 81.5v506z" />
    <glyph glyph-name="V" unicode="V" horiz-adv-x="643" 
d="M285 -50l-278 750h69l245 -678l245 678h70l-283 -750h-68z" />
    <glyph glyph-name="W" unicode="W" horiz-adv-x="976" 
d="M661 -50l-174 680h-2l-169 -680h-80l-197 750h69l167 -667h4l166 667h85l169 -667h4l165 667h69l-197 -750h-79z" />
    <glyph glyph-name="X" unicode="X" horiz-adv-x="628" 
d="M544 -50l-229 340l-234 -340h-74l271 388l-246 362h74l211 -315l213 315h74l-251 -360l269 -390h-78z" />
    <glyph glyph-name="Y" unicode="Y" horiz-adv-x="629" 
d="M282 -50v310l-279 440h77l236 -383l239 383h72l-281 -440v-310h-64z" />
    <glyph glyph-name="Z" unicode="Z" horiz-adv-x="602" 
d="M40 -50v51l441 647h-406v52h481v-52l-444 -647h452v-51h-524z" />
    <glyph glyph-name="bracketleft" unicode="[" horiz-adv-x="320" 
d="M115 -165v971h160v-47h-100v-877h100v-47h-160z" />
    <glyph glyph-name="backslash" unicode="\" horiz-adv-x="453" 
d="M365 -149l-334 940h59l333 -940h-58z" />
    <glyph glyph-name="bracketright" unicode="]" horiz-adv-x="320" 
d="M44 -165v47h101v877h-101v47h161v-971h-161z" />
    <glyph glyph-name="asciicircum" unicode="^" horiz-adv-x="559" 
d="M441 445l-162 290l-162 -290h-66l202 348h53l201 -348h-66z" />
    <glyph glyph-name="underscore" unicode="_" horiz-adv-x="457" 
d="M11 -177v48h435v-48h-435z" />
    <glyph glyph-name="grave" unicode="`" horiz-adv-x="249" 
d="M163 581l-127 191h70l106 -191h-49z" />
    <glyph glyph-name="a" unicode="a" horiz-adv-x="585" 
d="M449 -50q-5 18 -7 34t-3 35h-5q-29 -37 -80 -59.5t-120 -22.5q-37 0 -69.5 9.5t-57 30t-38.5 51t-14 72.5q0 179 283 191q20 1 48.5 2.5t47.5 7.5v13q0 81 -39.5 117.5t-117.5 36.5q-33 0 -73.5 -6.5t-79.5 -22.5l-16 51q37 13 83.5 20.5t88.5 7.5q106 0 161.5 -49.5
t55.5 -148.5v-237q0 -29 3 -66t8 -67h-59zM434 252q-9 -2 -20.5 -3.5t-24.5 -2t-25 -1.5t-21 -1q-53 -2 -95 -11t-71.5 -25.5t-45.5 -42.5t-16 -62q0 -54 33.5 -85t92.5 -31q99 0 146 50t47 128v87z" />
    <glyph glyph-name="b" unicode="b" horiz-adv-x="646" 
d="M92 -50v772h64v-297h4q28 41 73 67t109 26q58 0 104 -22t77.5 -61t48.5 -92t17 -114q0 -63 -17 -116.5t-48.5 -92.5t-76.5 -61t-102 -22q-59 0 -108.5 26t-78.5 71h-5v-84h-61zM154 169q0 -39 15.5 -72.5t41.5 -58t60 -38t70 -13.5q45 0 79 19t57.5 52t35 77t11.5 94
q0 49 -12.5 93t-36.5 76t-58.5 51t-79.5 19q-35 0 -68 -13.5t-58.5 -37.5t-41 -56t-15.5 -68v-124z" />
    <glyph glyph-name="c" unicode="c" horiz-adv-x="508" 
d="M472 -47q-33 -9 -68 -12.5t-68 -3.5q-69 0 -121 22.5t-87 62t-52.5 92.5t-17.5 114t18.5 114t54.5 92t87.5 61.5t117.5 22.5q34 0 67.5 -4t64.5 -13l-16 -49q-30 10 -58 13t-57 3q-53 0 -93.5 -18.5t-67.5 -51t-40.5 -76.5t-13.5 -94t13.5 -93.5t40.5 -76.5t67.5 -52
t93.5 -19q29 0 62.5 3t61.5 13z" />
    <glyph glyph-name="d" unicode="d" horiz-adv-x="646" 
d="M491 -50v84h-3q-29 -45 -78.5 -71t-108.5 -26q-57 0 -102.5 22t-77 61t-48 92.5t-16.5 116.5q0 61 16.5 114t48.5 92t77.5 61t104.5 22q63 0 108.5 -26t73.5 -67h4v297h64v-772h-63zM490 293q0 36 -15 68t-40 56t-58 37.5t-68 13.5q-45 0 -80 -19t-59 -51t-36.5 -76
t-12.5 -93q0 -50 11.5 -94t35 -77t58 -52t79.5 -19q36 0 69.5 13.5t59 38t41 58t15.5 72.5v124z" />
    <glyph glyph-name="e" unicode="e" horiz-adv-x="597" 
d="M512 -40q-38 -12 -82.5 -17t-89.5 -5q-72 0 -125 22.5t-88 62.5t-52.5 93.5t-17.5 116.5q-1 58 16 110t49.5 91.5t80 62t107.5 22.5q62 0 107 -19t74.5 -54t43.5 -84t14 -109v-36h-428q1 -47 15.5 -88.5t42 -73t68 -49.5t95.5 -18q38 0 80 5t80 17zM486 266q0 2 1 6.5
t-1 6.5q-1 90 -47.5 140t-128.5 50q-47 0 -81.5 -17t-57.5 -45.5t-36 -65t-16 -75.5h367z" />
    <glyph glyph-name="f" unicode="f" horiz-adv-x="339" 
d="M128 -50v505h-126v50h126v45q0 39 8.5 71t28 54.5t51.5 35t78 12.5q26 0 46 -2t40 -7l-6 -49q-23 5 -42 6.5t-37 1.5q-57 0 -80 -31t-23 -103v-34h147v-50h-147v-505h-64z" />
    <glyph glyph-name="g" unicode="g" horiz-adv-x="645" 
d="M493 54h-6q-29 -46 -79.5 -71.5t-109.5 -25.5q-57 0 -102 20.5t-75.5 58t-46.5 89.5t-16 113t16.5 112.5t47.5 89t76.5 58t103.5 20.5q60 0 107 -23.5t77 -68.5h5v79h64v-535q0 -58 -19 -101.5t-53 -72.5t-81.5 -43.5t-104.5 -14.5q-40 0 -87.5 6t-85.5 19l14 51
q38 -14 78.5 -20t80.5 -6q99 0 147.5 50t48.5 141v75zM490 294q0 37 -15 68.5t-40 55t-58 37t-68 13.5q-45 0 -80 -17.5t-59 -48t-36.5 -73t-12.5 -91.5q0 -50 11.5 -92t35 -73t58 -48.5t79.5 -17.5q36 0 69.5 13.5t59 38t41 58t15.5 72.5v105z" />
    <glyph glyph-name="h" unicode="h" horiz-adv-x="632" 
d="M484 -50v342q0 40 -7.5 72.5t-25.5 55.5t-47.5 35.5t-72.5 12.5q-33 0 -64.5 -11t-56 -34.5t-39.5 -60.5t-15 -89v-323h-64v774h64v-295h5q28 45 78 67t105 22q97 0 150.5 -55.5t53.5 -148.5v-364h-64z" />
    <glyph glyph-name="i" unicode="i" horiz-adv-x="248" 
d="M180 666q0 -23 -16 -38t-39 -15t-39 15t-16 38q0 22 16 38t39 16t39 -16t16 -38zM92 -50v555h64v-555h-64z" />
    <glyph glyph-name="j" unicode="j" horiz-adv-x="249" 
d="M181 666q0 -23 -15.5 -38t-38.5 -15t-39.5 15t-16.5 38q0 22 16.5 38t39.5 16t38.5 -16t15.5 -38zM-41 -202q14 -2 25.5 -2.5t19.5 -0.5q51 0 70.5 26.5t19.5 89.5v594h64v-606q0 -78 -36 -116t-111 -38q-11 0 -23.5 0.5t-28.5 3.5v49z" />
    <glyph glyph-name="k" unicode="k" horiz-adv-x="524" 
d="M450 -50l-207 295l-87 -88v-207h-64v772h64v-489l261 271h84l-215 -216l242 -338h-78z" />
    <glyph glyph-name="l" unicode="l" horiz-adv-x="248" 
d="M93 -50v772h63v-772h-63z" />
    <glyph glyph-name="m" unicode="m" horiz-adv-x="977" 
d="M828 -50v340q0 38 -7 70.5t-23.5 56.5t-44 37.5t-69.5 13.5q-30 0 -58.5 -11t-51 -32.5t-36 -53.5t-13.5 -73v-348h-64v350q0 39 -7 70t-23.5 52.5t-43 33.5t-66.5 12q-31 0 -60.5 -12t-53 -36t-37.5 -59t-14 -81v-330h-64v555h61v-78h5q29 45 76 68t101 23
q65 0 107.5 -26.5t65.5 -74.5q29 53 79 77t109 24q51 0 88 -15t61 -42t35.5 -64.5t11.5 -82.5v-364h-64z" />
    <glyph glyph-name="n" unicode="n" horiz-adv-x="632" 
d="M484 -50v342q0 39 -8 71.5t-26 55.5t-47 36t-72 13q-33 0 -64 -11t-56 -34.5t-40 -60.5t-15 -89v-323h-64v555h61v-77h4q28 42 77.5 66t109.5 24q97 0 150.5 -55.5t53.5 -148.5v-364h-64z" />
    <glyph glyph-name="o" unicode="o" horiz-adv-x="634" 
d="M318 -63q-62 0 -110.5 20.5t-81.5 59t-50.5 92.5t-17.5 120t17.5 119t50.5 91t81.5 58.5t110.5 20.5q61 0 109.5 -20.5t82 -58.5t51 -91t17.5 -119t-18 -120t-51.5 -92t-81.5 -59t-109 -21zM318 -13q49 0 86 18.5t61.5 50.5t36.5 76.5t12 96.5t-12 95.5t-36.5 75.5
t-61.5 50t-86 18q-50 0 -87 -18.5t-61.5 -50.5t-36.5 -75.5t-12 -94.5t12 -95.5t36 -77t61 -51t88 -18.5z" />
    <glyph glyph-name="p" unicode="p" horiz-adv-x="646" 
d="M92 -259v764h64v-80h4q28 41 73 67t109 26q58 0 104 -22t77.5 -61t48.5 -92t17 -114q0 -63 -17 -116.5t-48.5 -92.5t-76.5 -61t-102 -22q-59 0 -108.5 26t-78.5 71h-5v-293h-61zM154 169q0 -39 15.5 -72.5t41.5 -58t60 -38t70 -13.5q45 0 79 19t57.5 52t35 77t11.5 94
q0 49 -12.5 93t-36.5 76t-58.5 51t-79.5 19q-35 0 -68 -13.5t-58.5 -37.5t-41 -56t-15.5 -68v-124z" />
    <glyph glyph-name="q" unicode="q" horiz-adv-x="646" 
d="M492 -259v293h-4q-29 -45 -78.5 -71t-108.5 -26q-57 0 -102.5 22t-76.5 61t-47.5 92.5t-16.5 116.5q0 61 16.5 114t48 92t77 61t104.5 22q63 0 108.5 -26t73.5 -67h4v80h64v-764h-62zM491 293q0 36 -15 68t-40.5 56t-58.5 37.5t-68 13.5q-45 0 -79.5 -19t-58.5 -51
t-36.5 -76t-12.5 -93q0 -50 11.5 -94t34.5 -77t57.5 -52t79.5 -19q37 0 70.5 13.5t59 38t41 58t15.5 72.5v124z" />
    <glyph glyph-name="r" unicode="r" horiz-adv-x="359" 
d="M92 -50v555h61v-73h5q21 42 63 64t92 22h41l-2 -52q-13 2 -24 2h-22q-68 0 -109 -49t-41 -144v-325h-64z" />
    <glyph glyph-name="s" unicode="s" horiz-adv-x="487" 
d="M66 21q39 -17 83.5 -25.5t85.5 -8.5q63 0 98 24.5t35 76.5q0 23 -10.5 41t-30 32.5t-46.5 26.5t-60 24q-75 27 -117.5 63.5t-42.5 94.5q0 38 17 66t44 46t61 27t69 9q41 0 80.5 -7t76.5 -21l-18 -48q-32 14 -68.5 20t-70.5 6q-24 0 -47 -4.5t-40.5 -15.5t-28.5 -28.5
t-11 -44.5q0 -44 31.5 -68t96.5 -47q39 -14 71.5 -29t56.5 -34.5t37.5 -45t13.5 -60.5q0 -41 -16 -70.5t-43 -48t-63 -27t-76 -8.5q-48 0 -97 9t-88 26z" />
    <glyph glyph-name="t" unicode="t" horiz-adv-x="351" 
d="M325 -52q-15 -2 -35 -3.5t-41 -1.5q-74 0 -102 32t-28 106v374h-108v50h108v138h64v-138h139v-50h-139v-370q0 -29 4 -47t13 -28.5t24.5 -14t39.5 -3.5q22 0 34 1t27 3v-48z" />
    <glyph glyph-name="u" unicode="u" horiz-adv-x="632" 
d="M479 -50v75h-3q-29 -42 -78 -65t-109 -23q-48 0 -86.5 14.5t-64.5 41.5t-40 64.5t-14 83.5v364h64v-343q0 -39 8 -71.5t26 -56t47.5 -36t73.5 -12.5q33 0 64.5 11t55.5 35t39 61t15 88v324h64v-555h-62z" />
    <glyph glyph-name="v" unicode="v" horiz-adv-x="517" 
d="M227 -50l-226 555h71l188 -485l185 485h70l-225 -555h-63z" />
    <glyph glyph-name="w" unicode="w" horiz-adv-x="822" 
d="M557 -49l-145 484l-148 -484h-70l-173 553h68l141 -484l144 484h75l146 -484l139 484h67l-173 -553h-71z" />
    <glyph glyph-name="x" unicode="x" horiz-adv-x="511" 
d="M427 -50l-172 247l-173 -247h-72l207 288l-188 267h74l154 -227l157 227h72l-189 -266l204 -289h-74z" />
    <glyph glyph-name="y" unicode="y" horiz-adv-x="518" 
d="M138 -258l91 216l-228 547h70l193 -473l185 473h69l-312 -763h-68z" />
    <glyph glyph-name="z" unicode="z" horiz-adv-x="512" 
d="M43 -50v50l340 455h-318v50h391v-50l-339 -456h352v-49h-426z" />
    <glyph glyph-name="braceleft" unicode="{" horiz-adv-x="320" 
d="M221 -165q-49 0 -71.5 31t-22.5 91v191q0 23 -2.5 49.5t-10.5 49.5t-22 38.5t-36 17.5v43q22 1 36 17t22 39t10.5 49.5t2.5 49.5v184q0 61 22.5 91.5t71.5 30.5h54v-41h-39q-23 0 -36.5 -21t-13.5 -67v-183q0 -27 -3 -53t-11 -48.5t-21.5 -40t-35.5 -27.5v-3
q22 -11 35.5 -28t21.5 -39.5t11 -48.5t3 -53v-190q0 -46 13.5 -67t36.5 -21h39v-41h-54z" />
    <glyph glyph-name="bar" unicode="|" horiz-adv-x="397" 
d="M172 -144v930h52v-930h-52z" />
    <glyph glyph-name="braceright" unicode="}" horiz-adv-x="320" 
d="M44 -165v41h40q23 0 36.5 21t13.5 67v190q0 27 3 53t10.5 48.5t21.5 39.5t36 28v3q-22 10 -36 27.5t-21.5 40t-10.5 48.5t-3 53v183q0 46 -13.5 67t-36.5 21h-40v41h55q50 0 72.5 -30.5t22.5 -91.5v-184q0 -23 2.5 -49.5t10 -49.5t21.5 -39t37 -17v-43q-23 -2 -37 -17.5
t-21.5 -38.5t-10 -49.5t-2.5 -49.5v-191q0 -60 -22.5 -91t-72.5 -31h-55z" />
    <glyph glyph-name="asciitilde" unicode="~" horiz-adv-x="622" 
d="M561 358q-17 -51 -53 -78.5t-83 -27.5q-35 0 -64 16.5t-55 37.5q-28 23 -54 40t-57 17q-32 0 -57.5 -21.5t-42.5 -55.5l-34 18q6 21 19 41t31 35.5t40 25t45 9.5q35 0 63 -15t53 -35q29 -24 57 -42t61 -18q29 0 55 19t42 54z" />
    <glyph glyph-name="exclamdown" unicode="&#xa1;" horiz-adv-x="322" 
d="M124 -325l12 609h50l14 -609h-76zM218 450q0 -22 -15.5 -38.5t-41.5 -16.5q-24 0 -40.5 16.5t-16.5 38.5q0 23 16.5 39t40.5 16q26 0 41.5 -16t15.5 -39z" />
    <glyph glyph-name="cent" unicode="&#xa2;" horiz-adv-x="508" 
d="M472 -47q-33 -9 -68 -12.5t-68 -3.5q-51 0 -96 14l-48 -180l-53 11l51 190q-66 36 -99 103.5t-33 152.5q0 61 18.5 114t54.5 92t87.5 61.5t117.5 22.5h1l51 187l54 -11l-49 -179q37 -3 75 -14l-16 -49q-19 6 -36.5 9t-35.5 5l-126 -465q37 -14 83 -14q29 0 62.5 3
t61.5 13zM323 468q-50 -3 -87.5 -22.5t-62.5 -51.5t-38 -74.5t-13 -91.5q0 -62 20.5 -114.5t62.5 -84.5z" />
    <glyph glyph-name="sterling" unicode="&#xa3;" horiz-adv-x="584" 
d="M548 -34q-40 -14 -64 -19.5t-44 -5.5q-36 0 -72 8.5t-63 16.5l-23 7q-20 7 -39.5 12t-39.5 5q-37 0 -75.5 -10.5t-73.5 -30.5l-31 57q28 16 51 40.5t40 53.5t26.5 62t9.5 67q0 37 -15 79h-100v47h83q-6 19 -11 40t-9.5 42t-7 40t-2.5 34q0 48 17.5 86.5t47.5 65.5
t70.5 41.5t87.5 14.5q83 0 141 -44.5t75 -129.5l-55 -10q-16 66 -59 101t-104 35q-30 0 -58 -11t-49.5 -30.5t-34.5 -46t-13 -57.5q0 -32 8.5 -75.5t22.5 -95.5h167v-47h-155q12 -57 12 -94q0 -18 -4.5 -37t-15.5 -41t-28.5 -48.5t-43.5 -59.5q23 6 47 8.5t43 2.5
q27 0 60.5 -6.5t65.5 -15.5q26 -8 52 -11.5t50 -3.5q19 0 41.5 5t49.5 17z" />
    <glyph glyph-name="currency" unicode="&#xa4;" horiz-adv-x="608" 
d="M433 154q-29 -16 -62.5 -25.5t-66.5 -9.5t-67 9t-62 25l-51 -54l-29 -30l-41 41l75 81q-23 29 -37.5 64.5t-14.5 74.5q0 38 14.5 73.5t37.5 64.5l-75 82l40 40l80 -82q29 17 62.5 25t67.5 8t68 -8t63 -25l79 82l40 -40l-75 -82q23 -29 37 -64.5t14 -73.5q0 -39 -14 -74.5
t-37 -64.5l75 -81l-41 -41zM304 165q37 0 67 12.5t51 34t32.5 52t11.5 66.5t-11.5 66.5t-32.5 52t-51 34t-67 12.5t-67 -12.5t-51 -34t-32.5 -52t-11.5 -66.5t11.5 -66.5t32.5 -52t51 -34t67 -12.5z" />
    <glyph glyph-name="yen" unicode="&#xa5;" horiz-adv-x="629" 
d="M346 100v-150h-64v150h-211v55h211v76h-211v55h195l-263 414h77l236 -383l239 383h72l-264 -414h195v-55h-212v-76h212v-55h-212z" />
    <glyph glyph-name="brokenbar" unicode="&#xa6;" horiz-adv-x="368" 
d="M154 -258v397h59v-397h-59zM154 327v397h59v-397h-59z" />
    <glyph glyph-name="section" unicode="&#xa7;" horiz-adv-x="546" 
d="M138 -85q9 -36 22 -59.5t30.5 -37t39.5 -19t49 -5.5q32 0 56 8.5t40 23t24 33.5t8 39q0 17 -4.5 32.5t-12.5 26.5q-18 21 -66.5 56t-120.5 77q-32 18 -57.5 36.5t-45.5 34.5q-29 26 -48 59.5t-19 68.5q0 45 34 81t97 59q-45 44 -62 75.5t-17 61.5q0 34 14 61t38 46.5
t56.5 30t69.5 10.5q169 0 200 -147l-72 -11q-14 60 -45.5 86.5t-77.5 26.5q-26 0 -48 -8.5t-38.5 -22t-26 -30.5t-9.5 -35q0 -40 24 -67q30 -29 63.5 -52.5t70.5 -45.5l70 -42t68 -45q29 -27 50 -59.5t21 -65.5q0 -22 -10 -43.5t-27 -41t-41 -36t-52 -26.5q48 -42 71 -77
t23 -73q0 -31 -15.5 -59t-42 -49.5t-62.5 -33.5t-77 -10q-91 0 -142.5 40t-68.5 116zM358 61q45 29 67.5 57t22.5 60q0 20 -6 39.5t-23 36.5q-24 23 -52.5 43t-59.5 40q-29 19 -59.5 38t-62.5 42q-51 -26 -71.5 -56t-20.5 -59q0 -23 5 -41t19 -33q16 -15 45.5 -37.5
t69.5 -48.5l62 -38t64 -43z" />
    <glyph glyph-name="dieresis" unicode="&#xa8;" horiz-adv-x="378" 
d="M152 667q0 -22 -16.5 -37t-41.5 -15q-24 0 -41 15t-17 37q0 23 17 38.5t41 15.5q25 0 41.5 -15.5t16.5 -38.5zM342 667q0 -22 -17.5 -37t-41.5 -15q-25 0 -41 15t-16 37q0 23 16 38.5t41 15.5q24 0 41.5 -15.5t17.5 -38.5z" />
    <glyph glyph-name="copyright" unicode="&#xa9;" horiz-adv-x="854" 
d="M816 348q0 -85 -30.5 -154t-83 -118.5t-123.5 -76.5t-152 -27t-152 27t-123.5 76.5t-83 118.5t-30.5 154t30.5 154t83 118.5t123.5 76.5t152 27t152 -27t123.5 -76.5t83 -118.5t30.5 -154zM427 16q71 0 131 25.5t103.5 70.5t67.5 105.5t24 130.5t-24 130.5t-67.5 105.5
t-103.5 70.5t-131 25.5t-131 -25.5t-103 -70.5t-67 -105.5t-24 -130.5t24 -130.5t67 -105.5t103 -70.5t131 -25.5zM607 218q-2 -22 -17 -41.5t-38.5 -34.5t-51.5 -23.5t-56 -8.5q-106 0 -161.5 65t-55.5 180q0 113 55 177.5t161 64.5q30 0 57.5 -10.5t50 -27t37.5 -36.5
t19 -39h-76q-3 11 -11 23t-21 21.5t-30 15.5t-38 6q-66 0 -99 -51.5t-33 -143.5q0 -45 8.5 -81.5t25 -62.5t42 -40.5t60.5 -14.5t61 17t34 45h77z" />
    <glyph glyph-name="ordfeminine" unicode="&#xaa;" horiz-adv-x="371" 
d="M260 425q-4 9 -5 15.5t-3 16.5q-15 -17 -41.5 -28t-61.5 -11q-39 0 -66.5 21t-27.5 66q0 94 149 102q10 0 23 0.5t23 3.5v4q0 41 -19.5 59t-58.5 18q-17 0 -37.5 -4t-43.5 -13l-10 33q20 8 45 12t47 4q115 0 115 -105v-123q0 -16 1.5 -36t4.5 -35h-34zM250 580l-31 -3
q-4 0 -7.5 -0.5t-5.5 -0.5q-53 -2 -83.5 -18t-30.5 -51q0 -26 16 -42t45 -16q50 0 73.5 25.5t23.5 64.5v41z" />
    <glyph glyph-name="guillemotleft" unicode="&#xab;" horiz-adv-x="481" 
d="M212 -50l-163 266l163 261h50l-131 -261l130 -266h-49zM410 -50l-163 266l163 261h49l-130 -261l129 -266h-48z" />
    <glyph glyph-name="logicalnot" unicode="&#xac;" horiz-adv-x="562" 
d="M451 233v233h-420v51h490v-284h-70z" />
    <glyph glyph-name="uni00AD" unicode="&#xad;" horiz-adv-x="396" 
d="M16 209v55h364v-55h-364z" />
    <glyph glyph-name="registered" unicode="&#xae;" horiz-adv-x="854" 
d="M552 106q-11 16 -22 43.5t-16 51.5q-3 14 -7 28.5t-11 29.5q-11 27 -31 43.5t-50 16.5h-81v-213h-69v496h201q36 0 66 -10.5t51 -29.5t32.5 -45.5t11.5 -57.5q0 -54 -33 -85t-82 -44q28 -20 40 -39.5t17 -33.5q3 -9 6.5 -21t5.5 -25q5 -25 16 -53.5t25 -51.5h-70z
M459 369q45 0 72.5 23.5t27.5 66.5q0 41 -27.5 66t-72.5 25h-125v-181h125zM816 348q0 -85 -30.5 -154t-83 -118.5t-123.5 -76.5t-152 -27t-152 27t-123.5 76.5t-83 118.5t-30.5 154t30.5 154t83 118.5t123.5 76.5t152 27t152 -27t123.5 -76.5t83 -118.5t30.5 -154zM427 16
q71 0 131 25.5t103.5 70.5t67.5 105.5t24 130.5t-24 130.5t-67.5 105.5t-103.5 70.5t-131 25.5t-131 -25.5t-103 -70.5t-67 -105.5t-24 -130.5t24 -130.5t67 -105.5t103 -70.5t131 -25.5z" />
    <glyph glyph-name="macron" unicode="&#xaf;" horiz-adv-x="654" 
d="M-21 760v52h695v-52h-695z" />
    <glyph glyph-name="degree" unicode="&#xb0;" horiz-adv-x="381" 
d="M308 618q0 -22 -9 -41.5t-25 -33.5t-37.5 -22.5t-45.5 -8.5q-25 0 -46.5 8.5t-37.5 22.5t-25 33.5t-9 41.5t9 41.5t25 33.5t37.5 22.5t46.5 8.5q24 0 45.5 -8.5t37.5 -22.5t25 -33.5t9 -41.5zM191 550q29 0 46.5 20t17.5 48q0 29 -17.5 49t-46.5 20t-47 -20t-18 -49
q0 -28 18 -48t47 -20z" />
    <glyph glyph-name="plusminus" unicode="&#xb1;" horiz-adv-x="681" 
d="M114 -49v49h451v-49h-451zM372 414v-197h-64v197h-214v49h214v196h64v-196h214v-49h-214z" />
    <glyph glyph-name="uni00B2" unicode="&#xb2;" horiz-adv-x="245" 
d="M36 446q2 20 15.5 43t24.5 39l70 78q21 21 21 43q0 19 -12 31.5t-32 12.5q-21 0 -31.5 -14.5t-11.5 -33.5h-44q2 31 25.5 55t61.5 24t62 -20.5t24 -55.5q0 -14 -10.5 -32.5t-22.5 -31.5l-68 -75q-4 -5 -10 -14.5t-11 -17.5h122v-31h-173z" />
    <glyph glyph-name="uni00B3" unicode="&#xb3;" horiz-adv-x="245" 
d="M105 572v31h19q18 0 31 12.5t13 32.5q0 21 -11.5 34t-30.5 13q-23 0 -34 -14.5t-11 -31.5h-44q2 31 26.5 53t61.5 22q38 0 61 -20.5t23 -53.5q0 -17 -8 -32.5t-28 -29.5q21 -13 31 -30.5t10 -37.5q0 -36 -24.5 -57t-64.5 -21q-42 0 -66.5 21t-24.5 56h42q2 -17 14 -32.5
t35 -15.5q22 0 35 14t13 37q0 21 -13.5 35.5t-35.5 14.5h-19z" />
    <glyph glyph-name="acute" unicode="&#xb4;" horiz-adv-x="228" 
d="M23 578l77 146h105l-121 -146h-61z" />
    <glyph glyph-name="mu" unicode="&#xb5;" horiz-adv-x="632" 
d="M479 -50v43q-27 -26 -66 -41t-91 -15q-59 0 -101.5 17.5t-71.5 59.5h-3v-272h-62v763h64v-324q0 -51 15 -88t39 -61t55.5 -35t64.5 -11q43 0 73 12.5t48 36t26 56t8 71.5v343h64v-555h-62z" />
    <glyph glyph-name="paragraph" unicode="&#xb6;" horiz-adv-x="590" 
d="M456 -258v917h-92v-917h-73v564h-79q-51 -1 -90.5 13.5t-66 40.5t-40 62.5t-13.5 80.5q0 43 13.5 79.5t40 63t66 41t90.5 13.5h377v-41h-62v-917h-71z" />
    <glyph glyph-name="periodcentered" unicode="&#xb7;" horiz-adv-x="320" 
d="M228 318q0 -28 -19.5 -45.5t-51.5 -17.5q-29 0 -47.5 18t-18.5 45q0 29 19 46.5t51 17.5q29 0 48 -18t19 -46z" />
    <glyph glyph-name="cedilla" unicode="&#xb8;" horiz-adv-x="451" 
d="M123 -208q8 -2 24.5 -3.5t30.5 -1.5q30 0 53 9t23 31q0 14 -17.5 19t-62.5 6l34 96l55 -10l-16 -52q86 -11 86 -60q0 -22 -12.5 -37.5t-32.5 -26t-45.5 -15.5t-51.5 -5q-20 0 -42.5 3.5t-39.5 9.5z" />
    <glyph glyph-name="uni00B9" unicode="&#xb9;" horiz-adv-x="185" 
d="M95 446v204h-61v28q17 0 29 1.5t17 6.5q8 5 14.5 15.5t7.5 22.5h37v-278h-44z" />
    <glyph glyph-name="ordmasculine" unicode="&#xba;" horiz-adv-x="294" 
d="M147 445q-62 0 -95.5 38t-33.5 102q0 65 33 102t96 37t96.5 -37t33.5 -102q0 -64 -34 -102t-96 -38zM147 478q42 0 63 29.5t21 77.5q0 47 -21 77t-63 30q-41 0 -62 -30.5t-21 -76.5q0 -47 20.5 -77t62.5 -30z" />
    <glyph glyph-name="guillemotright" unicode="&#xbb;" horiz-adv-x="481" 
d="M220 -50l130 266q-32 65 -65.5 130.5t-65.5 130.5h50l163 -261l-163 -266h-49zM23 -50l129 266q-32 65 -65 130.5t-65 130.5h49l163 -261l-163 -266h-48z" />
    <glyph glyph-name="onequarter" unicode="&#xbc;" horiz-adv-x="909" 
d="M711 -50v62h-176v55l171 288h59l-181 -300h127v153h52v-153h56v-43h-56v-62h-52zM212 322v330q-20 -15 -45 -29t-48 -22v46q21 10 47.5 30.5t41.5 46.5h60v-402h-56zM132 -19l673 731l41 -32l-670 -730z" />
    <glyph glyph-name="onehalf" unicode="&#xbd;" horiz-adv-x="909" 
d="M563 -50q0 14 5.5 29.5t14.5 31t19.5 30.5t20.5 28l104 116q14 15 22 30t8 35q0 30 -18.5 49t-50.5 19q-33 0 -50 -22t-17 -50h-58q1 22 10 43t25 36.5t39 25t51 9.5q56 0 91 -30t35 -82q0 -21 -15.5 -48t-31.5 -45l-101 -111q-7 -7 -17 -23.5t-17 -28.5h183v-42h-252z
M212 322v330q-20 -15 -45 -29t-48 -22v46q21 10 47.5 30.5t41.5 46.5h60v-402h-56zM76 -19l673 731l40 -32l-671 -730z" />
    <glyph glyph-name="threequarters" unicode="&#xbe;" horiz-adv-x="909" 
d="M192 500v41h23q30 0 50 20t20 50q0 33 -17.5 52.5t-49.5 19.5t-49.5 -21.5t-19.5 -47.5h-58q1 22 10.5 42t26 35t39 24t49.5 9q56 0 90.5 -31t34.5 -79q0 -26 -15 -50.5t-45 -41.5q32 -17 49.5 -45t17.5 -55q0 -54 -36 -85t-94 -31q-61 0 -95.5 31.5t-37.5 81.5h56
q1 -13 6 -25.5t15 -23t24 -17t32 -6.5q35 0 54 21t19 56q0 32 -20 54t-56 22h-23zM711 -49v62h-176v55l171 288h59l-181 -300h127v153h52v-153h56v-43h-56v-62h-52zM132 -19l673 731l41 -32l-670 -730z" />
    <glyph glyph-name="questiondown" unicode="&#xbf;" horiz-adv-x="493" 
d="M465 -266q-20 -12 -45 -22.5t-52 -18t-54.5 -12t-52.5 -4.5q-43 0 -82.5 10.5t-70 32.5t-49 56.5t-18.5 83.5q0 55 27 102t78 90q33 28 54 50.5t32.5 44t16 46t4.5 56.5v39h59v-43q0 -34 -5 -62t-17.5 -53.5t-34 -50.5t-54.5 -52q-43 -35 -69.5 -78.5t-26.5 -86.5
q0 -35 13.5 -60.5t35.5 -42t51 -24t61 -7.5q37 0 86 14t89 37zM340 450q0 -22 -16 -38.5t-42 -16.5q-24 0 -40 16.5t-16 38.5q0 23 16 39t40 16q26 0 42 -16t16 -39z" />
    <glyph glyph-name="Agrave" unicode="&#xc0;" horiz-adv-x="683" 
d="M606 -50l-94 244h-342l-94 -244h-69l299 750h75l295 -750h-70zM342 638l-151 -392h301zM305 771l-121 147h105l77 -147h-61z" />
    <glyph glyph-name="Aacute" unicode="&#xc1;" horiz-adv-x="683" 
d="M606 -50l-94 244h-342l-94 -244h-69l299 750h75l295 -750h-70zM342 638l-151 -392h301zM318 771l76 147h106l-120 -147h-62z" />
    <glyph glyph-name="Acircumflex" unicode="&#xc2;" horiz-adv-x="683" 
d="M606 -50l-94 244h-342l-94 -244h-69l299 750h75l295 -750h-70zM342 638l-151 -392h301zM417 771l-76 107l-75 -107h-73l107 147h83l107 -147h-73z" />
    <glyph glyph-name="Atilde" unicode="&#xc3;" horiz-adv-x="683" 
d="M606 -50l-94 244h-342l-94 -244h-69l299 750h75l295 -750h-70zM342 638l-151 -392h301zM487 871q-1 -49 -26 -75.5t-63 -26.5q-29 0 -44.5 10t-26.5 22q-10 8 -20 15.5t-20 7.5q-16 0 -27 -13.5t-12 -39.5h-51q1 49 25.5 75.5t63.5 26.5q27 0 43.5 -9.5t27.5 -19.5
q13 -11 21.5 -16.5t17.5 -5.5q17 0 28 11.5t12 37.5h51z" />
    <glyph glyph-name="Adieresis" unicode="&#xc4;" horiz-adv-x="683" 
d="M606 -50l-94 244h-342l-94 -244h-69l299 750h75l295 -750h-70zM342 638l-151 -392h301zM305 834q0 -22 -17 -37.5t-42 -15.5q-24 0 -41 15.5t-17 37.5q0 23 17 38.5t41 15.5q25 0 42 -15.5t17 -38.5zM494 834q0 -22 -17 -37.5t-41 -15.5q-25 0 -41.5 15.5t-16.5 37.5
q0 23 16.5 38.5t41.5 15.5q24 0 41 -15.5t17 -38.5z" />
    <glyph glyph-name="Aring" unicode="&#xc5;" horiz-adv-x="683" 
d="M606 -50l-94 244h-342l-94 -244h-69l299 750h75l295 -750h-70zM342 638l-151 -392h301zM438 811q0 -36 -26.5 -61.5t-69.5 -25.5t-69.5 25.5t-26.5 61.5q0 37 26.5 62t69.5 25t69.5 -25t26.5 -62zM342 750q26 0 41.5 18.5t15.5 42.5t-15.5 42.5t-41.5 18.5t-41.5 -18.5
t-15.5 -42.5t15.5 -42.5t41.5 -18.5z" />
    <glyph glyph-name="AE" unicode="&#xc6;" horiz-adv-x="875" 
d="M499 -50v244h-319l-104 -244h-69l317 750h492v-52h-253v-286h228v-52h-228v-309h262v-51h-326zM499 638h-139l-159 -392h298v392z" />
    <glyph glyph-name="Ccedilla" unicode="&#xc7;" horiz-adv-x="643" 
d="M609 -32q-45 -19 -91 -25t-100 -6l-15 -51q85 -11 85 -60q0 -22 -12.5 -37.5t-32.5 -26t-45.5 -15.5t-51.5 -5q-20 0 -42 3.5t-39 9.5l13 37q8 -2 24.5 -3.5t31.5 -1.5q30 0 53 9t23 31q0 14 -18 19t-62 6l29 89q-73 9 -128.5 41t-93.5 82t-57.5 116t-19.5 143
q0 83 23 154.5t68.5 123.5t113.5 81.5t157 29.5q48 0 92.5 -6.5t81.5 -22.5l-19 -49q-36 14 -73.5 20.5t-80.5 6.5q-78 0 -134 -26.5t-92.5 -72t-54 -107t-17.5 -133.5q-1 -69 16.5 -129.5t54 -106t92.5 -72t133 -26.5q50 0 92 6.5t78 21.5z" />
    <glyph glyph-name="Egrave" unicode="&#xc8;" horiz-adv-x="575" 
d="M98 -50v750h417v-52h-352v-286h327v-52h-327v-309h361v-51h-426zM275 771l-121 147h106l76 -147h-61z" />
    <glyph glyph-name="Eacute" unicode="&#xc9;" horiz-adv-x="575" 
d="M98 -50v750h417v-52h-352v-286h327v-52h-327v-309h361v-51h-426zM288 771l77 147h105l-120 -147h-62z" />
    <glyph glyph-name="Ecircumflex" unicode="&#xca;" horiz-adv-x="575" 
d="M98 -50v750h417v-52h-352v-286h327v-52h-327v-309h361v-51h-426zM387 771l-76 107l-75 -107h-73l107 147h83l107 -147h-73z" />
    <glyph glyph-name="Edieresis" unicode="&#xcb;" horiz-adv-x="575" 
d="M98 -50v750h417v-52h-352v-286h327v-52h-327v-309h361v-51h-426zM275 834q0 -22 -17 -37.5t-42 -15.5q-24 0 -40.5 15.5t-16.5 37.5q0 23 16.5 38.5t40.5 15.5q25 0 42 -15.5t17 -38.5zM465 834q0 -22 -17.5 -37.5t-41.5 -15.5q-25 0 -41.5 15.5t-16.5 37.5
q0 23 16.5 38.5t41.5 15.5q24 0 41.5 -15.5t17.5 -38.5z" />
    <glyph glyph-name="Igrave" unicode="&#xcc;" horiz-adv-x="261" 
d="M98 -50v750h65v-750h-65zM121 771l-121 147h104l77 -147h-60z" />
    <glyph glyph-name="Iacute" unicode="&#xcd;" horiz-adv-x="261" 
d="M98 -50v750h65v-750h-65zM90 771l77 147h105l-121 -147h-61z" />
    <glyph glyph-name="Icircumflex" unicode="&#xce;" horiz-adv-x="261" 
d="M98 -50v750h65v-750h-65zM212 771l-76 107l-75 -107h-73l107 147h83l107 -147h-73z" />
    <glyph glyph-name="Idieresis" unicode="&#xcf;" horiz-adv-x="261" 
d="M98 -50v750h65v-750h-65zM97 834q0 -22 -17 -37.5t-42 -15.5q-24 0 -41 15.5t-17 37.5q0 23 17 38.5t41 15.5q25 0 42 -15.5t17 -38.5zM285 834q0 -22 -17 -37.5t-41 -15.5q-25 0 -41.5 15.5t-16.5 37.5q0 23 16.5 38.5t41.5 15.5q24 0 41 -15.5t17 -38.5z" />
    <glyph glyph-name="Eth" unicode="&#xd0;" horiz-adv-x="739" 
d="M98 -50v354h-98v53h98v343h197q90 0 162 -24.5t122 -72t76.5 -117.5t26.5 -161t-26.5 -161t-76.5 -117.5t-121.5 -72t-162.5 -24.5h-197zM285 1q165 0 249 83.5t84 240.5t-85 240t-248 83h-122v-291h243v-53h-243v-303h122z" />
    <glyph glyph-name="Ntilde" unicode="&#xd1;" horiz-adv-x="744" 
d="M556 -50l-391 673h-5v-673h-62v750h86l395 -673h4v673h63v-750h-90zM518 871q-1 -49 -25.5 -75.5t-64.5 -26.5q-29 0 -43.5 10t-27.5 22q-11 11 -19 17t-19 6q-17 0 -28 -13.5t-12 -39.5h-51q1 49 26 75.5t63 26.5q27 0 43.5 -9t27.5 -20t20.5 -16.5t18.5 -5.5
q17 0 28 11.5t12 37.5h51z" />
    <glyph glyph-name="Ograve" unicode="&#xd2;" horiz-adv-x="804" 
d="M403 -63q-81 0 -144 29t-106.5 80.5t-66.5 122.5t-23 155t23 155.5t67 123.5t107 81t143 28q81 0 144 -29t106.5 -80t66 -122.5t22.5 -156.5t-23 -156t-66.5 -122.5t-106.5 -80t-143 -28.5zM403 -12q69 0 120.5 26.5t85.5 72.5t51 107t17 130t-17.5 130.5t-52 107.5
t-85.5 72.5t-119 26.5t-119.5 -27t-86.5 -73t-52.5 -107.5t-17.5 -129.5q0 -66 16.5 -125.5t51.5 -105.5q33 -47 84.5 -76t123.5 -29zM399 771l-120 147h104l76 -147h-60z" />
    <glyph glyph-name="Oacute" unicode="&#xd3;" horiz-adv-x="804" 
d="M403 -63q-81 0 -144 29t-106.5 80.5t-66.5 122.5t-23 155t23 155.5t67 123.5t107 81t143 28q81 0 144 -29t106.5 -80t66 -122.5t22.5 -156.5t-23 -156t-66.5 -122.5t-106.5 -80t-143 -28.5zM403 -12q69 0 120.5 26.5t85.5 72.5t51 107t17 130t-17.5 130.5t-52 107.5
t-85.5 72.5t-119 26.5t-119.5 -27t-86.5 -73t-52.5 -107.5t-17.5 -129.5q0 -66 16.5 -125.5t51.5 -105.5q33 -47 84.5 -76t123.5 -29zM378 771l76 147h105l-119 -147h-62z" />
    <glyph glyph-name="Ocircumflex" unicode="&#xd4;" horiz-adv-x="804" 
d="M403 -63q-81 0 -144 29t-106.5 80.5t-66.5 122.5t-23 155t23 155.5t67 123.5t107 81t143 28q81 0 144 -29t106.5 -80t66 -122.5t22.5 -156.5t-23 -156t-66.5 -122.5t-106.5 -80t-143 -28.5zM403 -12q69 0 120.5 26.5t85.5 72.5t51 107t17 130t-17.5 130.5t-52 107.5
t-85.5 72.5t-119 26.5t-119.5 -27t-86.5 -73t-52.5 -107.5t-17.5 -129.5q0 -66 16.5 -125.5t51.5 -105.5q33 -47 84.5 -76t123.5 -29zM480 771l-76 107l-75 -107h-74l108 147h83l107 -147h-73z" />
    <glyph glyph-name="Otilde" unicode="&#xd5;" horiz-adv-x="804" 
d="M403 -63q-81 0 -144 29t-106.5 80.5t-66.5 122.5t-23 155t23 155.5t67 123.5t107 81t143 28q81 0 144 -29t106.5 -80t66 -122.5t22.5 -156.5t-23 -156t-66.5 -122.5t-106.5 -80t-143 -28.5zM403 -12q69 0 120.5 26.5t85.5 72.5t51 107t17 130t-17.5 130.5t-52 107.5
t-85.5 72.5t-119 26.5t-119.5 -27t-86.5 -73t-52.5 -107.5t-17.5 -129.5q0 -66 16.5 -125.5t51.5 -105.5q33 -47 84.5 -76t123.5 -29zM549 871q-1 -49 -26 -75.5t-64 -26.5q-28 0 -43.5 10t-27.5 22q-9 8 -19 15.5t-20 7.5q-16 0 -27 -13.5t-12 -39.5h-51q1 49 25.5 75.5
t62.5 26.5q28 0 44.5 -9.5t27.5 -19.5q13 -11 21.5 -16.5t16.5 -5.5q17 0 27.5 11.5t11.5 37.5h53z" />
    <glyph glyph-name="Odieresis" unicode="&#xd6;" horiz-adv-x="804" 
d="M403 -63q-81 0 -144 29t-106.5 80.5t-66.5 122.5t-23 155t23 155.5t67 123.5t107 81t143 28q81 0 144 -29t106.5 -80t66 -122.5t22.5 -156.5t-23 -156t-66.5 -122.5t-106.5 -80t-143 -28.5zM403 -12q69 0 120.5 26.5t85.5 72.5t51 107t17 130t-17.5 130.5t-52 107.5
t-85.5 72.5t-119 26.5t-119.5 -27t-86.5 -73t-52.5 -107.5t-17.5 -129.5q0 -66 16.5 -125.5t51.5 -105.5q33 -47 84.5 -76t123.5 -29zM364 834q0 -22 -17 -37.5t-42 -15.5q-24 0 -41 15.5t-17 37.5q0 23 17 38.5t41 15.5q25 0 42 -15.5t17 -38.5zM553 834q0 -22 -17.5 -37.5
t-41.5 -15.5q-25 0 -41 15.5t-16 37.5q0 23 16 38.5t41 15.5q24 0 41.5 -15.5t17.5 -38.5z" />
    <glyph glyph-name="multiply" unicode="&#xd7;" horiz-adv-x="695" 
d="M507 136l-157 152l-167 -162l-40 40l166 162l-158 153l37 37l159 -154l164 160l42 -40l-164 -159q17 -16 37 -36t41 -40.5t41 -40t37 -35.5z" />
    <glyph glyph-name="Oslash" unicode="&#xd8;" horiz-adv-x="804" 
d="M111 -73q-7 7 -12 11t-9 7l-14 10l77 90q-44 51 -67 122.5t-23 156.5q0 84 23 155.5t67 123.5t107 81t143 28q75 -1 135 -26t103 -70l83 97l34 -29l-89 -103q73 -102 73 -257q0 -85 -23 -156t-66.5 -122.5t-106.5 -80t-143 -28.5q-68 0 -122.5 20t-96.5 56zM602 569
q-35 43 -84.5 67.5t-114.5 24.5q-68 0 -119.5 -27t-86.5 -73t-52.5 -107.5t-17.5 -129.5q0 -66 16.5 -125.5t51.5 -105.5zM224 58q32 -32 77 -51t102 -19q69 0 120.5 26.5t85.5 72.5t51 107t17 130q0 59 -12.5 111.5t-37.5 95.5z" />
    <glyph glyph-name="Ugrave" unicode="&#xd9;" horiz-adv-x="730" 
d="M581 700h65v-511q0 -53 -17 -99t-52 -80t-88 -53.5t-125 -19.5t-125 20t-87.5 54t-51 80t-16.5 98v511h64v-506q0 -94 53 -150t163 -56q57 0 98 16t67.5 43.5t39 65t12.5 81.5v506zM353 771l-120 147h105l76 -147h-61z" />
    <glyph glyph-name="Uacute" unicode="&#xda;" horiz-adv-x="730" 
d="M581 700h65v-511q0 -53 -17 -99t-52 -80t-88 -53.5t-125 -19.5t-125 20t-87.5 54t-51 80t-16.5 98v511h64v-506q0 -94 53 -150t163 -56q57 0 98 16t67.5 43.5t39 65t12.5 81.5v506zM325 771l77 147h105l-120 -147h-62z" />
    <glyph glyph-name="Ucircumflex" unicode="&#xdb;" horiz-adv-x="730" 
d="M581 700h65v-511q0 -53 -17 -99t-52 -80t-88 -53.5t-125 -19.5t-125 20t-87.5 54t-51 80t-16.5 98v511h64v-506q0 -94 53 -150t163 -56q57 0 98 16t67.5 43.5t39 65t12.5 81.5v506zM441 771l-76 107l-77 -107h-72l107 147h83l107 -147h-72z" />
    <glyph glyph-name="Udieresis" unicode="&#xdc;" horiz-adv-x="730" 
d="M581 700h65v-511q0 -53 -17 -99t-52 -80t-88 -53.5t-125 -19.5t-125 20t-87.5 54t-51 80t-16.5 98v511h64v-506q0 -94 53 -150t163 -56q57 0 98 16t67.5 43.5t39 65t12.5 81.5v506zM329 834q0 -22 -17.5 -37.5t-41.5 -15.5q-25 0 -41.5 15.5t-16.5 37.5q0 23 16.5 38.5
t41.5 15.5q24 0 41.5 -15.5t17.5 -38.5zM517 834q0 -22 -17 -37.5t-42 -15.5q-24 0 -40.5 15.5t-16.5 37.5q0 23 16.5 38.5t40.5 15.5q25 0 42 -15.5t17 -38.5z" />
    <glyph glyph-name="Yacute" unicode="&#xdd;" horiz-adv-x="629" 
d="M282 -50v310l-279 440h77l236 -383l239 383h72l-281 -440v-310h-64zM274 771l77 147h105l-120 -147h-62z" />
    <glyph glyph-name="Thorn" unicode="&#xde;" horiz-adv-x="637" 
d="M163 116v-166h-65v750h65v-164h170q51 0 97 -9.5t81.5 -33t56 -63t20.5 -99.5q0 -64 -21 -105.5t-56 -66t-81 -34t-95 -9.5h-172zM328 168q38 0 73.5 6t62.5 23.5t43.5 48.5t16.5 82q0 47 -16.5 77.5t-44.5 48t-65 24t-77 6.5h-158v-316h165z" />
    <glyph glyph-name="germandbls" unicode="&#xdf;" horiz-adv-x="717" 
d="M254 -4q57 -16 119 -16q43 0 84 10.5t73.5 31.5t52.5 53t20 76q0 36 -17.5 65t-47 50t-69 32t-83.5 11h-99v46h90q79 0 126 40t47 111q0 34 -11 63.5t-33 51t-54.5 34t-75.5 12.5h-23q-39 0 -73 -12t-59 -33t-39.5 -50t-14.5 -62v-560h-65v558q0 43 19 80.5t52.5 65.5
t79 44t98.5 16h38q51 0 92.5 -15.5t70.5 -42.5t45 -64t16 -80q0 -49 -33.5 -97.5t-111.5 -80.5q44 -10 80.5 -27.5t63 -42t41 -55t14.5 -64.5q0 -48 -23.5 -86.5t-62.5 -66t-89 -42t-103 -14.5q-42 0 -79.5 4t-72.5 13z" />
    <glyph glyph-name="agrave" unicode="&#xe0;" horiz-adv-x="585" 
d="M449 -50q-5 18 -7 34t-3 35h-5q-29 -37 -80 -59.5t-120 -22.5q-37 0 -69.5 9.5t-57 30t-38.5 51t-14 72.5q0 179 283 191q20 1 48.5 2.5t47.5 7.5v13q0 81 -39.5 117.5t-117.5 36.5q-33 0 -73.5 -6.5t-79.5 -22.5l-16 51q37 13 83.5 20.5t88.5 7.5q106 0 161.5 -49.5
t55.5 -148.5v-237q0 -29 3 -66t8 -67h-59zM434 252q-9 -2 -20.5 -3.5t-24.5 -2t-25 -1.5t-21 -1q-53 -2 -95 -11t-71.5 -25.5t-45.5 -42.5t-16 -62q0 -54 33.5 -85t92.5 -31q99 0 146 50t47 128v87zM291 602l-120 146h105l76 -146h-61z" />
    <glyph glyph-name="aacute" unicode="&#xe1;" horiz-adv-x="585" 
d="M449 -50q-5 18 -7 34t-3 35h-5q-29 -37 -80 -59.5t-120 -22.5q-37 0 -69.5 9.5t-57 30t-38.5 51t-14 72.5q0 179 283 191q20 1 48.5 2.5t47.5 7.5v13q0 81 -39.5 117.5t-117.5 36.5q-33 0 -73.5 -6.5t-79.5 -22.5l-16 51q37 13 83.5 20.5t88.5 7.5q106 0 161.5 -49.5
t55.5 -148.5v-237q0 -29 3 -66t8 -67h-59zM434 252q-9 -2 -20.5 -3.5t-24.5 -2t-25 -1.5t-21 -1q-53 -2 -95 -11t-71.5 -25.5t-45.5 -42.5t-16 -62q0 -54 33.5 -85t92.5 -31q99 0 146 50t47 128v87zM238 602l77 146h105l-120 -146h-62z" />
    <glyph glyph-name="acircumflex" unicode="&#xe2;" horiz-adv-x="585" 
d="M449 -50q-5 18 -7 34t-3 35h-5q-29 -37 -80 -59.5t-120 -22.5q-37 0 -69.5 9.5t-57 30t-38.5 51t-14 72.5q0 179 283 191q20 1 48.5 2.5t47.5 7.5v13q0 81 -39.5 117.5t-117.5 36.5q-33 0 -73.5 -6.5t-79.5 -22.5l-16 51q37 13 83.5 20.5t88.5 7.5q106 0 161.5 -49.5
t55.5 -148.5v-237q0 -29 3 -66t8 -67h-59zM434 252q-9 -2 -20.5 -3.5t-24.5 -2t-25 -1.5t-21 -1q-53 -2 -95 -11t-71.5 -25.5t-45.5 -42.5t-16 -62q0 -54 33.5 -85t92.5 -31q99 0 146 50t47 128v87zM372 602l-76 107l-76 -107h-73l107 146h83l107 -146h-72z" />
    <glyph glyph-name="atilde" unicode="&#xe3;" horiz-adv-x="585" 
d="M449 -50q-5 18 -7 34t-3 35h-5q-29 -37 -80 -59.5t-120 -22.5q-37 0 -69.5 9.5t-57 30t-38.5 51t-14 72.5q0 179 283 191q20 1 48.5 2.5t47.5 7.5v13q0 81 -39.5 117.5t-117.5 36.5q-33 0 -73.5 -6.5t-79.5 -22.5l-16 51q37 13 83.5 20.5t88.5 7.5q106 0 161.5 -49.5
t55.5 -148.5v-237q0 -29 3 -66t8 -67h-59zM434 252q-9 -2 -20.5 -3.5t-24.5 -2t-25 -1.5t-21 -1q-53 -2 -95 -11t-71.5 -25.5t-45.5 -42.5t-16 -62q0 -54 33.5 -85t92.5 -31q99 0 146 50t47 128v87zM441 701q-1 -49 -25.5 -75t-63.5 -26q-29 0 -44 10t-28 21
q-10 11 -18.5 17.5t-19.5 6.5q-17 0 -27.5 -14t-11.5 -39h-52q1 49 25.5 75.5t63.5 26.5q27 0 44 -10t28 -20q12 -10 20.5 -15.5t17.5 -5.5q17 0 27.5 11t11.5 37h52z" />
    <glyph glyph-name="adieresis" unicode="&#xe4;" horiz-adv-x="585" 
d="M449 -50q-5 18 -7 34t-3 35h-5q-29 -37 -80 -59.5t-120 -22.5q-37 0 -69.5 9.5t-57 30t-38.5 51t-14 72.5q0 179 283 191q20 1 48.5 2.5t47.5 7.5v13q0 81 -39.5 117.5t-117.5 36.5q-33 0 -73.5 -6.5t-79.5 -22.5l-16 51q37 13 83.5 20.5t88.5 7.5q106 0 161.5 -49.5
t55.5 -148.5v-237q0 -29 3 -66t8 -67h-59zM434 252q-9 -2 -20.5 -3.5t-24.5 -2t-25 -1.5t-21 -1q-53 -2 -95 -11t-71.5 -25.5t-45.5 -42.5t-16 -62q0 -54 33.5 -85t92.5 -31q99 0 146 50t47 128v87zM266 665q0 -23 -17.5 -38t-41.5 -15q-25 0 -41.5 15t-16.5 38
q0 22 16.5 37.5t41.5 15.5q24 0 41.5 -15.5t17.5 -37.5zM454 665q0 -23 -17 -38t-41 -15t-41 15t-17 38q0 22 17 37.5t41 15.5t41 -15.5t17 -37.5z" />
    <glyph glyph-name="aring" unicode="&#xe5;" horiz-adv-x="585" 
d="M449 -50q-5 18 -7 34t-3 35h-5q-29 -37 -80 -59.5t-120 -22.5q-37 0 -69.5 9.5t-57 30t-38.5 51t-14 72.5q0 179 283 191q20 1 48.5 2.5t47.5 7.5v13q0 81 -39.5 117.5t-117.5 36.5q-33 0 -73.5 -6.5t-79.5 -22.5l-16 51q37 13 83.5 20.5t88.5 7.5q106 0 161.5 -49.5
t55.5 -148.5v-237q0 -29 3 -66t8 -67h-59zM434 252q-9 -2 -20.5 -3.5t-24.5 -2t-25 -1.5t-21 -1q-53 -2 -95 -11t-71.5 -25.5t-45.5 -42.5t-16 -62q0 -54 33.5 -85t92.5 -31q99 0 146 50t47 128v87zM387 665q0 -36 -26.5 -61.5t-69.5 -25.5q-42 0 -68.5 25.5t-26.5 61.5
q0 37 26.5 62t68.5 25q43 0 69.5 -25t26.5 -62zM291 604q26 0 41.5 18.5t15.5 42.5t-15.5 42.5t-41.5 18.5t-41 -18.5t-15 -42.5t15 -42.5t41 -18.5z" />
    <glyph glyph-name="ae" unicode="&#xe6;" horiz-adv-x="938" 
d="M853 -40q-38 -12 -77.5 -17t-84.5 -5q-88 0 -146 34t-89 91q-27 -60 -82.5 -93t-143.5 -33q-37 0 -69 9.5t-55.5 30t-37 51t-13.5 72.5q0 91 65.5 138t207.5 53q19 1 42.5 2.5t42.5 7.5v13q0 81 -34 117.5t-112 36.5q-34 0 -69 -6.5t-74 -22.5l-16 51q37 13 78.5 20.5
t83.5 7.5q153 0 192 -107q31 50 80.5 79t118.5 29q62 0 105.5 -19t71 -54t40 -84t12.5 -109v-36h-408q1 -47 14 -88.5t38.5 -73t64.5 -49.5t94 -18q39 0 75.5 5t74.5 17zM413 252q-17 -4 -40 -5.5t-40 -2.5q-106 -5 -162 -36.5t-56 -104.5q0 -54 28 -85t88 -31q49 0 84 13
t56.5 37t31.5 56.5t10 71.5v87zM827 266q0 2 1 6.5t-1 6.5q-1 90 -42.5 140t-123.5 50q-46 0 -79 -17t-54.5 -45.5t-32.5 -65t-14 -75.5h346z" />
    <glyph glyph-name="ccedilla" unicode="&#xe7;" horiz-adv-x="508" 
d="M472 -47q-33 -9 -68 -12.5t-68 -3.5h-1l-17 -51q86 -11 86 -60q0 -22 -12.5 -37.5t-32.5 -26t-45.5 -15.5t-51.5 -5q-20 0 -42.5 3.5t-39.5 9.5l14 37q8 -2 24.5 -3.5t30.5 -1.5q30 0 53 9t23 31q0 14 -17.5 19t-62.5 6l32 90q-54 9 -95 34.5t-68.5 63.5t-41.5 86
t-14 102q0 61 18.5 114t54.5 92t87.5 61.5t117.5 22.5q34 0 67.5 -4t64.5 -13l-16 -49q-30 10 -58 13t-57 3q-53 0 -93.5 -18.5t-67.5 -51t-40.5 -76.5t-13.5 -94t13.5 -93.5t40.5 -76.5t67.5 -52t93.5 -19q29 0 62.5 3t61.5 13z" />
    <glyph glyph-name="egrave" unicode="&#xe8;" horiz-adv-x="597" 
d="M512 -40q-38 -12 -82.5 -17t-89.5 -5q-72 0 -125 22.5t-88 62.5t-52.5 93.5t-17.5 116.5q-1 58 16 110t49.5 91.5t80 62t107.5 22.5q62 0 107 -19t74.5 -54t43.5 -84t14 -109v-36h-428q1 -47 15.5 -88.5t42 -73t68 -49.5t95.5 -18q38 0 80 5t80 17zM486 266q0 2 1 6.5
t-1 6.5q-1 90 -47.5 140t-128.5 50q-47 0 -81.5 -17t-57.5 -45.5t-36 -65t-16 -75.5h367zM321 602l-120 146h104l77 -146h-61z" />
    <glyph glyph-name="eacute" unicode="&#xe9;" horiz-adv-x="597" 
d="M512 -40q-38 -12 -82.5 -17t-89.5 -5q-72 0 -125 22.5t-88 62.5t-52.5 93.5t-17.5 116.5q-1 58 16 110t49.5 91.5t80 62t107.5 22.5q62 0 107 -19t74.5 -54t43.5 -84t14 -109v-36h-428q1 -47 15.5 -88.5t42 -73t68 -49.5t95.5 -18q38 0 80 5t80 17zM486 266q0 2 1 6.5
t-1 6.5q-1 90 -47.5 140t-128.5 50q-47 0 -81.5 -17t-57.5 -45.5t-36 -65t-16 -75.5h367zM269 602l77 146h105l-120 -146h-62z" />
    <glyph glyph-name="ecircumflex" unicode="&#xea;" horiz-adv-x="597" 
d="M512 -40q-38 -12 -82.5 -17t-89.5 -5q-72 0 -125 22.5t-88 62.5t-52.5 93.5t-17.5 116.5q-1 58 16 110t49.5 91.5t80 62t107.5 22.5q62 0 107 -19t74.5 -54t43.5 -84t14 -109v-36h-428q1 -47 15.5 -88.5t42 -73t68 -49.5t95.5 -18q38 0 80 5t80 17zM486 266q0 2 1 6.5
t-1 6.5q-1 90 -47.5 140t-128.5 50q-47 0 -81.5 -17t-57.5 -45.5t-36 -65t-16 -75.5h367zM388 602l-76 107l-75 -107h-73l107 146h83l107 -146h-73z" />
    <glyph glyph-name="edieresis" unicode="&#xeb;" horiz-adv-x="597" 
d="M512 -40q-38 -12 -82.5 -17t-89.5 -5q-72 0 -125 22.5t-88 62.5t-52.5 93.5t-17.5 116.5q-1 58 16 110t49.5 91.5t80 62t107.5 22.5q62 0 107 -19t74.5 -54t43.5 -84t14 -109v-36h-428q1 -47 15.5 -88.5t42 -73t68 -49.5t95.5 -18q38 0 80 5t80 17zM486 266q0 2 1 6.5
t-1 6.5q-1 90 -47.5 140t-128.5 50q-47 0 -81.5 -17t-57.5 -45.5t-36 -65t-16 -75.5h367zM276 664q0 -23 -17 -38t-42 -15q-24 0 -40.5 15t-16.5 38q0 22 16.5 37.5t40.5 15.5q25 0 42 -15.5t17 -37.5zM465 664q0 -23 -17 -38t-41 -15q-25 0 -41.5 15t-16.5 38
q0 22 16.5 37.5t41.5 15.5q24 0 41 -15.5t17 -37.5z" />
    <glyph glyph-name="igrave" unicode="&#xec;" horiz-adv-x="248" 
d="M92 -50v555h64v-555h-64zM140 602l-119 146h104l76 -146h-61z" />
    <glyph glyph-name="iacute" unicode="&#xed;" horiz-adv-x="248" 
d="M92 -50v555h64v-555h-64zM57 602l76 146h105l-120 -146h-61z" />
    <glyph glyph-name="icircumflex" unicode="&#xee;" horiz-adv-x="248" 
d="M92 -50v555h64v-555h-64zM199 602l-75 107l-77 -107h-72l106 146h84l107 -146h-73z" />
    <glyph glyph-name="idieresis" unicode="&#xef;" horiz-adv-x="248" 
d="M92 -50v555h64v-555h-64zM92 665q0 -23 -17 -38t-42 -15q-24 0 -40.5 15t-16.5 38q0 22 16.5 37.5t40.5 15.5q25 0 42 -15.5t17 -37.5zM271 665q0 -23 -17.5 -38t-41.5 -15t-41 15t-17 38q0 22 17 37.5t41 15.5t41.5 -15.5t17.5 -37.5z" />
    <glyph glyph-name="eth" unicode="&#xf0;" horiz-adv-x="586" 
d="M366 602q45 -51 75 -106t49 -109.5t27 -108t8 -102.5q0 -111 -60 -175.5t-171 -64.5q-55 0 -98 17t-72.5 48.5t-45 76t-15.5 98.5q0 52 16.5 95.5t47 75t73 48.5t94.5 17q43 0 83.5 -13.5t74.5 -41.5q-26 60 -60 114.5t-71 95.5l-50 -34l-62 -39l-28 31l109 74
q-31 27 -60 49t-54 36l27 36q35 -17 69.5 -39.5t66.5 -48.5q20 14 39.5 30t39.5 30l29 -31zM294 -22q83 0 124.5 53.5t41.5 144.5q0 89 -42.5 140.5t-123.5 51.5t-123.5 -51.5t-42.5 -140.5q0 -45 10.5 -81.5t31.5 -62.5t52 -40t72 -14z" />
    <glyph glyph-name="ntilde" unicode="&#xf1;" horiz-adv-x="632" 
d="M484 -50v342q0 39 -8 71.5t-26 55.5t-47 36t-72 13q-33 0 -64 -11t-56 -34.5t-40 -60.5t-15 -89v-323h-64v555h61v-77h4q28 42 77.5 66t109.5 24q97 0 150.5 -55.5t53.5 -148.5v-364h-64zM465 701q-2 -49 -26.5 -75t-62.5 -26q-29 0 -44.5 10t-27.5 21q-11 11 -19 17.5
t-19 6.5q-17 0 -27.5 -14t-11.5 -39h-52q1 49 25.5 75.5t63.5 26.5q27 0 43.5 -10t28.5 -20q11 -10 20 -15.5t18 -5.5q17 0 27.5 11t11.5 37h52z" />
    <glyph glyph-name="ograve" unicode="&#xf2;" horiz-adv-x="634" 
d="M318 -63q-62 0 -110.5 20.5t-81.5 59t-50.5 92.5t-17.5 120t17.5 119t50.5 91t81.5 58.5t110.5 20.5q61 0 109.5 -20.5t82 -58.5t51 -91t17.5 -119t-18 -120t-51.5 -92t-81.5 -59t-109 -21zM318 -13q49 0 86 18.5t61.5 50.5t36.5 76.5t12 96.5t-12 95.5t-36.5 75.5
t-61.5 50t-86 18q-50 0 -87 -18.5t-61.5 -50.5t-36.5 -75.5t-12 -94.5t12 -95.5t36 -77t61 -51t88 -18.5zM310 602l-120 146h104l76 -146h-60z" />
    <glyph glyph-name="oacute" unicode="&#xf3;" horiz-adv-x="634" 
d="M318 -63q-62 0 -110.5 20.5t-81.5 59t-50.5 92.5t-17.5 120t17.5 119t50.5 91t81.5 58.5t110.5 20.5q61 0 109.5 -20.5t82 -58.5t51 -91t17.5 -119t-18 -120t-51.5 -92t-81.5 -59t-109 -21zM318 -13q49 0 86 18.5t61.5 50.5t36.5 76.5t12 96.5t-12 95.5t-36.5 75.5
t-61.5 50t-86 18q-50 0 -87 -18.5t-61.5 -50.5t-36.5 -75.5t-12 -94.5t12 -95.5t36 -77t61 -51t88 -18.5zM266 602l77 146h105l-120 -146h-62z" />
    <glyph glyph-name="ocircumflex" unicode="&#xf4;" horiz-adv-x="634" 
d="M318 -63q-62 0 -110.5 20.5t-81.5 59t-50.5 92.5t-17.5 120t17.5 119t50.5 91t81.5 58.5t110.5 20.5q61 0 109.5 -20.5t82 -58.5t51 -91t17.5 -119t-18 -120t-51.5 -92t-81.5 -59t-109 -21zM318 -13q49 0 86 18.5t61.5 50.5t36.5 76.5t12 96.5t-12 95.5t-36.5 75.5
t-61.5 50t-86 18q-50 0 -87 -18.5t-61.5 -50.5t-36.5 -75.5t-12 -94.5t12 -95.5t36 -77t61 -51t88 -18.5zM396 602l-77 107l-75 -107h-73l107 146h84l107 -146h-73z" />
    <glyph glyph-name="otilde" unicode="&#xf5;" horiz-adv-x="634" 
d="M318 -63q-62 0 -110.5 20.5t-81.5 59t-50.5 92.5t-17.5 120t17.5 119t50.5 91t81.5 58.5t110.5 20.5q61 0 109.5 -20.5t82 -58.5t51 -91t17.5 -119t-18 -120t-51.5 -92t-81.5 -59t-109 -21zM318 -13q49 0 86 18.5t61.5 50.5t36.5 76.5t12 96.5t-12 95.5t-36.5 75.5
t-61.5 50t-86 18q-50 0 -87 -18.5t-61.5 -50.5t-36.5 -75.5t-12 -94.5t12 -95.5t36 -77t61 -51t88 -18.5zM466 701q-1 -49 -26.5 -75t-63.5 -26q-29 0 -44.5 10t-26.5 21t-19.5 17.5t-19.5 6.5q-17 0 -27.5 -14t-11.5 -39h-52q1 49 25.5 75.5t63.5 26.5q28 0 44 -10t28 -20
t21 -15.5t17 -5.5q17 0 28 11t12 37h52z" />
    <glyph glyph-name="odieresis" unicode="&#xf6;" horiz-adv-x="634" 
d="M318 -63q-62 0 -110.5 20.5t-81.5 59t-50.5 92.5t-17.5 120t17.5 119t50.5 91t81.5 58.5t110.5 20.5q61 0 109.5 -20.5t82 -58.5t51 -91t17.5 -119t-18 -120t-51.5 -92t-81.5 -59t-109 -21zM318 -13q49 0 86 18.5t61.5 50.5t36.5 76.5t12 96.5t-12 95.5t-36.5 75.5
t-61.5 50t-86 18q-50 0 -87 -18.5t-61.5 -50.5t-36.5 -75.5t-12 -94.5t12 -95.5t36 -77t61 -51t88 -18.5zM283 665q0 -23 -17 -38t-41 -15t-41 15t-17 38q0 22 17 37.5t41 15.5t41 -15.5t17 -37.5zM473 665q0 -23 -17.5 -38t-41.5 -15q-25 0 -41.5 15t-16.5 38
q0 22 16.5 37.5t41.5 15.5q24 0 41.5 -15.5t17.5 -37.5z" />
    <glyph glyph-name="divide" unicode="&#xf7;" horiz-adv-x="695" 
d="M404 524q0 -22 -16.5 -37t-41.5 -15q-24 0 -40.5 15t-16.5 37q0 23 16.5 38t40.5 15q25 0 41.5 -15t16.5 -38zM404 125q0 -22 -16.5 -37t-41.5 -15q-24 0 -40.5 15t-16.5 37q0 23 16.5 38t40.5 15q25 0 41.5 -15t16.5 -38zM94 304v49h506v-49h-506z" />
    <glyph glyph-name="oslash" unicode="&#xf8;" horiz-adv-x="634" 
d="M80 -81l59 84q-41 38 -61 95.5t-20 130.5q0 66 17.5 119t50.5 91t81.5 58.5t110.5 20.5q88 0 151 -43l48 69l42 -32l-51 -72q34 -38 52 -91.5t18 -119.5t-18 -120t-51.5 -92t-81.5 -59t-109 -21q-81 0 -140 36l-61 -88zM437 429q-47 39 -119 39q-50 0 -87 -18.5
t-61.5 -50.5t-36.5 -75.5t-12 -94.5q0 -54 12.5 -100t38.5 -78zM210 17q22 -14 49 -22t59 -8q49 0 86 18.5t61.5 50.5t36.5 76.5t12 96.5q0 48 -10.5 88.5t-30.5 71.5z" />
    <glyph glyph-name="ugrave" unicode="&#xf9;" horiz-adv-x="632" 
d="M479 -50v75h-3q-29 -42 -78 -65t-109 -23q-48 0 -86.5 14.5t-64.5 41.5t-40 64.5t-14 83.5v364h64v-343q0 -39 8 -71.5t26 -56t47.5 -36t73.5 -12.5q33 0 64.5 11t55.5 35t39 61t15 88v324h64v-555h-62zM300 602l-120 146h104l76 -146h-60z" />
    <glyph glyph-name="uacute" unicode="&#xfa;" horiz-adv-x="632" 
d="M479 -50v75h-3q-29 -42 -78 -65t-109 -23q-48 0 -86.5 14.5t-64.5 41.5t-40 64.5t-14 83.5v364h64v-343q0 -39 8 -71.5t26 -56t47.5 -36t73.5 -12.5q33 0 64.5 11t55.5 35t39 61t15 88v324h64v-555h-62zM264 602l76 146h106l-121 -146h-61z" />
    <glyph glyph-name="ucircumflex" unicode="&#xfb;" horiz-adv-x="632" 
d="M479 -50v75h-3q-29 -42 -78 -65t-109 -23q-48 0 -86.5 14.5t-64.5 41.5t-40 64.5t-14 83.5v364h64v-343q0 -39 8 -71.5t26 -56t47.5 -36t73.5 -12.5q33 0 64.5 11t55.5 35t39 61t15 88v324h64v-555h-62zM388 602l-76 107l-75 -107h-73l107 146h82l107 -146h-72z" />
    <glyph glyph-name="udieresis" unicode="&#xfc;" horiz-adv-x="632" 
d="M479 -50v75h-3q-29 -42 -78 -65t-109 -23q-48 0 -86.5 14.5t-64.5 41.5t-40 64.5t-14 83.5v364h64v-343q0 -39 8 -71.5t26 -56t47.5 -36t73.5 -12.5q33 0 64.5 11t55.5 35t39 61t15 88v324h64v-555h-62zM270 665q0 -23 -17.5 -38t-41.5 -15t-41 15t-17 38q0 22 17 37.5
t41 15.5t41.5 -15.5t17.5 -37.5zM458 665q0 -23 -16.5 -38t-41.5 -15q-24 0 -41 15t-17 38q0 22 17 37.5t41 15.5q25 0 41.5 -15.5t16.5 -37.5z" />
    <glyph glyph-name="yacute" unicode="&#xfd;" horiz-adv-x="518" 
d="M138 -258l91 216l-228 547h70l193 -473l185 473h69l-312 -763h-68zM226 602l76 146h105l-120 -146h-61z" />
    <glyph glyph-name="thorn" unicode="&#xfe;" horiz-adv-x="646" 
d="M92 -259v983h64v-299h4q28 41 73 67t109 26q58 0 104 -22t77.5 -61t48.5 -92t17 -114q0 -63 -17 -116.5t-48.5 -92.5t-76.5 -61t-102 -22q-59 0 -108.5 26t-78.5 71h-5v-293h-61zM154 169q0 -39 15.5 -72.5t41.5 -58t60 -38t70 -13.5q45 0 79 19t57.5 52t35 77t11.5 94
q0 49 -12.5 93t-36.5 76t-58.5 51t-79.5 19q-35 0 -68 -13.5t-58.5 -37.5t-41 -56t-15.5 -68v-124z" />
    <glyph glyph-name="ydieresis" unicode="&#xff;" horiz-adv-x="518" 
d="M138 -258l91 216l-228 547h70l193 -473l185 473h69l-312 -763h-68zM225 665q0 -23 -17.5 -38t-41.5 -15q-25 0 -41.5 15t-16.5 38q0 22 16.5 37.5t41.5 15.5q24 0 41.5 -15.5t17.5 -37.5zM413 665q0 -23 -17 -38t-42 -15q-24 0 -40.5 15t-16.5 38q0 22 16.5 37.5
t40.5 15.5q25 0 42 -15.5t17 -37.5z" />
    <glyph glyph-name="Amacron" unicode="&#x100;" horiz-adv-x="683" 
d="M606 -50l-94 244h-342l-94 -244h-69l299 750h75l295 -750h-70zM342 638l-151 -392h301zM187 785v53h307v-53h-307z" />
    <glyph glyph-name="amacron" unicode="&#x101;" horiz-adv-x="585" 
d="M449 -50q-5 18 -7 34t-3 35h-5q-29 -37 -80 -59.5t-120 -22.5q-37 0 -69.5 9.5t-57 30t-38.5 51t-14 72.5q0 179 283 191q20 1 48.5 2.5t47.5 7.5v13q0 81 -39.5 117.5t-117.5 36.5q-33 0 -73.5 -6.5t-79.5 -22.5l-16 51q37 13 83.5 20.5t88.5 7.5q106 0 161.5 -49.5
t55.5 -148.5v-237q0 -29 3 -66t8 -67h-59zM434 252q-9 -2 -20.5 -3.5t-24.5 -2t-25 -1.5t-21 -1q-53 -2 -95 -11t-71.5 -25.5t-45.5 -42.5t-16 -62q0 -54 33.5 -85t92.5 -31q99 0 146 50t47 128v87zM139 616v53h306v-53h-306z" />
    <glyph glyph-name="Abreve" unicode="&#x102;" horiz-adv-x="683" 
d="M606 -50l-94 244h-342l-94 -244h-69l299 750h75l295 -750h-70zM342 638l-151 -392h301zM495 876q-10 -51 -53.5 -79t-100.5 -28t-100 28t-54 79h60q5 -26 32 -41t62 -15t62 15t33 41h59z" />
    <glyph glyph-name="abreve" unicode="&#x103;" horiz-adv-x="585" 
d="M449 -50q-5 18 -7 34t-3 35h-5q-29 -37 -80 -59.5t-120 -22.5q-37 0 -69.5 9.5t-57 30t-38.5 51t-14 72.5q0 179 283 191q20 1 48.5 2.5t47.5 7.5v13q0 81 -39.5 117.5t-117.5 36.5q-33 0 -73.5 -6.5t-79.5 -22.5l-16 51q37 13 83.5 20.5t88.5 7.5q106 0 161.5 -49.5
t55.5 -148.5v-237q0 -29 3 -66t8 -67h-59zM434 252q-9 -2 -20.5 -3.5t-24.5 -2t-25 -1.5t-21 -1q-53 -2 -95 -11t-71.5 -25.5t-45.5 -42.5t-16 -62q0 -54 33.5 -85t92.5 -31q99 0 146 50t47 128v87zM440 705q-11 -51 -53 -77.5t-99 -26.5q-56 0 -98 26.5t-53 77.5h56
q6 -26 33 -41t62 -15t62.5 15t33.5 41h56z" />
    <glyph glyph-name="Aogonek" unicode="&#x104;" horiz-adv-x="683" 
d="M725 -236q-12 -9 -29 -15t-28 -7q-55 -3 -84.5 27t-24.5 84q1 12 5.5 25.5t11 26.5t14.5 25t17 20h-1l-2 5l-92 239h-342l-94 -244h-69l299 750h75l295 -750h-23q-20 -16 -31.5 -43.5t-9.5 -53.5q3 -46 41 -53q11 -2 26 1t29 10zM342 638l-151 -392h301z" />
    <glyph glyph-name="aogonek" unicode="&#x105;" horiz-adv-x="585" 
d="M569 -236q-13 -9 -29.5 -15t-27.5 -7q-55 -3 -84.5 27t-24.5 84q1 12 5.5 25.5t10.5 26.5t14 25t17 20h-1q-5 18 -7 34t-3 35h-5q-29 -37 -80 -59.5t-120 -22.5q-37 0 -69.5 9.5t-57 30t-38.5 51t-14 72.5q0 179 283 191q20 1 48.5 2.5t47.5 7.5v13q0 81 -39.5 117.5
t-117.5 36.5q-33 0 -73.5 -6.5t-79.5 -22.5l-16 51q37 13 83.5 20.5t88.5 7.5q106 0 161.5 -49.5t55.5 -148.5v-237q0 -29 3 -66t8 -67h-12q-19 -16 -31 -43.5t-10 -53.5q3 -46 41 -53q11 -2 26 1t29 10zM434 252q-9 -2 -20.5 -3.5t-24.5 -2t-25 -1.5t-21 -1q-53 -2 -95 -11
t-71.5 -25.5t-45.5 -42.5t-16 -62q0 -54 33.5 -85t92.5 -31q99 0 146 50t47 128v87z" />
    <glyph glyph-name="Cacute" unicode="&#x106;" horiz-adv-x="643" 
d="M609 -32q-45 -19 -91 -25t-100 -6q-87 0 -154 28.5t-112.5 80t-68.5 122.5t-23 155q0 83 23 154.5t68.5 123.5t113.5 81.5t157 29.5q48 0 92.5 -6.5t81.5 -22.5l-19 -49q-36 14 -73.5 20.5t-80.5 6.5q-78 0 -134 -26.5t-92.5 -72t-54 -107t-17.5 -133.5
q-1 -69 16.5 -129.5t54 -106t92.5 -72t133 -26.5q50 0 92 6.5t78 21.5zM324 771l77 147h105l-120 -147h-62z" />
    <glyph glyph-name="cacute" unicode="&#x107;" horiz-adv-x="508" 
d="M472 -47q-33 -9 -68 -12.5t-68 -3.5q-69 0 -121 22.5t-87 62t-52.5 92.5t-17.5 114t18.5 114t54.5 92t87.5 61.5t117.5 22.5q34 0 67.5 -4t64.5 -13l-16 -49q-30 10 -58 13t-57 3q-53 0 -93.5 -18.5t-67.5 -51t-40.5 -76.5t-13.5 -94t13.5 -93.5t40.5 -76.5t67.5 -52
t93.5 -19q29 0 62.5 3t61.5 13zM250 602l78 146h105l-121 -146h-62z" />
    <glyph glyph-name="Ccircumflex" unicode="&#x108;" horiz-adv-x="643" 
d="M609 -32q-45 -19 -91 -25t-100 -6q-87 0 -154 28.5t-112.5 80t-68.5 122.5t-23 155q0 83 23 154.5t68.5 123.5t113.5 81.5t157 29.5q48 0 92.5 -6.5t81.5 -22.5l-19 -49q-36 14 -73.5 20.5t-80.5 6.5q-78 0 -134 -26.5t-92.5 -72t-54 -107t-17.5 -133.5
q-1 -69 16.5 -129.5t54 -106t92.5 -72t133 -26.5q50 0 92 6.5t78 21.5zM441 771l-76 107l-76 -107h-73l107 147h83l107 -147h-72z" />
    <glyph glyph-name="ccircumflex" unicode="&#x109;" horiz-adv-x="508" 
d="M472 -47q-33 -9 -68 -12.5t-68 -3.5q-69 0 -121 22.5t-87 62t-52.5 92.5t-17.5 114t18.5 114t54.5 92t87.5 61.5t117.5 22.5q34 0 67.5 -4t64.5 -13l-16 -49q-30 10 -58 13t-57 3q-53 0 -93.5 -18.5t-67.5 -51t-40.5 -76.5t-13.5 -94t13.5 -93.5t40.5 -76.5t67.5 -52
t93.5 -19q29 0 62.5 3t61.5 13zM365 602l-77 107l-75 -107h-73l107 146h84l107 -146h-73z" />
    <glyph glyph-name="Cdotaccent" unicode="&#x10a;" horiz-adv-x="643" 
d="M609 -32q-45 -19 -91 -25t-100 -6q-87 0 -154 28.5t-112.5 80t-68.5 122.5t-23 155q0 83 23 154.5t68.5 123.5t113.5 81.5t157 29.5q48 0 92.5 -6.5t81.5 -22.5l-19 -49q-36 14 -73.5 20.5t-80.5 6.5q-78 0 -134 -26.5t-92.5 -72t-54 -107t-17.5 -133.5
q-1 -69 16.5 -129.5t54 -106t92.5 -72t133 -26.5q50 0 92 6.5t78 21.5zM437 833q0 -23 -18 -39.5t-44 -16.5t-43.5 16.5t-17.5 39.5q0 24 17.5 40.5t43.5 16.5t44 -16.5t18 -40.5z" />
    <glyph glyph-name="cdotaccent" unicode="&#x10b;" horiz-adv-x="508" 
d="M472 -47q-33 -9 -68 -12.5t-68 -3.5q-69 0 -121 22.5t-87 62t-52.5 92.5t-17.5 114t18.5 114t54.5 92t87.5 61.5t117.5 22.5q34 0 67.5 -4t64.5 -13l-16 -49q-30 10 -58 13t-57 3q-53 0 -93.5 -18.5t-67.5 -51t-40.5 -76.5t-13.5 -94t13.5 -93.5t40.5 -76.5t67.5 -52
t93.5 -19q29 0 62.5 3t61.5 13zM339 670q0 -23 -18 -39t-44 -16t-43.5 16t-17.5 39q0 24 17.5 40.5t43.5 16.5t44 -16.5t18 -40.5z" />
    <glyph glyph-name="Ccaron" unicode="&#x10c;" horiz-adv-x="643" 
d="M609 -32q-45 -19 -91 -25t-100 -6q-87 0 -154 28.5t-112.5 80t-68.5 122.5t-23 155q0 83 23 154.5t68.5 123.5t113.5 81.5t157 29.5q48 0 92.5 -6.5t81.5 -22.5l-19 -49q-36 14 -73.5 20.5t-80.5 6.5q-78 0 -134 -26.5t-92.5 -72t-54 -107t-17.5 -133.5
q-1 -69 16.5 -129.5t54 -106t92.5 -72t133 -26.5q50 0 92 6.5t78 21.5zM323 771l-107 147h73l76 -108l76 108h72l-107 -147h-83z" />
    <glyph glyph-name="ccaron" unicode="&#x10d;" horiz-adv-x="508" 
d="M472 -47q-33 -9 -68 -12.5t-68 -3.5q-69 0 -121 22.5t-87 62t-52.5 92.5t-17.5 114t18.5 114t54.5 92t87.5 61.5t117.5 22.5q34 0 67.5 -4t64.5 -13l-16 -49q-30 10 -58 13t-57 3q-53 0 -93.5 -18.5t-67.5 -51t-40.5 -76.5t-13.5 -94t13.5 -93.5t40.5 -76.5t67.5 -52
t93.5 -19q29 0 62.5 3t61.5 13zM247 602l-107 146h73l75 -108l77 108h73l-107 -146h-84z" />
    <glyph glyph-name="Dcaron" unicode="&#x10e;" horiz-adv-x="739" 
d="M329 771l-108 147h74l75 -108l76 108h72l-106 -147h-83zM98 -50v750h197q90 0 162 -24.5t122 -72t76.5 -117.5t26.5 -161t-26.5 -161t-76.5 -117.5t-121.5 -72t-162.5 -24.5h-197zM285 1q165 0 249 83.5t84 240.5t-85 240t-248 83h-122v-647h122z" />
    <glyph glyph-name="dcaron" unicode="&#x10f;" horiz-adv-x="955" 
d="M491 -50v84h-3q-29 -45 -78.5 -71t-108.5 -26q-57 0 -102.5 22t-77 61t-48 92.5t-16.5 116.5q0 61 16.5 114t48.5 92t77.5 61t104.5 22q63 0 108.5 -26t73.5 -67h4v297h64v-772h-63zM490 293q0 36 -15 68t-40 56t-58 37.5t-68 13.5q-45 0 -80 -19t-59 -51t-36.5 -76
t-12.5 -93q0 -50 11.5 -94t35 -77t58 -52t79.5 -19q36 0 69.5 13.5t59 38t41 58t15.5 72.5v124zM701 535q20 14 40.5 38t28.5 50q7 21 3.5 30t-20.5 9q-6 0 -13 1t-12 3q-11 5 -21 17t-10 32q0 26 17 40.5t40 14.5q28 0 48 -21.5t20 -55.5q0 -28 -8.5 -56.5t-24.5 -50.5
t-33.5 -39t-35.5 -26z" />
    <glyph glyph-name="Dcroat" unicode="&#x110;" horiz-adv-x="739" 
d="M98 -50v354h-98v53h98v343h197q90 0 162 -24.5t122 -72t76.5 -117.5t26.5 -161t-26.5 -161t-76.5 -117.5t-121.5 -72t-162.5 -24.5h-197zM285 1q165 0 249 83.5t84 240.5t-85 240t-248 83h-122v-291h243v-53h-243v-303h122z" />
    <glyph glyph-name="dcroat" unicode="&#x111;" horiz-adv-x="646" 
d="M491 -50v84h-3q-29 -45 -78.5 -71t-108.5 -26q-57 0 -102.5 22t-77 61t-48 92.5t-16.5 116.5q0 61 16.5 114t48.5 92t77.5 61t104.5 22q63 0 108.5 -26t73.5 -67h4v142h-210v56h210v99h64v-99h87v-56h-87v-617h-63zM490 293q0 36 -15 68t-40 56t-58 37.5t-68 13.5
q-45 0 -80 -19t-59 -51t-36.5 -76t-12.5 -93q0 -50 11.5 -94t35 -77t58 -52t79.5 -19q36 0 69.5 13.5t59 38t41 58t15.5 72.5v124z" />
    <glyph glyph-name="Emacron" unicode="&#x112;" horiz-adv-x="575" 
d="M98 -50v750h417v-52h-352v-286h327v-52h-327v-309h361v-51h-426zM158 785v53h307v-53h-307z" />
    <glyph glyph-name="emacron" unicode="&#x113;" horiz-adv-x="597" 
d="M512 -40q-38 -12 -82.5 -17t-89.5 -5q-72 0 -125 22.5t-88 62.5t-52.5 93.5t-17.5 116.5q-1 58 16 110t49.5 91.5t80 62t107.5 22.5q62 0 107 -19t74.5 -54t43.5 -84t14 -109v-36h-428q1 -47 15.5 -88.5t42 -73t68 -49.5t95.5 -18q38 0 80 5t80 17zM486 266q0 2 1 6.5
t-1 6.5q-1 90 -47.5 140t-128.5 50q-47 0 -81.5 -17t-57.5 -45.5t-36 -65t-16 -75.5h367zM159 616v53h306v-53h-306z" />
    <glyph glyph-name="Ebreve" unicode="&#x114;" horiz-adv-x="575" 
d="M98 -50v750h417v-52h-352v-286h327v-52h-327v-309h361v-51h-426zM466 876q-11 -51 -54.5 -79t-100.5 -28t-100 28t-53 79h59q6 -26 32.5 -41t61.5 -15t62.5 15t32.5 41h60z" />
    <glyph glyph-name="ebreve" unicode="&#x115;" horiz-adv-x="597" 
d="M512 -40q-38 -12 -82.5 -17t-89.5 -5q-72 0 -125 22.5t-88 62.5t-52.5 93.5t-17.5 116.5q-1 58 16 110t49.5 91.5t80 62t107.5 22.5q62 0 107 -19t74.5 -54t43.5 -84t14 -109v-36h-428q1 -47 15.5 -88.5t42 -73t68 -49.5t95.5 -18q38 0 80 5t80 17zM486 266q0 2 1 6.5
t-1 6.5q-1 90 -47.5 140t-128.5 50q-47 0 -81.5 -17t-57.5 -45.5t-36 -65t-16 -75.5h367zM463 705q-10 -51 -52 -77.5t-99 -26.5q-56 0 -98 26.5t-53 77.5h55q7 -26 34 -41t62 -15t63 15t33 41h55z" />
    <glyph glyph-name="Edotaccent" unicode="&#x116;" horiz-adv-x="575" 
d="M98 -50v750h417v-52h-352v-286h327v-52h-327v-309h361v-51h-426zM368 833q0 -23 -18 -39.5t-44 -16.5t-43 16.5t-17 39.5q0 24 17 40.5t43 16.5t44 -16.5t18 -40.5z" />
    <glyph glyph-name="edotaccent" unicode="&#x117;" horiz-adv-x="597" 
d="M512 -40q-38 -12 -82.5 -17t-89.5 -5q-72 0 -125 22.5t-88 62.5t-52.5 93.5t-17.5 116.5q-1 58 16 110t49.5 91.5t80 62t107.5 22.5q62 0 107 -19t74.5 -54t43.5 -84t14 -109v-36h-428q1 -47 15.5 -88.5t42 -73t68 -49.5t95.5 -18q38 0 80 5t80 17zM486 266q0 2 1 6.5
t-1 6.5q-1 90 -47.5 140t-128.5 50q-47 0 -81.5 -17t-57.5 -45.5t-36 -65t-16 -75.5h367zM374 670q0 -23 -18 -39t-44 -16t-43.5 16t-17.5 39q0 24 17.5 40.5t43.5 16.5t44 -16.5t18 -40.5z" />
    <glyph glyph-name="Eogonek" unicode="&#x118;" horiz-adv-x="575" 
d="M596 -236q-12 -9 -28.5 -15t-27.5 -7q-55 -3 -85 27t-24 84q1 12 5.5 25.5t10.5 26.5t14 25t17 20h-380v750h417v-52h-352v-286h327v-52h-327v-309h361v-51q-19 -16 -31 -43.5t-10 -53.5q3 -46 41 -53q11 -2 26 1t29 10z" />
    <glyph glyph-name="eogonek" unicode="&#x119;" horiz-adv-x="597" 
d="M431 -236q-13 -9 -29.5 -15t-27.5 -7q-55 -3 -85 27t-24 84q2 20 12.5 45t25.5 42q-62 6 -108 30.5t-76.5 63.5t-46 89.5t-15.5 109.5q-1 58 16 110t49.5 91.5t80 62t107.5 22.5q62 0 107 -19t74.5 -54t43.5 -84t14 -109v-36h-428q1 -47 15.5 -88.5t42 -73t68 -49.5
t95.5 -18q38 0 80 5t80 17l10 -50q-37 -11 -79 -16t-84 -6h-3q-14 -17 -22.5 -40t-6.5 -45q3 -46 41 -53q11 -2 26 1t29 10zM486 266q0 2 1 6.5t-1 6.5q-1 90 -47.5 140t-128.5 50q-47 0 -81.5 -17t-57.5 -45.5t-36 -65t-16 -75.5h367z" />
    <glyph glyph-name="Ecaron" unicode="&#x11a;" horiz-adv-x="575" 
d="M98 -50v750h417v-52h-352v-286h327v-52h-327v-309h361v-51h-426zM265 771l-107 147h73l75 -108l76 108h73l-107 -147h-83z" />
    <glyph glyph-name="ecaron" unicode="&#x11b;" horiz-adv-x="597" 
d="M512 -40q-38 -12 -82.5 -17t-89.5 -5q-72 0 -125 22.5t-88 62.5t-52.5 93.5t-17.5 116.5q-1 58 16 110t49.5 91.5t80 62t107.5 22.5q62 0 107 -19t74.5 -54t43.5 -84t14 -109v-36h-428q1 -47 15.5 -88.5t42 -73t68 -49.5t95.5 -18q38 0 80 5t80 17zM486 266q0 2 1 6.5
t-1 6.5q-1 90 -47.5 140t-128.5 50q-47 0 -81.5 -17t-57.5 -45.5t-36 -65t-16 -75.5h367zM271 602l-107 146h73l75 -108l76 108h73l-107 -146h-83z" />
    <glyph glyph-name="Gcircumflex" unicode="&#x11c;" horiz-adv-x="753" 
d="M595 305h-197v52h261v-380q-60 -26 -115 -33t-108 -7q-90 0 -160 29t-118 81t-73 123t-25 155q0 83 24 154t71 122.5t116.5 81t160.5 29.5q57 0 106 -6.5t98 -24.5l-20 -51q-46 19 -91 25t-93 6q-78 0 -135.5 -27t-96 -73t-57.5 -107t-19 -129q0 -69 20 -130.5t60 -107
t99 -72.5t137 -27q45 0 83 4t72 17v296zM469 771l-77 107l-75 -107h-73l107 147h83l107 -147h-72z" />
    <glyph glyph-name="gcircumflex" unicode="&#x11d;" horiz-adv-x="645" 
d="M493 54h-6q-29 -46 -79.5 -71.5t-109.5 -25.5q-57 0 -102 20.5t-75.5 58t-46.5 89.5t-16 113t16.5 112.5t47.5 89t76.5 58t103.5 20.5q60 0 107 -23.5t77 -68.5h5v79h64v-535q0 -58 -19 -101.5t-53 -72.5t-81.5 -43.5t-104.5 -14.5q-40 0 -87.5 6t-85.5 19l14 51
q38 -14 78.5 -20t80.5 -6q99 0 147.5 50t48.5 141v75zM490 294q0 37 -15 68.5t-40 55t-58 37t-68 13.5q-45 0 -80 -17.5t-59 -48t-36.5 -73t-12.5 -91.5q0 -50 11.5 -92t35 -73t58 -48.5t79.5 -17.5q36 0 69.5 13.5t59 38t41 58t15.5 72.5v105zM399 602l-77 107l-75 -107
h-73l107 146h84l106 -146h-72z" />
    <glyph glyph-name="Gbreve" unicode="&#x11e;" horiz-adv-x="753" 
d="M595 305h-197v52h261v-380q-60 -26 -115 -33t-108 -7q-90 0 -160 29t-118 81t-73 123t-25 155q0 83 24 154t71 122.5t116.5 81t160.5 29.5q57 0 106 -6.5t98 -24.5l-20 -51q-46 19 -91 25t-93 6q-78 0 -135.5 -27t-96 -73t-57.5 -107t-19 -129q0 -69 20 -130.5t60 -107
t99 -72.5t137 -27q45 0 83 4t72 17v296zM540 874q-11 -50 -53 -77t-99 -27q-56 0 -98 27t-53 77h56q6 -26 33 -40.5t62 -14.5t62.5 14.5t33.5 40.5h56z" />
    <glyph glyph-name="gbreve" unicode="&#x11f;" horiz-adv-x="645" 
d="M493 54h-6q-29 -46 -79.5 -71.5t-109.5 -25.5q-57 0 -102 20.5t-75.5 58t-46.5 89.5t-16 113t16.5 112.5t47.5 89t76.5 58t103.5 20.5q60 0 107 -23.5t77 -68.5h5v79h64v-535q0 -58 -19 -101.5t-53 -72.5t-81.5 -43.5t-104.5 -14.5q-40 0 -87.5 6t-85.5 19l14 51
q38 -14 78.5 -20t80.5 -6q99 0 147.5 50t48.5 141v75zM490 294q0 37 -15 68.5t-40 55t-58 37t-68 13.5q-45 0 -80 -17.5t-59 -48t-36.5 -73t-12.5 -91.5q0 -50 11.5 -92t35 -73t58 -48.5t79.5 -17.5q36 0 69.5 13.5t59 38t41 58t15.5 72.5v105zM470 705q-11 -50 -54 -77
t-99 -27t-98 26.5t-53 77.5h55q7 -26 34 -41t62 -15t63 15t33 41h57z" />
    <glyph glyph-name="Gdotaccent" unicode="&#x120;" horiz-adv-x="753" 
d="M595 305h-197v52h261v-380q-60 -26 -115 -33t-108 -7q-90 0 -160 29t-118 81t-73 123t-25 155q0 83 24 154t71 122.5t116.5 81t160.5 29.5q57 0 106 -6.5t98 -24.5l-20 -51q-46 19 -91 25t-93 6q-78 0 -135.5 -27t-96 -73t-57.5 -107t-19 -129q0 -69 20 -130.5t60 -107
t99 -72.5t137 -27q45 0 83 4t72 17v296zM450 833q0 -23 -18 -39.5t-44 -16.5t-43 16.5t-17 39.5q0 24 17 40.5t43 16.5t44 -16.5t18 -40.5z" />
    <glyph glyph-name="gdotaccent" unicode="&#x121;" horiz-adv-x="645" 
d="M493 54h-6q-29 -46 -79.5 -71.5t-109.5 -25.5q-57 0 -102 20.5t-75.5 58t-46.5 89.5t-16 113t16.5 112.5t47.5 89t76.5 58t103.5 20.5q60 0 107 -23.5t77 -68.5h5v79h64v-535q0 -58 -19 -101.5t-53 -72.5t-81.5 -43.5t-104.5 -14.5q-40 0 -87.5 6t-85.5 19l14 51
q38 -14 78.5 -20t80.5 -6q99 0 147.5 50t48.5 141v75zM490 294q0 37 -15 68.5t-40 55t-58 37t-68 13.5q-45 0 -80 -17.5t-59 -48t-36.5 -73t-12.5 -91.5q0 -50 11.5 -92t35 -73t58 -48.5t79.5 -17.5q36 0 69.5 13.5t59 38t41 58t15.5 72.5v105zM384 670q0 -23 -18 -39
t-44 -16t-43 16t-17 39q0 24 17 40.5t43 16.5t44 -16.5t18 -40.5z" />
    <glyph glyph-name="uni0122" unicode="&#x122;" horiz-adv-x="753" 
d="M595 305h-197v52h261v-380q-60 -26 -115 -33t-108 -7q-90 0 -160 29t-118 81t-73 123t-25 155q0 83 24 154t71 122.5t116.5 81t160.5 29.5q57 0 106 -6.5t98 -24.5l-20 -51q-46 19 -91 25t-93 6q-78 0 -135.5 -27t-96 -73t-57.5 -107t-19 -129q0 -69 20 -130.5t60 -107
t99 -72.5t137 -27q45 0 83 4t72 17v296zM383 -320q20 14 40.5 38t28.5 50q6 21 3 30t-20 9q-7 0 -13.5 1t-11.5 3q-12 5 -21.5 17t-9.5 32q0 26 17 40.5t40 14.5q28 0 48 -21.5t20 -55.5q0 -28 -9 -56.5t-24 -50.5q-16 -22 -34 -39t-35 -26z" />
    <glyph glyph-name="uni0123" unicode="&#x123;" horiz-adv-x="645" 
d="M493 54h-6q-29 -46 -79.5 -71.5t-109.5 -25.5q-57 0 -102 20.5t-75.5 58t-46.5 89.5t-16 113t16.5 112.5t47.5 89t76.5 58t103.5 20.5q60 0 107 -23.5t77 -68.5h5v79h64v-535q0 -58 -19 -101.5t-53 -72.5t-81.5 -43.5t-104.5 -14.5q-40 0 -87.5 6t-85.5 19l14 51
q38 -14 78.5 -20t80.5 -6q99 0 147.5 50t48.5 141v75zM490 294q0 37 -15 68.5t-40 55t-58 37t-68 13.5q-45 0 -80 -17.5t-59 -48t-36.5 -73t-12.5 -91.5q0 -50 11.5 -92t35 -73t58 -48.5t79.5 -17.5q36 0 69.5 13.5t59 38t41 58t15.5 72.5v105zM366 814q-20 -14 -40.5 -38
t-28.5 -50q-7 -21 -3.5 -30t20.5 -9q6 0 13 -1t12 -3q11 -5 21 -17t10 -32q0 -26 -17 -40.5t-40 -14.5q-28 0 -48 21.5t-20 55.5q0 28 8.5 56.5t24.5 50.5t33.5 39t35.5 26z" />
    <glyph glyph-name="Hcircumflex" unicode="&#x124;" horiz-adv-x="736" 
d="M575 -50v360h-412v-360h-65v750h65v-338h412v338h64v-750h-64zM445 768l-75 104l-74 -104h-78l110 149h84l110 -149h-77z" />
    <glyph glyph-name="hcircumflex" unicode="&#x125;" horiz-adv-x="632" 
d="M484 -50v342q0 40 -7.5 72.5t-25.5 55.5t-47.5 35.5t-72.5 12.5q-33 0 -64.5 -11t-56 -34.5t-39.5 -60.5t-15 -89v-323h-64v774h64v-295h5q28 45 78 67t105 22q97 0 150.5 -55.5t53.5 -148.5v-364h-64zM418 771l-75 107l-76 -107h-72l106 147h83l107 -147h-73z" />
    <glyph glyph-name="Hbar" unicode="&#x126;" horiz-adv-x="736" 
d="M575 -50v360h-412v-360h-65v581h-96v53h96v116h65v-116h412v116h64v-116h98v-53h-98v-581h-64zM575 531h-412v-169h412v169z" />
    <glyph glyph-name="hbar" unicode="&#x127;" horiz-adv-x="632" 
d="M484 -50v342q0 40 -7.5 72.5t-25.5 55.5t-47.5 35.5t-72.5 12.5q-33 0 -64.5 -11t-56 -34.5t-39.5 -60.5t-15 -89v-323h-64v614h-82v55h82v105h64v-105h246v-55h-246v-135h5q28 45 78 67t105 22q97 0 150.5 -55.5t53.5 -148.5v-364h-64z" />
    <glyph glyph-name="Itilde" unicode="&#x128;" horiz-adv-x="261" 
d="M98 -50v750h65v-750h-65zM281 871q-1 -49 -26 -75.5t-63 -26.5q-29 0 -44.5 10t-26.5 22q-10 8 -20 15.5t-20 7.5q-16 0 -27 -13.5t-12 -39.5h-51q1 49 25.5 75.5t62.5 26.5q28 0 44.5 -9.5t27.5 -19.5q13 -11 21.5 -16.5t17.5 -5.5q17 0 27.5 11.5t11.5 37.5h52z" />
    <glyph glyph-name="itilde" unicode="&#x129;" horiz-adv-x="248" 
d="M92 -50v555h64v-555h-64zM270 711q-1 -49 -25.5 -75t-63.5 -26q-29 0 -44 9.5t-28 21.5q-11 11 -19.5 17.5t-18.5 6.5q-17 0 -27.5 -14t-11.5 -39h-53q1 48 26.5 75t63.5 27q27 0 43.5 -10t27.5 -20q13 -11 21.5 -16t17.5 -5q17 0 27.5 11t11.5 37h52z" />
    <glyph glyph-name="Imacron" unicode="&#x12a;" horiz-adv-x="261" 
d="M98 -50v750h65v-750h-65zM-20 783v57h300v-57h-300z" />
    <glyph glyph-name="imacron" unicode="&#x12b;" horiz-adv-x="248" 
d="M92 -50v555h64v-555h-64zM-28 616v53h303v-53h-303z" />
    <glyph glyph-name="Ibreve" unicode="&#x12c;" horiz-adv-x="261" 
d="M98 -50v750h65v-750h-65zM282 874q-11 -50 -53 -77t-99 -27q-28 0 -53 7t-45 20.5t-34 32.5t-20 44h56q6 -26 33.5 -40.5t62.5 -14.5t62.5 14.5t34.5 40.5h55z" />
    <glyph glyph-name="ibreve" unicode="&#x12d;" horiz-adv-x="248" 
d="M92 -50v555h64v-555h-64zM275 705q-11 -51 -53 -77.5t-98 -26.5q-57 0 -99 26.5t-53 77.5h56q5 -26 33 -41t63 -15t62 15t33 41h56z" />
    <glyph glyph-name="Iogonek" unicode="&#x12e;" horiz-adv-x="261" 
d="M226 -236q-13 -9 -29.5 -15t-27.5 -7q-55 -3 -84.5 27t-24.5 84q1 12 5.5 25.5t10.5 26.5t14 25t17 20h-9v750h65v-750h-10q-19 -16 -31 -43.5t-10 -53.5q3 -46 41 -53q11 -2 26 1t29 10z" />
    <glyph glyph-name="iogonek" unicode="&#x12f;" horiz-adv-x="248" 
d="M219 -236q-12 -9 -28.5 -15t-27.5 -7q-55 -3 -85 27t-24 84q1 12 5.5 25.5t10.5 26.5t14 25t17 20h-9v555h64v-555h-9q-19 -16 -31 -43.5t-10 -53.5q3 -46 41 -53q11 -2 26 1t29 10zM180 666q0 -23 -16 -38t-39 -15t-39 15t-16 38q0 22 16 38t39 16t39 -16t16 -38z" />
    <glyph glyph-name="Idotaccent" unicode="&#x130;" horiz-adv-x="261" 
d="M98 -50v750h65v-750h-65zM192 833q0 -23 -18 -39.5t-44 -16.5t-43 16.5t-17 39.5q0 24 17 40.5t43 16.5t44 -16.5t18 -40.5z" />
    <glyph glyph-name="dotlessi" unicode="&#x131;" horiz-adv-x="248" 
d="M92 -50v555h64v-555h-64z" />
    <glyph glyph-name="IJ" unicode="&#x132;" horiz-adv-x="579" 
d="M98 -50v750h65v-750h-65zM428 700h64v-598q0 -34 -6.5 -63.5t-23 -51.5t-45 -35.5t-73.5 -14.5q-15 -1 -39.5 0t-41.5 3v51q18 -2 36.5 -2.5t29.5 -0.5q54 0 76.5 28.5t22.5 87.5v596z" />
    <glyph glyph-name="ij" unicode="&#x133;" horiz-adv-x="497" 
d="M180 666q0 -23 -16 -38t-39 -15t-39 15t-16 38q0 22 16 38t39 16t39 -16t16 -38zM92 -50v555h64v-555h-64zM430 666q0 -23 -16 -38t-39 -15t-39.5 15t-16.5 38q0 22 16.5 38t39.5 16t39 -16t16 -38zM207 -202q15 -2 26 -2.5t19 -0.5q51 0 70.5 26.5t19.5 89.5v594h64
v-606q0 -154 -146 -154q-12 0 -24 0.5t-29 3.5v49z" />
    <glyph glyph-name="Jcircumflex" unicode="&#x134;" horiz-adv-x="318" 
d="M168 700h64v-598q0 -34 -6.5 -63.5t-23 -51.5t-45.5 -35.5t-74 -14.5q-14 -1 -39 0t-42 3v51q19 -2 37 -2.5t29 -0.5q54 0 77 28.5t23 87.5v596zM278 771l-76 107l-75 -107h-73l107 147h82l107 -147h-72z" />
    <glyph glyph-name="jcircumflex" unicode="&#x135;" horiz-adv-x="249" 
d="M-41 -202q14 -2 25.5 -2.5t19.5 -0.5q51 0 70.5 26.5t19.5 89.5v594h64v-606q0 -78 -36 -116t-111 -38q-11 0 -23.5 0.5t-28.5 3.5v49zM201 602l-75 107l-77 -107h-72l106 146h84l107 -146h-73z" />
    <glyph glyph-name="uni0136" unicode="&#x136;" horiz-adv-x="614" 
d="M531 -50l-258 394l-111 -132v-262h-64v750h64l2 -400l329 400h80l-260 -309l297 -441h-79zM280 -320q20 14 40.5 38t28.5 50q6 21 3 30t-20 9q-7 0 -13.5 1t-11.5 3q-12 5 -21.5 17t-9.5 32q0 26 17 40.5t40 14.5q28 0 48 -21.5t20 -55.5q0 -28 -9 -56.5t-24 -50.5
q-16 -22 -34 -39t-35 -26z" />
    <glyph glyph-name="uni0137" unicode="&#x137;" horiz-adv-x="524" 
d="M450 -50l-207 295l-87 -88v-207h-64v772h64v-489l261 271h84l-215 -216l242 -338h-78zM238 -320q20 14 40.5 38t28.5 50q6 21 2.5 30t-20.5 9q-6 0 -12.5 1t-11.5 3q-12 5 -21.5 17t-9.5 32q0 26 17 40.5t39 14.5q29 0 48.5 -21.5t19.5 -55.5q0 -28 -8.5 -56.5
t-24.5 -50.5q-15 -22 -33 -39t-36 -26z" />
    <glyph glyph-name="kgreenlandic" unicode="&#x138;" horiz-adv-x="524" 
d="M450 -50l-207 295l-87 -88v-207h-64v554h64v-271l261 271h84l-215 -216l242 -338h-78z" />
    <glyph glyph-name="Lacute" unicode="&#x139;" horiz-adv-x="529" 
d="M98 -50v750h65v-699h355v-51h-420zM165 771l76 147h105l-119 -147h-62z" />
    <glyph glyph-name="lacute" unicode="&#x13a;" horiz-adv-x="248" 
d="M93 -50v772h63v-772h-63zM77 771l76 147h106l-120 -147h-62z" />
    <glyph glyph-name="uni013B" unicode="&#x13b;" horiz-adv-x="529" 
d="M98 -50v750h65v-699h355v-51h-420zM300 -320q19 14 40 38t29 50q6 21 2.5 30t-20.5 9q-6 0 -12.5 1t-11.5 3q-12 5 -21.5 17t-9.5 32q0 26 16.5 40.5t39.5 14.5q28 0 48 -21.5t20 -55.5q0 -28 -8.5 -56.5t-24.5 -50.5q-15 -22 -33 -39t-36 -26z" />
    <glyph glyph-name="uni013C" unicode="&#x13c;" horiz-adv-x="248" 
d="M93 -50v772h63v-772h-63zM71 -320q20 14 40.5 38t28.5 50q6 21 3 30t-20 9q-7 0 -13.5 1t-11.5 3q-12 5 -21.5 17t-9.5 32q0 26 17 40.5t40 14.5q28 0 48 -21.5t20 -55.5q0 -28 -9 -56.5t-24 -50.5q-16 -22 -34 -39t-35 -26z" />
    <glyph glyph-name="Lcaron" unicode="&#x13d;" horiz-adv-x="529" 
d="M98 -50v750h65v-699h355v-51h-420zM408 489q20 14 40.5 38t28.5 50q6 21 2.5 30t-20.5 9q-6 0 -12.5 1t-11.5 3q-12 5 -21.5 17t-9.5 32q0 26 17 40.5t39 14.5q28 0 48 -21.5t20 -55.5q0 -28 -8.5 -56.5t-24.5 -50.5q-15 -22 -33 -39t-36 -26z" />
    <glyph glyph-name="lcaron" unicode="&#x13e;" horiz-adv-x="557" 
d="M93 -50v772h63v-772h-63zM304 489q20 14 40.5 38t28.5 50q6 21 2.5 30t-20.5 9q-6 0 -12.5 1t-11.5 3q-12 5 -21.5 17t-9.5 32q0 26 17 40.5t39 14.5q28 0 48 -21.5t20 -55.5q0 -28 -8.5 -56.5t-24.5 -50.5q-15 -22 -33 -39t-36 -26z" />
    <glyph glyph-name="Ldot" unicode="&#x13f;" horiz-adv-x="529" 
d="M98 -50v750h65v-699h355v-51h-420zM434 317q0 -28 -19.5 -45.5t-51.5 -17.5q-29 0 -47.5 18t-18.5 45q0 29 19 46.5t51 17.5q29 0 48 -18t19 -46z" />
    <glyph glyph-name="ldot" unicode="&#x140;" horiz-adv-x="534" 
d="M93 -50v772h63v-772h-63zM458 318q0 -28 -19 -45.5t-52 -17.5q-29 0 -47.5 18t-18.5 45q0 29 19 46.5t51 17.5q30 0 48.5 -18t18.5 -46z" />
    <glyph glyph-name="Lslash" unicode="&#x141;" horiz-adv-x="529" 
d="M98 -50v328l-93 -82v74l93 83v347h65v-289l161 145v-75l-161 -145v-335h355v-51h-420z" />
    <glyph glyph-name="lslash" unicode="&#x142;" horiz-adv-x="248" 
d="M93 -50v336l-87 -73v69l87 73v367h63v-314l89 75v-68l-89 -76v-389h-63z" />
    <glyph glyph-name="Nacute" unicode="&#x143;" horiz-adv-x="744" 
d="M556 -50l-391 673h-5v-673h-62v750h86l395 -673h4v673h63v-750h-90zM316 771l76 147h105l-119 -147h-62z" />
    <glyph glyph-name="nacute" unicode="&#x144;" horiz-adv-x="632" 
d="M484 -50v342q0 39 -8 71.5t-26 55.5t-47 36t-72 13q-33 0 -64 -11t-56 -34.5t-40 -60.5t-15 -89v-323h-64v555h61v-77h4q28 42 77.5 66t109.5 24q97 0 150.5 -55.5t53.5 -148.5v-364h-64zM265 602l77 146h105l-120 -146h-62z" />
    <glyph glyph-name="uni0145" unicode="&#x145;" horiz-adv-x="744" 
d="M556 -50l-391 673h-5v-673h-62v750h86l395 -673h4v673h63v-750h-90zM355 -320q20 14 40.5 38t28.5 50q7 21 3.5 30t-20.5 9q-6 0 -13 1t-12 3q-11 5 -21 17t-10 32q0 26 17 40.5t40 14.5q28 0 48 -21.5t20 -55.5q0 -28 -9 -56.5t-24 -50.5q-16 -22 -33.5 -39t-35.5 -26z
" />
    <glyph glyph-name="uni0146" unicode="&#x146;" horiz-adv-x="632" 
d="M484 -50v342q0 39 -8 71.5t-26 55.5t-47 36t-72 13q-33 0 -64 -11t-56 -34.5t-40 -60.5t-15 -89v-323h-64v555h61v-77h4q28 42 77.5 66t109.5 24q97 0 150.5 -55.5t53.5 -148.5v-364h-64zM290 -320q20 14 40.5 38t28.5 50q7 21 3.5 30t-20.5 9q-6 0 -13 1t-12 3
q-11 5 -21 17t-10 32q0 26 17 40.5t40 14.5q28 0 48 -21.5t20 -55.5q0 -28 -8.5 -56.5t-24.5 -50.5t-33.5 -39t-35.5 -26z" />
    <glyph glyph-name="Ncaron" unicode="&#x147;" horiz-adv-x="744" 
d="M556 -50l-391 673h-5v-673h-62v750h86l395 -673h4v673h63v-750h-90zM330 771l-108 147h74l76 -108q20 27 37.5 54t37.5 54h73l-107 -147h-83z" />
    <glyph glyph-name="ncaron" unicode="&#x148;" horiz-adv-x="632" 
d="M484 -50v342q0 39 -8 71.5t-26 55.5t-47 36t-72 13q-33 0 -64 -11t-56 -34.5t-40 -60.5t-15 -89v-323h-64v555h61v-77h4q28 42 77.5 66t109.5 24q97 0 150.5 -55.5t53.5 -148.5v-364h-64zM298 602l-107 146h73l76 -108q20 27 37.5 54t37.5 54h73l-107 -146h-83z" />
    <glyph glyph-name="napostrophe" unicode="&#x149;" horiz-adv-x="717" 
d="M569 -50v342q0 39 -8 71.5t-26 55.5t-47.5 36t-72.5 13q-32 0 -63.5 -11t-56.5 -34.5t-40 -60.5t-15 -89v-323h-64v555h62v-77h3q28 42 77.5 66t109.5 24q97 0 150.5 -55.5t53.5 -148.5v-364h-63zM56 535q19 14 40 38t29 50q6 21 2.5 30t-20.5 9q-6 0 -13 1t-12 3
q-11 5 -21 17t-10 32q0 26 17 40.5t40 14.5q28 0 48 -21.5t20 -55.5q0 -28 -8.5 -56.5t-24.5 -50.5q-15 -22 -33 -39t-36 -26z" />
    <glyph glyph-name="Eng" unicode="&#x14a;" horiz-adv-x="744" 
d="M284 16q26 -20 52.5 -28t61.5 -8q81 0 132 45t70 132q15 70 15 155q0 52 -5 101t-16 93q-21 83 -77.5 123t-132.5 40q-43 0 -82.5 -15.5t-70 -40t-49 -55t-18.5 -61.5v-547h-67v750h67v-83q46 48 102 72.5t122 24.5q38 0 80 -12.5t80 -38.5t69 -66t47 -95
q10 -37 15.5 -88t5.5 -97q0 -44 -4.5 -88t-12.5 -80q-14 -51 -40.5 -91t-61 -67t-75.5 -41t-84 -14q-42 0 -78.5 8t-69.5 25z" />
    <glyph glyph-name="eng" unicode="&#x14b;" horiz-adv-x="632" 
d="M349 -163q15 -2 26 -2.5t19 -0.5q51 0 70.5 26.5t19.5 89.5v342q0 39 -8 71.5t-26 55.5t-47 36t-72 13q-33 0 -64 -11t-56 -34.5t-40 -60.5t-15 -89v-323h-64v555h61v-77h4q28 42 77.5 66t109.5 24q97 0 150.5 -55.5t53.5 -148.5v-376q0 -78 -35.5 -116t-110.5 -38
q-12 0 -24 0.5t-29 3.5v49z" />
    <glyph glyph-name="Omacron" unicode="&#x14c;" horiz-adv-x="804" 
d="M403 -63q-81 0 -144 29t-106.5 80.5t-66.5 122.5t-23 155t23 155.5t67 123.5t107 81t143 28q81 0 144 -29t106.5 -80t66 -122.5t22.5 -156.5t-23 -156t-66.5 -122.5t-106.5 -80t-143 -28.5zM403 -12q69 0 120.5 26.5t85.5 72.5t51 107t17 130t-17.5 130.5t-52 107.5
t-85.5 72.5t-119 26.5t-119.5 -27t-86.5 -73t-52.5 -107.5t-17.5 -129.5q0 -66 16.5 -125.5t51.5 -105.5q33 -47 84.5 -76t123.5 -29zM251 785v53h306v-53h-306z" />
    <glyph glyph-name="omacron" unicode="&#x14d;" horiz-adv-x="634" 
d="M318 -63q-62 0 -110.5 20.5t-81.5 59t-50.5 92.5t-17.5 120t17.5 119t50.5 91t81.5 58.5t110.5 20.5q61 0 109.5 -20.5t82 -58.5t51 -91t17.5 -119t-18 -120t-51.5 -92t-81.5 -59t-109 -21zM318 -13q49 0 86 18.5t61.5 50.5t36.5 76.5t12 96.5t-12 95.5t-36.5 75.5
t-61.5 50t-86 18q-50 0 -87 -18.5t-61.5 -50.5t-36.5 -75.5t-12 -94.5t12 -95.5t36 -77t61 -51t88 -18.5zM170 616v53h306v-53h-306z" />
    <glyph glyph-name="Obreve" unicode="&#x14e;" horiz-adv-x="804" 
d="M403 -63q-81 0 -144 29t-106.5 80.5t-66.5 122.5t-23 155t23 155.5t67 123.5t107 81t143 28q81 0 144 -29t106.5 -80t66 -122.5t22.5 -156.5t-23 -156t-66.5 -122.5t-106.5 -80t-143 -28.5zM403 -12q69 0 120.5 26.5t85.5 72.5t51 107t17 130t-17.5 130.5t-52 107.5
t-85.5 72.5t-119 26.5t-119.5 -27t-86.5 -73t-52.5 -107.5t-17.5 -129.5q0 -66 16.5 -125.5t51.5 -105.5q33 -47 84.5 -76t123.5 -29zM556 874q-10 -50 -52 -77t-99 -27q-28 0 -53 7t-45 20.5t-34 32.5t-20 44h56q6 -26 33.5 -40.5t62.5 -14.5t62.5 14.5t33.5 40.5h55z" />
    <glyph glyph-name="obreve" unicode="&#x14f;" horiz-adv-x="634" 
d="M318 -63q-62 0 -110.5 20.5t-81.5 59t-50.5 92.5t-17.5 120t17.5 119t50.5 91t81.5 58.5t110.5 20.5q61 0 109.5 -20.5t82 -58.5t51 -91t17.5 -119t-18 -120t-51.5 -92t-81.5 -59t-109 -21zM318 -13q49 0 86 18.5t61.5 50.5t36.5 76.5t12 96.5t-12 95.5t-36.5 75.5
t-61.5 50t-86 18q-50 0 -87 -18.5t-61.5 -50.5t-36.5 -75.5t-12 -94.5t12 -95.5t36 -77t61 -51t88 -18.5zM472 705q-11 -50 -54 -77t-99 -27t-98 26.5t-53 77.5h56q6 -26 33 -41t62 -15t63 15t33 41h57z" />
    <glyph glyph-name="Ohungarumlaut" unicode="&#x150;" horiz-adv-x="804" 
d="M403 -63q-81 0 -144 29t-106.5 80.5t-66.5 122.5t-23 155t23 155.5t67 123.5t107 81t143 28q81 0 144 -29t106.5 -80t66 -122.5t22.5 -156.5t-23 -156t-66.5 -122.5t-106.5 -80t-143 -28.5zM403 -12q69 0 120.5 26.5t85.5 72.5t51 107t17 130t-17.5 130.5t-52 107.5
t-85.5 72.5t-119 26.5t-119.5 -27t-86.5 -73t-52.5 -107.5t-17.5 -129.5q0 -66 16.5 -125.5t51.5 -105.5q33 -47 84.5 -76t123.5 -29zM271 771l76 147h105l-119 -147h-62zM452 771l77 147h105l-120 -147h-62z" />
    <glyph glyph-name="ohungarumlaut" unicode="&#x151;" horiz-adv-x="634" 
d="M318 -63q-62 0 -110.5 20.5t-81.5 59t-50.5 92.5t-17.5 120t17.5 119t50.5 91t81.5 58.5t110.5 20.5q61 0 109.5 -20.5t82 -58.5t51 -91t17.5 -119t-18 -120t-51.5 -92t-81.5 -59t-109 -21zM318 -13q49 0 86 18.5t61.5 50.5t36.5 76.5t12 96.5t-12 95.5t-36.5 75.5
t-61.5 50t-86 18q-50 0 -87 -18.5t-61.5 -50.5t-36.5 -75.5t-12 -94.5t12 -95.5t36 -77t61 -51t88 -18.5zM178 602l77 146h105l-120 -146h-62zM360 602l77 146h105l-121 -146h-61z" />
    <glyph glyph-name="OE" unicode="&#x152;" horiz-adv-x="893" 
d="M495 -50v124q-27 -64 -72.5 -100.5t-112.5 -36.5q-60 0 -105.5 29t-77 80.5t-48 122.5t-16.5 155t16 155.5t47.5 123.5t78 81t105.5 28q68 -1 113 -37t72 -100v125h338v-52h-273v-286h249v-52h-249v-309h283v-51h-348zM310 -12q43 0 76.5 26.5t57 72.5t35.5 107t12 130
t-12.5 130.5t-35.5 107.5t-56.5 72.5t-76.5 26.5t-77 -27t-57.5 -73t-36 -107.5t-12.5 -129.5q0 -60 12 -120t35 -108t57 -78t79 -30z" />
    <glyph glyph-name="oe" unicode="&#x153;" horiz-adv-x="1019" 
d="M933 -40q-38 -12 -77.5 -17t-84.5 -5q-94 0 -153 38t-89 101q-29 -66 -84.5 -103t-136.5 -37q-62 0 -108.5 20.5t-78 59t-47.5 92.5t-16 120t15.5 119t47 91t78.5 58.5t109 20.5q81 0 136 -35.5t84 -99.5q28 61 82 98.5t132 37.5q61 0 104.5 -19t71 -54t40 -84t12.5 -109
v-36h-408q1 -47 14 -88.5t38.5 -73t65 -49.5t94.5 -18q38 0 74.5 5t74.5 17zM308 -13q49 0 84.5 18.5t57.5 50.5t32.5 76.5t10.5 96.5t-10.5 95.5t-33 75.5t-57.5 50t-84 18q-50 0 -85.5 -18.5t-58 -50.5t-33 -75.5t-10.5 -94.5t10 -95.5t32.5 -77t58 -51t86.5 -18.5z
M907 266q0 2 1 6.5t-1 6.5q-1 90 -42 140t-123 50q-47 0 -79.5 -17t-54.5 -45.5t-33 -65t-14 -75.5h346z" />
    <glyph glyph-name="Racute" unicode="&#x154;" horiz-adv-x="658" 
d="M565 -50q-9 13 -17.5 31.5t-13.5 41.5l-42 158q-9 35 -21 58t-32 37t-48.5 20t-70.5 6h-157v-352h-65v750h252q53 0 97 -11t75 -34.5t48 -60.5t17 -89q0 -72 -38.5 -116.5t-99.5 -59.5v-3q38 -13 64 -43.5t41 -91.5l40 -158q6 -22 16 -43t23 -40h-68zM336 353
q88 0 137 37t50 112q0 45 -14.5 73.5t-39.5 44.5t-58.5 22t-70.5 6h-177v-295h173zM279 771l76 147h105l-120 -147h-61z" />
    <glyph glyph-name="racute" unicode="&#x155;" horiz-adv-x="359" 
d="M92 -50v555h61v-73h5q21 42 63 64t92 22h41l-2 -52q-13 2 -24 2h-22q-68 0 -109 -49t-41 -144v-325h-64zM159 602l77 146h105l-121 -146h-61z" />
    <glyph glyph-name="uni0156" unicode="&#x156;" horiz-adv-x="658" 
d="M565 -50q-9 13 -17.5 31.5t-13.5 41.5l-42 158q-9 35 -21 58t-32 37t-48.5 20t-70.5 6h-157v-352h-65v750h252q53 0 97 -11t75 -34.5t48 -60.5t17 -89q0 -72 -38.5 -116.5t-99.5 -59.5v-3q38 -13 64 -43.5t41 -91.5l40 -158q6 -22 16 -43t23 -40h-68zM336 353
q88 0 137 37t50 112q0 45 -14.5 73.5t-39.5 44.5t-58.5 22t-70.5 6h-177v-295h173zM278 -320q20 14 40.5 38t28.5 50q6 21 3 30t-20 9q-7 0 -13.5 1t-11.5 3q-12 5 -21.5 17t-9.5 32q0 26 17 40.5t40 14.5q28 0 48 -21.5t20 -55.5q0 -28 -9 -56.5t-24 -50.5q-16 -22 -34 -39
t-35 -26z" />
    <glyph glyph-name="uni0157" unicode="&#x157;" horiz-adv-x="359" 
d="M92 -50v555h61v-73h5q21 42 63 64t92 22h41l-2 -52q-13 2 -24 2h-22q-68 0 -109 -49t-41 -144v-325h-64zM71 -320q20 14 40.5 38t28.5 50q6 21 3 30t-20 9q-7 0 -13.5 1t-11.5 3q-12 5 -21.5 17t-9.5 32q0 26 17 40.5t40 14.5q28 0 48 -21.5t20 -55.5q0 -28 -9 -56.5
t-24 -50.5q-16 -22 -34 -39t-35 -26z" />
    <glyph glyph-name="Rcaron" unicode="&#x158;" horiz-adv-x="658" 
d="M565 -50q-9 13 -17.5 31.5t-13.5 41.5l-42 158q-9 35 -21 58t-32 37t-48.5 20t-70.5 6h-157v-352h-65v750h252q53 0 97 -11t75 -34.5t48 -60.5t17 -89q0 -72 -38.5 -116.5t-99.5 -59.5v-3q38 -13 64 -43.5t41 -91.5l40 -158q6 -22 16 -43t23 -40h-68zM336 353
q88 0 137 37t50 112q0 45 -14.5 73.5t-39.5 44.5t-58.5 22t-70.5 6h-177v-295h173zM286 771l-107 147h73l77 -108q19 27 37 54t38 54h73l-107 -147h-84z" />
    <glyph glyph-name="rcaron" unicode="&#x159;" horiz-adv-x="359" 
d="M92 -50v555h61v-73h5q21 42 63 64t92 22h41l-2 -52q-13 2 -24 2h-22q-68 0 -109 -49t-41 -144v-325h-64zM190 602l-108 146h74l76 -108q19 27 37 54t38 54h73l-107 -146h-83z" />
    <glyph glyph-name="Sacute" unicode="&#x15a;" horiz-adv-x="572" 
d="M64 31q48 -21 102 -32t105 -11q40 0 73.5 9t58 27t38 45.5t13.5 64.5q0 33 -14 58.5t-40 46.5t-62.5 38.5t-80.5 34.5q-47 19 -84 39t-62.5 45t-39 55.5t-13.5 71.5q0 50 21.5 86t56 59t77.5 33.5t87 10.5q50 0 95 -6t93 -23l-17 -53q-45 17 -87.5 24t-84.5 7
q-34 0 -66 -7.5t-56.5 -24t-39.5 -42t-15 -61.5q0 -59 43.5 -96t128.5 -68q51 -19 93 -39.5t71 -46.5t45 -59.5t16 -78.5q0 -53 -20 -91t-54.5 -62.5t-79.5 -36t-95 -11.5q-57 0 -116.5 10t-107.5 31zM264 771l76 147h105l-120 -147h-61z" />
    <glyph glyph-name="sacute" unicode="&#x15b;" horiz-adv-x="487" 
d="M66 21q39 -17 83.5 -25.5t85.5 -8.5q63 0 98 24.5t35 76.5q0 23 -10.5 41t-30 32.5t-46.5 26.5t-60 24q-75 27 -117.5 63.5t-42.5 94.5q0 38 17 66t44 46t61 27t69 9q41 0 80.5 -7t76.5 -21l-18 -48q-32 14 -68.5 20t-70.5 6q-24 0 -47 -4.5t-40.5 -15.5t-28.5 -28.5
t-11 -44.5q0 -44 31.5 -68t96.5 -47q39 -14 71.5 -29t56.5 -34.5t37.5 -45t13.5 -60.5q0 -41 -16 -70.5t-43 -48t-63 -27t-76 -8.5q-48 0 -97 9t-88 26zM208 602l76 146h105l-119 -146h-62z" />
    <glyph glyph-name="Scircumflex" unicode="&#x15c;" horiz-adv-x="572" 
d="M64 31q48 -21 102 -32t105 -11q40 0 73.5 9t58 27t38 45.5t13.5 64.5q0 33 -14 58.5t-40 46.5t-62.5 38.5t-80.5 34.5q-47 19 -84 39t-62.5 45t-39 55.5t-13.5 71.5q0 50 21.5 86t56 59t77.5 33.5t87 10.5q50 0 95 -6t93 -23l-17 -53q-45 17 -87.5 24t-84.5 7
q-34 0 -66 -7.5t-56.5 -24t-39.5 -42t-15 -61.5q0 -59 43.5 -96t128.5 -68q51 -19 93 -39.5t71 -46.5t45 -59.5t16 -78.5q0 -53 -20 -91t-54.5 -62.5t-79.5 -36t-95 -11.5q-57 0 -116.5 10t-107.5 31zM385 771l-75 107l-76 -107h-72l107 147h82l107 -147h-73z" />
    <glyph glyph-name="scircumflex" unicode="&#x15d;" horiz-adv-x="487" 
d="M66 21q39 -17 83.5 -25.5t85.5 -8.5q63 0 98 24.5t35 76.5q0 23 -10.5 41t-30 32.5t-46.5 26.5t-60 24q-75 27 -117.5 63.5t-42.5 94.5q0 38 17 66t44 46t61 27t69 9q41 0 80.5 -7t76.5 -21l-18 -48q-32 14 -68.5 20t-70.5 6q-24 0 -47 -4.5t-40.5 -15.5t-28.5 -28.5
t-11 -44.5q0 -44 31.5 -68t96.5 -47q39 -14 71.5 -29t56.5 -34.5t37.5 -45t13.5 -60.5q0 -41 -16 -70.5t-43 -48t-63 -27t-76 -8.5q-48 0 -97 9t-88 26zM329 602l-76 107l-76 -107h-72l107 146h83l107 -146h-73z" />
    <glyph glyph-name="Scedilla" unicode="&#x15e;" horiz-adv-x="572" 
d="M188 -208q8 -2 25 -3.5t31 -1.5q30 0 53 9t23 31q0 14 -17.5 19t-62.5 6l30 85q-57 0 -116.5 10t-107.5 31l18 53q48 -21 102 -32t105 -11q40 0 73.5 9t58 27t38 45.5t13.5 64.5q0 33 -14 58.5t-40 46.5t-62.5 38.5t-80.5 34.5q-47 19 -84 39t-62.5 45t-39 55.5
t-13.5 71.5q0 50 21.5 86t56 59t77.5 33.5t87 10.5q50 0 95 -6t93 -23l-17 -53q-45 17 -87.5 24t-84.5 7q-34 0 -66 -7.5t-56.5 -24t-39.5 -42t-15 -61.5q0 -59 43.5 -96t128.5 -68q51 -19 93 -39.5t71 -46.5t45 -59.5t16 -78.5t-14.5 -79t-40 -58t-60 -38.5t-74.5 -20.5
l-17 -56q86 -11 86 -60q0 -22 -12.5 -37.5t-32.5 -26t-45.5 -15.5t-52.5 -5q-20 0 -42 3.5t-39 9.5z" />
    <glyph glyph-name="scedilla" unicode="&#x15f;" horiz-adv-x="487" 
d="M153 -208q8 -2 25 -3.5t31 -1.5q30 0 53 9t23 31q0 14 -17.5 19t-62.5 6l30 85h-1q-48 0 -97 9t-88 26l17 49q39 -17 83.5 -25.5t85.5 -8.5q63 0 98 24.5t35 76.5q0 23 -10.5 41t-30 32.5t-46.5 26.5t-60 24q-75 27 -117.5 63.5t-42.5 94.5q0 38 17 66t44 46t61 27t69 9
q41 0 80.5 -7t76.5 -21l-18 -48q-32 14 -68.5 20t-70.5 6q-24 0 -47 -4.5t-40.5 -15.5t-28.5 -28.5t-11 -44.5q0 -44 31.5 -68t96.5 -47q39 -14 71.5 -29t56.5 -34.5t37.5 -45t13.5 -60.5q0 -33 -10.5 -58t-29 -43t-43.5 -29.5t-54 -17.5l-17 -57q86 -11 86 -60
q0 -22 -12.5 -37.5t-33 -26t-46 -15.5t-51.5 -5q-20 0 -42 3.5t-39 9.5z" />
    <glyph glyph-name="Scaron" unicode="&#x160;" horiz-adv-x="572" 
d="M64 31q48 -21 102 -32t105 -11q40 0 73.5 9t58 27t38 45.5t13.5 64.5q0 33 -14 58.5t-40 46.5t-62.5 38.5t-80.5 34.5q-47 19 -84 39t-62.5 45t-39 55.5t-13.5 71.5q0 50 21.5 86t56 59t77.5 33.5t87 10.5q50 0 95 -6t93 -23l-17 -53q-45 17 -87.5 24t-84.5 7
q-34 0 -66 -7.5t-56.5 -24t-39.5 -42t-15 -61.5q0 -59 43.5 -96t128.5 -68q51 -19 93 -39.5t71 -46.5t45 -59.5t16 -78.5q0 -53 -20 -91t-54.5 -62.5t-79.5 -36t-95 -11.5q-57 0 -116.5 10t-107.5 31zM259 771l-108 147h74l75 -108l76 108h72l-107 -147h-82z" />
    <glyph glyph-name="scaron" unicode="&#x161;" horiz-adv-x="487" 
d="M66 21q39 -17 83.5 -25.5t85.5 -8.5q63 0 98 24.5t35 76.5q0 23 -10.5 41t-30 32.5t-46.5 26.5t-60 24q-75 27 -117.5 63.5t-42.5 94.5q0 38 17 66t44 46t61 27t69 9q41 0 80.5 -7t76.5 -21l-18 -48q-32 14 -68.5 20t-70.5 6q-24 0 -47 -4.5t-40.5 -15.5t-28.5 -28.5
t-11 -44.5q0 -44 31.5 -68t96.5 -47q39 -14 71.5 -29t56.5 -34.5t37.5 -45t13.5 -60.5q0 -41 -16 -70.5t-43 -48t-63 -27t-76 -8.5q-48 0 -97 9t-88 26zM212 602l-107 146h72l76 -108q20 27 38 54t38 54h73l-107 -146h-83z" />
    <glyph glyph-name="uni0162" unicode="&#x162;" horiz-adv-x="568" 
d="M171 -208q8 -2 24.5 -3.5t31.5 -1.5q30 0 53 9t23 31q0 14 -18 19t-63 6l34 98h-1v698h-245v52h548v-52h-239v-698h-4l-19 -64q85 -11 85 -60q0 -22 -12.5 -37.5t-32.5 -26t-45.5 -15.5t-51.5 -5q-20 0 -42 3.5t-39 9.5z" />
    <glyph glyph-name="uni0163" unicode="&#x163;" horiz-adv-x="351" 
d="M108 -208q8 -2 24.5 -3.5t31.5 -1.5q30 0 53 9t23 31q0 14 -18 19t-62 6l32 97q-41 11 -57 42.5t-16 89.5v374h-108v50h108v138h64v-138h139v-50h-139v-370q0 -29 4 -47t13 -28.5t24.5 -14t39.5 -3.5q22 0 34 1t27 3v-48q-15 -2 -35 -3.5t-41 -1.5l-16 -57q85 -11 85 -60
q0 -22 -12.5 -37.5t-32.5 -26t-45.5 -15.5t-51.5 -5q-20 0 -42 3.5t-39 9.5z" />
    <glyph glyph-name="Tcaron" unicode="&#x164;" horiz-adv-x="568" 
d="M255 -50v698h-245v52h548v-52h-239v-698h-64zM246 771l-107 147h73l75 -108l77 108h72l-107 -147h-83z" />
    <glyph glyph-name="tcaron" unicode="&#x165;" horiz-adv-x="660" 
d="M325 -52q-15 -2 -35 -3.5t-41 -1.5q-74 0 -102 32t-28 106v374h-108v50h108v138h64v-138h139v-50h-139v-370q0 -29 4 -47t13 -28.5t24.5 -14t39.5 -3.5q22 0 34 1t27 3v-48zM407 535q20 14 40.5 38t28.5 50q6 21 2.5 30t-20.5 9q-6 0 -12.5 1t-11.5 3q-12 5 -21.5 17
t-9.5 32q0 26 17 40.5t39 14.5q28 0 48 -21.5t20 -55.5q0 -28 -8.5 -56.5t-24.5 -50.5q-15 -22 -33 -39t-36 -26z" />
    <glyph glyph-name="Tbar" unicode="&#x166;" horiz-adv-x="568" 
d="M255 -50v343h-185v56h185v299h-245v52h548v-52h-239v-299h183v-56h-183v-343h-64z" />
    <glyph glyph-name="tbar" unicode="&#x167;" horiz-adv-x="351" 
d="M325 -52q-15 -2 -35 -3.5t-41 -1.5q-74 0 -102 32t-28 106v148h-98v56h98v170h-108v50h108v138h64v-138h139v-50h-139v-170h152v-56h-152v-144q0 -29 4 -47t13 -28.5t24.5 -14t39.5 -3.5q22 0 34 1t27 3v-48z" />
    <glyph glyph-name="Utilde" unicode="&#x168;" horiz-adv-x="730" 
d="M581 700h65v-511q0 -53 -17 -99t-52 -80t-88 -53.5t-125 -19.5t-125 20t-87.5 54t-51 80t-16.5 98v511h64v-506q0 -94 53 -150t163 -56q57 0 98 16t67.5 43.5t39 65t12.5 81.5v506zM509 871q-1 -49 -25.5 -75.5t-63.5 -26.5q-29 0 -44 10t-28 22q-10 11 -18.5 17t-19.5 6
q-17 0 -27.5 -13.5t-11.5 -39.5h-52q1 49 25.5 75.5t63.5 26.5q27 0 44 -9.5t28 -19.5q12 -11 20.5 -16.5t17.5 -5.5q17 0 27.5 11.5t11.5 37.5h52z" />
    <glyph glyph-name="utilde" unicode="&#x169;" horiz-adv-x="632" 
d="M479 -50v75h-3q-29 -42 -78 -65t-109 -23q-48 0 -86.5 14.5t-64.5 41.5t-40 64.5t-14 83.5v364h64v-343q0 -39 8 -71.5t26 -56t47.5 -36t73.5 -12.5q33 0 64.5 11t55.5 35t39 61t15 88v324h64v-555h-62zM459 701q-1 -49 -25.5 -75t-62.5 -26q-29 0 -44.5 10t-27.5 21
q-11 11 -19 17.5t-19 6.5q-17 0 -28 -14t-12 -39h-51q1 49 25.5 75.5t63.5 26.5q27 0 43.5 -10t28.5 -20q11 -10 19.5 -15.5t18.5 -5.5q17 0 27.5 11t11.5 37h51z" />
    <glyph glyph-name="Umacron" unicode="&#x16a;" horiz-adv-x="730" 
d="M581 700h65v-511q0 -53 -17 -99t-52 -80t-88 -53.5t-125 -19.5t-125 20t-87.5 54t-51 80t-16.5 98v511h64v-506q0 -94 53 -150t163 -56q57 0 98 16t67.5 43.5t39 65t12.5 81.5v506zM211 785v53h306v-53h-306z" />
    <glyph glyph-name="umacron" unicode="&#x16b;" horiz-adv-x="632" 
d="M479 -50v75h-3q-29 -42 -78 -65t-109 -23q-48 0 -86.5 14.5t-64.5 41.5t-40 64.5t-14 83.5v364h64v-343q0 -39 8 -71.5t26 -56t47.5 -36t73.5 -12.5q33 0 64.5 11t55.5 35t39 61t15 88v324h64v-555h-62zM162 616v53h306v-53h-306z" />
    <glyph glyph-name="Ubreve" unicode="&#x16c;" horiz-adv-x="730" 
d="M581 700h65v-511q0 -53 -17 -99t-52 -80t-88 -53.5t-125 -19.5t-125 20t-87.5 54t-51 80t-16.5 98v511h64v-506q0 -94 53 -150t163 -56q57 0 98 16t67.5 43.5t39 65t12.5 81.5v506zM516 874q-11 -50 -52.5 -77t-98.5 -27t-99 27t-53 77h56q6 -26 33.5 -40.5t62.5 -14.5
t62 14.5t33 40.5h56z" />
    <glyph glyph-name="ubreve" unicode="&#x16d;" horiz-adv-x="632" 
d="M479 -50v75h-3q-29 -42 -78 -65t-109 -23q-48 0 -86.5 14.5t-64.5 41.5t-40 64.5t-14 83.5v364h64v-343q0 -39 8 -71.5t26 -56t47.5 -36t73.5 -12.5q33 0 64.5 11t55.5 35t39 61t15 88v324h64v-555h-62zM467 705q-11 -50 -53.5 -77t-98.5 -27q-57 0 -98.5 26.5
t-52.5 77.5h55q7 -26 34 -41t62 -15t62.5 15t33.5 41h56z" />
    <glyph glyph-name="Uring" unicode="&#x16e;" horiz-adv-x="730" 
d="M581 700h65v-511q0 -53 -17 -99t-52 -80t-88 -53.5t-125 -19.5t-125 20t-87.5 54t-51 80t-16.5 98v511h64v-506q0 -94 53 -150t163 -56q57 0 98 16t67.5 43.5t39 65t12.5 81.5v506zM465 834q0 -37 -28 -63.5t-72 -26.5q-45 0 -72.5 26.5t-27.5 63.5q0 38 28 64.5t72 26.5
q22 0 40 -7t31.5 -19.5t21 -29t7.5 -35.5zM365 777q24 0 38 17.5t14 39.5q0 23 -14 40.5t-38 17.5t-38.5 -17.5t-14.5 -40.5q0 -22 14.5 -39.5t38.5 -17.5z" />
    <glyph glyph-name="uring" unicode="&#x16f;" horiz-adv-x="632" 
d="M479 -50v75h-3q-29 -42 -78 -65t-109 -23q-48 0 -86.5 14.5t-64.5 41.5t-40 64.5t-14 83.5v364h64v-343q0 -39 8 -71.5t26 -56t47.5 -36t73.5 -12.5q33 0 64.5 11t55.5 35t39 61t15 88v324h64v-555h-62zM415 665q0 -37 -27.5 -64t-72.5 -27t-72.5 27t-27.5 64
q0 38 28 64.5t72 26.5t72 -26.5t28 -64.5zM315 608q24 0 38.5 17t14.5 40t-14.5 40t-38.5 17t-38 -17t-14 -40t14 -40t38 -17z" />
    <glyph glyph-name="Uhungarumlaut" unicode="&#x170;" horiz-adv-x="730" 
d="M581 700h65v-511q0 -53 -17 -99t-52 -80t-88 -53.5t-125 -19.5t-125 20t-87.5 54t-51 80t-16.5 98v511h64v-506q0 -94 53 -150t163 -56q57 0 98 16t67.5 43.5t39 65t12.5 81.5v506zM237 771l77 147h105l-120 -147h-62zM419 771l76 147h107l-121 -147h-62z" />
    <glyph glyph-name="uhungarumlaut" unicode="&#x171;" horiz-adv-x="632" 
d="M479 -50v75h-3q-29 -42 -78 -65t-109 -23q-48 0 -86.5 14.5t-64.5 41.5t-40 64.5t-14 83.5v364h64v-343q0 -39 8 -71.5t26 -56t47.5 -36t73.5 -12.5q33 0 64.5 11t55.5 35t39 61t15 88v324h64v-555h-62zM194 602l77 146h105l-121 -146h-61zM376 602l76 146h105l-119 -146
h-62z" />
    <glyph glyph-name="Uogonek" unicode="&#x172;" horiz-adv-x="730" 
d="M456 -236q-12 -9 -28.5 -15t-27.5 -7q-55 -3 -85 27t-25 84q2 20 13 44.5t25 41.5h-3q-62 5 -107 26.5t-75 55t-44.5 76.5t-14.5 92v511h64v-506q0 -94 53 -150t163 -56q57 0 98 16t67.5 43.5t39 65t12.5 81.5v506h65v-511q0 -52 -17 -97.5t-51 -79t-85.5 -54
t-120.5 -21.5h-1q-14 -17 -22 -40t-6 -44q3 -46 41 -53q11 -2 26 1t29 10z" />
    <glyph glyph-name="uogonek" unicode="&#x173;" horiz-adv-x="632" 
d="M598 -236q-12 -9 -28.5 -15t-27.5 -7q-55 -3 -85 27t-24 84q1 12 5.5 25.5t10.5 26.5t14 25t17 20h-1v75h-3q-29 -42 -78 -65t-109 -23q-48 0 -86.5 14.5t-64.5 41.5t-40 64.5t-14 83.5v364h64v-343q0 -39 8 -71.5t26 -56t47.5 -36t73.5 -12.5q33 0 64.5 11t55.5 35
t39 61t15 88v324h64v-555h-15q-19 -16 -31 -43.5t-10 -53.5q3 -46 41 -53q11 -2 26 1t29 10z" />
    <glyph glyph-name="Wcircumflex" unicode="&#x174;" horiz-adv-x="976" 
d="M661 -50l-174 680h-2l-169 -680h-80l-197 750h69l167 -667h4l166 667h85l169 -667h4l165 667h69l-197 -750h-79zM563 771l-75 107l-76 -107h-72l107 147h82l108 -147h-74z" />
    <glyph glyph-name="wcircumflex" unicode="&#x175;" horiz-adv-x="822" 
d="M557 -49l-145 484l-148 -484h-70l-173 553h68l141 -484l144 484h75l146 -484l139 484h67l-173 -553h-71zM491 602l-76 107l-75 -107h-73l107 146h83l107 -146h-73z" />
    <glyph glyph-name="Ycircumflex" unicode="&#x176;" horiz-adv-x="629" 
d="M282 -50v310l-279 440h77l236 -383l239 383h72l-281 -440v-310h-64zM391 771l-76 107l-75 -107h-73l107 147h83l108 -147h-74z" />
    <glyph glyph-name="ycircumflex" unicode="&#x177;" horiz-adv-x="518" 
d="M138 -258l91 216l-228 547h70l193 -473l185 473h69l-312 -763h-68zM337 602l-76 107l-76 -107h-73l107 146h83l107 -146h-72z" />
    <glyph glyph-name="Ydieresis" unicode="&#x178;" horiz-adv-x="629" 
d="M282 -50v310l-279 440h77l236 -383l239 383h72l-281 -440v-310h-64zM279 834q0 -22 -17 -37.5t-42 -15.5q-24 0 -40.5 15.5t-16.5 37.5q0 23 16.5 38.5t40.5 15.5q25 0 42 -15.5t17 -38.5zM469 834q0 -22 -17.5 -37.5t-41.5 -15.5q-25 0 -41.5 15.5t-16.5 37.5
q0 23 16.5 38.5t41.5 15.5q24 0 41.5 -15.5t17.5 -38.5z" />
    <glyph glyph-name="Zacute" unicode="&#x179;" horiz-adv-x="602" 
d="M40 -50v51l441 647h-406v52h481v-52l-444 -647h452v-51h-524zM246 771l77 147h105l-120 -147h-62z" />
    <glyph glyph-name="zacute" unicode="&#x17a;" horiz-adv-x="512" 
d="M43 -50v50l340 455h-318v50h391v-50l-339 -456h352v-49h-426zM208 602l77 146h105l-120 -146h-62z" />
    <glyph glyph-name="Zdotaccent" unicode="&#x17b;" horiz-adv-x="602" 
d="M40 -50v51l441 647h-406v52h481v-52l-444 -647h452v-51h-524zM370 833q0 -23 -18 -39.5t-44 -16.5t-43.5 16.5t-17.5 39.5q0 24 17.5 40.5t43.5 16.5t44 -16.5t18 -40.5z" />
    <glyph glyph-name="zdotaccent" unicode="&#x17c;" horiz-adv-x="512" 
d="M43 -50v50l340 455h-318v50h391v-50l-339 -456h352v-49h-426zM323 670q0 -23 -17.5 -39t-43.5 -16t-43.5 16t-17.5 39q0 24 17.5 40.5t43.5 16.5t43.5 -16.5t17.5 -40.5z" />
    <glyph glyph-name="Zcaron" unicode="&#x17d;" horiz-adv-x="602" 
d="M40 -50v51l441 647h-406v52h481v-52l-444 -647h452v-51h-524zM268 771l-107 147h73l75 -108l76 108h72l-107 -147h-82z" />
    <glyph glyph-name="zcaron" unicode="&#x17e;" horiz-adv-x="512" 
d="M43 -50v50l340 455h-318v50h391v-50l-339 -456h352v-49h-426zM220 602l-107 146h73l76 -108l76 108h72l-107 -146h-83z" />
    <glyph glyph-name="longs" unicode="&#x17f;" horiz-adv-x="339" 
d="M128 -50v600q0 39 8.5 71t28 54.5t51.5 35t78 12.5q26 0 46 -2t40 -7l-6 -49q-23 5 -42 6.5t-37 1.5q-57 0 -80 -31t-23 -103v-589h-64z" />
    <glyph glyph-name="caron" unicode="&#x2c7;" 
d="M470 621q-10 -9 -22 0l-209 156q-18 15 -8 19.5t32 -6.5l195 -94l197 95q22 11 31.5 6.5t-9.5 -19.5z" />
    <glyph glyph-name="uni02D0" unicode="&#x2d0;" horiz-adv-x="463" 
d="M130 584h193l-94 -165zM130 112l99 165l94 -165h-193z" />
    <glyph glyph-name="breve" unicode="&#x2d8;" 
d="M685 782q-42 -63 -92 -92t-121 -32q-77 -4 -133.5 24.5t-102.5 94.5l39 23q38 -53 84 -76t108 -21q57 2 97.5 23.5t77.5 70.5z" />
    <glyph glyph-name="dotaccent" unicode="&#x2d9;" 
d="M529 735q0 -13 -6 -25t-16 -21t-22.5 -14t-25.5 -5q-29 0 -48 20.5t-19 46.5q0 13 5.5 24.5t15 20t22 13.5t25.5 5q27 0 48 -19.5t21 -45.5z" />
    <glyph glyph-name="ring" unicode="&#x2da;" 
d="M569 701q0 -20 -8.5 -38t-23 -31t-34.5 -20.5t-42 -7.5q-45 0 -75 28t-30 69t30 69t75 28q22 0 42 -7.5t34.5 -20.5t23 -31t8.5 -38zM531 701q0 26 -20.5 44.5t-49.5 18.5q-28 0 -48 -18.5t-20 -44.5t20 -44.5t48 -18.5q29 0 49.5 18.5t20.5 44.5z" />
    <glyph glyph-name="ogonek" unicode="&#x2db;" horiz-adv-x="463" 
d="M341 -236q-13 -9 -29.5 -15t-27.5 -7q-55 -3 -84.5 27t-24.5 84q1 12 5.5 25.5t11 26.5t14.5 25t16 20q6 5 11.5 9t12.5 6q5 2 10 2t9 -2q3 -2 5 -7.5t-1 -7.5q-20 -16 -31.5 -43.5t-9.5 -53.5q3 -46 41 -53q11 -2 25.5 1t28.5 10z" />
    <glyph glyph-name="hungarumlaut" unicode="&#x2dd;" 
d="M442 789q4 4 12 7t17 3.5t16.5 -1t11.5 -7.5q8 -13 7.5 -27t-8.5 -20q-16 -14 -47.5 -31t-64.5 -32t-59 -25t-32 -11q-8 -1 0 7q16 15 35 33.5t38.5 37t38.5 36t35 30.5zM620 789q4 4 11.5 7t16.5 3.5t17 -1t12 -7.5q8 -13 7.5 -27t-8.5 -20q-17 -14 -48.5 -31t-64 -32
t-58.5 -25t-32 -11q-8 -1 0 7q16 15 35 33.5t38.5 37t38.5 36t35 30.5z" />
    <glyph glyph-name="Alpha" unicode="&#x391;" 
d="M700 -64l-24 202h-398l-143 -202h-68l516 738h98l84 -738h-65zM621 638l-308 -444h357z" />
    <glyph glyph-name="Beta" unicode="&#x392;" 
d="M122 -65l224 739l221 -1q55 -1 92 -13.5t63 -40.5q22 -23 32.5 -51.5t10.5 -60.5q0 -65 -41 -109.5t-134 -79.5q76 -26 112.5 -71t36.5 -113q0 -45 -18.5 -85t-48.5 -64q-29 -24 -71 -37t-96 -13h-383zM511 354q38 0 72 11.5t59.5 31t40.5 46t15 56.5q0 54 -38 86.5
t-98 32.5h-163l-83 -264h195zM505 -9q78 0 124 39t46 105q0 34 -12.5 64t-34.5 52.5t-52 35t-65 12.5h-207l-95 -308h296z" />
    <glyph glyph-name="Gamma" unicode="&#x393;" 
d="M131 -64l196 737h411l43 -132l-59 -21l-29 84h-316l-179 -668h-67z" />
    <glyph glyph-name="uni0394" unicode="&#x394;" 
d="M718 606l-558 -616h559zM47 -64l669 737h73v-737h-742z" />
    <glyph glyph-name="Epsilon" unicode="&#x395;" 
d="M117 -62l230 735h443l-16 -52h-378l-89 -278h365l-17 -51h-362l-101 -302h403l-15 -52h-463z" />
    <glyph glyph-name="Zeta" unicode="&#x396;" 
d="M128 -63l11 54l550 623h-414l19 57h493l-14 -55l-555 -622h449l-14 -57h-525z" />
    <glyph glyph-name="Eta" unicode="&#x397;" 
d="M592 -61l95 349h-448l-93 -349h-64l200 735h63l-89 -334h444l90 334h61l-198 -735h-61z" />
    <glyph glyph-name="Theta" unicode="&#x398;" 
d="M642 9q-47 -37 -102 -56t-122 -19q-282 0 -282 266q0 85 29 176.5t83 168.5q89 128 265 128q34 0 67.5 -6t63.5 -16.5t54.5 -25.5t42.5 -33q61 -62 61 -184q0 -57 -12 -115t-33.5 -110.5t-51 -97.5t-63.5 -76zM621 74q27 27 49 66.5t37.5 85t24 94t8.5 95.5
q0 69 -22.5 110.5t-73.5 67.5q-56 28 -130 28q-68 0 -116 -22.5t-87 -73.5q-54 -68 -83 -152.5t-29 -173.5q0 -71 17.5 -112.5t61.5 -67.5q26 -15 62 -23t78 -8q127 0 203 86zM554 225l13 56h-226l-14 -56h-25l39 157h23l-15 -56h231l13 56h25l-38 -157h-26z" />
    <glyph glyph-name="Iota" unicode="&#x399;" 
d="M327 -65l210 739h62l-208 -739h-64z" />
    <glyph glyph-name="Kappa" unicode="&#x39a;" 
d="M614 -63l-296 337l-95 -337h-64l200 735h62l-93 -336l394 336h76l-437 -372l326 -363h-73z" />
    <glyph glyph-name="Lambda" unicode="&#x39b;" 
d="M620 -63l1 669l-456 -669h-63l492 735h91l-1 -735h-64z" />
    <glyph glyph-name="Mu" unicode="&#x39c;" 
d="M602 -64l171 685l-350 -685h-74l-42 680l-175 -680h-66l188 736h116l34 -650l318 650h133l-186 -736h-67z" />
    <glyph glyph-name="Nu" unicode="&#x39d;" 
d="M526 -63l-180 680l-185 -680h-62l200 735h98l178 -690l191 690h63l-205 -735h-98z" />
    <glyph glyph-name="Xi" unicode="&#x39e;" 
d="M698 556l12 57h-330l-18 -57h-48l31 118h426l-30 -118h-43zM274 280l17 61h376l-17 -61h-376zM158 -65l31 118h45l-15 -57h393l17 57h45l-32 -118h-484z" />
    <glyph glyph-name="Omicron" unicode="&#x39f;" 
d="M634 35q-37 -52 -88.5 -75.5t-120.5 -23.5q-131 0 -204.5 61t-73.5 169q0 82 25 169.5t71 169.5q26 45 53.5 77t59 51.5t68.5 28.5t81 9q103 0 178 -48q45 -30 67 -77t22 -119q0 -50 -9.5 -102t-27 -103t-43 -99t-58.5 -88zM640 157q17 32 30.5 68t23.5 73t15 72.5
t5 67.5q0 58 -25 97t-80 62q-26 9 -53.5 14t-50.5 5q-61 0 -104.5 -24t-78.5 -78q-24 -39 -45 -84t-36.5 -90.5t-24 -89t-8.5 -78.5q0 -39 10 -67t34 -51q59 -59 163 -59q39 0 70.5 8.5t58 27.5t50 50t46.5 76z" />
    <glyph glyph-name="Pi" unicode="&#x3a0;" 
d="M508 -66l162 690h-313l-166 -690h-62l165 690h-86l11 51h588l-15 -51h-59l-161 -690h-64z" />
    <glyph glyph-name="Rho" unicode="&#x3a1;" 
d="M166 -67l158 742h222q97 0 151 -53t54 -150q0 -57 -22.5 -105t-61.5 -75q-55 -39 -152 -39l-218 -3l-68 -317h-63zM499 304q79 0 117 27q32 21 50 60t18 87q0 144 -161 144h-148l-67 -318h191z" />
    <glyph glyph-name="Sigma" unicode="&#x3a3;" 
d="M119 -64l18 63l320 331l-184 279l22 64h459l-14 -54h-410l197 -291l-334 -338h448l-16 -54h-506z" />
    <glyph glyph-name="Tau" unicode="&#x3a4;" 
d="M305 -64l148 683h-244l16 54h518l-15 -54h-209l-146 -683h-68z" />
    <glyph glyph-name="Upsilon" unicode="&#x3a5;" 
d="M309 -64l64 371q4 27 6.5 51.5t2.5 42.5q0 84 -33 135t-107 83l22 57q50 -18 80.5 -41t54.5 -59q7 -11 13 -22.5t10 -25.5t7 -32t5 -42q26 70 60.5 109.5t87.5 67.5q38 21 74.5 29.5t89.5 12.5l-17 -68q-75 -8 -126.5 -35.5t-93.5 -83.5q-27 -37 -48 -90.5t-30 -120.5
l-61 -339h-61z" />
    <glyph glyph-name="Phi" unicode="&#x3a6;" 
d="M323 -64l16 57q-120 16 -174.5 77t-54.5 172q0 101 44.5 183.5t125.5 130.5q23 14 46.5 24t50.5 16.5t58.5 10t70.5 4.5l20 63h58l-18 -66q27 -3 47.5 -6t37 -7.5t30.5 -10t28 -13.5q51 -29 77.5 -79t26.5 -116q0 -42 -9.5 -84t-26.5 -81t-41 -73t-52 -59
q-29 -23 -58.5 -39.5t-63.5 -27t-74 -15t-89 -4.5l-17 -57h-59zM493 553q-57 -1 -100.5 -10t-79.5 -30q-31 -19 -57.5 -48.5t-45.5 -66t-29.5 -76.5t-10.5 -80q0 -85 46 -134.5t135 -58.5zM413 46q31 1 55.5 3t45 6.5t38 10.5t34.5 15q37 21 67 51.5t52 67.5t34 79t12 86
q0 87 -48.5 133t-149.5 53z" />
    <glyph glyph-name="Chi" unicode="&#x3a7;" 
d="M618 -65l-158 328l-283 -328h-70l330 377l-171 361h63l148 -310l251 310h70l-296 -365l180 -373h-64z" />
    <glyph glyph-name="Psi" unicode="&#x3a8;" 
d="M306 -67l49 224q-33 1 -58 3t-44 5.5t-34 8.5t-29 12q-36 19 -56 57t-20 86q0 31 8 73.5t28 114.5q8 37 14 62.5t6 36.5q0 36 -19 50q-10 5 -12 5q1 1 8 1q14 2 21 2.5t11 0.5h6q33 0 42 -5t9 -23q0 -11 -6 -41.5t-18 -66.5q-5 -14 -9 -32t-8.5 -36.5t-8 -36.5t-6.5 -31
q-5 -18 -7 -37.5t-2 -33.5q0 -35 8.5 -58t30 -36.5t59 -19.5t96.5 -7l99 464h63l-100 -463q79 0 126 8.5t76.5 37.5t48.5 84.5t41 148.5l20 84l15 60l1 5q3 0 3 5q7 18 21 24t52 6h25t7 -1q0 -2 -12 -17q-10 -6 -16 -15t-14 -25q-3 -8 -5.5 -15t-4.5 -13q-7 -17 -16 -53
l-21 -84q-17 -63 -32 -107t-31.5 -74t-36.5 -49t-46 -33q-29 -18 -73 -25t-113 -7h-23l-48 -224h-65z" />
    <glyph glyph-name="uni03A9" unicode="&#x3a9;" 
d="M396 -65l23 87q35 14 62 27.5t49 27.5t40.5 29.5t37.5 35.5q52 55 81.5 119.5t29.5 140.5q0 48 -16 85.5t-44.5 63t-69 39t-88.5 13.5q-60 0 -106 -23t-78 -64.5t-48.5 -98.5t-16.5 -126q0 -62 15 -111.5t44 -91.5q10 -17 19.5 -31t33.5 -37l-23 -85h-237l15 50h199
q-37 42 -61 79t-38 73.5t-19.5 76.5t-5.5 88q0 84 22.5 150t64 112.5t99 71t128.5 24.5q60 0 110 -17.5t85.5 -51t55.5 -82t20 -109.5q0 -81 -30.5 -153t-88.5 -132q-37 -37 -84 -68.5t-120 -61.5h220l-13 -50h-267z" />
    <glyph glyph-name="alpha" unicode="&#x3b1;" horiz-adv-x="669" 
d="M507 -44q-15 -5 -25.5 -6.5t-19.5 -1.5q-18 0 -29.5 4.5t-18.5 17t-11 34.5t-5 57q-31 -34 -48.5 -50.5t-34.5 -30.5q-24 -17 -55.5 -28t-59.5 -11q-33 0 -59.5 13.5t-45 37.5t-29 58t-10.5 75q0 80 28.5 156.5t78.5 130.5q70 73 155 73q66 0 100.5 -42t34.5 -123
q0 -20 -1 -53t-2 -70q24 49 38.5 81.5t24 59.5t16.5 54.5t17 66.5l59 -30q-18 -54 -33 -93.5t-31.5 -74t-38.5 -69t-53 -79.5q0 -53 6.5 -73t29.5 -20q12 0 18 1.5t23 7.5zM400 141q1 21 2 37.5t1.5 31.5t0.5 30v34q0 137 -93 137q-45 0 -80.5 -25t-69.5 -79
q-54 -86 -54 -171q0 -28 9.5 -55t25.5 -49q14 -15 31 -22.5t40 -7.5q32 0 58.5 13t57.5 42q14 14 27 28.5t25 31.5q5 6 8.5 11.5t6.5 10.5h1q1 0 3 2z" />
    <glyph glyph-name="beta" unicode="&#x3b2;" horiz-adv-x="669" 
d="M21 -176l183 647q29 105 80.5 154t129.5 49q74 0 117 -40t43 -109q0 -67 -38 -108t-127 -68q32 -14 47 -21.5t25 -15.5q23 -22 34.5 -55.5t11.5 -73.5q0 -51 -18 -96t-48.5 -78.5t-72 -52.5t-88.5 -19t-83 21.5t-75 75.5l-58 -210h-63zM298 328l10 50h37q41 0 68 9.5
t50 31.5q24 22 38.5 49.5t14.5 55.5q0 42 -29.5 68t-73.5 26q-54 0 -90 -40t-60 -121l-109 -378q29 -51 61.5 -72t78.5 -21q37 0 68.5 15t54.5 42t36 63.5t13 78.5q0 65 -34.5 104t-91.5 39h-42z" />
    <glyph glyph-name="gamma" unicode="&#x3b3;" horiz-adv-x="669" 
d="M214 -61l48 238q8 44 12.5 79t4.5 57q0 46 -27 71t-76 25q-23 0 -38.5 -4.5t-34.5 -16.5l-15 64q17 15 35 20t47 5q31 0 54 -6t40 -21t30.5 -40t24.5 -63q19 33 37.5 54t38 34t41.5 18t49 5q32 0 56 -4.5t49 -18.5l-28 -70q-22 12 -41 17t-45 5q-45 0 -71.5 -13.5
t-44.5 -46.5q-6 -12 -10.5 -22.5t-9 -25.5t-9 -37t-10.5 -56l-43 -247h-64z" />
    <glyph glyph-name="delta" unicode="&#x3b4;" horiz-adv-x="669" 
d="M606 609q-28 8 -51 10t-59 2q-50 0 -90.5 -5t-56.5 -14q-8 -4 -11 -9.5t-3 -13.5q0 -10 8.5 -21.5t31.5 -33.5q8 -8 19 -21t23 -27.5t23.5 -29t19.5 -24.5q33 -43 49.5 -85.5t16.5 -88.5q0 -53 -15.5 -103t-44.5 -92q-42 -60 -95.5 -88.5t-125.5 -28.5q-79 0 -124 44
t-45 123q0 34 7.5 70t21.5 70.5t33 65t42 51.5q30 30 74 48t89 18q2 0 21 -2.5t40 -4.5q-46 52 -74.5 86.5t-47.5 60.5q-8 11 -13.5 22t-5.5 16q0 13 16.5 25.5t46 22t71.5 15t93 5.5q34 0 61 -3.5t64 -13.5zM213 314q-17 -24 -31.5 -51t-25 -55.5t-16.5 -56t-6 -51.5
q0 -51 30.5 -81.5t80.5 -30.5q27 0 53.5 9t47.5 25q26 19 48.5 46.5t39 60t26 67t9.5 66.5q0 57 -32.5 87.5t-89.5 30.5q-80 0 -134 -66z" />
    <glyph glyph-name="epsilon" unicode="&#x3b5;" horiz-adv-x="669" 
d="M463 -32q-26 -10 -47 -16t-40.5 -9.5t-40.5 -4.5t-48 -1q-51 0 -84 8t-59 25q-26 18 -42.5 48.5t-16.5 62.5q0 59 44 103t142 68q-45 23 -62.5 47.5t-17.5 50.5q0 29 16.5 55t44.5 45t66 30t81 11q22 0 42.5 -2t42.5 -6.5t47 -11.5t57 -18l-25 -48q-32 10 -55.5 16.5
t-43 10.5t-37.5 5.5t-40 1.5q-54 0 -89.5 -25.5t-35.5 -66.5q0 -35 29 -55.5t74 -20.5h123l-18 -49h-88q-49 0 -90 -9.5t-70 -27.5t-45.5 -43t-16.5 -56q0 -48 36 -73t103 -25q21 0 40 2t40 6.5t46 12t57 19.5z" />
    <glyph glyph-name="zeta" unicode="&#x3b6;" horiz-adv-x="669" 
d="M277 -156q20 -2 30.5 -2.5t21.5 -0.5q39 0 60 14t21 45q0 30 -27 44.5t-73 20.5l-104 13q-53 6 -81 34t-24 70q1 14 4.5 29.5t12.5 35t24.5 44.5t41.5 57l274 333h-271l21 52h239q35 0 52 7.5t31 24.5l35 -52q2 -5 4.5 -10.5t2.5 -9.5q0 -8 -9.5 -15t-33.5 -10l-25 -3
l-262 -326q-43 -52 -61.5 -88.5t-18.5 -56.5q0 -30 19 -42t72 -18q26 -3 53 -6.5t47 -6.5q64 -9 94 -33.5t30 -75.5q0 -63 -39 -96.5t-109 -33.5q-13 0 -26.5 0.5t-40.5 4.5z" />
    <glyph glyph-name="eta" unicode="&#x3b7;" horiz-adv-x="669" 
d="M420 -125l77 433q4 8 4.5 16t0.5 18q0 81 -105 81q-35 0 -66 -11t-56 -29.5t-42 -44.5t-23 -56l-51 -292h-63l84 480h62l-13 -85q42 54 89.5 75.5t93.5 21.5q74 0 114 -33.5t40 -95.5v-19t-2 -14l-81 -445h-63z" />
    <glyph glyph-name="theta" unicode="&#x3b8;" horiz-adv-x="669" 
d="M225 559q32 53 84 83.5t107 30.5q81 0 124 -47t43 -141q0 -48 -10.5 -106t-29 -116.5t-43.5 -114t-54 -99.5q-39 -59 -83.5 -86.5t-98.5 -27.5q-84 0 -124.5 46.5t-40.5 143.5q0 53 9.5 112t26 117t39.5 111t51 94zM499 317q14 49 21 95t7 75q0 64 -28.5 98t-82.5 34
q-74 0 -132 -70q-26 -32 -46.5 -72t-32.5 -86q-5 -11 -10.5 -30t-10.5 -44h315zM176 271q-11 -46 -14.5 -83t-3.5 -72q0 -66 25.5 -96.5t82.5 -30.5q37 0 67.5 19.5t60.5 58.5q19 26 39.5 68t37.5 90q3 8 5.5 18.5t9.5 27.5h-310z" />
    <glyph glyph-name="iota" unicode="&#x3b9;" horiz-adv-x="433" 
d="M169 -60q-43 0 -54.5 23.5t-2.5 55.5l135 450h57l-106 -387q-9 -30 -12 -48.5t3 -29.5t22 -15t46 -4h15t13 2l-10 -47h-106z" />
    <glyph glyph-name="kappa" unicode="&#x3ba;" horiz-adv-x="669" 
d="M430 -59l-228 284l-66 -284h-66l133 535h64l-60 -227l323 227l77 -1l-343 -244l233 -290h-67z" />
    <glyph glyph-name="lambda" unicode="&#x3bb;" horiz-adv-x="669" 
d="M547 -65q-21 24 -30 38t-18 31q-15 30 -29 77.5t-25 98.5t-20.5 101.5t-22.5 101.5q-23 -11 -37.5 -20t-27 -23t-25.5 -36t-32 -59l-46 -94q-23 -44 -41.5 -77t-36.5 -58t-37 -44.5t-42 -36.5l-50 50q29 19 54 41.5t50 56t52.5 83t63.5 121.5q15 31 28 52.5t27 38t33 31
t46 32.5q-16 43 -30.5 73t-31.5 51t-38.5 36.5t-50.5 29.5l29 41q36 -16 61.5 -34t47.5 -50q32 -36 57 -100.5t48 -155.5q11 -48 21 -90.5t18 -77.5q16 -72 39.5 -119t52.5 -76z" />
    <glyph glyph-name="uni03BC" unicode="&#x3bc;" horiz-adv-x="669" 
d="M559 -47q-42 0 -67.5 17t-30.5 55q-13 -24 -28 -40.5t-33.5 -26.5t-42 -14t-53.5 -4q-117 0 -134 98l-36 -166h-63l126 599h62l-61 -293q-6 -29 -6 -56q0 -54 28 -86.5t88 -32.5q31 0 58.5 11.5t50 32.5t38 51t22.5 67l52 306h62l-58 -332q-5 -23 -7.5 -44.5t-6.5 -37.5
q0 -29 14 -40t47 -14l-9 -50h-12z" />
    <glyph glyph-name="nu" unicode="&#x3bd;" horiz-adv-x="669" 
d="M215 125l-4 27q-9 76 -15.5 125.5t-15.5 78t-23 39.5t-36 11q-16 0 -27.5 -6.5t-19.5 -23.5l-31 52q21 23 39.5 32.5t47.5 9.5q36 0 60.5 -15.5t41 -52.5t26 -99t13.5 -155q2 -38 2 -61t2 -39q2 -24 6.5 -32.5t15.5 -8.5t19.5 9t19.5 26q15 26 32 61.5t37 81.5
q6 16 14.5 37t18 44.5t19.5 47t19 44.5q10 23 22.5 44t30.5 37t42 25.5t57 9.5l-10 -65q-11 0 -16 0.5t-8 0.5q-13 0 -22 -3t-17 -13.5t-18 -31t-25 -55.5q-12 -28 -21 -50.5t-16.5 -41.5t-14 -36t-14.5 -33q-24 -58 -45.5 -97.5t-41 -64t-38 -35t-37.5 -10.5q-25 0 -41 19
t-18 64z" />
    <glyph glyph-name="xi" unicode="&#x3be;" horiz-adv-x="669" 
d="M260 -159q16 -4 25 -4.5t23 -0.5q42 0 66 13.5t24 42.5q0 25 -20 41t-66 25l-23 2l-26 4q-40 9 -62.5 16t-39.5 18q-24 14 -38 40.5t-14 58.5q0 42 24 84.5t69 74.5q26 22 55 36t76 25q-51 26 -70.5 46t-19.5 50q0 40 35.5 76.5t112.5 67.5h-139l12 44h217q21 0 41 10
t29 23l28 -37q5 -5 8 -12.5t3 -9.5q0 -1 -1 -1h-7q-14 0 -21 -0.5t-14.5 -2t-18 -4.5t-29.5 -8q-103 -29 -152 -66.5t-49 -69.5q0 -15 9 -31.5t25.5 -30t40.5 -22t53 -8.5h63l-15 -47h-72q-47 0 -89 -14.5t-73.5 -38.5t-50.5 -56.5t-19 -68.5q0 -39 26.5 -58.5t83.5 -27.5
q46 -6 78 -14.5t48 -18.5q56 -25 56 -84q0 -57 -41.5 -88.5t-110.5 -31.5q-16 0 -30 1t-35 6z" />
    <glyph glyph-name="omicron" unicode="&#x3bf;" horiz-adv-x="669" 
d="M453 10q-68 -71 -177 -71q-41 0 -74 13t-57 37t-37 59t-13 79q0 42 11.5 88t31 88t46.5 77.5t57 58.5q29 22 67 34t73 12q92 0 139.5 -45.5t47.5 -135.5q0 -39 -8.5 -79.5t-23.5 -78.5t-36 -73t-47 -63zM458 118q23 43 38.5 96.5t15.5 96.5q0 59 -33.5 91t-96.5 32
q-58 0 -101 -31t-76 -98q-22 -43 -35 -94.5t-13 -94.5q0 -58 34.5 -89.5t94.5 -31.5q55 0 96 29t76 94z" />
    <glyph glyph-name="pi" unicode="&#x3c0;" horiz-adv-x="669" 
d="M484 -62q-19 15 -30.5 33.5t-17.5 38.5t-8 41t-2 40q0 27 2 56.5t7.5 68t14 89t21.5 120.5h-229l-2 -22q-8 -66 -14 -106t-11 -67q-6 -28 -12.5 -49t-15.5 -49q-10 -31 -19 -55t-19 -44.5t-21 -40t-25 -41.5l-49 38q18 25 32.5 49.5t26 50t20.5 54t17 61.5q6 22 11 43.5
t9 47t8 57t8 73.5h-89l11 52h516l-11 -52h-83q-7 -26 -12 -45.5t-8.5 -37t-7 -33t-6.5 -33.5q-8 -52 -12.5 -90t-4.5 -71q0 -40 14 -82.5t48 -80.5z" />
    <glyph glyph-name="rho" unicode="&#x3c1;" horiz-adv-x="669" 
d="M50 -120l121 438q10 40 31 71.5t50 54t64.5 34.5t76.5 12q87 0 131.5 -47t44.5 -136q0 -67 -20.5 -126t-55 -103.5t-80.5 -70t-96 -25.5q-24 0 -43 5t-36 17.5t-33.5 33.5t-34.5 54l-57 -212h-63zM191 166q1 -59 32 -92.5t85 -33.5q42 0 75.5 20t62.5 62q29 40 44.5 89
t15.5 100q0 60 -31 90t-88 30q-60 0 -102.5 -32t-56.5 -91z" />
    <glyph glyph-name="sigma" unicode="&#x3c3;" horiz-adv-x="669" 
d="M255 -1q39 0 75 23.5t63 62t43.5 88.5t16.5 103q0 66 -27.5 102t-78.5 36q-25 0 -52 -11t-46 -29q-21 -22 -39 -51t-31.5 -61.5t-21 -67t-7.5 -65.5q0 -61 26.5 -95.5t78.5 -34.5zM535 508q-26 -8 -44 -13.5t-32 -11t-26.5 -11t-27.5 -12.5q30 -15 50 -30.5t33 -35.5
t18.5 -45t5.5 -58q0 -71 -21 -134.5t-56.5 -111.5t-82 -76t-96.5 -28q-75 0 -119 51.5t-44 146.5q0 78 28.5 150t77.5 120q21 20 55.5 41.5t84.5 44.5q15 6 30 12.5t33 13.5t40.5 15t52.5 18l15 5z" />
    <glyph glyph-name="tau" unicode="&#x3c4;" horiz-adv-x="669" 
d="M405 -51q-38 -6 -62 -8t-47 -2q-31 1 -50 15.5t-19 34.5q0 16 5 41l68 385q-37 3 -56 4t-24 1q-29 0 -53 -2.5t-53 -9.5l8 48q14 4 26.5 7.5t25.5 5t28.5 2.5t35.5 1t47.5 -1t53.5 -3l28 -7l48 -4.5t27 -1.5q9 -1 14 -1h16q25 0 44 1.5t47 9.5l-10 -53q-22 -5 -36.5 -6.5
t-38.5 -1.5q-10 0 -42 1.5t-77 6.5l-68 -375q-5 -20 -2.5 -30t13.5 -14t32.5 -3.5t54.5 1.5l26 1z" />
    <glyph glyph-name="upsilon" unicode="&#x3c5;" horiz-adv-x="669" 
d="M540 479q14 -19 21.5 -39.5t7.5 -46.5q0 -37 -13.5 -93t-42.5 -137q-23 -68 -46.5 -111t-53.5 -68.5t-69.5 -35t-94.5 -9.5q-162 0 -162 89q0 11 3 27.5t7 30.5l17 53l42 126q11 43 16 68t5 38q0 23 -7 36.5t-24 21.5l49 38q44 -30 44 -82q0 -9 -2.5 -26t-7 -37
t-10.5 -43t-14 -44l-12 -41q-14 -40 -20 -59t-7 -30q-1 -5 -1 -6t-1 -2q-2 -5 -2 -8t-2 -5q-3 -17 -4.5 -27.5t-1.5 -18.5q0 -24 23.5 -34.5t68.5 -10.5q63 0 95.5 11.5t52.5 43.5q19 23 35.5 60.5t33.5 88.5q21 75 32.5 122t11.5 73q0 22 -6.5 38t-16.5 27z" />
    <glyph glyph-name="phi" unicode="&#x3c6;" horiz-adv-x="669" 
d="M181 -143l45 142q-106 10 -158 57.5t-52 129.5q0 114 67.5 192.5t191.5 110.5l7 -54q-27 -9 -47.5 -17.5t-36.5 -18t-29.5 -20t-26.5 -24.5q-31 -33 -46 -72t-15 -90q0 -69 36 -102.5t122 -44.5l97 314q9 28 25 51.5t37 40.5t46 26t52 9q70 0 111 -49.5t41 -135.5
q0 -71 -22.5 -127t-65 -95t-104 -60t-139.5 -21h-29l-45 -142h-62zM301 45q38 1 67.5 4t53 10t43 17t37.5 25q18 16 33.5 40.5t27 52.5t17.5 58t6 59q0 57 -22.5 88.5t-64.5 31.5q-26 0 -42 -9.5t-34 -32.5q-20 -27 -33 -63z" />
    <glyph glyph-name="chi" unicode="&#x3c7;" horiz-adv-x="669" 
d="M510 -59q-27 0 -44.5 3t-29.5 10.5t-20 18.5t-15 26l-82 174l-182 -232l-75 1l240 277l-75 159q-14 30 -42.5 41.5t-57.5 11.5h-3l-7 36h80q32 0 50 -11t30 -36l71 -147l155 194h70l-203 -244l84 -192q17 -39 41 -51t56 -12l-6 -26z" />
    <glyph glyph-name="psi" unicode="&#x3c8;" horiz-adv-x="669" 
d="M226 -139l18 79q-36 0 -61.5 1.5t-44.5 4.5t-32 7t-25 10q-33 17 -51 52.5t-18 86.5q0 34 5.5 74.5t15 81t22 77.5t26.5 63q12 21 23.5 36t28.5 32l43 -40q-11 -8 -18.5 -15.5t-14 -17t-12.5 -21.5t-13 -30q-10 -26 -19 -57.5t-15.5 -63.5t-10.5 -62t-4 -53
q0 -30 8.5 -52t27.5 -33q10 -7 19.5 -11t21.5 -6.5t29 -3t43 -0.5h38l114 544h60l-115 -544q39 2 67.5 6t50.5 10.5t39 15.5t33 21q46 40 68 115.5t22 200.5q0 23 -1 35t-6 30l55 12q7 -18 9.5 -40.5t2.5 -67.5q0 -71 -14.5 -139t-36.5 -116q-23 -46 -63 -77t-100 -48
q-23 -6 -52.5 -9.5t-83.5 -8.5l-19 -79h-60z" />
    <glyph glyph-name="omega" unicode="&#x3c9;" horiz-adv-x="669" 
d="M312 279h60l-27 -160q-3 -25 3 -48t19.5 -41t31.5 -28.5t39 -10.5q31 0 56 20.5t42.5 55t27 80t9.5 95.5q0 74 -20.5 114t-58.5 54l11 44q65 -19 97 -65.5t32 -133.5q0 -74 -15 -132t-40.5 -99t-59.5 -62.5t-72 -21.5q-43 0 -81.5 25t-57.5 90q-14 -33 -31 -54.5
t-35.5 -34.5t-38.5 -18.5t-40 -5.5q-60 0 -96.5 50t-36.5 144q0 62 15.5 118t45.5 100.5t74 75.5t100 42l-8 -52q-39 -16 -70 -45.5t-52.5 -68t-33 -83.5t-11.5 -91q0 -62 19.5 -99.5t66.5 -37.5q19 0 37.5 12t34 32t27 46t16.5 55z" />
    <glyph glyph-name="uni0401" unicode="&#x401;" 
d="M207 -53v602h507v-55h-450v-197h399v-59h-399v-237h450v-54h-507zM621 663q0 -23 -17.5 -38t-39.5 -15q-19 0 -35 15t-16 38q0 24 16.5 38.5t38.5 14.5q19 0 36 -14.5t17 -38.5zM417 663q0 -23 -17.5 -38t-38.5 -15q-20 0 -37.5 15t-17.5 38q0 25 18 39t38 14t37.5 -14.5
t17.5 -38.5z" />
    <glyph glyph-name="uni0410" unicode="&#x410;" 
d="M710 -49l-88 223h-325l-91 -223h-66l286 711h72l277 -711h-65zM461 597l-147 -371h289z" />
    <glyph glyph-name="uni0411" unicode="&#x411;" 
d="M234 -55v713h385l58 -68l-37 -42l-47 54h-299v-238h169q60 0 100 -10t72 -30q41 -25 63.5 -68.5t22.5 -105.5q0 -107 -61.5 -156t-186.5 -49h-239zM473 1q97 0 142.5 36t45.5 111q0 85 -46.5 121.5t-150.5 36.5h-170v-305h179z" />
    <glyph glyph-name="uni0412" unicode="&#x412;" 
d="M216 -48v705h256q60 0 97.5 -8.5t62.5 -26.5q66 -42 66 -140q0 -54 -25 -88.5t-84 -65.5q74 -24 106.5 -63t32.5 -108q0 -106 -57.5 -155.5t-175.5 -49.5h-279zM501 357q64 0 102.5 33t38.5 94q0 58 -37.5 87.5t-105.5 29.5h-224v-244h226zM490 7q37 0 70.5 8t58 25.5
t39 45t14.5 65.5q0 34 -13 62t-36.5 47.5t-56.5 30t-73 10.5h-218v-294h215z" />
    <glyph glyph-name="uni0413" unicode="&#x413;" 
d="M284 -54v656h-73v57h459l55 -84l-40 -31l-39 58h-304v-656h-58z" />
    <glyph glyph-name="uni0414" unicode="&#x414;" 
d="M613 -49h-337q-22 -30 -41 -47t-48 -31l-39 52q25 12 42.5 25.5t29 30.5t18 40t11.5 55l2 14t1.5 15t1.5 19t2 27q1 35 2.5 70t1.5 56v329h-40v55h485v-55h-41v-616l70 -71l-45 -45zM611 606h-298v-352q0 -29 -1.5 -66t-3.5 -75q-2 -32 -5 -57t-11 -54h319v604z" />
    <glyph glyph-name="uni0415" unicode="&#x415;" 
d="M217 -53v715h499v-56h-438v-255h387v-54h-387v-294h438v-56h-499z" />
    <glyph glyph-name="uni0416" unicode="&#x416;" 
d="M752 -54q-8 21 -13 57.5t-10 104.5q-1 28 -2 44.5t-2.5 27.5t-3.5 19.5t-6 20.5q-12 39 -41.5 57t-80.5 18h-106v-349h-54v349h-123q-30 0 -51 -8t-34.5 -28.5t-20.5 -56.5t-10 -91q-2 -40 -4 -67t-4 -45.5t-5 -30.5t-6 -22h-62q7 14 11.5 27t7.5 32t5 46t4 68
q4 76 16.5 119.5t35.5 68.5q13 17 32.5 24.5t60.5 9.5q-26 29 -36.5 58t-15.5 77q-5 39 -12.5 63.5t-19.5 39t-31 20t-47 7.5v58q42 -3 71 -10.5t48.5 -25.5t30.5 -48.5t17 -77.5q8 -67 23.5 -99t48.5 -44q12 -6 24.5 -7t45.5 -2v314h54v-314q44 1 70 7t41 24t22.5 49.5
t14.5 83.5q6 44 17 72t30.5 44.5t49.5 23.5t74 10v-58q-31 -2 -51.5 -7.5t-34 -19t-21.5 -38t-14 -64.5q-3 -24 -7.5 -42.5t-11 -33.5t-16 -28t-22.5 -26q30 -5 50.5 -10.5t35 -13t24 -17.5t17.5 -24q15 -29 23 -71t11 -116q0 -29 1.5 -50.5t4 -38.5t6.5 -31.5t10 -28.5h-59
z" />
    <glyph glyph-name="uni0417" unicode="&#x417;" 
d="M426 283v60h45q73 0 116 35.5t43 103.5q0 63 -43 95.5t-127 32.5q-44 0 -79 -10.5t-62.5 -32.5t-48 -56t-36.5 -80h-35v114l28 -10q45 67 100.5 97.5t133.5 30.5q54 0 98 -13t74.5 -37t47.5 -57.5t17 -74.5q0 -27 -5.5 -48.5t-17.5 -40t-32 -35t-49 -34.5
q67 -23 98 -64.5t31 -101.5q0 -103 -61.5 -156.5t-183.5 -53.5q-83 0 -137 24t-92 75q-19 29 -29.5 61t-13.5 83h51q4 -27 8 -45.5t10 -32.5t13.5 -25.5t18.5 -23.5q60 -62 172 -62q92 0 137 37t45 109q0 63 -49.5 99.5t-140.5 36.5h-45z" />
    <glyph glyph-name="uni0418" unicode="&#x418;" 
d="M671 -65v657l-6 2l-404 -659h-65v740h55v-643l6 -2l399 645h70v-740h-55z" />
    <glyph glyph-name="uni0419" unicode="&#x419;" 
d="M668 -67v526l-4 2l-412 -528h-59v609h57v-527l5 -2l404 529h67v-609h-58zM603 719q-11 -31 -20 -50.5t-21 -35.5q-22 -26 -49.5 -35.5t-55.5 -9.5t-55.5 10.5t-49.5 38.5q-11 16 -18 33t-15 49h56q13 -36 33.5 -55t52.5 -19q59 0 89 74h53z" />
    <glyph glyph-name="uni041A" unicode="&#x41a;" 
d="M698 -55l-227 364q-24 -9 -42 -12t-41 -3h-109v-349h-56v729h56v-320h100q43 0 69 9t41 27t22.5 44t15.5 60q6 29 9.5 41.5t5.5 17.5q0 3 4 12q12 42 33.5 63.5t59.5 32.5q13 5 30 8t51 5l1 -59h-4q-31 0 -52.5 -5t-36.5 -17t-24.5 -32t-16.5 -50q-11 -43 -18.5 -71
t-15.5 -47t-17.5 -32t-24.5 -26l247 -390h-60z" />
    <glyph glyph-name="uni041B" unicode="&#x41b;" 
d="M612 -49v656h-286q-1 -34 -1.5 -57.5t-1 -40t-0.5 -26.5v-16q-1 -6 -1.5 -10.5t-0.5 -10.5t-0.5 -15t-1.5 -25q-2 -48 -4.5 -84.5t-5 -67.5t-5.5 -59t-7 -58q-9 -54 -20 -90.5t-28.5 -60t-43.5 -36t-63 -18.5l-15 61q40 5 60 17.5t31 41.5q9 20 15 46.5t12 71.5
q7 56 13.5 147t9.5 203l2 87h-72v56h548v-56h-79v-656h-55z" />
    <glyph glyph-name="uni041C" unicode="&#x41c;" 
d="M781 -64l-104 637l-7 1l-177 -638h-61l-171 636l-7 -1l-102 -635h-54l112 739h82l166 -635h7l173 635h83l115 -739h-55z" />
    <glyph glyph-name="uni041D" unicode="&#x41d;" 
d="M671 -64v373h-424v-373h-59v739h59v-314h424v314h60v-739h-60z" />
    <glyph glyph-name="uni041E" unicode="&#x41e;" 
d="M460 -64q-65 0 -117 25t-88 72.5t-55.5 116t-19.5 154.5q0 179 73 274.5t207 95.5q67 0 120.5 -25t90.5 -72.5t56.5 -116.5t19.5 -156q0 -86 -20 -154.5t-57 -116t-90 -72.5t-120 -25zM463 -3q53 0 94.5 21.5t69.5 61t42.5 96.5t14.5 129q0 145 -56.5 227.5t-164.5 82.5
q-53 0 -94 -21.5t-69 -62t-43 -98t-15 -129.5q0 -70 15 -126.5t43 -96.5t69 -62t94 -22z" />
    <glyph glyph-name="uni041F" unicode="&#x41f;" 
d="M616 -64v680h-312v-680h-54v680h-89v59h594v-59h-84v-680h-55z" />
    <glyph glyph-name="uni0420" unicode="&#x420;" 
d="M215 -63v737l296 -1q111 0 168 -51.5t57 -154.5q0 -203 -225 -203l-238 -1v-326h-58zM511 320q81 0 123 37t42 108q0 150 -164 150h-239v-295h238z" />
    <glyph glyph-name="uni0421" unicode="&#x421;" 
d="M745 204q-5 -31 -10.5 -56t-13.5 -46t-18 -39t-24 -34q-38 -43 -94.5 -68t-119.5 -25q-66 0 -120.5 26t-92.5 75t-59 118t-21 155q0 82 21.5 149.5t61 115t95.5 73.5t124 26q36 0 71.5 -9t66.5 -25t56.5 -39.5t43.5 -51.5q15 -28 22.5 -55t10.5 -70h-60q-5 35 -9.5 53
t-14.5 36q-26 49 -75.5 76.5t-111.5 27.5q-57 0 -102 -21t-76.5 -60.5t-48 -95.5t-16.5 -126q0 -80 21 -147.5t58 -108.5q58 -63 155 -63q53 0 99 21t73 58q20 27 30.5 54.5t17.5 75.5h60z" />
    <glyph glyph-name="uni0422" unicode="&#x422;" 
d="M430 -64v681h-237v58h534v-58h-236v-681h-61z" />
    <glyph glyph-name="uni0423" unicode="&#x423;" 
d="M445 167l-258 508h66l222 -444l175 444h65l-250 -621q-8 -21 -14 -36t-11 -25t-9.5 -17t-9.5 -13q-27 -32 -76 -32q-15 0 -30.5 2t-38.5 10v69q22 -7 34 -9t26 -2q23 0 36 10.5t25 40.5z" />
    <glyph glyph-name="uni0424" unicode="&#x424;" 
d="M432 -65v72q-38 1 -66.5 5.5t-52 12t-44 19t-41.5 28.5q-51 39 -78 98t-27 130q0 75 30 141t82 104q19 15 39 25.5t43.5 18t51.5 12.5t63 8v66h56v-66q39 -2 68.5 -6.5t54 -13t45 -20.5t40.5 -28q48 -38 74 -100t26 -137t-27 -136t-75 -98q-20 -17 -40.5 -28t-44.5 -18.5
t-53.5 -11.5t-67.5 -5v-72h-56zM489 58q61 5 99 20.5t70 38.5q39 29 61 79t22 112q0 117 -61.5 180t-190.5 66v-496zM433 551q-65 -2 -102.5 -17t-68.5 -39q-40 -32 -61 -80t-21 -107q0 -60 22.5 -109.5t65.5 -80.5q16 -12 32 -21.5t35.5 -17t43 -13t54.5 -8.5v493z" />
    <glyph glyph-name="uni0425" unicode="&#x425;" 
d="M686 -64l-227 330l-231 -330h-72l265 379l-249 362h71l216 -309l213 309h74l-251 -361l266 -380h-75z" />
    <glyph glyph-name="uni0426" unicode="&#x426;" 
d="M706 -140l-74 76h-466v57h73v684h58v-684h319v684h59v-688l79 -87z" />
    <glyph glyph-name="uni0427" unicode="&#x427;" 
d="M611 -66v349q-39 -51 -86.5 -72t-109.5 -21q-134 0 -183 79q-8 13 -13.5 27.5t-8.5 34t-4.5 45.5t-1.5 62v236h56v-248q0 -42 5 -73t17 -51q17 -26 52.5 -40t81.5 -14q100 0 147.5 48t47.5 148v230h56v-740h-56z" />
    <glyph glyph-name="uni0428" unicode="&#x428;" 
d="M115 -65v56h71v685h56v-685h191v685h57v-685h186v685h56v-685h68v-56h-685z" />
    <glyph glyph-name="uni0429" unicode="&#x429;" 
d="M750 -140l-48 76h-595v56h60v685h56v-685h210v685h57v-685h205v685h56v-711l43 -71z" />
    <glyph glyph-name="uni042A" unicode="&#x42a;" 
d="M550 -10q85 0 125 36.5t40 111.5q0 79 -39 123.5t-113 44.5h-239v-316h226zM266 -66v685h-133v56h191v-314h238q108 0 160.5 -52.5t52.5 -163.5q0 -108 -50.5 -159.5t-155.5 -51.5h-303z" />
    <glyph glyph-name="uni042B" unicode="&#x42b;" 
d="M166 -61v734h57v-311h159q100 0 155 -56t55 -158q0 -103 -53.5 -155.5t-156.5 -52.5zM361 -5q86 0 128.5 40.5t42.5 116.5q0 74 -43 114.5t-128 40.5h-138v-312h138zM695 -61v734h57v-734h-57z" />
    <glyph glyph-name="uni042C" unicode="&#x42c;" 
d="M241 -66v742h59v-314h236q214 0 214 -211q0 -62 -18 -108.5t-50 -71.5q-25 -19 -58.5 -28t-87.5 -9h-295zM540 -9q42 0 65.5 8.5t41.5 26.5q42 36 42 127q0 77 -35.5 115.5t-113.5 38.5h-240v-316h240z" />
    <glyph glyph-name="uni042D" unicode="&#x42d;" 
d="M310 303q42 34 68 47.5t52 13.5q18 0 44 -9t54 -25q23 -14 44 -21.5t35 -7.5q15 0 33 8.5t48 29.5q-5 131 -63.5 203.5t-163.5 72.5q-54 0 -94.5 -17t-69.5 -50q-11 -12 -19 -24.5t-14.5 -27t-12.5 -33t-12 -43.5h-55q8 57 22 93.5t44 70.5q38 44 93 67.5t118 23.5
q47 0 89.5 -14t77.5 -40q52 -39 77 -98q20 -42 30.5 -94.5t10.5 -103.5q0 -209 -88 -304q-39 -42 -94 -64t-119 -22q-63 0 -113.5 21.5t-84.5 63.5q-25 29 -38.5 62.5t-24.5 90.5h55q8 -33 14.5 -51t18.5 -37q28 -45 73.5 -67.5t105.5 -22.5q73 0 128.5 35t80.5 94
q6 15 10 30.5t7.5 34t6.5 42t6 54.5q-33 -27 -52.5 -37.5t-32.5 -10.5q-17 0 -34.5 6.5t-34 15.5t-33 19t-31.5 18q-11 5 -22.5 8.5t-22.5 3.5q-20 0 -40 -13t-52 -45z" />
    <glyph glyph-name="uni042E" unicode="&#x42e;" 
d="M737 92q10 18 18.5 43t15 53t10 58t3.5 57q0 152 -57 232.5t-164 80.5q-46 0 -84.5 -23t-67 -64.5t-44.5 -98t-16 -122.5q0 -69 16 -127t44.5 -100t68.5 -65t88 -23q54 0 97 25.5t72 73.5zM100 -52v715h55v-304h138q6 48 13 76.5t18 56.5q34 88 99 136t146 48
q61 0 111 -26t85 -74t54 -115.5t19 -150.5q0 -87 -18.5 -156.5t-52.5 -118t-83 -75t-109 -26.5q-79 0 -143 48t-102 138q-8 20 -14 39t-10.5 39.5t-7.5 44.5t-5 56h-138v-351h-55z" />
    <glyph glyph-name="uni042F" unicode="&#x42f;" 
d="M647 -65v348h-239q-42 0 -68.5 -9t-42.5 -32.5t-22.5 -64t-8.5 -102.5q-1 -32 -2.5 -53t-3.5 -36t-5.5 -27t-7.5 -24h-68q15 29 20.5 60t6.5 78q1 53 4.5 90.5t12.5 64.5t24.5 46t39.5 34q-51 23 -74 66.5t-23 108.5q0 95 46 144.5t131 49.5h336v-742h-56zM647 620h-267
q-66 0 -99.5 -35.5t-33.5 -98.5q0 -65 36 -105.5t97 -40.5h267v280z" />
    <glyph glyph-name="uni0430" unicode="&#x430;" 
d="M623 -53q-8 14 -9.5 18.5t-3.5 8.5q-1 2 -1.5 13t-5.5 42q-24 -26 -47 -43t-47 -28t-51 -15.5t-59 -4.5q-77 0 -120 40t-43 113q0 85 58 124q26 18 62 29t100 20q20 2 34 4t24.5 4t19 4.5t18.5 5.5q42 15 42 53q0 41 -34.5 65t-94.5 24q-72 0 -111 -29t-45 -83h-60
q3 42 16 70.5t42 51.5q29 21 68.5 34.5t84.5 13.5q100 0 148 -39t48 -117v-269q0 -40 5.5 -61t20.5 -43zM600 258q-13 -12 -25 -20t-25.5 -12.5t-30 -7t-40.5 -4.5q-74 -6 -110.5 -17t-55.5 -33q-14 -16 -19 -30.5t-5 -34.5q0 -47 32 -72t86 -25q94 0 143.5 44t49.5 125v87z
" />
    <glyph glyph-name="uni0431" unicode="&#x431;" 
d="M464 -4q33 0 60 14t46.5 39.5t30 60.5t10.5 77q0 44 -10 80t-28 61.5t-44.5 39.5t-59.5 14t-60.5 -14.5t-46.5 -40t-29.5 -61.5t-10.5 -79q0 -42 10.5 -77t29.5 -60.5t45 -39.5t57 -14zM644 599q-20 -14 -35.5 -19.5t-32.5 -5.5q-9 0 -23.5 1.5t-31.5 4.5q-12 2 -23 7
t-20.5 10t-17.5 9t-14 4q-67 0 -98.5 -65t-35.5 -214h1q29 54 68 79t86 25q45 0 81 -17t61.5 -48.5t39.5 -76.5t14 -100q0 -59 -14 -106.5t-40 -80.5t-63 -51t-82 -18q-48 0 -90.5 25.5t-69.5 72.5q-12 20 -22 49t-17 62.5t-11 70.5t-4 73q0 88 13.5 159.5t38 121.5t59 77
t76.5 27q16 0 24 -4t23 -14q22 -11 44 -17t35 -6q21 0 39 3.5t42 14.5v-53z" />
    <glyph glyph-name="uni0432" unicode="&#x432;" 
d="M313 413v-177h179q22 0 42.5 7.5t36.5 21t25 30.5t9 37q0 37 -29.5 59t-83.5 22h-179zM494 -7q23 0 43.5 6t40.5 13q51 23 51 77q0 46 -44 69q-18 10 -43.5 16t-48.5 6h-180v-187h181zM255 -62v531h241q50 0 80.5 -8.5t51.5 -27.5q16 -17 25.5 -40.5t9.5 -52.5
q0 -43 -22 -74t-70 -48q33 -11 55.5 -23.5t36 -28t19.5 -35t6 -43.5q0 -45 -14 -74.5t-43 -46.5q-12 -9 -24 -14.5t-27.5 -8.5t-35.5 -4t-47 -1z" />
    <glyph glyph-name="uni0433" unicode="&#x433;" 
d="M286 -61v532h345l43 -75l-44 -38l-29 51h-252v-470h-63z" />
    <glyph glyph-name="uni0434" unicode="&#x434;" 
d="M571 -61h-290q-13 -16 -23 -27.5t-19.5 -21t-19.5 -17l-22 -16.5l-32 48q37 27 61.5 58.5t39.5 76.5t21 106t6 147v120h-37v58h399l1 -58h-37v-437l52 -77l-40 -41zM566 413h-222v-128q0 -23 -1 -49t-2.5 -52t-4.5 -49.5t-6 -40.5q-4 -24 -9 -47.5t-16 -54.5h261v421z
" />
    <glyph glyph-name="uni0435" unicode="&#x435;" 
d="M675 105q-12 -44 -28 -72.5t-43 -49.5q-28 -21 -64.5 -32.5t-78.5 -11.5q-53 0 -95.5 18.5t-73 53t-47 84t-16.5 111.5q0 63 17 113t47.5 85t73.5 54t96 19q69 0 122 -37t73 -97q5 -14 8.5 -28t5.5 -30.5t3.5 -36.5t2.5 -47h-388q1 -22 2.5 -38t4 -29.5t6.5 -25t9 -24.5
q20 -42 59.5 -65t91.5 -23q117 0 146 109h66zM620 250q-9 81 -49.5 125t-112.5 44q-71 0 -111.5 -44t-54.5 -124z" />
    <glyph glyph-name="uni0436" unicode="&#x436;" 
d="M659 -61q-13 51 -16 99q-1 20 -2 32.5t-2.5 22t-3.5 17t-6 16.5q-11 24 -31 36.5t-47 12.5h-64v-236h-52v236h-70q-25 0 -45 -13.5t-30 -36.5q-4 -17 -6 -35.5t-4 -53.5q-1 -19 -1.5 -32.5t-2 -24t-3.5 -20t-5 -20.5h-59q10 26 13.5 46.5t5.5 50.5q1 30 2 50t3.5 34.5
t5.5 25t7 19.5q8 21 24 33.5t51 21.5q-29 31 -34 57l-11 38q-2 23 -10 43q-8 17 -23.5 29t-44.5 14v59q40 -4 64 -14.5t38.5 -26t21 -34.5t10.5 -40q1 -11 3 -21t4 -19q2 -11 4.5 -20t7.5 -17q10 -19 28.5 -28.5t55.5 -7.5v228h52v-228q26 0 43.5 4.5t29.5 16.5t19.5 31.5
t13.5 49.5q7 35 16.5 58t24.5 37.5t36.5 21t53.5 9.5v-59q-19 -1 -31.5 -8t-22.5 -20q-4 -7 -6.5 -14.5t-4.5 -15.5t-4.5 -16t-4.5 -18q-6 -23 -9.5 -37t-7.5 -23q-2 -7 -7 -12.5t-14 -16.5q25 -11 41 -23.5t26 -30t14.5 -41t6.5 -56.5q1 -23 2.5 -40t4 -32t6 -28.5
t9.5 -29.5h-63z" />
    <glyph glyph-name="uni0437" unicode="&#x437;" 
d="M425 180v58h51q56 0 92 27.5t36 69.5q0 39 -39 62.5t-108 23.5q-74 0 -115.5 -25t-67.5 -83h-30v90l28 -10q35 45 79 65.5t111 20.5q92 0 146 -38.5t54 -103.5q0 -39 -18.5 -66.5t-69.5 -54.5q65 -18 90 -46.5t25 -79.5q0 -71 -60 -111.5t-164 -40.5q-61 0 -108.5 18
t-78.5 52q-17 22 -26 44t-14 59l56 1q7 -31 15.5 -46.5t27.5 -31.5q20 -17 53 -25.5t75 -8.5q78 0 123.5 23.5t45.5 67.5q0 39 -43.5 64t-114.5 25h-51z" />
    <glyph glyph-name="uni0438" unicode="&#x438;" 
d="M616 -61v423l-2 1l-308 -424h-59v531h57v-439l2 -1l317 440h52v-531h-59z" />
    <glyph glyph-name="uni0439" unicode="&#x439;" 
d="M605 643q-14 -75 -51 -108.5t-92 -33.5q-35 0 -67 14.5t-52 50.5q-4 9 -7.5 16t-6 15.5t-5 19t-5.5 26.5h57q8 -39 30.5 -62.5t54.5 -23.5q33 0 56 23.5t34 62.5h54zM616 -64v423l-1 1l-310 -424h-58v531h57v-440l1 -1l319 441h51v-531h-59z" />
    <glyph glyph-name="uni043A" unicode="&#x43a;" 
d="M611 -59l-106 197q-11 23 -26 32.5t-35 9.5h-122v-239h-56v528h56v-228l105 1q33 2 52 21.5t33 63.5q11 37 15 53t5 22q1 3 1.5 4l1.5 3q7 19 15.5 31.5t23 20.5t36.5 12t55 6v-65q-20 0 -34 -2.5t-26 -9.5q-11 -9 -19 -27.5t-18 -59.5q-6 -21 -10.5 -34.5t-9.5 -23.5
t-11.5 -18t-16.5 -18l156 -280h-65z" />
    <glyph glyph-name="uni043B" unicode="&#x43b;" 
d="M576 -63v482h-211q0 -40 -1 -67.5t-2 -49t-2.5 -39t-2.5 -36.5q-5 -59 -15 -104.5t-26 -81t-39.5 -63t-56.5 -51.5l-30 53q22 16 39 33t29.5 38t21.5 47t15 60q7 29 11 75.5t6 100.5q1 13 1 34.5v50.5h-76v52h463v-52h-70v-482h-54z" />
    <glyph glyph-name="uni043C" unicode="&#x43c;" 
d="M693 -62l-34 436l-2 1l-173 -437h-44l-173 439l-35 -439h-55l41 534h69l174 -451l172 451h75l39 -534h-54z" />
    <glyph glyph-name="uni043D" unicode="&#x43d;" 
d="M618 -63v247h-313v-247h-57v535h57v-226h313v226h58v-535h-58z" />
    <glyph glyph-name="uni043E" unicode="&#x43e;" 
d="M461 -62q-51 0 -94 20.5t-73.5 57t-48 87.5t-17.5 112t17 112t48 87.5t74 57t94 20.5q52 0 95.5 -20t75 -56.5t48.5 -87.5t17 -113t-17 -113t-48.5 -87.5t-75 -56.5t-95.5 -20zM460 -2q39 0 72 16.5t57 46t37.5 69t13.5 85.5t-13 86t-37 69t-57 45.5t-73 16.5
q-39 0 -71.5 -15.5t-55.5 -44t-35.5 -67.5t-12.5 -86t13 -87.5t36 -70t55 -46.5t71 -17z" />
    <glyph glyph-name="uni043F" unicode="&#x43f;" 
d="M570 -61v472h-221v-472h-51v472h-65v59h452v-59h-63v-472h-52z" />
    <glyph glyph-name="uni0440" unicode="&#x440;" 
d="M248 -174v651h55v-78q19 40 63 65t101 25q49 0 88.5 -18.5t67.5 -52.5t43 -82.5t15 -108.5q0 -62 -15 -111t-42.5 -84t-66.5 -53.5t-87 -18.5q-24 0 -48.5 7.5t-47 20.5t-41 30.5t-30.5 37.5v-230h-55zM464 22q36 0 66 14.5t51 41t32.5 63.5t11.5 83q0 94 -43.5 148.5
t-117.5 54.5q-76 0 -118 -54.5t-42 -144.5q0 -95 41.5 -150.5t118.5 -55.5z" />
    <glyph glyph-name="uni0441" unicode="&#x441;" 
d="M681 134q-10 -53 -25.5 -87t-44.5 -59q-28 -25 -65 -37.5t-81 -12.5q-51 0 -93 19.5t-72 55t-46.5 86t-16.5 113.5q0 62 18 114t50 89t76.5 57.5t97.5 20.5q42 0 78 -13t62.5 -37t42 -57.5t17.5 -74.5h-60q-10 56 -49 86t-99 30q-39 0 -71.5 -15.5t-55 -44t-35 -68
t-12.5 -87.5q0 -99 46 -153.5t128 -54.5q65 0 99.5 30.5t48.5 99.5h62z" />
    <glyph glyph-name="uni0442" unicode="&#x442;" 
d="M432 -60v466h-185v63h432v-63h-186v-466h-61z" />
    <glyph glyph-name="uni0443" unicode="&#x443;" 
d="M287 -87q25 -6 36 -7.5t23 -1.5q13 0 22 3t17 13t17 29.5t22 52.5l-191 469h66l159 -393l153 393h68l-201 -499q-18 -47 -31 -74.5t-26.5 -41.5t-29 -18.5t-39.5 -4.5q-15 0 -27 1.5t-38 6.5v72z" />
    <glyph glyph-name="uni0444" unicode="&#x444;" 
d="M432 400q-19 9 -33.5 15.5t-27 10.5t-23.5 5.5t-23 1.5q-35 0 -64 -16.5t-50 -45t-33 -68.5t-12 -86q0 -49 11.5 -89.5t32 -70t50 -45.5t65.5 -16q27 0 49.5 7.5t57.5 27.5v369zM486 32q30 -20 52 -28t48 -8q38 0 70 15.5t54.5 43.5t35 67.5t12.5 86.5q0 69 -13.5 112
t-45.5 72q-43 40 -99 40q-29 0 -52.5 -6.5t-61.5 -24.5v-370zM432 -135v99q-32 -18 -52 -23.5t-45 -5.5q-48 0 -88.5 20.5t-70 57t-46.5 87t-17 109.5q0 61 16.5 113t46.5 89t71 58t89 21q14 0 25 -1t22 -4t22.5 -9t26.5 -15v99h52v-98q36 17 57.5 22.5t48.5 5.5
q50 0 91 -18.5t70 -52.5t45 -82.5t16 -108.5q0 -156 -80 -234q-31 -28 -68.5 -43.5t-77.5 -15.5q-26 0 -47 5t-55 24v-99h-52z" />
    <glyph glyph-name="uni0445" unicode="&#x445;" 
d="M618 -60l-158 217l-161 -217h-75l201 267l-193 261h70l158 -212l152 212h73l-189 -264l198 -264h-76z" />
    <glyph glyph-name="uni0446" unicode="&#x446;" 
d="M646 -139l-58 80h-373v60h65v469h57v-469h246v469h58v-492l49 -77z" />
    <glyph glyph-name="uni0447" unicode="&#x447;" 
d="M593 -60v236q-38 -33 -76.5 -48t-84.5 -15q-106 0 -155 50t-49 154v153h57v-165q0 -67 32.5 -97.5t101.5 -30.5q83 0 128.5 28.5t45.5 82.5v182h59v-530h-59z" />
    <glyph glyph-name="uni0448" unicode="&#x448;" 
d="M168 -63v63h59v474h58v-474h148v474h57v-474h147v474h57v-474h58v-63h-584z" />
    <glyph glyph-name="uni0449" unicode="&#x449;" 
d="M695 -139l-50 80h-485v64h68v466h59v-466h146v466h58v-466h149v466h57v-495l44 -82z" />
    <glyph glyph-name="uni044A" unicode="&#x44a;" 
d="M538 -2q51 0 79 29t28 77q0 51 -28 83t-75 32h-153v-221h149zM337 -60v478h-147v54h199v-195h150q78 0 121 -43t43 -125q0 -81 -42 -125t-111 -44h-213z" />
    <glyph glyph-name="uni044B" unicode="&#x44b;" 
d="M403 -4q54 0 84 30t30 78t-30 79.5t-84 31.5h-137v-219h137zM209 -60v529h57v-198l154 1q74 0 116 -44t42 -122q0 -79 -41.5 -122.5t-116.5 -43.5h-211zM657 -60v529h56v-529h-56z" />
    <glyph glyph-name="uni044C" unicode="&#x44c;" 
d="M516 -4q57 0 84.5 27.5t27.5 76.5q0 55 -28.5 87t-83.5 32h-189v-223h189zM275 -60v529h52v-195h208q72 0 111 -44.5t39 -125.5q0 -78 -38.5 -121t-111.5 -43h-260z" />
    <glyph glyph-name="uni044D" unicode="&#x44d;" 
d="M344 228q20 29 43 42.5t44 13.5q14 0 31 -6t46 -23q30 -17 45 -24t27 -7q11 0 22 5.5t31 18.5q-5 85 -50 132t-122 47q-52 0 -90 -27.5t-52 -76.5h-54q15 75 67 119t128 44q53 0 95 -18.5t71.5 -53.5t45 -85t15.5 -113q0 -64 -15 -115t-43.5 -87t-69 -55t-90.5 -19
q-79 0 -127 38t-76 123h55q23 -53 57.5 -78t86.5 -25q75 0 119 49t49 146q-29 -17 -40.5 -21t-19.5 -4q-14 0 -29 6.5t-38 26.5q-23 14 -42 22.5t-34 10.5q-36 1 -70 -53z" />
    <glyph glyph-name="uni044E" unicode="&#x44e;" 
d="M594 -9q34 0 63.5 16t51 45.5t34 69.5t12.5 88t-12 86.5t-33 66t-50.5 42.5t-63.5 15q-33 0 -61 -14.5t-48.5 -42t-31.5 -67t-11 -88.5q0 -103 40.5 -160t109.5 -57zM172 -59v529h55v-224h161q7 57 25.5 100.5t46 73.5t63 45.5t76.5 15.5q45 0 82.5 -18.5t65.5 -53.5
t43.5 -84.5t15.5 -110.5q0 -66 -15.5 -118.5t-43.5 -89.5t-66.5 -57t-84.5 -20q-57 0 -105.5 34t-73.5 96q-7 15 -11.5 28.5t-7.5 28.5t-5.5 33.5t-4.5 42.5h-161v-251h-55z" />
    <glyph glyph-name="uni044F" unicode="&#x44f;" 
d="M605 -62v244h-204q-35 0 -60 -12.5t-36 -37.5l-10 -36q-1 -8 -1.5 -12.5t-0.5 -5.5q-2 -24 -2.5 -41t-2 -31.5t-4.5 -30t-9 -37.5h-58q4 12 6.5 22t4.5 21.5t3 26t1 35.5q1 35 5 61.5t13 46t24.5 34.5t39.5 28q-42 9 -63.5 39.5t-21.5 75.5q0 69 34.5 108.5t91.5 39.5
h307v-538h-57zM605 414h-237q-38 0 -61 -22t-23 -67q0 -36 24.5 -57.5t59.5 -21.5h237v168z" />
    <glyph glyph-name="uni0451" unicode="&#x451;" 
d="M531 526q-17 0 -33.5 15t-16.5 38t17 36.5t34 13.5t33.5 -13.5t16.5 -36.5q0 -24 -17 -38.5t-34 -14.5zM377 526q-17 0 -34.5 15t-17.5 38t17.5 36.5t35.5 13.5q16 0 32.5 -13.5t16.5 -36.5q0 -24 -16.5 -38.5t-33.5 -14.5zM672 102q-11 -45 -26.5 -73t-42.5 -49
q-28 -21 -64.5 -32.5t-76.5 -11.5q-52 0 -94.5 18.5t-73 53t-47 83.5t-16.5 110t16.5 111t47.5 85t73.5 54t95.5 19q33 0 63.5 -9.5t56 -27t44 -42t28.5 -53.5q5 -14 9 -28.5t6 -31.5t3.5 -37t1.5 -46h-385q1 -21 2.5 -37t4 -29t6.5 -24.5t9 -23.5q20 -42 60 -64.5t91 -22.5
q59 0 94 25.5t51 82.5h63zM619 245q-18 163 -161 163q-69 0 -110 -41.5t-54 -120.5z" />
    <glyph glyph-name="uni2015" unicode="&#x2015;" 
d="M-14 286v53h950v-53h-950z" />
    <glyph glyph-name="quoteleft" unicode="&#x2018;" horiz-adv-x="309" 
d="M253 777q-19 -14 -40 -38t-29 -50q-6 -21 -2.5 -30t20.5 -9q6 0 13 -1t12 -3q11 -5 20.5 -17t9.5 -32q0 -26 -16.5 -40.5t-39.5 -14.5q-28 0 -48 21.5t-20 55.5q0 28 8.5 56.5t24.5 50.5q15 22 33 39t36 26z" />
    <glyph glyph-name="quoteright" unicode="&#x2019;" horiz-adv-x="309" 
d="M56 535q19 14 40 38t29 50q6 21 2.5 30t-20.5 9q-6 0 -13 1t-12 3q-11 5 -21 17t-10 32q0 26 17 40.5t40 14.5q28 0 48 -21.5t20 -55.5q0 -28 -8.5 -56.5t-24.5 -50.5q-15 -22 -33 -39t-36 -26z" />
    <glyph glyph-name="quotedblleft" unicode="&#x201c;" horiz-adv-x="463" 
d="M413 777q-20 -14 -40.5 -38t-28.5 -50q-6 -21 -2.5 -30t20.5 -9q6 0 12.5 -1t11.5 -3q12 -5 21.5 -17t9.5 -32q0 -26 -17 -40.5t-40 -14.5q-28 0 -47.5 21.5t-19.5 55.5q0 28 8.5 56.5t23.5 50.5q16 22 34 39t35 26zM228 777q-20 -14 -40.5 -38t-28.5 -50
q-7 -21 -3.5 -30t20.5 -9q6 0 13 -1t12 -3q11 -5 21 -17t10 -32q0 -26 -17 -40.5t-40 -14.5q-28 0 -48 21.5t-20 55.5q0 28 8.5 56.5t24.5 50.5t33.5 39t35.5 26z" />
    <glyph glyph-name="quotedblright" unicode="&#x201d;" horiz-adv-x="463" 
d="M50 525q20 14 40.5 38t28.5 50q7 21 3.5 30t-20.5 9q-6 0 -13 1t-12 3q-11 5 -21 17t-10 32q0 26 17 40.5t40 14.5q28 0 48 -21.5t20 -55.5q0 -28 -8.5 -56.5t-24.5 -50.5t-33.5 -39t-35.5 -26zM236 525q20 14 40.5 38t28.5 50q6 21 2.5 30t-20.5 9q-6 0 -12.5 1t-11.5 3
q-12 5 -21.5 17t-9.5 32q0 26 17 40.5t39 14.5q28 0 48 -21.5t20 -55.5q0 -28 -8.5 -56.5t-24.5 -50.5q-15 -22 -33 -39t-36 -26z" />
    <glyph glyph-name="dagger" unicode="&#x2020;" 
d="M435 -155v590h-245v57h245v253h66v-253h242v-57h-242v-590h-66z" />
    <glyph glyph-name="daggerdbl" unicode="&#x2021;" 
d="M436 -154v535h-227v57h227v116h-247v56h246v136h66v-136h250v-56h-250v-116h228v-57h-227v-535h-66z" />
    <glyph glyph-name="twodotenleader" unicode="&#x2025;" 
d="M772 324q0 -29 -19.5 -48t-53.5 -19q-29 0 -49 19t-20 48q0 30 20 48.5t53 18.5q30 0 49.5 -19t19.5 -48zM300 324q0 -29 -20 -48t-53 -19q-30 0 -49.5 19t-19.5 48q0 30 19.5 48.5t53.5 18.5q29 0 49 -19t20 -48z" />
    <glyph glyph-name="ellipsis" unicode="&#x2026;" 
d="M833 329q0 -25 -16 -40.5t-43 -15.5q-25 0 -41.5 15.5t-16.5 40.5q0 26 17 41t45 15q24 0 39.5 -16t15.5 -40zM518 329q0 -25 -16.5 -40.5t-43.5 -15.5q-25 0 -41 15.5t-16 40.5q0 26 16.5 41t44.5 15q24 0 40 -16t16 -40zM205 329q0 -25 -17 -40.5t-46 -15.5
q-24 0 -40 15.5t-16 40.5q0 26 16.5 41t44.5 15q24 0 41 -16t17 -40z" />
    <glyph glyph-name="perthousand" unicode="&#x2030;" 
d="M18 -78l603 764h49l-604 -764h-48zM330 -55q-23 15 -34 40.5t-10.5 56t12 64t35.5 65.5q23 31 52.5 53.5t60 33t59 9t51.5 -17.5q23 -15 34.5 -40.5t11 -56t-12.5 -64t-35 -64.5q-23 -32 -52.5 -54t-60.5 -32.5t-60 -9t-51 16.5zM514 52q18 25 29 50t13.5 47.5t-3.5 40.5
t-21 29q-15 10 -34.5 9t-41 -11.5t-43 -29t-39.5 -43.5q-19 -25 -30 -50.5t-14 -48.5t3 -41.5t22 -28.5q15 -10 34.5 -9t41 11.5t43 29.5t40.5 45zM874 23q-24 -32 -53.5 -54t-60 -32.5t-59.5 -8.5t-52 17t-34 40t-10.5 56t12 64t35.5 65q24 31 53 53.5t59.5 33t59.5 9
t52 -16.5t34.5 -40.5t11 -56t-12.5 -64.5t-35 -65zM851 217q-15 10 -34.5 9t-41 -11t-42.5 -28.5t-39 -43.5q-19 -25 -30.5 -51t-14 -48.5t3.5 -41t21 -28.5t34.5 -9t41 11.5t43 29.5t41.5 45q18 25 29 50t13.5 47.5t-3.5 40.5t-22 28zM313 417q-23 -32 -52.5 -53.5t-60 -32
t-59.5 -9t-51 16.5q-23 15 -34.5 40t-11.5 56t12 64.5t36 65.5q24 31 53 53t59.5 33t59.5 9.5t52 -16.5t34 -40.5t11 -56t-12 -64.5t-36 -66zM274 446q18 25 28.5 50t13 47.5t-3.5 40.5t-22 28q-15 10 -34.5 9t-41 -11t-43 -28.5t-39.5 -43.5t-29 -50.5t-13.5 -48t3.5 -41
t21 -28.5t34.5 -9.5t41 11t43 29.5t41.5 45z" />
    <glyph glyph-name="minute" unicode="&#x2032;" horiz-adv-x="463" 
d="M174 560q-10 -11 -20.5 -6t-5.5 19l70 170q8 17 27 25.5t34 -0.5q17 -9 18.5 -28.5t-9.5 -34.5z" />
    <glyph glyph-name="second" unicode="&#x2033;" horiz-adv-x="463" 
d="M246 541q-10 -12 -20.5 -6.5t-5.5 19.5l73 170q7 17 25 25t32 0q18 -11 20.5 -30t-8.5 -33zM105 560q-5 -6 -10.5 -7t-10 1t-6.5 7.5t1 12.5l71 170q4 8 11 14.5t15 10.5t17 4t16 -5q18 -9 19.5 -28.5t-10.5 -33.5z" />
    <glyph glyph-name="uni203B" unicode="&#x203b;" 
d="M855 320q0 -23 -17 -39t-41 -16q-25 0 -41 15.5t-16 38.5q0 22 15.5 39t41.5 17q23 0 40.5 -16t17.5 -39zM180 320q0 -23 -16 -39t-41 -16q-23 0 -41 15.5t-18 38.5q0 22 17.5 39t41.5 17t40.5 -16t16.5 -39zM518 640q0 -23 -16 -39t-42 -16q-23 0 -41 16t-18 39
q0 22 16.5 38.5t42.5 16.5q23 0 40.5 -16.5t17.5 -38.5zM518 1q0 -23 -16 -39.5t-42 -16.5q-23 0 -41 16t-18 39t16.5 38.5t42.5 15.5q23 0 40.5 -15t17.5 -38zM808 -39l-348 328l-348 -328l-32 29l347 330l-347 330l32 29l348 -328l348 328l31 -29l-346 -330l346 -330z" />
    <glyph glyph-name="uni2074" unicode="&#x2074;" horiz-adv-x="463" 
d="M168 496v54h-144l-1 41l145 194h38v-202h48v-33h-48v-54h-38zM168 732l-111 -149h111v149z" />
    <glyph glyph-name="uni207F" unicode="&#x207f;" horiz-adv-x="463" 
d="M210 485v167q0 18 -1.5 33.5t-8.5 27t-20 18.5t-35 7q-14 0 -29 -7t-28.5 -19.5t-22 -29t-8.5 -34.5v-163h-38v278h36v-43q16 25 43.5 38.5t59.5 13.5q22 0 39 -9.5t28 -24t16.5 -31.5t5.5 -33v-189h-37z" />
    <glyph glyph-name="uni2081" unicode="&#x2081;" horiz-adv-x="463" 
d="M126 -94v223h-71v25q14 0 30 3.5t27 10.5q8 7 14.5 16.5t6.5 21.5h30v-300h-37z" />
    <glyph glyph-name="uni2082" unicode="&#x2082;" horiz-adv-x="463" 
d="M18 -90q0 31 16.5 60t63.5 58l52 32q17 11 29 25.5t12 33.5q0 26 -15.5 40t-44.5 14q-19 0 -31 -5t-19 -13.5t-10 -19t-3 -21.5h-41q0 16 6.5 32t19.5 29.5t32.5 22t46.5 8.5q51 0 76 -26.5t25 -60.5q0 -18 -6 -31t-15.5 -23.5t-20.5 -18t-21 -13.5l-52 -32
q-14 -8 -30.5 -25t-20.5 -32h168v-34h-217z" />
    <glyph glyph-name="uni2083" unicode="&#x2083;" horiz-adv-x="463" 
d="M107 81h25t21 4q35 13 35 45q0 19 -15.5 31t-43.5 12q-35 0 -49.5 -16t-12.5 -35h-40q-1 20 7 36t22.5 26.5t33.5 16t40 5.5q42 0 71 -20.5t29 -54.5q0 -14 -4.5 -25t-11 -19t-13.5 -13t-11 -7q22 -10 35.5 -27.5t13.5 -44.5q0 -38 -29 -65t-79 -27q-25 0 -46 7t-36 19.5
t-23.5 29.5t-6.5 36h42q0 -10 4 -20t12.5 -18.5t21.5 -14t32 -5.5q30 0 48 18t18 42q0 19 -13 31t-31 17q-12 3 -23.5 3h-22.5v33z" />
    <glyph glyph-name="uni2084" unicode="&#x2084;" horiz-adv-x="463" 
d="M168 -84v54h-144l-1 41l145 194h38v-202h48v-33h-48v-54h-38zM168 152l-111 -149h111v149z" />
    <glyph glyph-name="Euro" unicode="&#x20ac;" 
d="M735 -55q-11 -8 -32 -16.5t-46.5 -15t-54 -10.5t-55.5 -4q-70 0 -131 24t-106 72q-55 56 -80 143h-119v59h106q-2 18 -3.5 37.5t-1.5 39.5q0 42 6 80h-97l11 59h98q13 47 33.5 85t47.5 69q47 51 108 78t131 27q27 0 53.5 -4.5t50 -10.5t40.5 -13.5t25 -13.5l-30 -42
q-20 11 -56.5 22t-81.5 11q-60 0 -109 -21t-83 -63q-40 -48 -57 -124h263v-59h-274q-3 -32 -3 -67q0 -48 6 -90h239v-59h-225q19 -60 54 -102q69 -85 199 -85q45 0 84 12t61 24z" />
    <glyph glyph-name="uni2103" unicode="&#x2103;" 
d="M819 108q-9 -33 -29.5 -69.5t-53 -67t-78.5 -51t-107 -20.5q-69 0 -123.5 25.5t-92.5 72t-58 111.5t-20 144q0 78 20 142.5t58 111t92.5 72t123.5 25.5q61 0 108 -20.5t80.5 -50.5t53.5 -65t28 -63h-62q-9 23 -26 49t-42.5 47.5t-60 36t-79.5 14.5q-52 0 -94.5 -22
t-72.5 -61.5t-46.5 -94.5t-16.5 -121q0 -67 16.5 -122.5t46.5 -95t72.5 -61.5t94.5 -22q44 0 79.5 13.5t61.5 36t43 50t25 56.5h59zM273 615q0 -24 -9.5 -45t-26 -36.5t-39 -24.5t-47.5 -9q-26 0 -48.5 9t-39 24.5t-26 36.5t-9.5 45t9.5 45.5t26 37t39 24.5t48.5 9
q25 0 47.5 -9t39 -24.5t26 -37t9.5 -45.5zM227 615q0 32 -20.5 52t-55.5 20t-55.5 -20t-20.5 -52t20.5 -52t55.5 -20t55.5 20t20.5 52z" />
    <glyph glyph-name="uni2109" unicode="&#x2109;" 
d="M397 231v-315h-55v679h454v-47h-399v-267h354v-50h-354zM286 615q0 -24 -9.5 -45t-26 -36.5t-39 -24.5t-48.5 -9t-48 9t-38.5 24.5t-26 36.5t-9.5 45t9.5 45.5t26 37t38.5 24.5t48 9t48.5 -9t39 -24.5t26 -37t9.5 -45.5zM239 615q0 32 -20.5 52t-55.5 20q-34 0 -55 -20
t-21 -52t21 -52t55 -20q35 0 55.5 20t20.5 52z" />
    <glyph glyph-name="uni2113" unicode="&#x2113;" 
d="M648 -8q-18 -41 -47.5 -65.5t-62.5 -32.5q-33 -11 -76 9.5t-81 74.5q-10 -6 -25 -12t-30.5 -11t-29.5 -8.5t-21 -4.5l-20 62q17 2 39 6.5t57 19.5q-35 75 -46 158t-8 174q2 74 17 137t40 109.5t57 73.5t69 29q39 2 67 -24t43.5 -74t19 -115t-6.5 -148
q-20 -130 -63.5 -215t-93.5 -131q25 -38 50 -45.5t46 3.5t34.5 26t27.5 43zM536 355q5 49 7 100.5t-3.5 94t-20 69t-41.5 25.5q-23 -1 -42.5 -26.5t-34.5 -65.5t-24.5 -90t-10.5 -101q-2 -44 0.5 -87t8.5 -82.5t15.5 -73t23.5 -56.5q51 52 82.5 124.5t39.5 168.5z" />
    <glyph glyph-name="uni2116" unicode="&#x2116;" 
d="M361 -40l-284 587v-587h-48v678h55l283 -584v584h47v-678h-53zM640 -40q-44 0 -77.5 17t-57 47.5t-35.5 73t-12 93.5t12 93.5t35.5 73t57 47.5t77.5 17q43 0 77 -17t57 -47.5t35 -73t12 -93.5t-12 -93.5t-35 -73t-57 -47.5t-77 -17zM640 9q66 0 99.5 49t33.5 133
t-33.5 133t-99.5 49q-67 0 -100 -49t-33 -133t33 -133t100 -49zM922 -5q0 -20 -14.5 -34.5t-34.5 -14.5t-34 14.5t-14 34.5t14 34.5t34 14.5t34.5 -14.5t14.5 -34.5z" />
    <glyph glyph-name="uni2121" unicode="&#x2121;" 
d="M215 -40v578h-191v46h437v-46h-189v-578h-57zM818 -39v624h55v-624h-55zM399 153q1 -39 14.5 -68t34.5 -48.5t46 -29t51 -9.5q55 0 84.5 24t42.5 63h65q-11 -27 -26.5 -51.5t-38 -43.5t-54 -30.5t-73.5 -11.5q-48 0 -86 16.5t-64.5 45t-40.5 67t-14 84.5q0 45 14 85.5
t40.5 71t64.5 48.5t86 18q43 0 80.5 -15.5t65.5 -45t44 -72.5t15 -98h-351zM686 199q-8 65 -48.5 101t-92.5 36q-54 0 -93.5 -35.5t-48.5 -101.5h283z" />
    <glyph glyph-name="trademark" unicode="&#x2122;" 
d="M751 286v285l-5 1l-104 -286h-38l-111 278l-4 -1v-277h-46v349h68l111 -274l99 274h77v-349h-47zM218 286v309h-128v40h308v-40h-128v-309h-52z" />
    <glyph glyph-name="Omega" unicode="&#x2126;" 
d="M515 -67q-11 0 -16 6t-7 14v128q0 17 8 30t31 16q74 18 106 80t32 160q0 57 -15.5 103.5t-43.5 80t-68 51.5t-88 18t-88 -18t-68.5 -51.5t-44 -80t-15.5 -103.5q0 -98 32.5 -160t106.5 -80q23 -3 31 -16t8 -30v-128q-2 -8 -7.5 -14t-15.5 -6h-176v61h137v72
q-42 15 -76 41t-59 63.5t-38.5 86.5t-13.5 108q0 65 21 123t59 101.5t91 68.5t116 25t116 -25t91 -68.5t59 -101.5t21 -123q0 -59 -13.5 -108t-38.5 -86.5t-59 -63.5t-76 -41v-72h136v-61h-175z" />
    <glyph glyph-name="uni212B" unicode="&#x212b;" 
d="M532 671q0 31 -20 49.5t-52 18.5t-52.5 -18.5t-20.5 -49.5q0 -32 20.5 -50t52.5 -18t52 18t20 50zM582 671q0 -24 -9.5 -45t-26 -36.5t-39 -24.5t-47.5 -9q-26 0 -48 9t-38.5 24.5t-26 36.5t-9.5 45t9.5 45t26 36t38.5 24t48 9q25 0 47.5 -9t39 -24t26 -36t9.5 -45z
M691 -97l-73 172h-316l-75 -172h-61l269 627h47l270 -627h-61zM459 451l-136 -323l271 1z" />
    <glyph glyph-name="onethird" unicode="&#x2153;" 
d="M206 331v308h-95v45q21 0 41.5 5t36.5 14q11 8 20 22.5t9 32.5h42v-427h-54zM662 71q15 0 35.5 0.5t34.5 6.5q28 12 42 27.5t14 41.5q0 31 -24 52t-65 21q-27 0 -45.5 -7t-29 -19t-15 -27t-3.5 -31l-55 -1q-2 32 10 56.5t32.5 41t48 24.5t58.5 8t58 -9.5t47 -26t31 -38
t11 -46.5q0 -21 -6.5 -36.5t-15.5 -26.5t-19.5 -18.5t-17.5 -11.5q32 -14 52.5 -38t20.5 -59q0 -58 -43.5 -95.5t-116.5 -37.5q-36 0 -66 11t-52 30t-34 45t-11 56l55 -1q-1 -17 5 -34.5t19 -31t33.5 -22t49.5 -8.5q46 0 73 25.5t27 63.5q0 29 -19.5 46.5t-47.5 23.5
q-18 5 -36 3.5t-35 -1.5v43zM44 -122l728 841l37 -29l-725 -841z" />
    <glyph glyph-name="twothirds" unicode="&#x2154;" 
d="M29 331q0 21 8 45t22.5 47t35.5 44t47 36l77 44q28 15 45.5 40t17.5 56q0 39 -23 61.5t-68 22.5q-27 0 -45 -8.5t-29.5 -22t-16.5 -30.5t-5 -35h-54q0 25 9 50t28 45.5t47.5 33.5t66.5 13q37 0 64.5 -10.5t46 -28.5t27.5 -42t9 -51q0 -26 -8.5 -47t-21.5 -37.5t-29 -29
t-32 -22.5q-13 -8 -37.5 -21t-49 -30.5t-43.5 -37t-21 -39.5h242v-46h-310zM66 -122l728 841l37 -29l-725 -841zM662 71q15 0 35.5 0.5t34.5 6.5q28 12 42 27.5t14 41.5q0 31 -24 52t-65 21q-27 0 -45.5 -7t-29 -19t-15 -27t-3.5 -31l-55 -1q-2 32 10 56.5t32.5 41t48 24.5
t58.5 8t58 -9.5t47 -26t31 -38t11 -46.5q0 -21 -6.5 -36.5t-15.5 -26.5t-19.5 -18.5t-17.5 -11.5q32 -14 52.5 -38t20.5 -59q0 -58 -43.5 -95.5t-116.5 -37.5q-36 0 -66 11t-52 30t-34 45t-11 56l55 -1q-1 -17 5 -34.5t19 -31t33.5 -22t49.5 -8.5q46 0 73 25.5t27 63.5
q0 29 -19.5 46.5t-47.5 23.5q-18 5 -36 3.5t-35 -1.5v43z" />
    <glyph glyph-name="oneeighth" unicode="&#x215b;" 
d="M205 328v308h-96v46q23 0 43 4.5t36 14.5q12 8 21 22.5t9 31.5h41v-427h-54zM44 -122l728 841l37 -29l-725 -841zM793 47q34 -18 53.5 -45t19.5 -66q0 -31 -13 -55.5t-36 -42t-54.5 -26.5t-68.5 -9t-68 9.5t-54 26.5t-36 42t-13 55q0 39 19.5 66.5t51.5 41.5
q-25 15 -40 40.5t-15 52.5q0 28 11.5 51t32 38.5t49 24t62.5 8.5q33 0 61.5 -8.5t49 -24t32.5 -38.5t12 -51t-15 -52t-41 -38zM808 -64q0 38 -29.5 63t-84.5 25q-54 0 -83.5 -25t-29.5 -63q0 -36 29.5 -61t83.5 -25q55 0 84.5 25t29.5 61zM791 139q0 30 -23.5 51.5
t-73.5 21.5t-73.5 -21.5t-23.5 -51.5q0 -29 23.5 -50.5t73.5 -21.5t73.5 21.5t23.5 50.5z" />
    <glyph glyph-name="threeeighths" unicode="&#x215c;" 
d="M196 566q14 0 34.5 0.5t33.5 7.5q54 24 54 75q0 31 -23 52t-65 21q-26 0 -43.5 -7t-28 -19t-14.5 -27.5t-3 -31.5l-56 -1q-1 32 11 56.5t32 41t47.5 24.5t57.5 8q31 0 57.5 -9.5t45.5 -26t30 -38t11 -45.5q0 -21 -6.5 -37.5t-15.5 -28.5t-19 -20t-18 -12q32 -15 53 -41
t21 -61q0 -60 -43 -97t-115 -37q-35 0 -65 11t-51 30.5t-32.5 45t-9.5 55.5l54 -1q-2 -17 3.5 -34t18 -31t33 -22.5t48.5 -8.5q46 0 72.5 25t26.5 65q0 28 -19 48t-47 27q-17 4 -35 3t-35 -1v41zM77 -122l726 841l37 -29l-724 -841zM793 47q34 -18 53.5 -45t19.5 -66
q0 -31 -13 -55.5t-36 -42t-54.5 -26.5t-68.5 -9t-68 9.5t-54 26.5t-36 42t-13 55q0 39 19.5 66.5t51.5 41.5q-25 15 -40 40.5t-15 52.5q0 28 11.5 51t32 38.5t49 24t62.5 8.5q33 0 61.5 -8.5t49 -24t32.5 -38.5t12 -51t-15 -52t-41 -38zM808 -64q0 38 -29.5 63t-84.5 25
q-54 0 -83.5 -25t-29.5 -63q0 -36 29.5 -61t83.5 -25q55 0 84.5 25t29.5 61zM791 139q0 30 -23.5 51.5t-73.5 21.5t-73.5 -21.5t-23.5 -51.5q0 -29 23.5 -50.5t73.5 -21.5t73.5 21.5t23.5 50.5z" />
    <glyph glyph-name="fiveeighths" unicode="&#x215d;" 
d="M155 713l-21 -124q23 18 51.5 24t51.5 5q21 -1 45 -9.5t45 -26t34.5 -45t13.5 -66.5q0 -36 -13.5 -64.5t-35.5 -47.5t-50 -29t-57 -10q-36 0 -63.5 10.5t-47 28t-31 40.5t-14.5 47l60 -6q2 -33 27.5 -55.5t73.5 -22.5q19 0 37 7.5t31 21.5t21 32.5t8 41.5q0 45 -26 76.5
t-69 31.5q-36 0 -58.5 -12t-33.5 -32l-60 -3l37 232h247v-45h-203zM66 -122l727 841l37 -29l-725 -841zM793 47q34 -18 53.5 -45t19.5 -66q0 -31 -13 -55.5t-36 -42t-54.5 -26.5t-68.5 -9t-68 9.5t-54 26.5t-36 42t-13 55q0 39 19.5 66.5t51.5 41.5q-25 15 -40 40.5
t-15 52.5q0 28 11.5 51t32 38.5t49 24t62.5 8.5q33 0 61.5 -8.5t49 -24t32.5 -38.5t12 -51t-15 -52t-41 -38zM808 -64q0 38 -29.5 63t-84.5 25q-54 0 -83.5 -25t-29.5 -63q0 -36 29.5 -61t83.5 -25q55 0 84.5 25t29.5 61zM791 139q0 30 -23.5 51.5t-73.5 21.5t-73.5 -21.5
t-23.5 -51.5q0 -29 23.5 -50.5t73.5 -21.5t73.5 21.5t23.5 50.5z" />
    <glyph glyph-name="seveneighths" unicode="&#x215e;" 
d="M793 47q34 -18 53.5 -45t19.5 -66q0 -31 -13 -55.5t-36 -42t-54.5 -26.5t-68.5 -9t-68 9.5t-54 26.5t-36 42t-13 55q0 39 19.5 66.5t51.5 41.5q-25 15 -40 40.5t-15 52.5q0 28 11.5 51t32 38.5t49 24t62.5 8.5q33 0 61.5 -8.5t49 -24t32.5 -38.5t12 -51t-15 -52t-41 -38z
M808 -64q0 38 -29.5 63t-84.5 25q-54 0 -83.5 -25t-29.5 -63q0 -36 29.5 -61t83.5 -25q55 0 84.5 25t29.5 61zM791 139q0 30 -23.5 51.5t-73.5 21.5t-73.5 -21.5t-23.5 -51.5q0 -29 23.5 -50.5t73.5 -21.5t73.5 21.5t23.5 50.5zM66 -121l727 840l37 -29l-725 -840zM147 341
q4 31 18 77.5t44 100.5q30 53 65 98t64 74h-266v45h308v-64q-18 -17 -48.5 -46t-58.5 -82q-29 -54 -45.5 -109.5t-18.5 -93.5h-62z" />
    <glyph glyph-name="uni2160" unicode="&#x2160;" 
d="M429 -68v754h64v-754h-64z" />
    <glyph glyph-name="uni2161" unicode="&#x2161;" 
d="M294 -68v754h62v-754h-62zM562 -68v754h62v-754h-62z" />
    <glyph glyph-name="uni2162" unicode="&#x2162;" 
d="M244 -68v754h62v-754h-62zM615 -68v754h64v-754h-64zM431 -68v754h63v-754h-63z" />
    <glyph glyph-name="uni2163" unicode="&#x2163;" 
d="M151 -68v754h62v-754h-62zM516 -68l-255 754h65l221 -677l222 677h64l-253 -754h-64z" />
    <glyph glyph-name="uni2164" unicode="&#x2164;" 
d="M431 -68l-318 754h64l284 -680l284 680h65l-318 -754h-61z" />
    <glyph glyph-name="uni2165" unicode="&#x2165;" 
d="M719 -68v754h61v-754h-61zM352 -68l-254 754h64l222 -677l221 677h65l-255 -754h-63z" />
    <glyph glyph-name="uni2166" unicode="&#x2166;" 
d="M614 -68v754h64v-754h-64zM275 -68l-223 754h65l190 -674l189 674h66l-224 -754h-63zM770 -68v754h62v-754h-62z" />
    <glyph glyph-name="uni2167" unicode="&#x2167;" 
d="M827 -68v754h63v-754h-63zM537 -68v754h63v-754h-63zM222 -68l-213 754h64l181 -673l180 673h64l-213 -754h-63zM682 -68v754h62v-754h-62z" />
    <glyph glyph-name="uni2168" unicode="&#x2168;" 
d="M789 -68l-247 340l-34 -47l-213 -293h-68l280 388l-262 366h68q2 -3 17.5 -24.5t37.5 -52.5t48.5 -67.5t51 -71t44.5 -62t30 -39.5l228 317h70l-260 -367l133 -187l144 -200h-68zM120 -68v754h61v-754h-61z" />
    <glyph glyph-name="uni2169" unicode="&#x2169;" 
d="M710 -68l-246 340l-33 -47q-53 -74 -105.5 -146.5t-106.5 -146.5h-71l281 388l-263 366h70q2 -3 17.5 -24.5t38 -52.5t48.5 -67.5t50.5 -71t44.5 -62t29 -39.5l230 317h69l-262 -367l280 -387h-71z" />
    <glyph glyph-name="uni2170" unicode="&#x2170;" 
d="M437 -68v558h64v-558h-64zM432 622v69h71v-69h-71z" />
    <glyph glyph-name="uni2171" unicode="&#x2171;" 
d="M305 -68v558h62v-558h-62zM301 623v67h70v-67h-70zM574 -68v558h63v-558h-63zM570 623v67h71v-67h-71z" />
    <glyph glyph-name="uni2172" unicode="&#x2172;" 
d="M253 -68v558h63v-558h-63zM248 623v67h72v-67h-72zM626 -68v558h63v-558h-63zM622 623v67h72v-67h-72zM440 -68v558h63v-558h-63zM436 623v67h71v-67h-71z" />
    <glyph glyph-name="uni2173" unicode="&#x2173;" 
d="M161 -68v558h63v-558h-63zM155 622v69h73v-69h-73zM532 -68l-257 558h68l219 -474l218 474h69l-258 -558h-59z" />
    <glyph glyph-name="uni2174" unicode="&#x2174;" 
d="M441 -70l-257 558h67l220 -474l218 474h69l-258 -558h-59z" />
    <glyph glyph-name="uni2175" unicode="&#x2175;" 
d="M351 -68l-257 558h67l219 -474l220 474h68l-258 -558h-59zM731 -68v558h62v-558h-62zM724 622v69h74v-69h-74z" />
    <glyph glyph-name="uni2176" unicode="&#x2176;" 
d="M279 -68l-226 558h68l188 -472l187 472h69l-226 -558h-60zM615 -68v558h64v-558h-64zM612 623v67h71v-67h-71zM770 -68v558h63v-558h-63zM765 623v67h71v-67h-71z" />
    <glyph glyph-name="uni2177" unicode="&#x2177;" 
d="M218 -68l-217 558h68l178 -470l176 470h69l-216 -558h-58zM536 -68v558h64v-558h-64zM533 623v67h71v-67h-71zM681 -68v558h62v-558h-62zM678 623v67h70v-67h-70zM827 -68v558h63v-558h-63zM823 623v67h70v-67h-70z" />
    <glyph glyph-name="uni2178" unicode="&#x2178;" 
d="M180 -68v558h64v-558h-64zM175 622v69h72v-69h-72zM751 -68l-199 240l-197 -240h-77l236 285l-227 273h77l188 -227l189 227h76l-227 -273l237 -285h-76z" />
    <glyph glyph-name="uni2179" unicode="&#x2179;" 
d="M669 -70l-198 240l-200 -240h-75l237 285l-226 273h76l188 -227l188 227h75l-226 -273l236 -285h-75z" />
    <glyph glyph-name="arrowleft" unicode="&#x2190;" 
d="M241 279l40 -97l-260 118l260 117l-40 -96h658v-42h-658z" />
    <glyph glyph-name="arrowup" unicode="&#x2191;" 
d="M437 -139v643l-91 -39l114 280l114 -280l-91 39v-643h-46z" />
    <glyph glyph-name="arrowright" unicode="&#x2192;" 
d="M600 192l42 87h-627v42h627l-41 87l290 -108z" />
    <glyph glyph-name="arrowdown" unicode="&#x2193;" 
d="M346 135l91 -39v643h46v-643l91 39l-114 -281z" />
    <glyph glyph-name="arrowboth" unicode="&#x2194;" 
d="M637 182l37 98h-427l37 -98l-270 118l270 118l-37 -98h427l-37 98l270 -118z" />
    <glyph glyph-name="arrowupdn" unicode="&#x2195;" 
d="M335 79l103 -37v516l-105 -37l127 235l126 -236l-104 37v-514l104 37l-126 -236z" />
    <glyph glyph-name="uni2196" unicode="&#x2196;" 
d="M854 -104l-640 628l-30 -78l-134 264l279 -126l-82 -29l641 -627z" />
    <glyph glyph-name="uni2197" unicode="&#x2197;" 
d="M719 522l-640 -626q-1 1 -5.5 5t-9.5 9t-10.5 10t-8.5 8l641 627l-82 29l279 126l-133 -265z" />
    <glyph glyph-name="uni2198" unicode="&#x2198;" 
d="M604 26l82 29l-641 627l34 32l640 -628l31 78l133 -264z" />
    <glyph glyph-name="uni2199" unicode="&#x2199;" 
d="M50 -100l134 265l30 -77l640 626l5 -5l9.5 -9.5t11 -10t8.5 -7.5l-641 -627l82 -29z" />
    <glyph glyph-name="arrowdblright" unicode="&#x21d2;" 
d="M630 29l-43 38l123 114h-669v50h722l74 68l-74 68h-722v50h669l-123 114l43 38l287 -270z" />
    <glyph glyph-name="arrowdblboth" unicode="&#x21d4;" 
d="M627 29l-41 38l123 114h-498l124 -114l-43 -38l-289 270l289 270l43 -38l-124 -114h498l-123 114l41 38l289 -270zM761 367h-602l-75 -68l75 -68h602l74 68z" />
    <glyph glyph-name="universal" unicode="&#x2200;" 
d="M424 -67l-295 742h60l83 -204h380l83 202h58l-294 -740h-75zM632 418h-340l169 -426z" />
    <glyph glyph-name="partialdiff" unicode="&#x2202;" horiz-adv-x="463" 
d="M103 595q4 9 10.5 20t13.5 22.5t13.5 20.5t11.5 14q27 29 58 43.5t63 14.5q34 0 63.5 -14.5t51 -41.5t33.5 -65.5t12 -86.5q0 -41 -8.5 -93.5t-23.5 -108.5t-35 -110t-43 -97q-29 -60 -70.5 -89.5t-83.5 -29.5q-36 0 -69.5 16.5t-52.5 42.5q-11 17 -17 40.5t-6 54.5
q0 61 17 112.5t44.5 89t62.5 59.5t72 24q42 2 76 -23t53 -79q10 47 16.5 79t10 54t4.5 38t1 31q0 27 -7 52.5t-20.5 44.5t-33.5 30.5t-46 11.5q-34 0 -65 -31t-51 -76zM266 122q19 33 29.5 70.5t10.5 70.5q0 21 -5.5 42.5t-16.5 39t-27.5 28t-38.5 10.5q-27 0 -50.5 -18
t-42.5 -44q-26 -37 -39.5 -75t-13.5 -85q0 -46 24 -79.5t70 -33.5q32 0 56 20t44 54z" />
    <glyph glyph-name="existential" unicode="&#x2203;" 
d="M251 -55v51h418v274h-404v50h404v291h-432v53h491v-719h-477z" />
    <glyph glyph-name="gradient" unicode="&#x2207;" 
d="M-2 676h925l-463 -768zM845 635h-770l385 -640z" />
    <glyph glyph-name="element" unicode="&#x2208;" 
d="M392 22q-75 0 -134 21t-100 58t-62.5 88t-21.5 111t21.5 110.5t62.5 88t100 58.5t134 21h433v-46h-454q-60 0 -104.5 -20.5t-75 -51t-46.5 -67t-18 -69.5h696v-48h-696q2 -33 18 -69.5t46.5 -67.5t75 -51t104.5 -20h454v-46h-433z" />
    <glyph glyph-name="suchthat" unicode="&#x220b;" 
d="M96 276v48h697q-2 32 -18 68.5t-46.5 67.5t-75.5 51.5t-106 20.5h-452v46h433q75 0 134 -21t100 -58.5t62.5 -88t21.5 -110.5t-21.5 -111t-62.5 -88t-100 -58t-134 -21h-433v46h452q61 0 106 20.5t75.5 51t46.5 67t18 69.5h-697z" />
    <glyph glyph-name="product" unicode="&#x220f;" 
d="M594 -40v619h-252v-619h-59v619h-154v64h682v-64h-156v-619h-61z" />
    <glyph glyph-name="summation" unicode="&#x2211;" 
d="M153 1l15 65l326 299l-197 245l21 69h488l-10 -70h-426l207 -254l-325 -285h458l-16 -69h-541z" />
    <glyph glyph-name="radical" unicode="&#x221a;" 
d="M106 320l-60 -60l-12 21l112 112l136 -345l241 724h352v-34h-323l-283 -829z" />
    <glyph glyph-name="proportional" unicode="&#x221d;" 
d="M481 300q-2 6 -14 29.5t-34.5 50t-55.5 47t-78 20.5q-33 0 -62.5 -11.5t-51 -31.5t-34 -46.5t-12.5 -57.5t12.5 -57.5t34 -46.5t51 -31.5t62.5 -11.5q45 0 78 20.5t55.5 47t34.5 50t14 29.5zM841 140q-30 -18 -56.5 -27t-64.5 -9q-49 0 -86 17t-62.5 39.5t-41 45.5
t-22.5 36q-6 -13 -21.5 -36t-41.5 -45.5t-62.5 -39.5t-83.5 -17q-44 0 -83 15.5t-67.5 42t-45 62t-16.5 76.5q0 40 16.5 76t45 62.5t67.5 42t83 15.5q47 0 83.5 -17t62.5 -39.5t41.5 -46t21.5 -35.5q7 12 23 35.5t42 46t62.5 39.5t84.5 17q37 0 65 -9t55 -27l-27 -38
q-22 14 -42.5 19.5t-50.5 5.5q-50 0 -84 -21t-55.5 -47.5t-32 -50t-12.5 -28.5q2 -5 12.5 -29t32 -50t55.5 -47t84 -21q30 0 51.5 6.5t40.5 18.5z" />
    <glyph glyph-name="infinity" unicode="&#x221e;" 
d="M460 255q-2 -3 -12 -25.5t-32 -48t-58 -46.5t-89 -21q-41 0 -76 14.5t-60.5 40t-40.5 59t-15 72.5t15 72.5t40.5 59t60.5 40t76 14.5q53 0 89 -21t58 -46.5t32 -48t12 -25.5q1 3 11.5 25.5t33 48t58 46.5t87.5 21q41 0 76 -14.5t61 -40t40.5 -59t14.5 -72.5t-14.5 -72.5
t-40.5 -59t-61 -40t-76 -14.5q-52 0 -87.5 21t-58 46.5t-33 48t-11.5 25.5zM425 300q-1 3 -9 25t-26 48t-48 47t-73 21q-30 0 -56 -11t-45 -30t-30 -45t-11 -55t11 -55t30 -45t45 -30t56 -11q43 0 73 21t48 47t26 48t9 25zM494 300q1 -3 9 -25t26 -48t47.5 -47t73.5 -21
q31 0 57 11t45.5 30t30.5 45t11 55t-11 55t-30.5 45t-45.5 30t-57 11q-44 0 -73.5 -21t-47.5 -47t-26 -48t-9 -25z" />
    <glyph glyph-name="angle" unicode="&#x2220;" 
d="M110 -22q-8 0 -15 3t-9 10q-2 6 6.5 15t13.5 15l634 605l36 -33l-599 -571h661v-44h-728z" />
    <glyph glyph-name="uni2225" unicode="&#x2225;" 
d="M547 -180v956h43v-956h-43zM329 -180v956h42v-956h-42z" />
    <glyph glyph-name="logicaland" unicode="&#x2227;" 
d="M775 -52l-315 612l-316 -612l-48 26l336 654q2 5 11 15t17 10q9 0 15.5 -7.5t13.5 -17.5l336 -654z" />
    <glyph glyph-name="logicalor" unicode="&#x2228;" 
d="M96 628l48 26l316 -612l315 612l50 -26l-336 -654q-7 -10 -13.5 -17.5t-15.5 -7.5q-8 0 -17 10t-11 15z" />
    <glyph glyph-name="intersection" unicode="&#x2229;" 
d="M709 -61v443q0 64 -23 109.5t-59 75t-79 43.5t-83 14h-10q-40 0 -83 -14t-78.5 -43.5t-58.5 -75t-23 -109.5v-443h-58v428q0 72 23.5 130.5t64.5 99t97 62.5t121 22t120.5 -22t96.5 -62.5t64.5 -99t23.5 -130.5v-428h-56z" />
    <glyph glyph-name="union" unicode="&#x222a;" 
d="M693 661h59v-428q0 -72 -23.5 -130t-65 -99t-97.5 -63t-121 -22t-121 22t-97 63t-64.5 99t-23.5 130v428h57v-443q0 -64 23 -109.5t58.5 -75t78.5 -43.5t83 -14h12q39 0 81.5 14t78.5 43.5t59 75t23 109.5v443z" />
    <glyph glyph-name="integral" unicode="&#x222b;" 
d="M436 209q0 10 -0.5 16t-0.5 11q-1 5 -1.5 10t-2.5 15q-5 54 -7.5 98t-2.5 86q0 77 13 135t36 89q22 32 55.5 48.5t71.5 16.5q51 0 77.5 -19.5t26.5 -45.5q0 -21 -15 -35.5t-40 -14.5q-46 0 -46 45v22q0 11 -6 19t-20 8q-20 0 -33 -13.5t-26 -37.5q-14 -27 -19 -56t-5 -69
q0 -23 2 -65.5t5 -85.5q4 -48 5.5 -83t1.5 -75q0 -119 -22 -183q-22 -65 -75.5 -102t-122.5 -37q-43 0 -66 18.5t-23 47.5q0 18 14.5 31t37.5 13t36.5 -14t14.5 -40q1 -14 6 -22t20 -8q24 0 45 18t36 47.5t24 66t9 72.5q0 10 -0.5 23.5t-1.5 23.5z" />
    <glyph glyph-name="uni222C" unicode="&#x222c;" 
d="M566 146q2 15 2.5 23t0.5 13l-6 229q-1 29 -1.5 46t-0.5 26v13q-1 47 13 89t38 73.5t55 50t64 18.5q27 0 45 -15.5t18 -36.5q0 -17 -13.5 -29t-34.5 -12q-34 0 -48 35q-6 14 -13 20.5t-10 6.5q-2 0 -8.5 -6.5t-11.5 -17.5l-20 -40q-2 -5 -2.5 -8t-2.5 -9q-4 -18 -6.5 -39
t-2.5 -38l6 -293q0 -78 -12 -137.5t-35 -105.5q-22 -41 -61 -67t-77 -26q-28 0 -44 13.5t-16 33.5q0 17 11.5 27.5t28.5 10.5q14 0 23 -6.5t16 -23.5q5 -14 11.5 -20.5t11.5 -6.5q14 2 24.5 13t18.5 28q11 26 18.5 54.5t15.5 61.5zM332 295l-4 142q-1 39 0.5 67.5t5.5 51
t11 40t16 35.5q24 44 60.5 70t74.5 26q26 0 43 -15.5t17 -36.5q0 -19 -11.5 -30t-31.5 -11q-14 0 -28 9t-21 26q-5 14 -12 20.5t-9 6.5q-4 0 -16.5 -17.5t-20.5 -38.5q-8 -23 -14 -49.5t-5 -51.5l2 -97l6 -168q0 -5 -0.5 -16.5t-0.5 -12.5q0 -78 -12.5 -138t-36.5 -104
q-11 -20 -27 -36.5t-35.5 -29.5t-40 -20t-38.5 -7q-25 0 -40 13.5t-15 32.5q0 17 12 29t27 12t23.5 -7t15.5 -25q5 -15 12 -22t12 -7q13 0 24.5 13.5t18.5 27.5q10 22 18 50.5t13 59t8 62t2 60.5z" />
    <glyph glyph-name="uni222E" unicode="&#x222e;" 
d="M408 -2q7 17 10.5 40.5t5.5 44.5q0 10 1 26t2 44q-59 16 -90 51t-31 87q0 55 35 90.5t103 54.5q6 45 11 72t13 50q22 70 64 108.5t100 38.5q35 0 54.5 -15.5t19.5 -44.5q0 -43 -46 -43q-21 0 -29.5 9.5t-10.5 18.5q-1 4 -1.5 12t-3.5 15.5t-9 12.5t-17 4q-14 -1 -22 -8
t-19 -28q-8 -18 -13 -29t-9 -21.5t-6.5 -24.5t-6.5 -38q-1 -11 -2.5 -34t-7.5 -58q64 -18 93.5 -53t29.5 -88q0 -57 -36 -93.5t-106 -49.5q-5 -64 -12.5 -99t-17.5 -58q-22 -51 -61.5 -76.5t-93.5 -25.5q-41 0 -63.5 14.5t-22.5 42.5q0 21 12.5 34t35.5 13q20 0 33.5 -10.5
t18.5 -28.5q0 -4 0.5 -10.5t2.5 -13t7 -11t14 -4.5q18 0 39 21.5t32 60.5zM488 170q61 18 87 48.5t26 75.5q0 19 -4 34t-14.5 28.5t-30 27t-49.5 28.5q-4 -29 -3.5 -40t-1.5 -13l-5 -87q-3 -32 -4 -46t-1 -22v-34zM429 177q2 70 5 125t8 112q-60 -23 -85 -52t-25 -70
q0 -39 22 -65.5t75 -49.5z" />
    <glyph glyph-name="therefore" unicode="&#x2234;" 
d="M526 530q0 -26 -21 -45.5t-49 -19.5q-29 0 -48 20.5t-19 46.5t21 44.5t47 18.5q28 0 48.5 -19.5t20.5 -45.5zM820 75q0 -26 -20.5 -45t-48.5 -19q-29 0 -48 20t-19 46t21 44.5t47 18.5q28 0 48 -19.5t20 -45.5zM236 75q0 -26 -21.5 -45t-47.5 -19q-29 0 -48.5 20
t-19.5 46q0 13 6 24.5t15.5 20t22 13.5t25.5 5q28 0 48 -19.5t20 -45.5z" />
    <glyph glyph-name="uni2235" unicode="&#x2235;" 
d="M820 533q0 -26 -20 -45.5t-48 -19.5q-26 0 -47 18.5t-21 44.5t19 46.5t48 20.5q28 0 48.5 -19.5t20.5 -45.5zM236 533q0 -26 -20 -45.5t-48 -19.5q-13 0 -25.5 5t-22 13.5t-15.5 20t-6 24.5q0 26 19.5 46.5t48.5 20.5q26 0 47.5 -19.5t21.5 -45.5zM526 78
q0 -26 -20.5 -45t-48.5 -19q-26 0 -47 18t-21 44t19 46.5t48 20.5q28 0 49 -19.5t21 -45.5z" />
    <glyph glyph-name="similar" unicode="&#x223c;" 
d="M597 223q-46 2 -75.5 17.5t-56.5 33.5q-22 15 -44 31t-51 19q-32 6 -55 4t-41 -9.5t-32.5 -18.5t-29.5 -23q-14 -11 -25.5 -22t-21.5 -19q-6 -6 -14 -7t-15 2t-10 8.5t1 13.5q8 16 29 42.5t50.5 51.5t64.5 42.5t72 16.5q47 -2 82 -19.5t64 -37.5q26 -18 53 -32.5
t59 -17.5q33 -2 58.5 5t45.5 19.5t35 28t26 30.5q3 4 10 3.5t13.5 -3.5t10.5 -8t1 -11q-7 -15 -26 -39t-46.5 -47.5t-61.5 -39.5t-70 -14z" />
    <glyph glyph-name="uni223D" unicode="&#x223d;" 
d="M578 192q-1 1 7.5 -3.5t23.5 -10.5t34 -11t40 -5q29 0 54 10t43 27t29 38.5t11 44.5q1 63 -37 105t-104 45q-39 2 -68.5 -11.5t-52 -36t-39 -50t-30.5 -53.5q-9 -17 -27.5 -46.5t-47.5 -57.5t-69.5 -47t-95.5 -16q-36 2 -70.5 15.5t-62 37.5t-44 59t-15.5 81q1 33 15 65
t39.5 56.5t61.5 39.5t80 15q28 0 49.5 -5t37.5 -11.5t25 -12.5t12 -7l-23 -39q1 -1 -7 3t-23 9.5t-34.5 10t-40.5 4.5q-45 0 -75.5 -19.5t-46 -49.5t-16 -65t15 -65.5t47 -52t79.5 -23.5q42 -2 74 17t57 47.5t44.5 62t36.5 60.5q19 30 40 55t47 43t57.5 27.5t71.5 8.5
q36 -1 71 -13.5t62.5 -36.5t44 -60t15.5 -83q-2 -36 -15.5 -68t-39 -56t-61 -38t-80.5 -14q-28 0 -49.5 5t-37.5 11.5t-25 12t-12 7.5z" />
    <glyph glyph-name="uni2252" unicode="&#x2252;" 
d="M103 359v50h714v-50h-714zM103 191v50h714v-50h-714zM317 564q0 -28 -20 -46.5t-50 -18.5q-29 0 -48.5 18.5t-19.5 46.5q0 29 19.5 47.5t48.5 18.5q30 0 50 -18.5t20 -47.5zM742 37q0 -28 -19.5 -47t-48.5 -19q-30 0 -49.5 19t-19.5 47q0 27 19.5 46t49.5 19
q29 0 48.5 -19t19.5 -46z" />
    <glyph glyph-name="notequal" unicode="&#x2260;" 
d="M380 170l-168 -204l-47 36l138 168h-196v53h239l151 185h-390v53h435l145 178l47 -37l-115 -141h191v-53h-235l-152 -185h387v-53h-430z" />
    <glyph glyph-name="equivalence" unicode="&#x2261;" 
d="M107 444v46h706v-46h-706zM106 277v46h707v-46h-707zM106 110v46h707v-46h-707z" />
    <glyph glyph-name="lessequal" unicode="&#x2264;" 
d="M155 429l554 274l25 -50l-433 -223l451 -228l-29 -50zM138 -7v54h650v-54h-650z" />
    <glyph glyph-name="greaterequal" unicode="&#x2265;" 
d="M200 152l-28 50l452 228l-434 223l26 50l554 -274zM138 -7v54h650v-54h-650z" />
    <glyph glyph-name="uni226A" unicode="&#x226a;" 
d="M846 -66q-74 49 -140 93.5t-129 86.5t-125.5 83.5t-129.5 83.5q-16 11 -16 19q0 6 6.5 11.5t14.5 10.5l519 344l28 -38l-500 -328l502 -331zM593 -66q-74 49 -140 93.5t-129.5 86.5t-126 83.5t-129.5 83.5q-7 5 -11 9.5t-4 9.5q0 6 6.5 11.5t14.5 10.5l519 344l29 -38
l-501 -328l503 -331z" />
    <glyph glyph-name="uni226B" unicode="&#x226b;" 
d="M324 -66l-31 35l503 331l-501 328l29 38l518 -344q9 -5 16 -10.5t7 -11.5q0 -5 -3 -8t-7 -6q-8 -6 -13 -8zM71 -66l-31 35l502 331l-500 328l29 38l518 -344q8 -5 15.5 -10.5t7.5 -11.5q0 -7 -12 -14q-1 -2 -4 -4t-8 -5z" />
    <glyph glyph-name="propersubset" unicode="&#x2282;" 
d="M381 16v-1q-72 0 -130.5 21.5t-100 59.5t-63.5 90t-22 114q0 61 22.5 113t64.5 90.5t102.5 60t136.5 21.5h442v-54h-466q-62 0 -107.5 -22t-75.5 -55.5t-44.5 -73t-14.5 -75.5v-10q0 -36 14.5 -75.5t44 -73t75 -55t108.5 -21.5h466v-54h-452z" />
    <glyph glyph-name="propersuperset" unicode="&#x2283;" 
d="M86 15v54h466q63 0 108.5 22t75.5 55t44.5 73t14.5 76v10q0 36 -14.5 75.5t-44.5 72.5t-75.5 55t-108.5 22h-466v55h443q76 0 136.5 -21.5t102.5 -60t64 -90.5t22 -113q0 -62 -22 -114t-64 -89.5t-102.5 -59t-136.5 -21.5z" />
    <glyph glyph-name="reflexsubset" unicode="&#x2286;" 
d="M381 135v-1q-80 0 -139 18.5t-98.5 51.5t-59 78t-19.5 97t20 97t60.5 78t101.5 52t144 19h442v-55h-466q-64 0 -110 -17t-75.5 -44.5t-43.5 -61.5t-14 -68q0 -35 14 -69t43.5 -61t75.5 -43.5t110 -16.5h466v-54h-452zM65 -25v56h789v-56h-789z" />
    <glyph glyph-name="reflexsuperset" unicode="&#x2287;" 
d="M86 134v54h466q64 0 110 17t76 44t44 61t14 69q0 34 -14 68t-44 61t-76 44t-110 17h-466v56h443q83 0 144 -19t101.5 -52t60 -78t19.5 -97t-19.5 -96.5t-59.5 -77.5t-101 -51.5t-145 -18.5zM65 -25v56h789v-56h-789z" />
    <glyph glyph-name="uni2299" unicode="&#x2299;" 
d="M894 299q0 -89 -32.5 -164t-90 -130t-136.5 -86t-171 -31q-95 0 -175.5 31.5t-139 86.5t-92 130t-33.5 163q0 87 33.5 161.5t93 129.5t140 86t174.5 31q92 0 170.5 -31t136 -85.5t90 -129.5t32.5 -162zM851 296q0 78 -31.5 146.5t-85.5 119.5t-126 80.5t-153 29.5
q-78 0 -148 -30t-122.5 -81.5t-83 -120t-30.5 -144.5q0 -77 31 -144.5t84 -118.5t124.5 -80.5t151.5 -29.5t151 29.5t124 80.5t83.5 118.5t30.5 144.5zM665 300q0 -42 -15 -77t-42 -60t-64.5 -39t-82.5 -14t-82.5 14t-64.5 38.5t-42 59.5t-15 77t15 76.5t42 59t64.5 38
t82.5 13.5q46 0 83.5 -13.5t64.5 -38t41.5 -58.5t14.5 -76z" />
    <glyph glyph-name="perpendicular" unicode="&#x22a5;" 
d="M106 -13v43h323v566h63v-566h322v-43h-708z" />
    <glyph glyph-name="uni2312" unicode="&#x2312;" 
d="M765 563q-9 42 -38 76t-71 59t-94 38.5t-109 13.5t-109.5 -13.5t-94 -38t-70.5 -59t-39 -76.5h-54q10 47 42 87.5t80.5 70.5t111 47t133.5 17t133.5 -17t111 -47t80 -70.5t41.5 -87.5h-54z" />
    <glyph glyph-name="uni2460" unicode="&#x2460;" 
d="M441 45v392h-90v35q13 1 28 2.5t29.5 9.5t26.5 24.5t21 48.5h33v-512h-48zM905 300q0 -91 -35 -171t-95.5 -140t-141.5 -94.5t-173 -34.5t-173 34.5t-141 94.5t-95 140t-35 171t35 171t95 140t141 94.5t173 34.5t173 -34.5t141.5 -94.5t95.5 -140t35 -171zM867 300
q0 84 -32 158t-87 129.5t-129.5 87.5t-158.5 32t-158 -32t-129 -87.5t-87 -129.5t-32 -158t32 -158t87 -129.5t129 -87.5t158 -32t158.5 32t129.5 87.5t87 129.5t32 158z" />
    <glyph glyph-name="uni2461" unicode="&#x2461;" 
d="M293 45q4 48 15.5 78.5t28 50.5t36.5 34.5t42 31.5q23 18 51 32t53 32.5t41.5 45.5t16.5 71q0 36 -8.5 57.5t-22.5 33t-32.5 15t-37.5 3.5q-40 0 -62.5 -16t-33.5 -38t-13.5 -45t-3.5 -36h-54q7 94 51.5 134.5t117.5 40.5q17 0 42.5 -4.5t49.5 -20t41.5 -46t17.5 -81.5
q0 -28 -6 -50.5t-21 -43t-40 -40.5t-63 -43q-46 -30 -73 -52.5t-41.5 -41t-20 -35t-8.5 -32.5h272v-35h-335zM905 300q0 -91 -35 -171t-95.5 -140t-141.5 -94.5t-173 -34.5t-173 34.5t-141 94.5t-95 140t-35 171t35 171t95 140t141 94.5t173 34.5t173 -34.5t141.5 -94.5
t95.5 -140t35 -171zM867 300q0 84 -32 158t-87 129.5t-129.5 87.5t-158.5 32t-158 -32t-129 -87.5t-87 -129.5t-32 -158t32 -158t87 -129.5t129 -87.5t158 -32t158.5 32t129.5 87.5t87 129.5t32 158z" />
    <glyph glyph-name="uni2462" unicode="&#x2462;" 
d="M424 301v34h13.5t12.5 -1q53 0 83 27t30 74q0 33 -10.5 53t-26 30.5t-32.5 13.5t-29 3q-25 0 -43.5 -9.5t-31 -26t-19.5 -38t-9 -45.5h-50q3 46 18.5 75.5t37.5 47t48 24.5t51 7q32 0 59 -9.5t46.5 -27t30 -41.5t10.5 -53q0 -34 -10.5 -56t-24 -35.5t-27 -19.5t-20.5 -8
q9 -2 25.5 -7.5t32 -19t27 -37t11.5 -62.5t-13 -69.5t-36 -51.5t-53.5 -31.5t-66.5 -10.5q-24 0 -51.5 4.5t-52 21t-42 50t-20.5 92.5h51q1 -14 3.5 -36t14 -44t34.5 -37.5t64 -15.5q15 0 35 3.5t38.5 16.5t31.5 38t13 68q0 57 -30 83t-84 26h-39zM905 300q0 -91 -35 -171
t-95.5 -140t-141.5 -94.5t-173 -34.5t-173 34.5t-141 94.5t-95 140t-35 171t35 171t95 140t141 94.5t173 34.5t173 -34.5t141.5 -94.5t95.5 -140t35 -171zM867 300q0 84 -32 158t-87 129.5t-129.5 87.5t-158.5 32t-158 -32t-129 -87.5t-87 -129.5t-32 -158t32 -158
t87 -129.5t129 -87.5t158 -32t158.5 32t129.5 87.5t87 129.5t32 158z" />
    <glyph glyph-name="uni2463" unicode="&#x2463;" 
d="M487 63v128h-218v38q57 87 113 173t112 174h43v-347h64v-38h-64v-128h-50zM486 487q-41 -65 -81.5 -129.5t-82.5 -128.5h164v258zM905 300q0 -91 -35 -171t-95.5 -140t-141.5 -94.5t-173 -34.5t-173 34.5t-141 94.5t-95 140t-35 171t35 171t95 140t141 94.5t173 34.5
t173 -34.5t141.5 -94.5t95.5 -140t35 -171zM867 300q0 84 -32 158t-87 129.5t-129.5 87.5t-158.5 32t-158 -32t-129 -87.5t-87 -129.5t-32 -158t32 -158t87 -129.5t129 -87.5t158 -32t158.5 32t129.5 87.5t87 129.5t32 158z" />
    <glyph glyph-name="uni2464" unicode="&#x2464;" 
d="M346 174q4 -20 10 -39t17.5 -34t29.5 -24.5t46 -9.5q36 0 60 15.5t38.5 38t20.5 48t6 45.5q0 56 -27.5 90t-79.5 34q-2 0 -13 0.5t-26.5 -3.5t-33 -15t-30.5 -34h-52l39 271h255v-37h-206l-25 -175q3 4 9.5 9.5t16.5 10.5t25.5 9t36.5 4q78 0 121 -46t43 -124
q0 -46 -14.5 -79.5t-38.5 -55t-56 -32t-67 -10.5q-53 0 -83 20t-46 45t-21.5 48t-8.5 30h54zM905 300q0 -91 -35 -171t-95.5 -140t-141.5 -94.5t-173 -34.5t-173 34.5t-141 94.5t-95 140t-35 171t35 171t95 140t141 94.5t173 34.5t173 -34.5t141.5 -94.5t95.5 -140t35 -171z
M867 300q0 84 -32 158t-87 129.5t-129.5 87.5t-158.5 32t-158 -32t-129 -87.5t-87 -129.5t-32 -158t32 -158t87 -129.5t129 -87.5t158 -32t158.5 32t129.5 87.5t87 129.5t32 158z" />
    <glyph glyph-name="uni2465" unicode="&#x2465;" 
d="M566 445q-7 48 -32.5 67.5t-59.5 19.5q-30 0 -51 -11t-34.5 -30t-21.5 -42.5t-12 -49.5t-5.5 -51t-1.5 -46q5 9 14 22.5t23.5 26t35.5 21.5t51 9q23 0 50 -8t50.5 -27t39 -52t15.5 -82t-15 -83.5t-38.5 -56t-52.5 -31.5t-56 -10q-86 0 -129.5 68.5t-43.5 187.5
q0 25 2.5 52.5t8 55.5t14.5 53.5t22 45.5q18 28 38 43.5t39 22.5t34.5 8.5t23.5 1.5q19 0 42 -4.5t44 -18t37 -38t21 -64.5h-52zM464 66q18 0 37.5 6.5t35 22.5t25.5 43.5t10 70.5q0 63 -25.5 98.5t-78.5 35.5q-19 0 -38.5 -7t-35.5 -22.5t-26.5 -40.5t-10.5 -61
q0 -21 5 -46t17 -47.5t32.5 -37.5t52.5 -15zM905 300q0 -91 -35 -171t-95.5 -140t-141.5 -94.5t-173 -34.5t-173 34.5t-141 94.5t-95 140t-35 171t35 171t95 140t141 94.5t173 34.5t173 -34.5t141.5 -94.5t95.5 -140t35 -171zM867 300q0 84 -32 158t-87 129.5t-129.5 87.5
t-158.5 32t-158 -32t-129 -87.5t-87 -129.5t-32 -158t32 -158t87 -129.5t129 -87.5t158 -32t158.5 32t129.5 87.5t87 129.5t32 158z" />
    <glyph glyph-name="uni2466" unicode="&#x2466;" 
d="M371 20q4 41 15 94.5t32.5 115t56.5 129t86 137.5h-268v36h325v-36q-74 -99 -113 -179.5t-56.5 -140.5t-20 -99.5t-4.5 -56.5h-53zM905 300q0 -91 -35 -171t-95.5 -140t-141.5 -94.5t-173 -34.5t-173 34.5t-141 94.5t-95 140t-35 171t35 171t95 140t141 94.5t173 34.5
t173 -34.5t141.5 -94.5t95.5 -140t35 -171zM867 300q0 84 -32 158t-87 129.5t-129.5 87.5t-158.5 32t-158 -32t-129 -87.5t-87 -129.5t-32 -158t32 -158t87 -129.5t129 -87.5t158 -32t158.5 32t129.5 87.5t87 129.5t32 158z" />
    <glyph glyph-name="uni2467" unicode="&#x2467;" 
d="M530 323q7 -3 23.5 -11t32.5 -24t28.5 -41.5t12.5 -64.5q0 -33 -11.5 -60.5t-33 -47.5t-52.5 -31.5t-70 -11.5q-41 0 -72 11.5t-52 32t-32 48t-11 59.5q0 43 13.5 69.5t30.5 42t33 21.5t21 8q-35 9 -57 39t-22 76q0 28 9.5 52t28 42t46.5 28.5t64 10.5q72 0 110 -37.5
t38 -95.5q0 -45 -21.5 -75.5t-56.5 -39.5zM460 336q32 0 51 11t28.5 27t12.5 33t3 29q-1 56 -27.5 77.5t-67.5 21.5q-27 0 -45 -8t-29.5 -21.5t-16 -31.5t-4.5 -39q0 -56 27 -77.5t68 -21.5zM460 67q32 0 53.5 10t35 26t19.5 37t6 42q0 56 -31.5 88t-82.5 32q-23 0 -43.5 -7
t-36 -21.5t-25 -37t-9.5 -54.5q0 -21 6.5 -42t20 -37t35 -26t52.5 -10zM905 300q0 -91 -35 -171t-95.5 -140t-141.5 -94.5t-173 -34.5t-173 34.5t-141 94.5t-95 140t-35 171t35 171t95 140t141 94.5t173 34.5t173 -34.5t141.5 -94.5t95.5 -140t35 -171zM867 300
q0 84 -32 158t-87 129.5t-129.5 87.5t-158.5 32t-158 -32t-129 -87.5t-87 -129.5t-32 -158t32 -158t87 -129.5t129 -87.5t158 -32t158.5 32t129.5 87.5t87 129.5t32 158z" />
    <glyph glyph-name="uni2468" unicode="&#x2468;" 
d="M354 157q8 -50 32.5 -69t58.5 -19q45 0 70 23.5t37 58.5t15 75t4 73q-4 -8 -12.5 -21t-23 -25.5t-35.5 -22t-51 -9.5q-24 0 -51.5 8t-51 27t-39 51.5t-15.5 81.5t15 83t38 56t52 32t57 10q86 0 129.5 -67.5t43.5 -187.5q0 -25 -2.5 -53.5t-8 -56t-14 -53t-20.5 -45.5
q-18 -28 -39 -43.5t-40.5 -22.5t-35 -8.5t-22.5 -1.5q-19 0 -42 5t-44 18.5t-37.5 38t-21.5 64.5h54zM450 258q21 0 41.5 7.5t36.5 23.5t26 41t10 59q0 19 -5 44.5t-17 48t-33 38t-54 15.5q-19 0 -38 -6.5t-34.5 -23t-25.5 -43.5t-10 -69q0 -40 9 -66t23.5 -41.5t33 -21.5
t37.5 -6zM905 300q0 -91 -35 -171t-95.5 -140t-141.5 -94.5t-173 -34.5t-173 34.5t-141 94.5t-95 140t-35 171t35 171t95 140t141 94.5t173 34.5t173 -34.5t141.5 -94.5t95.5 -140t35 -171zM867 300q0 84 -32 158t-87 129.5t-129.5 87.5t-158.5 32t-158 -32t-129 -87.5
t-87 -129.5t-32 -158t32 -158t87 -129.5t129 -87.5t158 -32t158.5 32t129.5 87.5t87 129.5t32 158z" />
    <glyph glyph-name="uni2469" unicode="&#x2469;" 
d="M593 40q-49 0 -79.5 23t-48 60t-24 84t-6.5 94q0 48 6.5 94.5t24 83t48 59.5t79.5 23t80.5 -23t50 -60t25.5 -83.5t7 -93.5q0 -48 -7 -95t-25.5 -84t-50 -59.5t-80.5 -22.5zM593 75q34 0 55.5 19.5t33.5 51.5t16.5 72.5t4.5 82.5t-4.5 82t-16.5 71.5t-33.5 51t-55.5 19.5
q-32 0 -52.5 -18.5t-33.5 -49.5t-18 -71.5t-5 -84.5q0 -10 0.5 -30.5t3.5 -45.5t9.5 -52t18.5 -48.5t31 -35.5t46 -14zM264 54v378h-86v31q14 2 28 4.5t27 10t24.5 23.5t20.5 46h32v-493h-46zM905 300q0 -91 -35 -171t-95.5 -140t-141.5 -94.5t-173 -34.5t-173 34.5
t-141 94.5t-95 140t-35 171t35 171t95 140t141 94.5t173 34.5t173 -34.5t141.5 -94.5t95.5 -140t35 -171zM867 300q0 84 -32 158t-87 129.5t-129.5 87.5t-158.5 32t-158 -32t-129 -87.5t-87 -129.5t-32 -158t32 -158t87 -129.5t129 -87.5t158 -32t158.5 32t129.5 87.5
t87 129.5t32 158z" />
    <glyph glyph-name="uni246A" unicode="&#x246a;" 
d="M262 54v378h-86v31q12 1 26 3t27.5 10t25.5 24.5t20 46.5h33v-493h-46zM618 54v378h-85v31q12 1 26 3t27.5 10t25 24.5t19.5 46.5h35v-493h-48zM905 300q0 -91 -35 -171t-95.5 -140t-141.5 -94.5t-173 -34.5t-173 34.5t-141 94.5t-95 140t-35 171t35 171t95 140t141 94.5
t173 34.5t173 -34.5t141.5 -94.5t95.5 -140t35 -171zM867 300q0 84 -32 158t-87 129.5t-129.5 87.5t-158.5 32t-158 -32t-129 -87.5t-87 -129.5t-32 -158t32 -158t87 -129.5t129 -87.5t158 -32t158.5 32t129.5 87.5t87 129.5t32 158z" />
    <glyph glyph-name="uni246B" unicode="&#x246b;" 
d="M244 54v378h-87v31q12 1 26 3t27.5 10t25.5 24.5t20 46.5h34v-493h-46zM416 54q4 45 14.5 75t26.5 51t35 36t40 30q23 17 50 30.5t50.5 30.5t39.5 42.5t16 67.5q0 36 -8 57t-21.5 32.5t-30 15t-34.5 3.5q-39 0 -61 -16.5t-33 -39t-14 -44.5t-4 -34h-51q5 91 48.5 130.5
t113.5 39.5q17 0 42 -4.5t48 -20t39.5 -44.5t16.5 -78q0 -28 -6 -49.5t-20 -41t-38 -38.5t-61 -41q-45 -29 -71.5 -51t-40 -40t-19 -33.5t-8.5 -30.5h263v-35h-322zM905 300q0 -91 -35 -171t-95.5 -140t-141.5 -94.5t-173 -34.5t-173 34.5t-141 94.5t-95 140t-35 171t35 171
t95 140t141 94.5t173 34.5t173 -34.5t141.5 -94.5t95.5 -140t35 -171zM867 300q0 84 -32 158t-87 129.5t-129.5 87.5t-158.5 32t-158 -32t-129 -87.5t-87 -129.5t-32 -158t32 -158t87 -129.5t129 -87.5t158 -32t158.5 32t129.5 87.5t87 129.5t32 158z" />
    <glyph glyph-name="uni246C" unicode="&#x246c;" 
d="M244 54v378h-87v31q12 1 26 3t27.5 10t25.5 24.5t20 46.5h34v-493h-46zM542 301v32h11t12 -1q48 0 78.5 25t30.5 72q0 56 -24.5 76t-68.5 20q-25 0 -43 -9t-30.5 -24.5t-19 -36.5t-9.5 -44h-46q3 43 17 71.5t34.5 46t46 25t51.5 7.5q31 0 57 -9.5t44.5 -26.5t28.5 -40.5
t10 -51.5q0 -32 -10 -53.5t-23.5 -34t-26 -18.5t-18.5 -8q8 -2 23.5 -7t30.5 -17.5t26.5 -35.5t11.5 -61t-12.5 -67t-34.5 -49.5t-52 -31t-65 -10.5q-24 0 -50.5 5t-49.5 21.5t-39 49t-19 87.5h47q0 -15 3 -37t14 -42t33 -34.5t61 -14.5q15 0 34.5 4.5t37.5 17t30.5 36.5
t12.5 63q0 55 -28 80t-79 25h-38zM905 300q0 -91 -35 -171t-95.5 -140t-141.5 -94.5t-173 -34.5t-173 34.5t-141 94.5t-95 140t-35 171t35 171t95 140t141 94.5t173 34.5t173 -34.5t141.5 -94.5t95.5 -140t35 -171zM867 300q0 84 -32 158t-87 129.5t-129.5 87.5t-158.5 32
t-158 -32t-129 -87.5t-87 -129.5t-32 -158t32 -158t87 -129.5t129 -87.5t158 -32t158.5 32t129.5 87.5t87 129.5t32 158z" />
    <glyph glyph-name="uni246D" unicode="&#x246d;" 
d="M625 54v123h-209v36q53 84 106.5 167t107.5 167h42v-334h63v-36h-63v-123h-47zM624 462q-40 -63 -79.5 -124.5t-80.5 -124.5h160v249zM244 54v378h-87v31q12 1 26 3t27.5 10t25.5 24.5t20 46.5h34v-493h-46zM905 300q0 -91 -35 -171t-95.5 -140t-141.5 -94.5t-173 -34.5
t-173 34.5t-141 94.5t-95 140t-35 171t35 171t95 140t141 94.5t173 34.5t173 -34.5t141.5 -94.5t95.5 -140t35 -171zM867 300q0 84 -32 158t-87 129.5t-129.5 87.5t-158.5 32t-158 -32t-129 -87.5t-87 -129.5t-32 -158t32 -158t87 -129.5t129 -87.5t158 -32t158.5 32
t129.5 87.5t87 129.5t32 158z" />
    <glyph glyph-name="uni246E" unicode="&#x246e;" 
d="M244 54v378h-87v31q12 1 26 3t27.5 10t25.5 24.5t20 46.5h34v-493h-46zM463 178q4 -16 9.5 -34t16 -33.5t28 -25.5t45.5 -10q35 0 58.5 15t37.5 37t20 47t6 44q0 29 -4.5 51t-17 37t-35 22.5t-57.5 7.5q-7 0 -18 -1.5t-23 -6.5t-25 -14.5t-23 -26.5h-48q9 64 18 129.5
t18 130.5h245v-34h-199q-5 -43 -12 -85.5t-12 -84.5q3 4 9.5 9.5t16.5 10.5t25 8.5t35 3.5q77 0 118 -45t41 -119q0 -43 -14 -75t-37 -53.5t-54.5 -32t-65.5 -10.5q-41 0 -68.5 14.5t-44.5 35.5t-26 45t-14 43h51zM905 300q0 -91 -35 -171t-95.5 -140t-141.5 -94.5
t-173 -34.5t-173 34.5t-141 94.5t-95 140t-35 171t35 171t95 140t141 94.5t173 34.5t173 -34.5t141.5 -94.5t95.5 -140t35 -171zM867 300q0 84 -32 158t-87 129.5t-129.5 87.5t-158.5 32t-158 -32t-129 -87.5t-87 -129.5t-32 -158t32 -158t87 -129.5t129 -87.5t158 -32
t158.5 32t129.5 87.5t87 129.5t32 158z" />
    <glyph glyph-name="uni2474" unicode="&#x2474;" 
d="M439 13v441h-97v38q12 1 27.5 3.5t31.5 11.5t30.5 27.5t23.5 53.5h38v-575h-54zM737 -105q59 85 89 189t30 216q0 111 -29.5 216t-89.5 189h33q21 -26 45 -63.5t44.5 -87t34 -113t13.5 -141.5q0 -75 -14 -138t-34.5 -114t-44.5 -89t-44 -64h-33zM152 -105q-21 26 -45 64
t-44.5 89t-34.5 114t-14 138q0 78 13.5 141.5t34.5 113t45 87t45 63.5h32q-60 -84 -90 -189t-30 -216q0 -112 30 -216t90 -189h-32z" />
    <glyph glyph-name="uni2475" unicode="&#x2475;" 
d="M278 13q4 53 16.5 88t30.5 59.5t40.5 42t45.5 35.5q21 16 51.5 33t59 39t48.5 52t20 74q0 20 -4.5 42.5t-16.5 41.5t-33 31.5t-54 12.5q-44 0 -69 -19.5t-38 -45.5t-16 -52.5t-4 -40.5h-61q3 44 16.5 80.5t36.5 62.5t56.5 40.5t76.5 14.5q18 0 46 -5t55 -22t46 -51.5
t19 -92.5q0 -33 -6.5 -58.5t-22.5 -48t-43 -45t-68 -48.5q-53 -33 -83 -58.5t-45.5 -46.5t-21 -38.5t-9.5 -35.5h299v-41h-368zM737 -105q59 85 89 189t30 216q0 111 -29.5 216t-89.5 189h33q21 -26 45 -63.5t44.5 -87t34 -113t13.5 -141.5q0 -75 -14 -138t-34.5 -114
t-44.5 -89t-44 -64h-33zM152 -105q-21 26 -45 64t-44.5 89t-34.5 114t-14 138q0 78 13.5 141.5t34.5 113t45 87t45 63.5h32q-60 -84 -90 -189t-30 -216q0 -112 30 -216t90 -189h-32z" />
    <glyph glyph-name="uni2476" unicode="&#x2476;" 
d="M459 -3q-45 1 -74.5 12.5t-46.5 26t-25 29t-11 20.5q-17 32 -20.5 58t-5.5 43h55q1 -15 4.5 -40t16.5 -49t38 -41.5t70 -17.5q18 0 40.5 5.5t42 20.5t33 42.5t13.5 71.5q0 65 -32 94t-92 29h-43v37h34q51 0 84 29t33 83q0 56 -24.5 85t-81.5 29q-10 0 -27 -2.5t-35 -15
t-32.5 -40t-18.5 -77.5h-56q3 53 20.5 87t42 53.5t53 27t54.5 7.5q36 0 65.5 -11t50.5 -30.5t32.5 -47t11.5 -59.5q0 -17 -3.5 -38.5t-17.5 -44.5q-17 -26 -34 -35t-34 -15q10 -3 27.5 -9t34.5 -21t30 -42t13 -71t-14 -77.5t-38.5 -57t-58 -36t-72.5 -12.5h-2zM737 -105
q59 85 89 189t30 216q0 111 -29.5 216t-89.5 189h33q21 -26 45 -63.5t44.5 -87t34 -113t13.5 -141.5q0 -75 -14 -138t-34.5 -114t-44.5 -89t-44 -64h-33zM152 -105q-21 26 -45 64t-44.5 89t-34.5 114t-14 138q0 78 13.5 141.5t34.5 113t45 87t45 63.5h32q-60 -84 -90 -189
t-30 -216q0 -112 30 -216t90 -189h-32z" />
    <glyph glyph-name="uni2477" unicode="&#x2477;" 
d="M493 13v144h-239v42q63 97 123.5 194.5t122.5 194.5h49v-389h69v-42h-69v-144h-56zM492 488q-45 -72 -90.5 -143.5t-90.5 -145.5h181v289zM737 -105q59 85 89 189t30 216q0 111 -29.5 216t-89.5 189h33q21 -26 45 -63.5t44.5 -87t34 -113t13.5 -141.5q0 -75 -14 -138
t-34.5 -114t-44.5 -89t-44 -64h-33zM152 -105q-21 26 -45 64t-44.5 89t-34.5 114t-14 138q0 78 13.5 141.5t34.5 113t45 87t45 63.5h32q-60 -84 -90 -189t-30 -216q0 -112 30 -216t90 -189h-32z" />
    <glyph glyph-name="uni2478" unicode="&#x2478;" 
d="M336 158q4 -20 10 -41t18 -38.5t32 -29t52 -11.5q39 0 65.5 17.5t42.5 43t22.5 54t6.5 50.5q0 65 -30.5 102t-87.5 37q-11 0 -25 -2t-29.5 -8t-30 -17.5t-26.5 -31.5h-58l43 305h278v-40h-225q-8 -49 -14.5 -98.5t-14.5 -99.5q4 4 11.5 10.5t19 12.5t28 10.5t39.5 4.5
q87 0 134 -53t47 -138q0 -51 -16 -89t-42.5 -62.5t-61.5 -36.5t-73 -12q-49 0 -79.5 16t-49 40t-29 52t-18.5 53h61zM737 -105q59 85 89 189t30 216q0 111 -29.5 216t-89.5 189h33q21 -26 45 -63.5t44.5 -87t34 -113t13.5 -141.5q0 -75 -14 -138t-34.5 -114t-44.5 -89
t-44 -64h-33zM152 -105q-21 26 -45 64t-44.5 89t-34.5 114t-14 138q0 78 13.5 141.5t34.5 113t45 87t45 63.5h32q-60 -84 -90 -189t-30 -216q0 -112 30 -216t90 -189h-32z" />
    <glyph glyph-name="uni2479" unicode="&#x2479;" 
d="M576 462q-7 54 -34.5 76.5t-64.5 22.5q-49 0 -76.5 -27t-40.5 -67t-16.5 -84.5t-4.5 -79.5q4 8 13.5 23t25.5 29.5t39.5 25.5t56.5 11q24 0 53.5 -8.5t55.5 -30t43.5 -58t17.5 -93.5q0 -56 -16.5 -95t-42.5 -63.5t-57.5 -35.5t-60.5 -11q-94 0 -142.5 76.5t-48.5 211.5
q0 27 2.5 58t8.5 62t16 60.5t24 52.5q19 31 41.5 48.5t43.5 25.5t38 10t26 2q22 0 47.5 -6t48.5 -22t41 -43.5t24 -70.5h-61zM464 38q19 0 40 7t38.5 25t28.5 49t11 79q0 34 -6 61.5t-19.5 47t-35 30.5t-52.5 11q-20 0 -41.5 -7.5t-39.5 -25t-29.5 -45.5t-11.5 -68
q0 -24 5.5 -52.5t19 -53.5t36 -41.5t56.5 -16.5zM737 -105q59 85 89 189t30 216q0 111 -29.5 216t-89.5 189h33q21 -26 45 -63.5t44.5 -87t34 -113t13.5 -141.5q0 -75 -14 -138t-34.5 -114t-44.5 -89t-44 -64h-33zM152 -105q-21 26 -45 64t-44.5 89t-34.5 114t-14 138
q0 78 13.5 141.5t34.5 113t45 87t45 63.5h32q-60 -84 -90 -189t-30 -216q0 -112 30 -216t90 -189h-32z" />
    <glyph glyph-name="uni247A" unicode="&#x247a;" 
d="M375 -7q5 52 18 115t38 132t62 142.5t90 146.5h-293v40h356v-40q-49 -66 -86 -131t-64 -128q-21 -49 -32.5 -87.5t-17.5 -71t-8 -61t-5 -57.5h-58zM737 -105q59 85 89 189t30 216q0 111 -29.5 216t-89.5 189h33q21 -26 45 -63.5t44.5 -87t34 -113t13.5 -141.5
q0 -75 -14 -138t-34.5 -114t-44.5 -89t-44 -64h-33zM152 -105q-21 26 -45 64t-44.5 89t-34.5 114t-14 138q0 78 13.5 141.5t34.5 113t45 87t45 63.5h32q-60 -84 -90 -189t-30 -216q0 -112 30 -216t90 -189h-32z" />
    <glyph glyph-name="uni247B" unicode="&#x247b;" 
d="M381 324q-6 0 -19.5 5t-27.5 19t-25 39.5t-11 66.5q0 30 10 57t30 48t50.5 33t72.5 12q40 0 70 -12t50.5 -32.5t31 -47.5t10.5 -58q0 -18 -4.5 -38t-14.5 -38t-26.5 -32.5t-40.5 -21.5q10 -5 28.5 -12.5t35.5 -24.5t30 -46t13 -75q0 -36 -12.5 -67t-36.5 -53.5t-58 -35.5
t-76 -13q-45 0 -79.5 13.5t-58 36.5t-35.5 53.5t-12 65.5q0 49 14.5 79t33 47t36 23.5t23.5 8.5h-2zM461 341q35 0 55.5 12.5t31 30t13.5 36.5t3 32q0 60 -27.5 86t-75.5 26q-34 0 -54.5 -12t-31.5 -29t-14.5 -37t-3.5 -35q0 -31 8 -52t22 -34t33 -18.5t41 -5.5zM461 38
q33 0 56.5 10.5t38.5 28.5t22 41t7 48q0 66 -35 101t-89 35q-24 0 -47 -7.5t-40 -24t-27.5 -42t-10.5 -62.5q0 -24 6.5 -47t21.5 -41t38.5 -29t58.5 -11zM737 -105q59 85 89 189t30 216q0 111 -29.5 216t-89.5 189h33q21 -26 45 -63.5t44.5 -87t34 -113t13.5 -141.5
q0 -75 -14 -138t-34.5 -114t-44.5 -89t-44 -64h-33zM152 -105q-21 26 -45 64t-44.5 89t-34.5 114t-14 138q0 78 13.5 141.5t34.5 113t45 87t45 63.5h32q-60 -84 -90 -189t-30 -216q0 -112 30 -216t90 -189h-32z" />
    <glyph glyph-name="uni247C" unicode="&#x247c;" 
d="M344 139q8 -54 35.5 -76.5t63.5 -22.5q49 0 76.5 27t41.5 67t17.5 85t4.5 80q-5 -8 -14.5 -23t-25.5 -30t-39.5 -26t-55.5 -11q-26 0 -56 9t-55.5 30.5t-43 58t-17.5 92.5q0 55 16.5 94t42 64t57.5 36t62 11q47 0 82.5 -20t59.5 -57.5t36 -91t12 -119.5q0 -27 -3 -58.5
t-9 -63t-16 -60.5t-24 -51q-19 -31 -41 -48.5t-43 -25.5t-38 -10t-26 -2q-20 0 -45 5t-48 20t-41.5 43t-25.5 74h60zM450 254q23 0 45 8.5t39 26t27.5 45t10.5 65.5q0 22 -5 51t-18 54t-35.5 42.5t-57.5 17.5q-21 0 -42.5 -8t-38.5 -27t-27.5 -49.5t-10.5 -76.5q0 -42 9 -71
t24.5 -46t36 -24.5t43.5 -7.5zM737 -105q59 85 89 189t30 216q0 111 -29.5 216t-89.5 189h33q21 -26 45 -63.5t44.5 -87t34 -113t13.5 -141.5q0 -75 -14 -138t-34.5 -114t-44.5 -89t-44 -64h-33zM152 -105q-21 26 -45 64t-44.5 89t-34.5 114t-14 138q0 78 13.5 141.5
t34.5 113t45 87t45 63.5h32q-60 -84 -90 -189t-30 -216q0 -112 30 -216t90 -189h-32z" />
    <glyph glyph-name="uni247D" unicode="&#x247d;" 
d="M614 8q-54 0 -88.5 25.5t-54 67t-27 94t-7.5 106.5t7.5 107t27 94t54 66.5t88.5 25.5t88.5 -26t54 -67.5t27 -94t7.5 -105.5q0 -55 -7.5 -107.5t-27.5 -94t-54 -66.5t-88 -25zM614 47q36 0 59 21t36.5 56.5t19 81t5.5 95.5q0 48 -5 93.5t-18.5 81t-36.5 57.5t-60 22
q-36 0 -59.5 -21.5t-37 -57t-19 -81t-5.5 -94.5q0 -11 0.5 -34.5t4 -52t10.5 -58t20.5 -54t34.5 -40t51 -15.5zM247 23v425h-94v37q11 1 26.5 3t31 11t29.5 27.5t22 52.5h39v-556h-54zM737 -105q59 85 89 189t30 216q0 111 -29.5 216t-89.5 189h33q21 -26 45 -63.5t44.5 -87
t34 -113t13.5 -141.5q0 -75 -14 -138t-34.5 -114t-44.5 -89t-44 -64h-33zM152 -105q-21 26 -45 64t-44.5 89t-34.5 114t-14 138q0 78 13.5 141.5t34.5 113t45 87t45 63.5h32q-60 -84 -90 -189t-30 -216q0 -112 30 -216t90 -189h-32z" />
    <glyph glyph-name="uni247E" unicode="&#x247e;" 
d="M630 23v426h-94v36q11 1 26.5 3.5t31.5 11.5t30 27.5t22 51.5h37v-556h-53zM247 23v426h-95v36q11 1 26 3.5t31 11.5t30 27.5t22 51.5h38v-556h-52zM737 -105q59 85 89 189t30 216q0 111 -29.5 216t-89.5 189h33q21 -26 45 -63.5t44.5 -87t34 -113t13.5 -141.5
q0 -75 -14 -138t-34.5 -114t-44.5 -89t-44 -64h-33zM152 -105q-21 26 -45 64t-44.5 89t-34.5 114t-14 138q0 78 13.5 141.5t34.5 113t45 87t45 63.5h32q-60 -84 -90 -189t-30 -216q0 -112 30 -216t90 -189h-32z" />
    </font>
</defs>
</svg>
